<?xml version="1.0" encoding="UTF-8" standalone="no"?>
<!-- Created with Inkscape (http://www.inkscape.org/) -->

<svg
   width="50"
   height="50"
   viewBox="0 0 13.229166 13.229167"
   version="1.1"
   id="svg17424"
   xmlns="http://www.w3.org/2000/svg"
   xmlns:svg="http://www.w3.org/2000/svg">
  <defs
     id="defs17421" />
  <path
     d="m 1.7776686,2.2057954 c -0.616241,0 -1.11620999,0.49997 -1.11620999,1.116211 0,0.351141 0.165106,0.681354 0.44648399,0.892969 l 5.060156,3.795116 c 0.2651,0.197663 0.627869,0.197663 0.892969,0 l 5.0601564,-3.795116 c 0.281378,-0.211615 0.446485,-0.541828 0.446485,-0.892969 0,-0.616241 -0.499971,-1.116211 -1.116211,-1.116211 z m -1.11620999,2.604492 v 4.836914 c 0,0.8208796 0.66740099,1.4882806 1.48828099,1.4882806 h 8.9296874 c 0.82088,0 1.488282,-0.667401 1.488282,-1.4882806 v -4.836914 l -5.0601574,3.795117 c -0.5302,0.39765 -1.255737,0.39765 -1.785937,0 z"
     id="path54152"
     style="fill:#e9eaf0;fill-opacity:1;stroke:none;stroke-width:0.0232544" />
</svg>
