<?xml version="1.0" encoding="UTF-8" standalone="no"?>
<!-- Created with Inkscape (http://www.inkscape.org/) -->

<svg
   width="50"
   height="50"
   viewBox="0 0 13.229166 13.229167"
   version="1.1"
   id="svg17424"
   xmlns="http://www.w3.org/2000/svg"
   xmlns:svg="http://www.w3.org/2000/svg">
  <defs
     id="defs17421" />
  <g
     aria-label="?"
     id="text25023"
     style="font-weight:bold;font-size:10.3411px;fill:#e9eaf0;stroke-width:0.869329;stroke-linecap:square;stroke-miterlimit:3.4"
     transform="matrix(1.2276451,0,0,1.2302583,-51.197767,-116.88456)">
    <path
       d="m 49.626852,98.539183 q 0,0.509986 -0.151481,0.903837 -0.146431,0.388801 -0.419097,0.67661 -0.272666,0.28782 -0.656418,0.51504 -0.378702,0.22722 -0.858392,0.41405 v 1.15125 h -1.777376 v -1.70163 q 0.358505,-0.0959 0.646319,-0.19693 0.292863,-0.10099 0.610973,-0.328207 0.297912,-0.201975 0.464541,-0.469591 0.171679,-0.267616 0.171679,-0.605924 0,-0.504936 -0.328209,-0.71701 -0.323159,-0.217122 -0.913935,-0.217122 -0.363554,0 -0.823047,0.15653 -0.454442,0.15653 -0.833145,0.403949 H 44.55729 v -1.540056 q 0.323159,-0.136333 0.994725,-0.282765 0.671565,-0.151481 1.363328,-0.151481 1.247193,0 1.979351,0.550381 0.732158,0.550381 0.732158,1.439069 z m -1.944005,5.680537 h -2.039944 v -1.33303 h 2.039944 z"
       id="path5680" />
  </g>
</svg>
