<?xml version="1.0" encoding="utf-8"?>
<!-- Generator: Adobe Illustrator 27.5.0, SVG Export Plug-In . SVG Version: 6.00 Build 0)  -->
<svg version="1.1" id="Layer_1" xmlns="http://www.w3.org/2000/svg" xmlns:xlink="http://www.w3.org/1999/xlink" x="0px" y="0px"
	 viewBox="0 0 1009.4 392" style="enable-background:new 0 0 1009.4 392;" xml:space="preserve">
<style type="text/css">
	.st0{opacity:0.15;}
	.st1{fill:#31CAFD;}
	.st2{fill:#AAB8F1;}
	.st3{fill:#A2B8FF;}
	.st4{fill:#00CEDE;}
	.st5{fill:#FF0A00;}
	.st6{fill:#BEBEBE;}
	.st7{fill:#8F7F1D;}
	.st8{fill:#A17800;}
	.st9{fill:#FE1600;}
	.st10{fill:#C0BCBC;}
	.st11{fill:#CFB7BE;}
	.st12{fill:#BFBBC9;}
	.st13{fill:url(#);}
	.st14{fill:#5857FF;}
	.st15{fill:#D31159;}
	.st16{fill:#FFAF00;}
	.st17{fill:#A09C9A;}
	.st18{fill:#006CDE;}
	.st19{fill:#6A6B7A;}
	.st20{fill:#D6BD0F;}
	.st21{fill:#A699AB;}
	.st22{fill:#0072BF;}
	.st23{fill:#80674E;}
	.st24{fill:#F2B300;}
	.st25{fill:#4DAAB8;}
	.st26{fill:#007B83;}
	.st27{fill:#D02A2A;}
	.st28{fill:#FFA5AF;}
	.st29{fill:#FFF7EA;}
	.st30{fill:#FFF7EB;}
	.st31{fill:#FFF6F5;}
	.st32{fill:#FCFCFC;}
	.st33{fill:#8B61FF;}
	.st34{fill:#007AFE;}
	.st35{fill:#0081DD;}
	.st36{fill:#65838D;}
	.st37{fill:#00FFB7;}
	.st38{fill:#F0DFA8;}
	.st39{fill:#FFD8C5;}
	.st40{fill:#89F0FF;}
	.st41{fill:#FFF6E9;}
	.st42{fill:none;stroke:#FFAF00;stroke-width:2.8141;stroke-miterlimit:10;}
	.st43{fill:none;stroke:#D31159;stroke-width:2.8141;stroke-miterlimit:10;}
	.st44{fill:none;stroke:#5857FF;stroke-width:2.8141;stroke-miterlimit:10;}
	.st45{fill:none;stroke:#D31159;stroke-width:2.8141;stroke-linecap:round;stroke-miterlimit:10;}
	.st46{fill:none;stroke:#5857FF;stroke-width:2.8141;stroke-linecap:round;stroke-miterlimit:10;}
	.st47{fill:none;stroke:#D31159;stroke-width:2.8141;stroke-linecap:round;stroke-linejoin:round;stroke-miterlimit:10;}
	.st48{fill:none;stroke:#5857FF;stroke-width:2.8141;stroke-linecap:round;stroke-linejoin:round;stroke-miterlimit:10;}
	.st49{stroke:#000000;stroke-width:1.4918;stroke-miterlimit:10;}
	.st50{fill:#FFFFFF;}
	.st51{fill:#BDDCEB;}
	.st52{fill:none;stroke:#FFAF00;stroke-width:2.2565;stroke-miterlimit:10;}
	.st53{fill:none;stroke:#31CAFD;stroke-width:2.5;stroke-miterlimit:10;}
	.st54{fill:none;stroke:#FFAF00;stroke-width:2.5;stroke-miterlimit:10;}
	.st55{fill:none;stroke:#FF0A00;stroke-width:2.5;stroke-miterlimit:10;}
	.st56{fill:none;stroke:#00FFB7;stroke-width:2.5;stroke-miterlimit:10;}
	.st57{fill:none;stroke:#8B61FF;stroke-width:2.5;stroke-miterlimit:10;}
	.st58{fill:none;stroke:#BEBEBE;stroke-width:2.5;stroke-miterlimit:10;}
	.st59{fill:none;stroke:#FF0A00;stroke-width:4.5;stroke-miterlimit:10;}
	.st60{fill:none;stroke:#BEBEBE;stroke-width:4.5;stroke-miterlimit:10;}
	.st61{fill:none;stroke:#000000;stroke-width:2.5;stroke-miterlimit:10;}
	.st62{fill:#413F40;stroke:#003953;stroke-width:5.431579e-02;stroke-miterlimit:10;}
	.st63{fill:none;stroke:#D31159;stroke-width:2;stroke-miterlimit:10;}
	.st64{fill:none;stroke:#5857FF;stroke-width:2;stroke-miterlimit:10;}
	.st65{fill:none;stroke:#D31159;stroke-width:2;stroke-linecap:round;stroke-miterlimit:10;}
	.st66{fill:none;stroke:#5857FF;stroke-width:2;stroke-linecap:round;stroke-miterlimit:10;}
	.st67{fill:none;stroke:#D31159;stroke-width:2;stroke-linecap:round;stroke-linejoin:round;stroke-miterlimit:10;}
	.st68{fill:none;stroke:#5857FF;stroke-width:2;stroke-linecap:round;stroke-linejoin:round;stroke-miterlimit:10;}
	.st69{opacity:0.4;fill:none;stroke:#FFAF00;stroke-width:1.7161;stroke-miterlimit:10;}
	.st70{opacity:0.5;fill:none;stroke:#FFAF00;stroke-width:2;stroke-miterlimit:10;}
	.st71{fill:none;stroke:url(#);stroke-width:2;stroke-miterlimit:10;}
	.st72{fill:none;stroke:url(#);stroke-width:2;stroke-linecap:round;stroke-miterlimit:10;}
	.st73{fill:none;stroke:url(#);stroke-width:2;stroke-linecap:round;stroke-linejoin:round;stroke-miterlimit:10;}
	.st74{opacity:0.25;}
	.st75{fill:none;stroke:#003953;stroke-width:2;stroke-miterlimit:10;}
	.st76{fill:none;stroke:#003953;stroke-width:2;stroke-linecap:round;stroke-miterlimit:10;}
	.st77{fill:none;stroke:url(#);stroke-width:2.8141;stroke-miterlimit:10;}
	.st78{fill:none;stroke:url(#);stroke-width:2.8141;stroke-linecap:round;stroke-miterlimit:10;}
	.st79{fill:none;stroke:url(#);stroke-width:2.8141;stroke-linecap:round;stroke-linejoin:round;stroke-miterlimit:10;}
	.st80{fill:none;stroke:#000000;stroke-width:3;stroke-miterlimit:10;}
	.st81{font-family:'Arial-BoldMT';}
	.st82{font-size:22.2156px;}
	.st83{font-size:22px;}
	.st84{font-size:15px;}
	.st85{fill:none;}
</style>
<g>
	<g>
		<g>
			<path class="st41" d="M994.4,392H850.8c-8.3,0-15.1-6.7-15.1-15.1V15.3c0-8.3,6.7-15.1,15.1-15.1h143.6c8.3,0,15.1,6.7,15.1,15.1
				v361.6C1009.4,385.3,1002.7,392,994.4,392z"/>
			<g>
				<text transform="matrix(1 0 0 1 916.9139 153.0554)" class="st81 st82">?</text>
			</g>
			<g>
				<text transform="matrix(1 0 0 1 916.9139 266.8488)" class="st81 st82">?</text>
			</g>
			<g>
				<text transform="matrix(1 0 0 1 916.9139 357.1865)" class="st81 st82">?</text>
			</g>
		</g>
		<g>
			<text transform="matrix(1 0 0 1 917.5816 34.7957)" class="st81 st83">_</text>
		</g>
	</g>
	<g>
		<g class="st0">
			<path d="M134.6,60.2H15.1C6.7,60.2,0,53.4,0,45.1l0-15.3c0-8.3,6.7-15.1,15.1-15.1h119.6c8.3,0,15.1,6.7,15.1,15.1v15.3
				C149.7,53.4,142.9,60.2,134.6,60.2z"/>
		</g>
		<g class="st0">
			<path d="M134.6,207.5H15.1c-8.3,0-15.1-6.7-15.1-15.1l0-85.7c0-8.3,6.7-15.1,15.1-15.1h119.6c8.3,0,15.1,6.7,15.1,15.1v85.7
				C149.7,200.8,142.9,207.5,134.6,207.5z"/>
		</g>
		<g class="st0">
			<path d="M134.6,309.4H15.1c-8.3,0-15.1-6.7-15.1-15.1l0-62.2c0-8.3,6.7-15.1,15.1-15.1h119.6c8.3,0,15.1,6.7,15.1,15.1v62.2
				C149.7,302.7,142.9,309.4,134.6,309.4z"/>
		</g>
		<g class="st0">
			<path d="M134.6,391.7H15.1C6.7,391.7,0,385,0,376.7l0-42.6c0-8.3,6.7-15.1,15.1-15.1h119.6c8.3,0,15.1,6.7,15.1,15.1v42.6
				C149.7,385,142.9,391.7,134.6,391.7z"/>
		</g>
	</g>
	<g>
		<text transform="matrix(1 0 0 1 64.3726 138.0554)"><tspan x="0" y="0" class="st81 st84">Native</tspan><tspan x="-11.4" y="18" class="st81 st84">CRISPR</tspan><tspan x="5.8" y="36" class="st81 st84">Array</tspan></text>
	</g>
	<g>
		<text transform="matrix(1 0 0 1 49.3871 241.3537)"><tspan x="0" y="0" class="st81 st84">Minimal,</tspan><tspan x="-7.5" y="18" class="st81 st84">Synthetic </tspan><tspan x="-27.5" y="36" class="st81 st84">Multiplexing</tspan><tspan x="10" y="54" class="st81 st84">Design</tspan></text>
	</g>
	<g>
		<path class="st41" d="M815.7,391.7H672.1c-8.3,0-15.1-6.7-15.1-15.1V15.1C657,6.7,663.8,0,672.1,0h143.6c8.3,0,15.1,6.7,15.1,15.1
			v361.6C830.7,385,824,391.7,815.7,391.7z"/>
		<g>
			<g>
				<g>
					<line class="st53" x1="816" y1="279.4" x2="796.6" y2="279.4"/>
				</g>
				<path class="st54" d="M792.8,275.7c0,2,1.7,3.7,3.7,3.7"/>
				<line class="st54" x1="792.8" y1="275.7" x2="792.8" y2="262.8"/>
				<polyline class="st54" points="792.8,249.9 792.8,262.8 792.8,262.8 792.8,275.7 				"/>
				<path class="st54" d="M770.7,279.4c2,0,3.7-1.7,3.7-3.7v-11.3c0,0-1.9-4.3-1.9-6.3c0-3.1,1.6-5.5,4.7-5.5s4.7,2.5,4.7,5.5
					c0,2-1.9,6.3-1.9,6.3v11.3c0,2,1.7,3.7,3.7,3.7h0c2,0,3.7-1.7,3.7-3.7v-12.9v0v-12.9"/>
				<path class="st54" d="M792.8,249.9c0-1.5-1.2-2.7-2.7-2.7h0c-1.5,0-2.7,1.2-2.7,2.7"/>
			</g>
			<g>
				<g>
					<line class="st56" x1="766.5" y1="279.4" x2="747.1" y2="279.4"/>
				</g>
				<path class="st54" d="M743.4,275.7c0,2,1.7,3.7,3.7,3.7"/>
				<line class="st54" x1="743.4" y1="275.7" x2="743.4" y2="262.8"/>
				<polyline class="st54" points="743.4,249.9 743.4,262.8 743.4,262.8 743.4,275.7 				"/>
				<path class="st54" d="M721.2,279.4c2,0,3.7-1.7,3.7-3.7v-11.3c0,0-1.9-4.3-1.9-6.3c0-3.1,1.6-5.5,4.7-5.5c3.1,0,4.7,2.5,4.7,5.5
					c0,2-1.9,6.3-1.9,6.3v11.3c0,2,1.7,3.7,3.7,3.7h0c2,0,3.7-1.7,3.7-3.7v-12.9v0v-12.9"/>
				<path class="st54" d="M743.3,249.9c0-1.5-1.2-2.7-2.7-2.7h0c-1.5,0-2.7,1.2-2.7,2.7"/>
			</g>
			<g>
				<g>
					<line class="st57" x1="717" y1="279.4" x2="697.7" y2="279.4"/>
				</g>
				<path class="st54" d="M693.9,275.7c0,2,1.7,3.7,3.7,3.7"/>
				<line class="st54" x1="693.9" y1="275.7" x2="693.9" y2="262.8"/>
				<polyline class="st54" points="693.9,249.9 693.9,262.8 693.9,262.8 693.9,275.7 				"/>
				<path class="st54" d="M671.8,279.4c2,0,3.7-1.7,3.7-3.7v-11.3c0,0-1.9-4.3-1.9-6.3c0-3.1,1.6-5.5,4.7-5.5c3.1,0,4.7,2.5,4.7,5.5
					c0,2-1.9,6.3-1.9,6.3v11.3c0,2,1.7,3.7,3.7,3.7h0c2,0,3.7-1.7,3.7-3.7v-12.9v0v-12.9"/>
				<path class="st54" d="M693.9,249.9c0-1.5-1.2-2.7-2.7-2.7h0c-1.5,0-2.7,1.2-2.7,2.7"/>
			</g>
		</g>
		<g>
			<g>
				<g>
					<line class="st53" x1="816" y1="371.7" x2="796.6" y2="371.7"/>
				</g>
				<path class="st54" d="M792.8,368c0,2,1.7,3.7,3.7,3.7"/>
				<line class="st54" x1="792.8" y1="368" x2="792.8" y2="355.1"/>
				<polyline class="st54" points="792.8,342.2 792.8,355.1 792.8,355.1 792.8,368 				"/>
				<path class="st54" d="M770.7,371.7c2,0,3.7-1.7,3.7-3.7v-11.3c0,0-1.9-4.3-1.9-6.3c0-3.1,1.6-5.5,4.7-5.5s4.7,2.5,4.7,5.5
					c0,2-1.9,6.3-1.9,6.3V368c0,2,1.7,3.7,3.7,3.7h0c2,0,3.7-1.7,3.7-3.7v-12.9v0v-12.9"/>
				<path class="st54" d="M792.8,342.2c0-1.5-1.2-2.7-2.7-2.7h0c-1.5,0-2.7,1.2-2.7,2.7"/>
			</g>
			<g>
				<g>
					<line class="st56" x1="766.5" y1="371.7" x2="747.1" y2="371.7"/>
				</g>
				<path class="st54" d="M743.4,368c0,2,1.7,3.7,3.7,3.7"/>
				<line class="st54" x1="743.4" y1="368" x2="743.4" y2="355.1"/>
				<polyline class="st54" points="743.4,342.2 743.4,355.1 743.4,355.1 743.4,368 				"/>
				<path class="st54" d="M721.2,371.7c2,0,3.7-1.7,3.7-3.7v-11.3c0,0-1.9-4.3-1.9-6.3c0-3.1,1.6-5.5,4.7-5.5c3.1,0,4.7,2.5,4.7,5.5
					c0,2-1.9,6.3-1.9,6.3V368c0,2,1.7,3.7,3.7,3.7h0c2,0,3.7-1.7,3.7-3.7v-12.9v0v-12.9"/>
				<path class="st54" d="M743.3,342.2c0-1.5-1.2-2.7-2.7-2.7h0c-1.5,0-2.7,1.2-2.7,2.7"/>
			</g>
			<g>
				<g>
					<line class="st57" x1="717" y1="371.7" x2="697.7" y2="371.7"/>
				</g>
				<path class="st54" d="M693.9,368c0,2,1.7,3.7,3.7,3.7"/>
				<line class="st54" x1="693.9" y1="368" x2="693.9" y2="355.1"/>
				<polyline class="st54" points="693.9,342.2 693.9,355.1 693.9,355.1 693.9,368 				"/>
				<path class="st54" d="M671.8,371.7c2,0,3.7-1.7,3.7-3.7v-11.3c0,0-1.9-4.3-1.9-6.3c0-3.1,1.6-5.5,4.7-5.5c3.1,0,4.7,2.5,4.7,5.5
					c0,2-1.9,6.3-1.9,6.3V368c0,2,1.7,3.7,3.7,3.7h0c2,0,3.7-1.7,3.7-3.7v-12.9v0v-12.9"/>
				<path class="st54" d="M693.9,342.2c0-1.5-1.2-2.7-2.7-2.7h0c-1.5,0-2.7,1.2-2.7,2.7"/>
			</g>
		</g>
		<g>
			<g>
				<line class="st57" x1="766.5" y1="165.6" x2="747.1" y2="165.6"/>
			</g>
			<path class="st54" d="M743.4,161.9c0,2,1.7,3.7,3.7,3.7"/>
			<line class="st54" x1="743.4" y1="161.9" x2="743.4" y2="149"/>
			<polyline class="st54" points="743.4,136 743.4,148.9 743.4,149 743.4,161.9 			"/>
			<path class="st54" d="M721.2,165.6c2,0,3.7-1.7,3.7-3.7v-11.3c0,0-1.9-4.3-1.9-6.3c0-3.1,1.6-5.5,4.7-5.5c3.1,0,4.7,2.5,4.7,5.5
				c0,2-1.9,6.3-1.9,6.3v11.3c0,2,1.7,3.7,3.7,3.7h0c2,0,3.7-1.7,3.7-3.7V149v0V136"/>
			<path class="st54" d="M743.3,136c0-1.5-1.2-2.7-2.7-2.7h0c-1.5,0-2.7,1.2-2.7,2.7"/>
		</g>
		<g>
			<text transform="matrix(1 0 0 1 721.0394 75.2424)" class="st81 st84">ωRNA</text>
		</g>
		<g>
			<circle cx="743.9" cy="37.5" r="17.5"/>
			<path class="st50" d="M744.7,45.9v-3.4h-6.8v-2.8l7.3-10.6h2.7v10.6h2.1v2.8h-2.1v3.4H744.7z M744.7,39.7V34l-3.8,5.7H744.7z"/>
		</g>
	</g>
	<g>
		<path class="st41" d="M458.2,391.7H314.7c-8.3,0-15.1-6.7-15.1-15.1V15.1c0-8.3,6.7-15.1,15.1-15.1h143.6
			c8.3,0,15.1,6.7,15.1,15.1v361.6C473.3,385,466.5,391.7,458.2,391.7z"/>
		<g>
			<g>
				<path class="st55" d="M327.3,280.2c2,0,3.7-1.7,3.7-3.7v-11.3c0,0-1.9-4.3-1.9-6.3c0-3.1,1.6-5.5,4.7-5.5s4.7,2.5,4.7,5.5
					c0,2-1.9,6.3-1.9,6.3v11.3c0,2,1.7,3.7,3.7,3.7h0"/>
			</g>
			<g>
				<path class="st55" d="M314.3,280.2c2,0,3.7-1.7,3.7-3.7v-11.3c0,0-1.9-4.3-1.9-6.3c0-3.1,1.6-5.5,4.7-5.5s4.7,2.5,4.7,5.5
					c0,2-1.9,6.3-1.9,6.3v11.3c0,2,1.7,3.7,3.7,3.7h0"/>
			</g>
			<g>
				<g>
					<path class="st54" d="M445.6,280.2c2,0,3.7-1.7,3.7-3.7v-11.3c0,0-1.9-4.3-1.9-6.3c0-3.1,1.6-5.5,4.7-5.5s4.7,2.5,4.7,5.5
						c0,2-1.9,6.3-1.9,6.3v11.3c0,2,1.7,3.7,3.7,3.7h0"/>
				</g>
				<g>
					<g>
						<line class="st57" x1="380.9" y1="280.2" x2="361.5" y2="280.2"/>
					</g>
					<path class="st54" d="M348.6,280.2c2,0,3.7-1.7,3.7-3.7v-11.3c0,0-1.9-4.3-1.9-6.3c0-3.1,1.6-5.5,4.7-5.5
						c3.1,0,4.7,2.5,4.7,5.5c0,2-1.9,6.3-1.9,6.3v11.3c0,2,1.7,3.7,3.7,3.7h0"/>
				</g>
				<g>
					<g>
						<line class="st53" x1="445.6" y1="280.2" x2="426.2" y2="280.2"/>
					</g>
					<path class="st54" d="M413.2,280.2c2,0,3.7-1.7,3.7-3.7v-11.3c0,0-1.9-4.3-1.9-6.3c0-3.1,1.6-5.5,4.7-5.5s4.7,2.5,4.7,5.5
						c0,2-1.9,6.3-1.9,6.3v11.3c0,2,1.7,3.7,3.7,3.7h0"/>
				</g>
				<g>
					<g>
						<line class="st56" x1="413.2" y1="280.2" x2="393.9" y2="280.2"/>
					</g>
					<path class="st54" d="M380.9,280.2c2,0,3.7-1.7,3.7-3.7v-11.3c0,0-1.9-4.3-1.9-6.3c0-3.1,1.6-5.5,4.7-5.5s4.7,2.5,4.7,5.5
						c0,2-1.9,6.3-1.9,6.3v11.3c0,2,1.7,3.7,3.7,3.7h0"/>
				</g>
			</g>
		</g>
		<g>
			<g>
				<g>
					<line class="st53" x1="458.5" y1="371.7" x2="439.1" y2="371.7"/>
				</g>
				<path class="st54" d="M435.4,368c0,2,1.7,3.7,3.7,3.7"/>
				<line class="st54" x1="435.4" y1="368" x2="435.4" y2="355.1"/>
				<polyline class="st54" points="435.4,342.2 435.4,355.1 435.4,355.1 435.4,368 				"/>
				<path class="st55" d="M413.3,371.7c2,0,3.7-1.7,3.7-3.7v-11.3c0,0-1.9-4.3-1.9-6.3c0-3.1,1.6-5.5,4.7-5.5c3.1,0,4.7,2.5,4.7,5.5
					c0,2-1.9,6.3-1.9,6.3V368c0,2,1.7,3.7,3.7,3.7h0c2,0,3.7-1.7,3.7-3.7v-12.9v0v-12.9"/>
			</g>
			<g>
				<g>
					<line class="st56" x1="409.1" y1="371.7" x2="389.7" y2="371.7"/>
				</g>
				<path class="st54" d="M385.9,368c0,2,1.7,3.7,3.7,3.7"/>
				<line class="st54" x1="385.9" y1="368" x2="385.9" y2="355.1"/>
				<polyline class="st54" points="385.9,342.2 385.9,355.1 385.9,355.1 385.9,368 				"/>
				<path class="st55" d="M363.8,371.7c2,0,3.7-1.7,3.7-3.7v-11.3c0,0-1.9-4.3-1.9-6.3c0-3.1,1.6-5.5,4.7-5.5s4.7,2.5,4.7,5.5
					c0,2-1.9,6.3-1.9,6.3V368c0,2,1.7,3.7,3.7,3.7h0c2,0,3.7-1.7,3.7-3.7v-12.9v0v-12.9"/>
			</g>
			<g>
				<g>
					<line class="st57" x1="359.6" y1="371.7" x2="340.2" y2="371.7"/>
				</g>
				<path class="st54" d="M336.5,368c0,2,1.7,3.7,3.7,3.7"/>
				<line class="st54" x1="336.5" y1="368" x2="336.5" y2="355.1"/>
				<polyline class="st54" points="336.5,342.2 336.5,355.1 336.5,355.1 336.5,368 				"/>
				<path class="st55" d="M314.3,371.7c2,0,3.7-1.7,3.7-3.7v-11.3c0,0-1.9-4.3-1.9-6.3c0-3.1,1.6-5.5,4.7-5.5s4.7,2.5,4.7,5.5
					c0,2-1.9,6.3-1.9,6.3V368c0,2,1.7,3.7,3.7,3.7h0c2,0,3.7-1.7,3.7-3.7v-12.9v0v-12.9"/>
			</g>
			<line class="st54" x1="336.5" y1="342.2" x2="336.5" y2="355.1"/>
			<line class="st55" x1="331" y1="355.1" x2="331" y2="342.2"/>
			<path class="st58" d="M336.5,342.2c0-1.5-1.2-2.7-2.7-2.7h0c-1.5,0-2.7,1.2-2.7,2.7"/>
			<path class="st58" d="M385.9,342.2c0-1.5-1.2-2.7-2.7-2.7h0c-1.5,0-2.7,1.2-2.7,2.7"/>
			<path class="st58" d="M435.4,342.2c0-1.5-1.2-2.7-2.7-2.7h0c-1.5,0-2.7,1.2-2.7,2.7"/>
		</g>
		<g>
			<g>
				<g>
					<g>
						<g>
							<line class="st53" x1="458.5" y1="197.1" x2="439.1" y2="197.1"/>
						</g>
						<path class="st54" d="M435.4,193.4c0,2,1.7,3.7,3.7,3.7"/>
						<line class="st54" x1="435.4" y1="193.4" x2="435.4" y2="180.5"/>
						<polyline class="st54" points="435.4,167.5 435.4,180.5 435.4,180.5 435.4,193.4 						"/>
						<path class="st55" d="M413.3,197.1c2,0,3.7-1.7,3.7-3.7v-11.3c0,0-1.9-4.3-1.9-6.3c0-3.1,1.6-5.5,4.7-5.5
							c3.1,0,4.7,2.5,4.7,5.5c0,2-1.9,6.3-1.9,6.3v11.3c0,2,1.7,3.7,3.7,3.7h0c2,0,3.7-1.7,3.7-3.7v-12.9v0v-12.9"/>
					</g>
					<g>
						<g>
							<line class="st56" x1="409.1" y1="197.1" x2="389.7" y2="197.1"/>
						</g>
						<path class="st54" d="M385.9,193.4c0,2,1.7,3.7,3.7,3.7"/>
						<line class="st54" x1="385.9" y1="193.4" x2="385.9" y2="180.5"/>
						<polyline class="st54" points="385.9,167.5 385.9,180.5 385.9,180.5 385.9,193.4 						"/>
						<path class="st55" d="M363.8,197.1c2,0,3.7-1.7,3.7-3.7v-11.3c0,0-1.9-4.3-1.9-6.3c0-3.1,1.6-5.5,4.7-5.5s4.7,2.5,4.7,5.5
							c0,2-1.9,6.3-1.9,6.3v11.3c0,2,1.7,3.7,3.7,3.7h0c2,0,3.7-1.7,3.7-3.7v-12.9v0v-12.9"/>
					</g>
					<g>
						<g>
							<line class="st57" x1="359.6" y1="197.1" x2="340.2" y2="197.1"/>
						</g>
						<path class="st54" d="M336.5,193.4c0,2,1.7,3.7,3.7,3.7"/>
						<line class="st54" x1="336.5" y1="193.4" x2="336.5" y2="180.5"/>
						<polyline class="st54" points="336.5,167.5 336.5,180.5 336.5,180.5 336.5,193.4 						"/>
						<path class="st55" d="M314.3,197.1c2,0,3.7-1.7,3.7-3.7v-11.3c0,0-1.9-4.3-1.9-6.3c0-3.1,1.6-5.5,4.7-5.5s4.7,2.5,4.7,5.5
							c0,2-1.9,6.3-1.9,6.3v11.3c0,2,1.7,3.7,3.7,3.7h0c2,0,3.7-1.7,3.7-3.7v-12.9v0v-12.9"/>
					</g>
				</g>
				<g>
					<g>
						<path class="st55" d="M327.3,128.6c2,0,3.7-1.7,3.7-3.7v-11.3c0,0-1.9-4.3-1.9-6.3c0-3.1,1.6-5.5,4.7-5.5s4.7,2.5,4.7,5.5
							c0,2-1.9,6.3-1.9,6.3v11.3c0,2,1.7,3.7,3.7,3.7h0"/>
					</g>
					<g>
						<path class="st55" d="M314.3,128.6c2,0,3.7-1.7,3.7-3.7v-11.3c0,0-1.9-4.3-1.9-6.3c0-3.1,1.6-5.5,4.7-5.5s4.7,2.5,4.7,5.5
							c0,2-1.9,6.3-1.9,6.3v11.3c0,2,1.7,3.7,3.7,3.7h0"/>
					</g>
					<g>
						<g>
							<path class="st54" d="M445.6,128.6c2,0,3.7-1.7,3.7-3.7v-11.3c0,0-1.9-4.3-1.9-6.3c0-3.1,1.6-5.5,4.7-5.5s4.7,2.5,4.7,5.5
								c0,2-1.9,6.3-1.9,6.3v11.3c0,2,1.7,3.7,3.7,3.7h0"/>
						</g>
						<g>
							<g>
								<line class="st57" x1="380.9" y1="128.6" x2="361.5" y2="128.6"/>
							</g>
							<path class="st54" d="M348.6,128.6c2,0,3.7-1.7,3.7-3.7v-11.3c0,0-1.9-4.3-1.9-6.3c0-3.1,1.6-5.5,4.7-5.5
								c3.1,0,4.7,2.5,4.7,5.5c0,2-1.9,6.3-1.9,6.3v11.3c0,2,1.7,3.7,3.7,3.7h0"/>
						</g>
						<g>
							<g>
								<line class="st53" x1="445.6" y1="128.6" x2="426.2" y2="128.6"/>
							</g>
							<path class="st54" d="M413.2,128.6c2,0,3.7-1.7,3.7-3.7v-11.3c0,0-1.9-4.3-1.9-6.3c0-3.1,1.6-5.5,4.7-5.5s4.7,2.5,4.7,5.5
								c0,2-1.9,6.3-1.9,6.3v11.3c0,2,1.7,3.7,3.7,3.7h0"/>
						</g>
						<g>
							<g>
								<line class="st56" x1="413.2" y1="128.6" x2="393.9" y2="128.6"/>
							</g>
							<path class="st54" d="M380.9,128.6c2,0,3.7-1.7,3.7-3.7v-11.3c0,0-1.9-4.3-1.9-6.3c0-3.1,1.6-5.5,4.7-5.5s4.7,2.5,4.7,5.5
								c0,2-1.9,6.3-1.9,6.3v11.3c0,2,1.7,3.7,3.7,3.7h0"/>
						</g>
					</g>
				</g>
			</g>
			<g>
				<g>
					<line class="st61" x1="386.4" y1="135.2" x2="386.4" y2="152.9"/>
					<g>
						<polygon points="386.4,161.7 381.4,149.2 386.4,152.2 391.5,149.2 						"/>
					</g>
				</g>
			</g>
		</g>
		<g>
			<text transform="matrix(1 0 0 1 341.9431 75.0052)" class="st81 st84">crRNA+tracr</text>
		</g>
		<circle cx="386.4" cy="37.5" r="17.5"/>
		<path class="st50" d="M392.1,42.9v3h-11.2c0.1-1.1,0.5-2.2,1.1-3.2c0.6-1,1.8-2.3,3.6-4c1.4-1.3,2.3-2.3,2.7-2.7
			c0.4-0.7,0.7-1.3,0.7-2c0-0.7-0.2-1.3-0.6-1.6c-0.4-0.4-0.9-0.6-1.6-0.6c-0.7,0-1.2,0.2-1.6,0.6c-0.4,0.4-0.6,1.1-0.7,2l-3.2-0.3
			c0.2-1.8,0.8-3,1.8-3.8c1-0.8,2.3-1.2,3.8-1.2c1.7,0,2.9,0.4,3.9,1.3c0.9,0.9,1.4,2,1.4,3.3c0,0.8-0.1,1.5-0.4,2.2
			c-0.3,0.7-0.7,1.4-1.3,2.1c-0.4,0.5-1.1,1.2-2.1,2.1c-1,0.9-1.7,1.5-1.9,1.8c-0.3,0.3-0.5,0.6-0.7,0.9H392.1z"/>
	</g>
	<g>
		<path class="st41" d="M636.9,391.7H493.4c-8.3,0-15.1-6.7-15.1-15.1V15.1c0-8.3,6.7-15.1,15.1-15.1h143.6
			c8.3,0,15.1,6.7,15.1,15.1v361.6C652,385,645.3,391.7,636.9,391.7z"/>
		<g>
			<g>
				<path class="st54" d="M607.2,280.2c2,0,3.7-1.7,3.7-3.7v-11.3c0,0-1.9-4.3-1.9-6.3c0-3.1,1.6-5.5,4.7-5.5c3.1,0,4.7,2.5,4.7,5.5
					c0,2-1.9,6.3-1.9,6.3v11.3c0,2,1.7,3.7,3.7,3.7h0"/>
			</g>
			<g>
				<g>
					<line class="st57" x1="542.5" y1="280.2" x2="523.1" y2="280.2"/>
				</g>
				<path class="st54" d="M510.2,280.2c2,0,3.7-1.7,3.7-3.7v-11.3c0,0-1.9-4.3-1.9-6.3c0-3.1,1.6-5.5,4.7-5.5c3.1,0,4.7,2.5,4.7,5.5
					c0,2-1.9,6.3-1.9,6.3v11.3c0,2,1.7,3.7,3.7,3.7h0"/>
			</g>
			<g>
				<g>
					<line class="st53" x1="607.2" y1="280.2" x2="587.8" y2="280.2"/>
				</g>
				<path class="st54" d="M574.8,280.2c2,0,3.7-1.7,3.7-3.7v-11.3c0,0-1.9-4.3-1.9-6.3c0-3.1,1.6-5.5,4.7-5.5c3.1,0,4.7,2.5,4.7,5.5
					c0,2-1.9,6.3-1.9,6.3v11.3c0,2,1.7,3.7,3.7,3.7h0"/>
			</g>
			<g>
				<g>
					<line class="st56" x1="574.8" y1="280.2" x2="555.5" y2="280.2"/>
				</g>
				<path class="st54" d="M542.5,280.2c2,0,3.7-1.7,3.7-3.7v-11.3c0,0-1.9-4.3-1.9-6.3c0-3.1,1.6-5.5,4.7-5.5c3.1,0,4.7,2.5,4.7,5.5
					c0,2-1.9,6.3-1.9,6.3v11.3c0,2,1.7,3.7,3.7,3.7h0"/>
			</g>
		</g>
		<g>
			<g>
				<g>
					<line class="st57" x1="539" y1="369" x2="519.6" y2="369"/>
				</g>
				<path class="st54" d="M506.7,369c2,0,3.7-1.7,3.7-3.7V354c0,0-1.9-4.3-1.9-6.3c0-3.1,1.6-5.5,4.7-5.5c3.1,0,4.7,2.5,4.7,5.5
					c0,2-1.9,6.3-1.9,6.3v11.3c0,2,1.7,3.7,3.7,3.7h0"/>
			</g>
			<g>
				<g>
					<line class="st53" x1="623.7" y1="369" x2="604.3" y2="369"/>
				</g>
				<path class="st54" d="M591.3,369c2,0,3.7-1.7,3.7-3.7V354c0,0-1.9-4.3-1.9-6.3c0-3.1,1.6-5.5,4.7-5.5c3.1,0,4.7,2.5,4.7,5.5
					c0,2-1.9,6.3-1.9,6.3v11.3c0,2,1.7,3.7,3.7,3.7h0"/>
			</g>
			<g>
				<g>
					<line class="st56" x1="581.3" y1="369" x2="561.9" y2="369"/>
				</g>
				<path class="st54" d="M549,369c2,0,3.7-1.7,3.7-3.7V354c0,0-1.9-4.3-1.9-6.3c0-3.1,1.6-5.5,4.7-5.5c3.1,0,4.7,2.5,4.7,5.5
					c0,2-1.9,6.3-1.9,6.3v11.3c0,2,1.7,3.7,3.7,3.7h0"/>
			</g>
		</g>
		<g>
			<g>
				<g>
					<g>
						<path class="st54" d="M607.2,128.9c2,0,3.7-1.7,3.7-3.7V114c0,0-1.9-4.3-1.9-6.3c0-3.1,1.6-5.5,4.7-5.5c3.1,0,4.7,2.5,4.7,5.5
							c0,2-1.9,6.3-1.9,6.3v11.3c0,2,1.7,3.7,3.7,3.7h0"/>
					</g>
					<g>
						<g>
							<line class="st57" x1="542.5" y1="128.9" x2="523.1" y2="128.9"/>
						</g>
						<path class="st54" d="M510.2,128.9c2,0,3.7-1.7,3.7-3.7V114c0,0-1.9-4.3-1.9-6.3c0-3.1,1.6-5.5,4.7-5.5c3.1,0,4.7,2.5,4.7,5.5
							c0,2-1.9,6.3-1.9,6.3v11.3c0,2,1.7,3.7,3.7,3.7h0"/>
					</g>
					<g>
						<g>
							<line class="st53" x1="607.2" y1="128.9" x2="587.8" y2="128.9"/>
						</g>
						<path class="st54" d="M574.8,128.9c2,0,3.7-1.7,3.7-3.7V114c0,0-1.9-4.3-1.9-6.3c0-3.1,1.6-5.5,4.7-5.5c3.1,0,4.7,2.5,4.7,5.5
							c0,2-1.9,6.3-1.9,6.3v11.3c0,2,1.7,3.7,3.7,3.7h0"/>
					</g>
					<g>
						<g>
							<line class="st56" x1="574.8" y1="128.9" x2="555.5" y2="128.9"/>
						</g>
						<path class="st54" d="M542.5,128.9c2,0,3.7-1.7,3.7-3.7V114c0,0-1.9-4.3-1.9-6.3c0-3.1,1.6-5.5,4.7-5.5c3.1,0,4.7,2.5,4.7,5.5
							c0,2-1.9,6.3-1.9,6.3v11.3c0,2,1.7,3.7,3.7,3.7h0"/>
					</g>
				</g>
				<g>
					<g>
						<g>
							<line class="st57" x1="539" y1="196.8" x2="519.6" y2="196.8"/>
						</g>
						<path class="st54" d="M506.7,196.8c2,0,3.7-1.7,3.7-3.7v-11.3c0,0-1.9-4.3-1.9-6.3c0-3.1,1.6-5.5,4.7-5.5
							c3.1,0,4.7,2.5,4.7,5.5c0,2-1.9,6.3-1.9,6.3v11.3c0,2,1.7,3.7,3.7,3.7h0"/>
					</g>
					<g>
						<g>
							<line class="st53" x1="623.7" y1="196.8" x2="604.3" y2="196.8"/>
						</g>
						<path class="st54" d="M591.3,196.8c2,0,3.7-1.7,3.7-3.7v-11.3c0,0-1.9-4.3-1.9-6.3c0-3.1,1.6-5.5,4.7-5.5
							c3.1,0,4.7,2.5,4.7,5.5c0,2-1.9,6.3-1.9,6.3v11.3c0,2,1.7,3.7,3.7,3.7h0"/>
					</g>
					<g>
						<g>
							<line class="st56" x1="581.3" y1="196.8" x2="561.9" y2="196.8"/>
						</g>
						<path class="st54" d="M549,196.8c2,0,3.7-1.7,3.7-3.7v-11.3c0,0-1.9-4.3-1.9-6.3c0-3.1,1.6-5.5,4.7-5.5c3.1,0,4.7,2.5,4.7,5.5
							c0,2-1.9,6.3-1.9,6.3v11.3c0,2,1.7,3.7,3.7,3.7h0"/>
					</g>
				</g>
			</g>
			<g>
				<g>
					<line class="st61" x1="565.2" y1="135.2" x2="565.2" y2="152.9"/>
					<g>
						<polygon points="565.2,161.7 560.1,149.2 565.2,152.2 570.2,149.2 						"/>
					</g>
				</g>
			</g>
		</g>
		<g>
			<text transform="matrix(1 0 0 1 541.5671 75.0052)" class="st81 st84">crRNA</text>
		</g>
		<g>
			<circle cx="565.2" cy="37.5" r="17.5"/>
			<path class="st50" d="M559.6,41.3l3.1-0.4c0.1,0.8,0.4,1.4,0.8,1.8c0.4,0.4,1,0.6,1.6,0.6c0.7,0,1.2-0.3,1.7-0.8
				c0.5-0.5,0.7-1.2,0.7-2c0-0.8-0.2-1.4-0.7-1.9c-0.4-0.5-1-0.7-1.6-0.7c-0.4,0-0.9,0.1-1.5,0.2l0.4-2.6c0.9,0,1.5-0.2,2-0.6
				c0.5-0.4,0.7-0.9,0.7-1.6c0-0.6-0.2-1-0.5-1.3c-0.3-0.3-0.8-0.5-1.3-0.5c-0.5,0-1,0.2-1.4,0.6c-0.4,0.4-0.6,0.9-0.7,1.7l-3-0.5
				c0.2-1,0.5-1.8,0.9-2.4c0.4-0.6,1-1.1,1.7-1.4c0.7-0.3,1.6-0.5,2.5-0.5c1.6,0,2.8,0.5,3.8,1.5c0.8,0.8,1.2,1.7,1.2,2.8
				c0,1.5-0.8,2.6-2.4,3.5c1,0.2,1.7,0.7,2.3,1.4c0.6,0.7,0.9,1.6,0.9,2.6c0,1.5-0.5,2.7-1.6,3.8c-1.1,1-2.4,1.6-4,1.6
				c-1.5,0-2.8-0.4-3.8-1.3C560.3,43.9,559.8,42.7,559.6,41.3z"/>
		</g>
	</g>
	<g>
		<path class="st41" d="M279.2,391.7H135.6c-8.3,0-15.1-6.7-15.1-15.1V15.1c0-8.3,6.7-15.1,15.1-15.1h143.6
			c8.3,0,15.1,6.7,15.1,15.1v361.6C294.3,385,287.5,391.7,279.2,391.7z"/>
		<g>
			<g>
				<g>
					<line class="st53" x1="279.5" y1="279.4" x2="260.1" y2="279.4"/>
				</g>
				<path class="st54" d="M256.4,275.7c0,2,1.7,3.7,3.7,3.7"/>
				<line class="st54" x1="256.4" y1="275.7" x2="256.4" y2="262.8"/>
				<polyline class="st54" points="256.4,249.9 256.4,262.8 256.4,262.8 256.4,275.7 				"/>
				<path class="st55" d="M234.2,279.4c2,0,3.7-1.7,3.7-3.7v-11.3c0,0-1.9-4.3-1.9-6.3c0-3.1,1.6-5.5,4.7-5.5s4.7,2.5,4.7,5.5
					c0,2-1.9,6.3-1.9,6.3v11.3c0,2,1.7,3.7,3.7,3.7h0c2,0,3.7-1.7,3.7-3.7v-12.9v0v-12.9"/>
			</g>
			<g>
				<g>
					<line class="st56" x1="230" y1="279.4" x2="210.7" y2="279.4"/>
				</g>
				<path class="st54" d="M206.9,275.7c0,2,1.7,3.7,3.7,3.7"/>
				<line class="st54" x1="206.9" y1="275.7" x2="206.9" y2="262.8"/>
				<polyline class="st54" points="206.9,249.9 206.9,262.8 206.9,262.8 206.9,275.7 				"/>
				<path class="st55" d="M184.8,279.4c2,0,3.7-1.7,3.7-3.7v-11.3c0,0-1.9-4.3-1.9-6.3c0-3.1,1.6-5.5,4.7-5.5c3.1,0,4.7,2.5,4.7,5.5
					c0,2-1.9,6.3-1.9,6.3v11.3c0,2,1.7,3.7,3.7,3.7h0c2,0,3.7-1.7,3.7-3.7v-12.9v0v-12.9"/>
			</g>
			<g>
				<g>
					<line class="st57" x1="180.6" y1="279.4" x2="161.2" y2="279.4"/>
				</g>
				<path class="st54" d="M157.4,275.7c0,2,1.7,3.7,3.7,3.7"/>
				<line class="st54" x1="157.4" y1="275.7" x2="157.4" y2="262.8"/>
				<polyline class="st54" points="157.4,249.9 157.4,262.8 157.4,262.8 157.4,275.7 				"/>
				<path class="st55" d="M135.3,279.4c2,0,3.7-1.7,3.7-3.7v-11.3c0,0-1.9-4.3-1.9-6.3c0-3.1,1.6-5.5,4.7-5.5c3.1,0,4.7,2.5,4.7,5.5
					c0,2-1.9,6.3-1.9,6.3v11.3c0,2,1.7,3.7,3.7,3.7h0c2,0,3.7-1.7,3.7-3.7v-12.9v0v-12.9"/>
			</g>
			<line class="st54" x1="157.4" y1="249.9" x2="157.4" y2="262.8"/>
			<line class="st55" x1="152" y1="262.8" x2="152" y2="249.9"/>
			<path class="st58" d="M157.4,249.9c0-1.5-1.2-2.7-2.7-2.7h0c-1.5,0-2.7,1.2-2.7,2.7"/>
			<path class="st58" d="M206.9,249.9c0-1.5-1.2-2.7-2.7-2.7h0c-1.5,0-2.7,1.2-2.7,2.7"/>
			<path class="st58" d="M256.4,249.9c0-1.5-1.2-2.7-2.7-2.7h0c-1.5,0-2.7,1.2-2.7,2.7"/>
		</g>
		<g>
			<g>
				<g>
					<line class="st53" x1="279.5" y1="371.7" x2="260.1" y2="371.7"/>
				</g>
				<path class="st54" d="M256.4,368c0,2,1.7,3.7,3.7,3.7"/>
				<line class="st54" x1="256.4" y1="368" x2="256.4" y2="355.1"/>
				<polyline class="st54" points="256.4,342.2 256.4,355.1 256.4,355.1 256.4,368 				"/>
				<path class="st55" d="M234.2,371.7c2,0,3.7-1.7,3.7-3.7v-11.3c0,0-1.9-4.3-1.9-6.3c0-3.1,1.6-5.5,4.7-5.5s4.7,2.5,4.7,5.5
					c0,2-1.9,6.3-1.9,6.3V368c0,2,1.7,3.7,3.7,3.7h0c2,0,3.7-1.7,3.7-3.7v-12.9v0v-12.9"/>
			</g>
			<g>
				<g>
					<line class="st56" x1="230" y1="371.7" x2="210.7" y2="371.7"/>
				</g>
				<path class="st54" d="M206.9,368c0,2,1.7,3.7,3.7,3.7"/>
				<line class="st54" x1="206.9" y1="368" x2="206.9" y2="355.1"/>
				<polyline class="st54" points="206.9,342.2 206.9,355.1 206.9,355.1 206.9,368 				"/>
				<path class="st55" d="M184.8,371.7c2,0,3.7-1.7,3.7-3.7v-11.3c0,0-1.9-4.3-1.9-6.3c0-3.1,1.6-5.5,4.7-5.5c3.1,0,4.7,2.5,4.7,5.5
					c0,2-1.9,6.3-1.9,6.3V368c0,2,1.7,3.7,3.7,3.7h0c2,0,3.7-1.7,3.7-3.7v-12.9v0v-12.9"/>
			</g>
			<g>
				<line class="st57" x1="180.6" y1="371.7" x2="161.2" y2="371.7"/>
			</g>
			<path class="st54" d="M157.4,368c0,2,1.7,3.7,3.7,3.7"/>
			<line class="st54" x1="157.4" y1="368" x2="157.4" y2="355.1"/>
			<polyline class="st54" points="157.4,342.2 157.4,355.1 157.4,355.1 157.4,368 			"/>
			<path class="st59" d="M135.3,371.7c2,0,3.7-1.7,3.7-3.7v-11.3c0,0-1.9-4.3-1.9-6.3c0-3.1,1.6-5.5,4.7-5.5c3.1,0,4.7,2.5,4.7,5.5
				c0,2-1.9,6.3-1.9,6.3V368c0,2,1.7,3.7,3.7,3.7h0c2,0,3.7-1.7,3.7-3.7v-12.9v0v-12.9"/>
			<line class="st54" x1="157.4" y1="342.2" x2="157.4" y2="355.1"/>
			<path class="st60" d="M157.4,342.2c0-1.5-1.2-2.7-2.7-2.7h0c-1.5,0-2.7,1.2-2.7,2.7"/>
			<path class="st58" d="M206.9,342.2c0-1.5-1.2-2.7-2.7-2.7h0c-1.5,0-2.7,1.2-2.7,2.7"/>
			<path class="st58" d="M256.4,342.2c0-1.5-1.2-2.7-2.7-2.7h0c-1.5,0-2.7,1.2-2.7,2.7"/>
		</g>
		<g>
			<g>
				<g>
					<g>
						<line class="st61" x1="204.1" y1="135.2" x2="204.1" y2="152.9"/>
						<g>
							<polygon points="204.1,161.7 199,149.2 204.1,152.2 209.1,149.2 							"/>
						</g>
					</g>
				</g>
				<text transform="matrix(1 0 0 1 213.406 153.3442)" class="st81 st84">+factors</text>
			</g>
			<g>
				<g>
					<g>
						<line class="st53" x1="280.8" y1="197.1" x2="261.4" y2="197.1"/>
					</g>
					<path class="st54" d="M257.6,193.4c0,2,1.7,3.7,3.7,3.7"/>
					<line class="st54" x1="257.6" y1="193.4" x2="257.6" y2="180.5"/>
					<polyline class="st54" points="257.6,167.5 257.6,180.5 257.6,180.5 257.6,193.4 					"/>
					<path class="st55" d="M235.5,197.1c2,0,3.7-1.7,3.7-3.7v-11.3c0,0-1.9-4.3-1.9-6.3c0-3.1,1.6-5.5,4.7-5.5s4.7,2.5,4.7,5.5
						c0,2-1.9,6.3-1.9,6.3v11.3c0,2,1.7,3.7,3.7,3.7h0c2,0,3.7-1.7,3.7-3.7v-12.9v0v-12.9"/>
				</g>
				<g>
					<g>
						<line class="st56" x1="231.3" y1="197.1" x2="211.9" y2="197.1"/>
					</g>
					<path class="st54" d="M208.2,193.4c0,2,1.7,3.7,3.7,3.7"/>
					<line class="st54" x1="208.2" y1="193.4" x2="208.2" y2="180.5"/>
					<polyline class="st54" points="208.2,167.5 208.2,180.5 208.2,180.5 208.2,193.4 					"/>
					<path class="st55" d="M186.1,197.1c2,0,3.7-1.7,3.7-3.7v-11.3c0,0-1.9-4.3-1.9-6.3c0-3.1,1.6-5.5,4.7-5.5
						c3.1,0,4.7,2.5,4.7,5.5c0,2-1.9,6.3-1.9,6.3v11.3c0,2,1.7,3.7,3.7,3.7h0c2,0,3.7-1.7,3.7-3.7v-12.9v0v-12.9"/>
				</g>
				<g>
					<g>
						<line class="st57" x1="181.9" y1="197.1" x2="162.5" y2="197.1"/>
					</g>
					<path class="st54" d="M158.7,193.4c0,2,1.7,3.7,3.7,3.7"/>
					<line class="st54" x1="158.7" y1="193.4" x2="158.7" y2="180.5"/>
					<polyline class="st54" points="158.7,167.5 158.7,180.5 158.7,180.5 158.7,193.4 					"/>
					<path class="st55" d="M136.6,197.1c2,0,3.7-1.7,3.7-3.7v-11.3c0,0-1.9-4.3-1.9-6.3c0-3.1,1.6-5.5,4.7-5.5
						c3.1,0,4.7,2.5,4.7,5.5c0,2-1.9,6.3-1.9,6.3v11.3c0,2,1.7,3.7,3.7,3.7h0c2,0,3.7-1.7,3.7-3.7v-12.9v0v-12.9"/>
				</g>
			</g>
			<g>
				<g>
					<g>
						<path class="st55" d="M147,128.6c2,0,3.7-1.7,3.7-3.7v-11.3c0,0-1.9-4.3-1.9-6.3c0-3.1,1.6-5.5,4.7-5.5s4.7,2.5,4.7,5.5
							c0,2-1.9,6.3-1.9,6.3v11.3c0,2,1.7,3.7,3.7,3.7h0"/>
					</g>
					<g>
						<path class="st55" d="M134,128.6c2,0,3.7-1.7,3.7-3.7v-11.3c0,0-1.9-4.3-1.9-6.3c0-3.1,1.6-5.5,4.7-5.5c3.1,0,4.7,2.5,4.7,5.5
							c0,2-1.9,6.3-1.9,6.3v11.3c0,2,1.7,3.7,3.7,3.7h0"/>
					</g>
					<g>
						<g>
							<path class="st54" d="M265.3,128.6c2,0,3.7-1.7,3.7-3.7v-11.3c0,0-1.9-4.3-1.9-6.3c0-3.1,1.6-5.5,4.7-5.5
								c3.1,0,4.7,2.5,4.7,5.5c0,2-1.9,6.3-1.9,6.3v11.3c0,2,1.7,3.7,3.7,3.7h0"/>
						</g>
						<g>
							<g>
								<line class="st57" x1="200.6" y1="128.6" x2="181.2" y2="128.6"/>
							</g>
							<path class="st54" d="M168.3,128.6c2,0,3.7-1.7,3.7-3.7v-11.3c0,0-1.9-4.3-1.9-6.3c0-3.1,1.6-5.5,4.7-5.5s4.7,2.5,4.7,5.5
								c0,2-1.9,6.3-1.9,6.3v11.3c0,2,1.7,3.7,3.7,3.7h0"/>
						</g>
						<g>
							<g>
								<line class="st53" x1="265.3" y1="128.6" x2="245.9" y2="128.6"/>
							</g>
							<path class="st54" d="M232.9,128.6c2,0,3.7-1.7,3.7-3.7v-11.3c0,0-1.9-4.3-1.9-6.3c0-3.1,1.6-5.5,4.7-5.5
								c3.1,0,4.7,2.5,4.7,5.5c0,2-1.9,6.3-1.9,6.3v11.3c0,2,1.7,3.7,3.7,3.7h0"/>
						</g>
						<g>
							<g>
								<line class="st56" x1="232.9" y1="128.6" x2="213.6" y2="128.6"/>
							</g>
							<path class="st54" d="M200.6,128.6c2,0,3.7-1.7,3.7-3.7v-11.3c0,0-1.9-4.3-1.9-6.3c0-3.1,1.6-5.5,4.7-5.5
								c3.1,0,4.7,2.5,4.7,5.5c0,2-1.9,6.3-1.9,6.3v11.3c0,2,1.7,3.7,3.7,3.7h0"/>
						</g>
					</g>
				</g>
				<path class="st61" d="M168.3,128.6c2,0,3.7-1.7,3.7-3.7v-6.6"/>
				<path class="st61" d="M200.6,128.6c2,0,3.7-1.7,3.7-3.7v-6.6"/>
				<path class="st61" d="M232.9,128.6c2,0,3.7-1.7,3.7-3.7v-6.6"/>
			</g>
		</g>
		<g>
			<text transform="matrix(1 0 0 1 133.6312 75.0051)" class="st81 st84">crRNA+tracr+factors</text>
		</g>
		<g>
			<circle cx="207.4" cy="37.5" r="17.5"/>
			<path class="st50" d="M210.2,45.9H207V33.8c-1.2,1.1-2.6,1.9-4.1,2.4v-2.9c0.8-0.3,1.7-0.8,2.7-1.6c1-0.8,1.7-1.7,2-2.7h2.6V45.9
				z"/>
		</g>
	</g>
	<g>
		<text transform="matrix(1 0 0 1 59.3919 343.0367)"><tspan x="0" y="0" class="st81 st84">sgRNA </tspan><tspan x="-37.5" y="18" class="st81 st84">Multiplexing</tspan><tspan x="0" y="36" class="st81 st84">Design</tspan></text>
	</g>
	<g>
		<text transform="matrix(1 0 0 1 101.0519 42.9674)" class="st81 st84">#</text>
	</g>
</g>
</svg>
