<?xml version="1.0" encoding="UTF-8"?>
<svg id="Layer_2" data-name="Layer 2" xmlns="http://www.w3.org/2000/svg" viewBox="0 0 462.72 644.46">
  <defs>
    <style>
      .cls-1, .cls-2, .cls-3, .cls-4, .cls-5, .cls-6 {
        font-family: Arial-BoldMT, Arial;
        font-weight: 700;
      }

      .cls-1, .cls-7 {
        font-size: 17px;
      }

      .cls-8, .cls-9 {
        stroke-width: 1.66px;
      }

      .cls-8, .cls-9, .cls-10, .cls-11, .cls-12, .cls-13, .cls-14, .cls-15, .cls-16, .cls-17, .cls-18, .cls-19, .cls-20, .cls-21, .cls-22, .cls-23, .cls-24, .cls-25, .cls-26, .cls-27, .cls-28, .cls-29, .cls-30, .cls-31, .cls-32, .cls-33, .cls-34, .cls-35, .cls-36, .cls-37, .cls-38, .cls-39, .cls-40, .cls-41, .cls-42, .cls-43, .cls-44, .cls-45, .cls-46, .cls-47, .cls-48, .cls-49, .cls-50, .cls-51, .cls-52, .cls-53, .cls-54, .cls-55, .cls-56 {
        fill: none;
        stroke-miterlimit: 10;
      }

      .cls-8, .cls-13, .cls-18, .cls-26, .cls-29, .cls-36, .cls-46, .cls-51, .cls-55 {
        stroke: #ff9700;
      }

      .cls-9, .cls-14, .cls-19, .cls-24, .cls-30, .cls-34, .cls-44, .cls-52, .cls-56 {
        stroke: #f0f;
      }

      .cls-57 {
        fill: #fff7e6;
      }

      .cls-58 {
        fill: #b4d9eb;
      }

      .cls-2 {
        font-size: 12px;
      }

      .cls-10, .cls-11, .cls-12, .cls-13, .cls-14, .cls-15 {
        stroke-width: 1.24px;
      }

      .cls-10, .cls-17, .cls-21, .cls-32, .cls-40, .cls-42, .cls-48, .cls-53 {
        stroke: #29abe2;
      }

      .cls-11, .cls-16, .cls-20, .cls-33, .cls-39, .cls-41, .cls-47, .cls-54 {
        stroke: #39b54a;
      }

      .cls-12, .cls-25, .cls-28, .cls-35, .cls-45, .cls-50 {
        stroke: #ff1d25;
      }

      .cls-15, .cls-23, .cls-49 {
        stroke: #b3b3b3;
      }

      .cls-16, .cls-17, .cls-18, .cls-19 {
        stroke-width: 1.39px;
      }

      .cls-59 {
        letter-spacing: -.04em;
      }

      .cls-20, .cls-21, .cls-23, .cls-24, .cls-25, .cls-26 {
        stroke-width: 1.19px;
      }

      .cls-22 {
        stroke-width: 1.19px;
      }

      .cls-22, .cls-27, .cls-31, .cls-37, .cls-38, .cls-43 {
        stroke: #000;
      }

      .cls-60 {
        font-size: 10px;
      }

      .cls-27, .cls-28, .cls-29, .cls-30, .cls-32, .cls-33 {
        stroke-width: 1.12px;
      }

      .cls-31 {
        stroke-width: 1.12px;
      }

      .cls-34, .cls-35, .cls-36, .cls-38, .cls-39, .cls-40 {
        stroke-width: 1.13px;
      }

      .cls-37 {
        stroke-width: 1.13px;
      }

      .cls-41, .cls-42, .cls-43, .cls-44, .cls-45, .cls-46 {
        stroke-width: 1.15px;
      }

      .cls-47, .cls-48, .cls-49, .cls-50, .cls-51, .cls-52 {
        stroke-width: 1.2px;
      }

      .cls-4 {
        font-size: 25px;
      }

      .cls-5 {
        font-size: 9.43px;
      }

      .cls-53, .cls-54, .cls-55, .cls-56 {
        stroke-width: 1.35px;
      }

      .cls-6 {
        font-size: 18px;
      }
    </style>
  </defs>
  <g id="Layer_1-2" data-name="Layer 1">
    <g>
      <rect class="cls-58" x="2.3" y="0" width="33.97" height="42" rx="12" ry="12"/>
      <g>
        <rect class="cls-57" x="181.8" y="311.95" width="134.9" height="123" rx="12" ry="12"/>
        <rect class="cls-57" x="38.44" y="311.95" width="134.9" height="123" rx="12" ry="12"/>
        <rect class="cls-57" x="326.25" y="311.95" width="134.9" height="123" rx="12" ry="12"/>
      </g>
      <g>
        <rect class="cls-57" x="181.8" y="179.88" width="134.9" height="123" rx="12" ry="12"/>
        <rect class="cls-57" x="38.44" y="179.88" width="134.9" height="123" rx="12" ry="12"/>
        <rect class="cls-57" x="326.25" y="179.88" width="134.9" height="123" rx="12" ry="12"/>
      </g>
      <g>
        <rect class="cls-57" x="38.44" y="47.81" width="134.9" height="123" rx="12" ry="12"/>
        <rect class="cls-57" x="181.8" y="47.81" width="134.9" height="123" rx="12" ry="12"/>
        <rect class="cls-57" x="326.25" y="47.81" width="134.9" height="123" rx="12" ry="12"/>
      </g>
      <g>
        <rect class="cls-57" x="38.44" y="444.02" width="134.9" height="123" rx="12" ry="12"/>
        <rect class="cls-57" x="181.8" y="444.02" width="134.9" height="123" rx="12" ry="12"/>
        <rect class="cls-57" x="326.25" y="444.02" width="134.9" height="123" rx="12" ry="12"/>
      </g>
      <rect class="cls-57" x="38.44" y="577.19" width="134.9" height="67.27" rx="12" ry="12"/>
      <rect class="cls-57" x="181.8" y="577.19" width="134.9" height="67.27" rx="12" ry="12"/>
      <rect class="cls-57" x="326.25" y="577.19" width="134.9" height="67.27" rx="12" ry="12"/>
      <g>
        <line class="cls-24" x1="81.79" y1="349.6" x2="60.39" y2="349.6"/>
        <path class="cls-26" d="m50.4,349.6c1.58,0,2.85-1.28,2.85-2.85v-9.99c-1.25-.75-2.14-2-2.14-3.57,0-2.36,1.92-4.28,4.28-4.28,2.36,0,4.28,1.92,4.28,4.28,0,1.56-.9,2.82-2.14,3.57v9.99c0,1.58,1.28,2.85,2.85,2.85"/>
        <line class="cls-20" x1="120.21" y1="413.8" x2="98.8" y2="413.8"/>
        <path class="cls-26" d="m88.81,413.8c1.58,0,2.85-1.28,2.85-2.85v-9.99c-1.25-.75-2.14-2-2.14-3.57,0-2.36,1.92-4.28,4.28-4.28,2.36,0,4.28,1.92,4.28,4.28,0,1.56-.9,2.82-2.14,3.57v9.99c0,1.58,1.28,2.85,2.85,2.85"/>
        <line class="cls-20" x1="113.19" y1="349.6" x2="91.79" y2="349.6"/>
        <path class="cls-26" d="m81.79,349.6c1.58,0,2.85-1.28,2.85-2.85v-9.99c-1.25-.75-2.14-2-2.14-3.57,0-2.36,1.92-4.28,4.28-4.28,2.36,0,4.28,1.92,4.28,4.28,0,1.56-.9,2.82-2.14,3.57v9.99c0,1.58,1.28,2.85,2.85,2.85"/>
        <line class="cls-21" x1="144.59" y1="349.6" x2="123.18" y2="349.6"/>
        <path class="cls-26" d="m113.19,349.6c1.58,0,2.85-1.28,2.85-2.85v-9.99c-1.25-.75-2.14-2-2.14-3.57,0-2.36,1.92-4.28,4.28-4.28,2.36,0,4.28,1.92,4.28,4.28,0,1.56-.9,2.82-2.14,3.57v9.99c0,1.58,1.28,2.85,2.85,2.85"/>
        <path class="cls-26" d="m144.59,349.6c1.58,0,2.85-1.28,2.85-2.85v-9.99c-1.25-.75-2.14-2-2.14-3.57,0-2.36,1.92-4.28,4.28-4.28,2.36,0,4.28,1.92,4.28,4.28,0,1.56-.9,2.82-2.14,3.57v9.99c0,1.58,1.28,2.85,2.85,2.85"/>
        <line class="cls-24" x1="80.93" y1="421.66" x2="59.53" y2="421.66"/>
        <path class="cls-26" d="m49.54,421.66c1.58,0,2.85-1.28,2.85-2.85v-9.99c-1.25-.75-2.14-2-2.14-3.57,0-2.36,1.92-4.28,4.28-4.28,2.36,0,4.28,1.92,4.28,4.28,0,1.56-.9,2.82-2.14,3.57v9.99c0,1.58,1.28,2.85,2.85,2.85"/>
        <line class="cls-21" x1="159.49" y1="421.66" x2="138.08" y2="421.66"/>
        <path class="cls-26" d="m128.09,421.66c1.58,0,2.85-1.28,2.85-2.85v-9.99c-1.25-.75-2.14-2-2.14-3.57,0-2.36,1.92-4.28,4.28-4.28,2.36,0,4.28,1.92,4.28,4.28,0,1.56-.9,2.82-2.14,3.57v9.99c0,1.58,1.28,2.85,2.85,2.85"/>
        <g>
          <line class="cls-22" x1="101.26" y1="355.98" x2="101.26" y2="377.64"/>
          <polygon points="101.26 386.02 96.44 374.21 101.26 377.01 106.09 374.21 101.26 386.02"/>
        </g>
      </g>
      <g>
        <line class="cls-56" x1="225.32" y1="392.86" x2="200.91" y2="392.86"/>
        <path class="cls-55" d="m189.52,392.86c1.8,0,3.25-1.46,3.25-3.25v-11.39c-1.43-.85-2.44-2.28-2.44-4.07,0-2.7,2.19-4.88,4.88-4.88,2.7,0,4.88,2.19,4.88,4.88,0,1.78-1.02,3.21-2.44,4.07v11.39c0,1.8,1.46,3.25,3.25,3.25"/>
        <line class="cls-54" x1="261.12" y1="392.86" x2="236.71" y2="392.86"/>
        <path class="cls-55" d="m225.32,392.86c1.8,0,3.25-1.46,3.25-3.25v-11.39c-1.43-.85-2.44-2.28-2.44-4.07,0-2.7,2.19-4.88,4.88-4.88,2.7,0,4.88,2.19,4.88,4.88,0,1.78-1.02,3.21-2.44,4.07v11.39c0,1.8,1.46,3.25,3.25,3.25"/>
        <line class="cls-53" x1="296.92" y1="392.86" x2="272.51" y2="392.86"/>
        <path class="cls-55" d="m261.12,392.86c1.8,0,3.25-1.46,3.25-3.25v-11.39c-1.43-.85-2.44-2.28-2.44-4.07,0-2.7,2.19-4.88,4.88-4.88,2.7,0,4.88,2.19,4.88,4.88,0,1.78-1.02,3.21-2.44,4.07v11.39c0,1.8,1.46,3.25,3.25,3.25"/>
        <path class="cls-55" d="m296.92,392.86c1.8,0,3.25-1.46,3.25-3.25v-11.39c-1.43-.85-2.44-2.28-2.44-4.07,0-2.7,2.19-4.88,4.88-4.88,2.7,0,4.88,2.19,4.88,4.88,0,1.78-1.02,3.21-2.44,4.07v11.39c0,1.8,1.46,3.25,3.25,3.25"/>
      </g>
      <g>
        <line class="cls-16" x1="406.31" y1="373.12" x2="381.32" y2="373.12"/>
        <path class="cls-18" d="m369.66,373.12c1.84,0,3.33-1.49,3.33-3.33v-11.66c-1.46-.87-2.5-2.34-2.5-4.16,0-2.76,2.24-5,5-5,2.76,0,5,2.24,5,5,0,1.82-1.05,3.29-2.5,4.16v11.66c0,1.84,1.49,3.33,3.33,3.33"/>
        <line class="cls-19" x1="372.15" y1="393.97" x2="347.16" y2="393.97"/>
        <path class="cls-18" d="m335.5,393.97c1.84,0,3.33-1.49,3.33-3.33v-11.66c-1.46-.87-2.5-2.34-2.5-4.16,0-2.76,2.24-5,5-5,2.76,0,5,2.24,5,5,0,1.82-1.05,3.29-2.5,4.16v11.66c0,1.84,1.49,3.33,3.33,3.33"/>
        <line class="cls-17" x1="452.15" y1="393.97" x2="427.16" y2="393.97"/>
        <path class="cls-18" d="m415.5,393.97c1.84,0,3.33-1.49,3.33-3.33v-11.66c-1.46-.87-2.5-2.34-2.5-4.16,0-2.76,2.24-5,5-5,2.76,0,5,2.24,5,5,0,1.82-1.05,3.29-2.5,4.16v11.66c0,1.84,1.49,3.33,3.33,3.33"/>
      </g>
      <text class="cls-3" transform="translate(12.09 368.37)"><tspan class="cls-7"><tspan x="0" y="0">3</tspan></tspan><tspan class="cls-60"><tspan x="-10.65" y="12">crRN</tspan><tspan class="cls-59" x="13.25" y="12">A</tspan></tspan></text>
      <g>
        <g>
          <line class="cls-43" x1="192.81" y1="252.04" x2="192.81" y2="242.4"/>
          <path class="cls-45" d="m195.56,254.8c-1.52,0-2.76-1.23-2.76-2.76v-9.64c1.2-.72,2.07-1.94,2.07-3.44,0-2.28-1.85-4.13-4.13-4.13s-4.13,1.85-4.13,4.13c0,1.51.86,2.72,2.07,3.44v9.64c0,1.52-1.23,2.76-2.76,2.76"/>
          <line class="cls-43" x1="202.46" y1="252.04" x2="202.46" y2="242.4"/>
          <path class="cls-45" d="m205.22,254.8c-1.52,0-2.76-1.23-2.76-2.76v-9.64c1.2-.72,2.07-1.94,2.07-3.44,0-2.28-1.85-4.13-4.13-4.13s-4.13,1.85-4.13,4.13c0,1.51.86,2.72,2.07,3.44v9.64c0,1.52-1.23,2.76-2.76,2.76"/>
        </g>
        <g>
          <line class="cls-44" x1="245.1" y1="254.8" x2="224.43" y2="254.8"/>
          <path class="cls-46" d="m214.79,254.8c1.52,0,2.76-1.23,2.76-2.76v-9.64c-1.21-.72-2.07-1.93-2.07-3.44,0-2.28,1.85-4.13,4.13-4.13s4.13,1.85,4.13,4.13c0,1.5-.87,2.72-2.07,3.44v9.64c0,1.52,1.23,2.76,2.76,2.76"/>
          <line class="cls-41" x1="275.41" y1="254.8" x2="254.74" y2="254.8"/>
          <path class="cls-46" d="m245.1,254.8c1.52,0,2.76-1.23,2.76-2.76v-9.64c-1.21-.72-2.07-1.93-2.07-3.44,0-2.28,1.85-4.13,4.13-4.13s4.13,1.85,4.13,4.13c0,1.5-.87,2.72-2.07,3.44v9.64c0,1.52,1.23,2.76,2.76,2.76"/>
          <line class="cls-42" x1="305.72" y1="254.8" x2="285.06" y2="254.8"/>
          <path class="cls-46" d="m275.41,254.8c1.52,0,2.76-1.23,2.76-2.76v-9.64c-1.21-.72-2.07-1.93-2.07-3.44,0-2.28,1.85-4.13,4.13-4.13s4.13,1.85,4.13,4.13c0,1.5-.87,2.72-2.07,3.44v9.64c0,1.52,1.23,2.76,2.76,2.76"/>
          <path class="cls-46" d="m305.73,254.8c1.52,0,2.76-1.23,2.76-2.76v-9.64c-1.21-.72-2.07-1.93-2.07-3.44,0-2.28,1.85-4.13,4.13-4.13s4.13,1.85,4.13,4.13c0,1.5-.87,2.72-2.07,3.44v9.64c0,1.52,1.23,2.76,2.76,2.76"/>
        </g>
      </g>
      <text class="cls-3" transform="translate(15.25 220.13)"><tspan class="cls-7"><tspan x="0" y="0">2</tspan></tspan><tspan class="cls-60"><tspan x="-13.75" y="12">crRNA+</tspan></tspan><tspan class="cls-60"><tspan x="-6.39" y="24">tracr</tspan></tspan></text>
      <g>
        <g>
          <line class="cls-34" x1="81.29" y1="288.24" x2="61.01" y2="288.24"/>
          <path class="cls-36" d="m58.31,285.51c0,1.51,1.21,2.73,2.7,2.73"/>
          <line class="cls-36" x1="58.31" y1="285.51" x2="58.31" y2="275.94"/>
          <polyline class="cls-36" points="58.31 266.36 58.31 275.93 58.31 275.94 58.31 285.51"/>
          <path class="cls-35" d="m42.06,288.24c1.49,0,2.7-1.22,2.7-2.73v-9.57c-1.19-.72-2.03-1.92-2.03-3.42,0-2.26,1.82-4.1,4.06-4.1,2.24,0,4.06,1.84,4.06,4.1,0,1.49-.85,2.7-2.03,3.42v9.57c0,1.51,1.21,2.73,2.7,2.73h.02c1.49,0,2.7-1.22,2.7-2.73v-9.57s0-.02,0-.02v-9.57"/>
          <line class="cls-39" x1="125.93" y1="280.72" x2="105.66" y2="280.72"/>
          <path class="cls-36" d="m102.95,277.99c0,1.51,1.21,2.73,2.7,2.73"/>
          <line class="cls-36" x1="102.95" y1="277.99" x2="102.95" y2="268.42"/>
          <polyline class="cls-36" points="102.95 258.84 102.95 268.4 102.95 268.42 102.95 277.99"/>
          <path class="cls-35" d="m86.71,280.72c1.49,0,2.7-1.22,2.7-2.73v-9.57c-1.19-.72-2.03-1.92-2.03-3.42,0-2.26,1.82-4.1,4.06-4.1,2.24,0,4.06,1.84,4.06,4.1,0,1.49-.85,2.7-2.03,3.42v9.57c0,1.51,1.21,2.73,2.7,2.73h.02c1.49,0,2.7-1.22,2.7-2.73v-9.57s0-.02,0-.02v-9.57"/>
          <line class="cls-40" x1="170.58" y1="288.24" x2="150.3" y2="288.24"/>
          <path class="cls-36" d="m147.6,285.51c0,1.51,1.21,2.73,2.7,2.73"/>
          <line class="cls-36" x1="147.6" y1="285.51" x2="147.6" y2="275.94"/>
          <polyline class="cls-36" points="147.6 266.36 147.6 275.93 147.6 275.94 147.6 285.51"/>
          <path class="cls-35" d="m131.35,288.24c1.49,0,2.7-1.22,2.7-2.73v-9.57c-1.19-.72-2.03-1.92-2.03-3.42,0-2.26,1.82-4.1,4.06-4.1,2.24,0,4.06,1.84,4.06,4.1,0,1.49-.85,2.7-2.03,3.42v9.57c0,1.51,1.21,2.73,2.7,2.73h.02c1.49,0,2.7-1.22,2.7-2.73v-9.57s0-.02,0-.02v-9.57"/>
        </g>
        <g>
          <line class="cls-37" x1="103.38" y1="223.29" x2="103.38" y2="244.08"/>
          <polygon points="103.38 252.06 98.79 240.81 103.38 243.48 107.98 240.81 103.38 252.06"/>
        </g>
        <g>
          <line class="cls-38" x1="50.7" y1="213.69" x2="50.7" y2="204.13"/>
          <path class="cls-35" d="m53.41,216.43c-1.49,0-2.7-1.22-2.7-2.73v-9.57c1.18-.72,2.03-1.92,2.03-3.42,0-2.26-1.82-4.1-4.06-4.1-2.24,0-4.06,1.84-4.06,4.1,0,1.5.84,2.7,2.03,3.42v9.57c0,1.51-1.21,2.73-2.7,2.73"/>
          <line class="cls-38" x1="60.17" y1="213.69" x2="60.17" y2="204.13"/>
          <path class="cls-35" d="m62.88,216.43c-1.49,0-2.7-1.22-2.7-2.73v-9.57c1.18-.72,2.03-1.92,2.03-3.42,0-2.26-1.82-4.1-4.06-4.1-2.24,0-4.06,1.84-4.06,4.1,0,1.5.84,2.7,2.03,3.42v9.57c0,1.51-1.21,2.73-2.7,2.73"/>
        </g>
        <g>
          <line class="cls-34" x1="102" y1="216.43" x2="81.73" y2="216.43"/>
          <path class="cls-36" d="m72.27,216.43c1.49,0,2.7-1.22,2.7-2.73v-9.57c-1.19-.72-2.03-1.92-2.03-3.42,0-2.26,1.82-4.1,4.06-4.1,2.24,0,4.06,1.84,4.06,4.1,0,1.49-.85,2.7-2.03,3.42v9.57c0,1.51,1.21,2.73,2.7,2.73"/>
          <line class="cls-39" x1="131.75" y1="216.43" x2="111.47" y2="216.43"/>
          <path class="cls-36" d="m102,216.43c1.49,0,2.7-1.22,2.7-2.73v-9.57c-1.19-.72-2.03-1.92-2.03-3.42,0-2.26,1.82-4.1,4.06-4.1,2.24,0,4.06,1.84,4.06,4.1,0,1.49-.85,2.7-2.03,3.42v9.57c0,1.51,1.21,2.73,2.7,2.73"/>
          <line class="cls-40" x1="161.48" y1="216.43" x2="141.21" y2="216.43"/>
          <path class="cls-36" d="m131.75,216.43c1.49,0,2.7-1.22,2.7-2.73v-9.57c-1.19-.72-2.03-1.92-2.03-3.42,0-2.26,1.82-4.1,4.06-4.1,2.24,0,4.06,1.84,4.06,4.1,0,1.49-.85,2.7-2.03,3.42v9.57c0,1.51,1.21,2.73,2.7,2.73"/>
          <path class="cls-36" d="m161.49,216.43c1.49,0,2.7-1.22,2.7-2.73v-9.57c-1.19-.72-2.03-1.92-2.03-3.42,0-2.26,1.82-4.1,4.06-4.1,2.24,0,4.06,1.84,4.06,4.1,0,1.49-.85,2.7-2.03,3.42v9.57c0,1.51,1.21,2.73,2.7,2.73"/>
        </g>
      </g>
      <g>
        <line class="cls-24" x1="375.17" y1="253.09" x2="353.76" y2="253.09"/>
        <path class="cls-26" d="m350.91,250.23c0,1.58,1.28,2.85,2.85,2.85"/>
        <line class="cls-26" x1="350.91" y1="250.23" x2="350.91" y2="240.24"/>
        <polyline class="cls-26" points="350.84 230.23 350.84 240.22 350.84 240.24 350.84 250.23"/>
        <path class="cls-25" d="m333.76,253.09c1.58,0,2.85-1.28,2.85-2.85v-9.99c-1.25-.75-2.14-2-2.14-3.57,0-2.36,1.92-4.28,4.28-4.28s4.28,1.92,4.28,4.28c0,1.56-.9,2.82-2.14,3.57v9.99c0,1.58,1.28,2.85,2.85,2.85h.02c1.58,0,2.85-1.28,2.85-2.85v-9.99s0-.02,0-.02v-9.99"/>
        <line class="cls-20" x1="412.23" y1="235.22" x2="390.82" y2="235.22"/>
        <path class="cls-26" d="m387.97,232.37c0,1.58,1.28,2.85,2.85,2.85"/>
        <line class="cls-26" x1="387.97" y1="232.37" x2="387.97" y2="222.38"/>
        <polyline class="cls-26" points="387.97 212.37 387.97 222.36 387.97 222.38 387.97 232.37"/>
        <path class="cls-25" d="m370.89,235.22c1.58,0,2.85-1.28,2.85-2.85v-9.99c-1.25-.75-2.14-2-2.14-3.57,0-2.36,1.92-4.28,4.28-4.28,2.36,0,4.28,1.92,4.28,4.28,0,1.56-.9,2.82-2.14,3.57v9.99c0,1.58,1.28,2.85,2.85,2.85h.02c1.58,0,2.85-1.28,2.85-2.85v-9.99s0-.02,0-.02v-9.99"/>
        <line class="cls-21" x1="459.38" y1="253.09" x2="437.97" y2="253.09"/>
        <path class="cls-26" d="m435.11,250.23c0,1.58,1.28,2.85,2.85,2.85"/>
        <line class="cls-26" x1="435.11" y1="250.23" x2="435.11" y2="240.24"/>
        <polyline class="cls-26" points="435.11 230.23 435.11 240.22 435.11 240.24 435.11 250.23"/>
        <path class="cls-25" d="m418.02,253.09c1.58,0,2.85-1.28,2.85-2.85v-9.99c-1.25-.75-2.14-2-2.14-3.57,0-2.36,1.92-4.28,4.28-4.28s4.28,1.92,4.28,4.28c0,1.56-.9,2.82-2.14,3.57v9.99c0,1.58,1.28,2.85,2.85,2.85h.02c1.58,0,2.85-1.28,2.85-2.85v-9.99s0-.02,0-.02v-9.99"/>
        <path class="cls-23" d="m350.84,230.23c0-1.17-.94-2.11-2.11-2.11h0c-1.17,0-2.11.94-2.11,2.11"/>
        <path class="cls-23" d="m387.97,212.37c0-1.17-.94-2.11-2.11-2.11h0c-1.17,0-2.11.94-2.11,2.11"/>
        <path class="cls-23" d="m435.1,230.23c0-1.17-.94-2.11-2.11-2.11h0c-1.17,0-2.11.94-2.11,2.11"/>
        <line class="cls-24" x1="375.17" y1="253.09" x2="353.76" y2="253.09"/>
        <path class="cls-26" d="m350.91,250.23c0,1.58,1.28,2.85,2.85,2.85"/>
        <line class="cls-26" x1="350.91" y1="250.23" x2="350.91" y2="240.24"/>
        <polyline class="cls-26" points="350.84 230.23 350.84 240.22 350.84 240.24 350.84 250.23"/>
        <path class="cls-25" d="m333.76,253.09c1.58,0,2.85-1.28,2.85-2.85v-9.99c-1.25-.75-2.14-2-2.14-3.57,0-2.36,1.92-4.28,4.28-4.28s4.28,1.92,4.28,4.28c0,1.56-.9,2.82-2.14,3.57v9.99c0,1.58,1.28,2.85,2.85,2.85h.02c1.58,0,2.85-1.28,2.85-2.85v-9.99s0-.02,0-.02v-9.99"/>
        <line class="cls-20" x1="412.23" y1="235.22" x2="390.82" y2="235.22"/>
        <path class="cls-26" d="m387.97,232.37c0,1.58,1.28,2.85,2.85,2.85"/>
        <line class="cls-26" x1="387.97" y1="232.37" x2="387.97" y2="222.38"/>
        <polyline class="cls-26" points="387.97 212.37 387.97 222.36 387.97 222.38 387.97 232.37"/>
        <path class="cls-25" d="m370.89,235.22c1.58,0,2.85-1.28,2.85-2.85v-9.99c-1.25-.75-2.14-2-2.14-3.57,0-2.36,1.92-4.28,4.28-4.28,2.36,0,4.28,1.92,4.28,4.28,0,1.56-.9,2.82-2.14,3.57v9.99c0,1.58,1.28,2.85,2.85,2.85h.02c1.58,0,2.85-1.28,2.85-2.85v-9.99s0-.02,0-.02v-9.99"/>
        <line class="cls-21" x1="459.38" y1="253.09" x2="437.97" y2="253.09"/>
        <path class="cls-26" d="m435.11,250.23c0,1.58,1.28,2.85,2.85,2.85"/>
        <line class="cls-26" x1="435.11" y1="250.23" x2="435.11" y2="240.24"/>
        <polyline class="cls-26" points="435.11 230.23 435.11 240.22 435.11 240.24 435.11 250.23"/>
        <path class="cls-25" d="m418.02,253.09c1.58,0,2.85-1.28,2.85-2.85v-9.99c-1.25-.75-2.14-2-2.14-3.57,0-2.36,1.92-4.28,4.28-4.28s4.28,1.92,4.28,4.28c0,1.56-.9,2.82-2.14,3.57v9.99c0,1.58,1.28,2.85,2.85,2.85h.02c1.58,0,2.85-1.28,2.85-2.85v-9.99s0-.02,0-.02v-9.99"/>
      </g>
      <text class="cls-3" transform="translate(13.75 86.89)"><tspan class="cls-7"><tspan x="0" y="0">1</tspan></tspan><tspan class="cls-60"><tspan x="-13.75" y="12">crRNA+</tspan></tspan><tspan class="cls-60"><tspan x="-9.31" y="24">tracr+</tspan></tspan><tspan class="cls-60"><tspan x="-11.94" y="36">factors</tspan></tspan></text>
      <g>
        <line class="cls-52" x1="371.68" y1="130.13" x2="350.04" y2="130.13"/>
        <path class="cls-51" d="m347.15,127.24c0,1.6,1.29,2.89,2.89,2.89"/>
        <line class="cls-51" x1="347.15" y1="127.24" x2="347.15" y2="117.14"/>
        <polyline class="cls-51" points="347.09 107.02 347.09 117.12 347.09 117.14 347.09 127.24"/>
        <path class="cls-50" d="m329.81,130.13c1.6,0,2.89-1.29,2.89-2.89v-10.1c-1.27-.76-2.16-2.03-2.16-3.61,0-2.39,1.94-4.33,4.33-4.33,2.39,0,4.33,1.94,4.33,4.33,0,1.57-.91,2.85-2.17,3.61v10.1c0,1.6,1.29,2.89,2.89,2.89h.02c1.6,0,2.89-1.29,2.89-2.89v-10.1s0-.02,0-.02v-10.1"/>
        <line class="cls-47" x1="409.15" y1="112.07" x2="387.5" y2="112.07"/>
        <path class="cls-51" d="m384.62,109.18c0,1.6,1.29,2.89,2.89,2.89"/>
        <line class="cls-51" x1="384.62" y1="109.18" x2="384.62" y2="99.08"/>
        <polyline class="cls-51" points="384.62 88.96 384.62 99.06 384.62 99.08 384.62 109.18"/>
        <path class="cls-50" d="m367.35,112.07c1.6,0,2.89-1.29,2.89-2.89v-10.1c-1.27-.76-2.16-2.03-2.16-3.61,0-2.39,1.94-4.33,4.33-4.33s4.33,1.94,4.33,4.33c0,1.57-.91,2.85-2.17,3.61v10.1c0,1.6,1.29,2.89,2.89,2.89h.02c1.6,0,2.89-1.29,2.89-2.89v-10.1s0-.02,0-.02v-10.1"/>
        <line class="cls-48" x1="456.81" y1="130.13" x2="435.17" y2="130.13"/>
        <path class="cls-51" d="m432.28,127.24c0,1.6,1.29,2.89,2.89,2.89"/>
        <line class="cls-51" x1="432.28" y1="127.24" x2="432.28" y2="117.14"/>
        <polyline class="cls-51" points="432.28 107.02 432.28 117.12 432.28 117.14 432.28 127.24"/>
        <path class="cls-50" d="m415,130.13c1.6,0,2.89-1.29,2.89-2.89v-10.1c-1.27-.76-2.16-2.03-2.16-3.61,0-2.39,1.94-4.33,4.33-4.33,2.39,0,4.33,1.94,4.33,4.33,0,1.57-.91,2.85-2.17,3.61v10.1c0,1.6,1.29,2.89,2.89,2.89h.02c1.6,0,2.89-1.29,2.89-2.89v-10.1s0-.02,0-.02v-10.1"/>
        <path class="cls-49" d="m347.09,107.02c0-1.18-.95-2.13-2.13-2.13h0c-1.18,0-2.13.95-2.13,2.13"/>
        <path class="cls-49" d="m384.62,88.96c0-1.18-.95-2.13-2.13-2.13h0c-1.18,0-2.13.95-2.13,2.13"/>
        <path class="cls-49" d="m432.27,107.02c0-1.18-.95-2.13-2.13-2.13h0c-1.18,0-2.13.95-2.13,2.13"/>
        <line class="cls-52" x1="371.68" y1="130.13" x2="350.04" y2="130.13"/>
        <path class="cls-51" d="m347.15,127.24c0,1.6,1.29,2.89,2.89,2.89"/>
        <line class="cls-51" x1="347.15" y1="127.24" x2="347.15" y2="117.14"/>
        <polyline class="cls-51" points="347.09 107.02 347.09 117.12 347.09 117.14 347.09 127.24"/>
        <path class="cls-50" d="m329.81,130.13c1.6,0,2.89-1.29,2.89-2.89v-10.1c-1.27-.76-2.16-2.03-2.16-3.61,0-2.39,1.94-4.33,4.33-4.33,2.39,0,4.33,1.94,4.33,4.33,0,1.57-.91,2.85-2.17,3.61v10.1c0,1.6,1.29,2.89,2.89,2.89h.02c1.6,0,2.89-1.29,2.89-2.89v-10.1s0-.02,0-.02v-10.1"/>
        <line class="cls-47" x1="409.15" y1="112.07" x2="387.5" y2="112.07"/>
        <path class="cls-51" d="m384.62,109.18c0,1.6,1.29,2.89,2.89,2.89"/>
        <line class="cls-51" x1="384.62" y1="109.18" x2="384.62" y2="99.08"/>
        <polyline class="cls-51" points="384.62 88.96 384.62 99.06 384.62 99.08 384.62 109.18"/>
        <path class="cls-50" d="m367.35,112.07c1.6,0,2.89-1.29,2.89-2.89v-10.1c-1.27-.76-2.16-2.03-2.16-3.61,0-2.39,1.94-4.33,4.33-4.33s4.33,1.94,4.33,4.33c0,1.57-.91,2.85-2.17,3.61v10.1c0,1.6,1.29,2.89,2.89,2.89h.02c1.6,0,2.89-1.29,2.89-2.89v-10.1s0-.02,0-.02v-10.1"/>
        <line class="cls-48" x1="456.81" y1="130.13" x2="435.17" y2="130.13"/>
        <path class="cls-51" d="m432.28,127.24c0,1.6,1.29,2.89,2.89,2.89"/>
        <line class="cls-51" x1="432.28" y1="127.24" x2="432.28" y2="117.14"/>
        <polyline class="cls-51" points="432.28 107.02 432.28 117.12 432.28 117.14 432.28 127.24"/>
        <path class="cls-50" d="m415,130.13c1.6,0,2.89-1.29,2.89-2.89v-10.1c-1.27-.76-2.16-2.03-2.16-3.61,0-2.39,1.94-4.33,4.33-4.33,2.39,0,4.33,1.94,4.33,4.33,0,1.57-.91,2.85-2.17,3.61v10.1c0,1.6,1.29,2.89,2.89,2.89h.02c1.6,0,2.89-1.29,2.89-2.89v-10.1s0-.02,0-.02v-10.1"/>
      </g>
      <g>
        <line class="cls-14" x1="226.56" y1="132.69" x2="204.18" y2="132.69"/>
        <path class="cls-13" d="m201.19,129.7c0,1.65,1.33,2.98,2.98,2.98"/>
        <line class="cls-13" x1="201.19" y1="129.7" x2="201.19" y2="119.26"/>
        <polyline class="cls-13" points="201.13 108.79 201.13 119.24 201.13 119.26 201.13 129.7"/>
        <path class="cls-12" d="m183.26,132.69c1.65,0,2.98-1.33,2.98-2.98v-10.44c-1.31-.78-2.24-2.09-2.24-3.73,0-2.47,2-4.48,4.48-4.48,2.47,0,4.48,2,4.48,4.48,0,1.63-.94,2.95-2.24,3.73v10.44c0,1.65,1.33,2.98,2.98,2.98h.02c1.65,0,2.98-1.33,2.98-2.98v-10.44s0-.02,0-.02v-10.44"/>
        <line class="cls-11" x1="265.3" y1="114.01" x2="242.92" y2="114.01"/>
        <path class="cls-13" d="m239.94,111.03c0,1.65,1.33,2.98,2.98,2.98"/>
        <line class="cls-13" x1="239.94" y1="111.03" x2="239.94" y2="100.58"/>
        <polyline class="cls-13" points="239.94 90.12 239.94 100.56 239.94 100.58 239.94 111.03"/>
        <path class="cls-12" d="m222.08,114.01c1.65,0,2.98-1.33,2.98-2.98v-10.44c-1.31-.78-2.24-2.09-2.24-3.73,0-2.47,2-4.48,4.48-4.48,2.47,0,4.48,2,4.48,4.48,0,1.63-.94,2.95-2.24,3.73v10.44c0,1.65,1.33,2.98,2.98,2.98h.02c1.65,0,2.98-1.33,2.98-2.98v-10.44s0-.02,0-.02v-10.44"/>
        <line class="cls-10" x1="314.6" y1="132.69" x2="292.21" y2="132.69"/>
        <path class="cls-13" d="m289.23,129.7c0,1.65,1.33,2.98,2.98,2.98"/>
        <line class="cls-13" x1="289.23" y1="129.7" x2="289.23" y2="119.26"/>
        <polyline class="cls-13" points="289.23 108.79 289.23 119.24 289.23 119.26 289.23 129.7"/>
        <path class="cls-12" d="m271.36,132.69c1.65,0,2.98-1.33,2.98-2.98v-10.44c-1.31-.78-2.24-2.09-2.24-3.73,0-2.47,2-4.48,4.48-4.48,2.47,0,4.48,2,4.48,4.48,0,1.63-.94,2.95-2.24,3.73v10.44c0,1.65,1.33,2.98,2.98,2.98h.02c1.65,0,2.98-1.33,2.98-2.98v-10.44s0-.02,0-.02v-10.44"/>
        <path class="cls-15" d="m201.13,108.79c0-1.22-.99-2.2-2.2-2.2h0c-1.22,0-2.2.99-2.2,2.2"/>
        <path class="cls-15" d="m239.94,90.12c0-1.22-.99-2.2-2.2-2.2h0c-1.22,0-2.2.99-2.2,2.2"/>
        <path class="cls-15" d="m289.22,108.79c0-1.22-.99-2.2-2.2-2.2h0c-1.22,0-2.2.99-2.2,2.2"/>
        <line class="cls-14" x1="226.56" y1="132.69" x2="204.18" y2="132.69"/>
        <path class="cls-13" d="m201.19,129.7c0,1.65,1.33,2.98,2.98,2.98"/>
        <line class="cls-13" x1="201.19" y1="129.7" x2="201.19" y2="119.26"/>
        <polyline class="cls-13" points="201.13 108.79 201.13 119.24 201.13 119.26 201.13 129.7"/>
        <path class="cls-12" d="m183.26,132.69c1.65,0,2.98-1.33,2.98-2.98v-10.44c-1.31-.78-2.24-2.09-2.24-3.73,0-2.47,2-4.48,4.48-4.48,2.47,0,4.48,2,4.48,4.48,0,1.63-.94,2.95-2.24,3.73v10.44c0,1.65,1.33,2.98,2.98,2.98h.02c1.65,0,2.98-1.33,2.98-2.98v-10.44s0-.02,0-.02v-10.44"/>
        <line class="cls-11" x1="265.3" y1="114.01" x2="242.92" y2="114.01"/>
        <path class="cls-13" d="m239.94,111.03c0,1.65,1.33,2.98,2.98,2.98"/>
        <line class="cls-13" x1="239.94" y1="111.03" x2="239.94" y2="100.58"/>
        <polyline class="cls-13" points="239.94 90.12 239.94 100.56 239.94 100.58 239.94 111.03"/>
        <path class="cls-12" d="m222.08,114.01c1.65,0,2.98-1.33,2.98-2.98v-10.44c-1.31-.78-2.24-2.09-2.24-3.73,0-2.47,2-4.48,4.48-4.48,2.47,0,4.48,2,4.48,4.48,0,1.63-.94,2.95-2.24,3.73v10.44c0,1.65,1.33,2.98,2.98,2.98h.02c1.65,0,2.98-1.33,2.98-2.98v-10.44s0-.02,0-.02v-10.44"/>
        <line class="cls-10" x1="314.6" y1="132.69" x2="292.21" y2="132.69"/>
        <path class="cls-13" d="m289.23,129.7c0,1.65,1.33,2.98,2.98,2.98"/>
        <line class="cls-13" x1="289.23" y1="129.7" x2="289.23" y2="119.26"/>
        <polyline class="cls-13" points="289.23 108.79 289.23 119.24 289.23 119.26 289.23 129.7"/>
        <path class="cls-12" d="m271.36,132.69c1.65,0,2.98-1.33,2.98-2.98v-10.44c-1.31-.78-2.24-2.09-2.24-3.73,0-2.47,2-4.48,4.48-4.48,2.47,0,4.48,2,4.48,4.48,0,1.63-.94,2.95-2.24,3.73v10.44c0,1.65,1.33,2.98,2.98,2.98h.02c1.65,0,2.98-1.33,2.98-2.98v-10.44s0-.02,0-.02v-10.44"/>
      </g>
      <g>
        <g>
          <line class="cls-30" x1="101.51" y1="88.4" x2="81.32" y2="88.4"/>
          <path class="cls-27" d="m71.9,88.4c1.49,0,2.69-1.2,2.69-2.69"/>
          <line class="cls-29" x1="78.63" y1="85.7" x2="78.63" y2="76.28"/>
          <line class="cls-27" x1="74.59" y1="85.7" x2="74.59" y2="81.25"/>
          <path class="cls-29" d="m81.32,88.4c-1.49,0-2.69-1.2-2.69-2.69v-9.42c1.17-.71,2.02-1.9,2.02-3.36,0-2.23-1.81-4.04-4.04-4.04-2.23,0-4.04,1.81-4.04,4.04,0,1.48.84,2.66,2.02,3.36v4.97"/>
          <line class="cls-33" x1="131.12" y1="88.4" x2="110.93" y2="88.4"/>
          <path class="cls-27" d="m101.51,88.4c1.49,0,2.69-1.2,2.69-2.69"/>
          <line class="cls-29" x1="108.24" y1="85.7" x2="108.24" y2="76.28"/>
          <line class="cls-27" x1="104.2" y1="85.7" x2="104.2" y2="81.25"/>
          <path class="cls-29" d="m110.93,88.4c-1.49,0-2.69-1.2-2.69-2.69v-9.42c1.17-.71,2.02-1.9,2.02-3.36,0-2.23-1.81-4.04-4.04-4.04-2.23,0-4.04,1.81-4.04,4.04,0,1.48.84,2.66,2.02,3.36v4.97"/>
          <line class="cls-32" x1="160.73" y1="88.4" x2="140.54" y2="88.4"/>
          <path class="cls-27" d="m131.12,88.4c1.49,0,2.69-1.2,2.69-2.69"/>
          <line class="cls-29" x1="137.85" y1="85.7" x2="137.85" y2="76.28"/>
          <line class="cls-27" x1="133.81" y1="85.7" x2="133.81" y2="81.25"/>
          <path class="cls-29" d="m140.54,88.4c-1.49,0-2.69-1.2-2.69-2.69v-9.42c1.17-.71,2.02-1.9,2.02-3.36,0-2.23-1.81-4.04-4.04-4.04-2.23,0-4.04,1.81-4.04,4.04,0,1.48.84,2.66,2.02,3.36v4.97"/>
          <path class="cls-27" d="m160.73,88.4c1.49,0,2.69-1.2,2.69-2.69"/>
          <line class="cls-29" x1="167.46" y1="85.7" x2="167.46" y2="76.28"/>
          <line class="cls-27" x1="163.42" y1="85.7" x2="163.42" y2="81.25"/>
          <path class="cls-29" d="m170.15,88.4c-1.49,0-2.69-1.2-2.69-2.69v-9.42c1.17-.71,2.02-1.9,2.02-3.36,0-2.23-1.81-4.04-4.04-4.04-2.23,0-4.04,1.81-4.04,4.04,0,1.48.84,2.66,2.02,3.36v4.97"/>
        </g>
        <line class="cls-27" x1="50.43" y1="85.7" x2="50.43" y2="76.28"/>
        <path class="cls-28" d="m53.12,88.4c-1.49,0-2.69-1.2-2.69-2.69v-9.42c1.17-.71,2.02-1.9,2.02-3.36,0-2.23-1.81-4.04-4.04-4.04-2.23,0-4.04,1.81-4.04,4.04,0,1.48.84,2.66,2.02,3.36v9.42c0,1.49-1.2,2.69-2.69,2.69"/>
        <line class="cls-27" x1="59.86" y1="85.7" x2="59.86" y2="76.28"/>
        <path class="cls-28" d="m62.55,88.4c-1.49,0-2.69-1.2-2.69-2.69v-9.42c1.17-.71,2.02-1.9,2.02-3.36,0-2.23-1.81-4.04-4.04-4.04-2.23,0-4.04,1.81-4.04,4.04,0,1.48.84,2.66,2.02,3.36v9.42c0,1.49-1.2,2.69-2.69,2.69"/>
        <g>
          <line class="cls-30" x1="80.88" y1="159.13" x2="60.7" y2="159.13"/>
          <path class="cls-29" d="m58,156.44c0,1.49,1.2,2.69,2.69,2.69"/>
          <line class="cls-29" x1="58" y1="156.44" x2="58" y2="147.02"/>
          <polyline class="cls-29" points="58 137.58 58 147 58 147.02 58 156.44"/>
          <path class="cls-28" d="m41.83,159.13c1.49,0,2.69-1.2,2.69-2.69v-9.42c-1.18-.7-2.02-1.89-2.02-3.36,0-2.23,1.81-4.04,4.04-4.04,2.23,0,4.04,1.81,4.04,4.04,0,1.47-.85,2.66-2.02,3.36v9.42c0,1.49,1.2,2.69,2.69,2.69h.02c1.49,0,2.69-1.2,2.69-2.69v-9.42s0-.02,0-.02v-9.42"/>
          <line class="cls-33" x1="125.33" y1="151.72" x2="105.15" y2="151.72"/>
          <path class="cls-29" d="m102.45,149.03c0,1.49,1.2,2.69,2.69,2.69"/>
          <line class="cls-29" x1="102.45" y1="149.03" x2="102.45" y2="139.61"/>
          <polyline class="cls-29" points="102.45 130.17 102.45 139.59 102.45 139.61 102.45 149.03"/>
          <path class="cls-28" d="m86.28,151.72c1.49,0,2.69-1.2,2.69-2.69v-9.42c-1.18-.7-2.02-1.89-2.02-3.36,0-2.23,1.81-4.04,4.04-4.04,2.23,0,4.04,1.81,4.04,4.04,0,1.47-.85,2.66-2.02,3.36v9.42c0,1.49,1.2,2.69,2.69,2.69h.02c1.49,0,2.69-1.2,2.69-2.69v-9.42s0-.02,0-.02v-9.42"/>
          <line class="cls-32" x1="169.78" y1="159.13" x2="149.6" y2="159.13"/>
          <path class="cls-29" d="m146.9,156.44c0,1.49,1.2,2.69,2.69,2.69"/>
          <line class="cls-29" x1="146.9" y1="156.44" x2="146.9" y2="147.02"/>
          <polyline class="cls-29" points="146.9 137.58 146.9 147 146.9 147.02 146.9 156.44"/>
          <path class="cls-28" d="m130.73,159.13c1.49,0,2.69-1.2,2.69-2.69v-9.42c-1.18-.7-2.02-1.89-2.02-3.36,0-2.23,1.81-4.04,4.04-4.04,2.23,0,4.04,1.81,4.04,4.04,0,1.47-.85,2.66-2.02,3.36v9.42c0,1.49,1.2,2.69,2.69,2.69h.02c1.49,0,2.69-1.2,2.69-2.69v-9.42s0-.02,0-.02v-9.42"/>
        </g>
        <g>
          <line class="cls-31" x1="102.88" y1="95.15" x2="102.88" y2="115.59"/>
          <polygon points="102.88 123.49 98.33 112.35 102.88 114.99 107.43 112.35 102.88 123.49"/>
        </g>
        <text class="cls-5" transform="translate(108.51 108.77)"><tspan x="0" y="0">+factors</tspan></text>
      </g>
      <text class="cls-3" transform="translate(15.09 494.22)"><tspan class="cls-7"><tspan x="0" y="0">4</tspan></tspan><tspan class="cls-60"><tspan x="-9.81" y="12">wRN</tspan><tspan class="cls-59" x="12.41" y="12">A</tspan></tspan></text>
      <text class="cls-4" transform="translate(15.82 615.85)"><tspan x="0" y="0">-</tspan></text>
      <g>
        <line class="cls-9" x1="132.49" y1="526.64" x2="102.5" y2="526.64"/>
        <path class="cls-8" d="m98.51,522.65c0,2.21,1.79,4,4,4"/>
        <line class="cls-8" x1="98.51" y1="522.65" x2="98.51" y2="508.65"/>
        <polyline class="cls-8" points="98.42 494.63 98.42 508.63 98.42 508.65 98.42 522.65"/>
        <path class="cls-8" d="m74.49,526.64c2.21,0,4-1.79,4-4v-13.99c-1.75-1.05-3-2.81-3-5,0-3.31,2.68-6,6-6,3.31,0,6,2.68,6,6,0,2.18-1.26,3.95-3,5v13.99c0,2.21,1.79,4,4,4h.03c2.21,0,4-1.79,4-4v-13.99s0-.03,0-.03v-13.99"/>
        <path class="cls-8" d="m98.42,494.63c0-1.63-1.32-2.95-2.95-2.95h0c-1.63,0-2.95,1.32-2.95,2.95"/>
      </g>
      <g>
        <line class="cls-24" x1="375.31" y1="526.23" x2="353.9" y2="526.23"/>
        <path class="cls-26" d="m351.05,523.38c0,1.58,1.28,2.85,2.85,2.85"/>
        <line class="cls-26" x1="351.05" y1="523.38" x2="351.05" y2="513.39"/>
        <polyline class="cls-26" points="350.98 503.38 350.98 513.37 350.98 513.39 350.98 523.38"/>
        <path class="cls-26" d="m333.9,526.23c1.58,0,2.85-1.28,2.85-2.85v-9.99c-1.25-.75-2.14-2-2.14-3.57,0-2.36,1.92-4.28,4.28-4.28,2.36,0,4.28,1.92,4.28,4.28,0,1.56-.9,2.82-2.14,3.57v9.99c0,1.58,1.28,2.85,2.85,2.85h.02c1.58,0,2.85-1.28,2.85-2.85v-9.99s0-.02,0-.02v-9.99"/>
        <line class="cls-20" x1="412.37" y1="508.37" x2="390.96" y2="508.37"/>
        <path class="cls-26" d="m388.1,505.51c0,1.58,1.28,2.85,2.85,2.85"/>
        <line class="cls-26" x1="388.1" y1="505.51" x2="388.1" y2="495.52"/>
        <polyline class="cls-26" points="388.1 485.52 388.1 495.51 388.1 495.52 388.1 505.51"/>
        <path class="cls-26" d="m371.02,508.37c1.58,0,2.85-1.28,2.85-2.85v-9.99c-1.25-.75-2.14-2-2.14-3.57,0-2.36,1.92-4.28,4.28-4.28,2.36,0,4.28,1.92,4.28,4.28,0,1.56-.9,2.82-2.14,3.57v9.99c0,1.58,1.28,2.85,2.85,2.85h.02c1.58,0,2.85-1.28,2.85-2.85v-9.99s0-.02,0-.02v-9.99"/>
        <line class="cls-21" x1="459.51" y1="526.23" x2="438.11" y2="526.23"/>
        <path class="cls-26" d="m435.25,523.38c0,1.58,1.28,2.85,2.85,2.85"/>
        <line class="cls-26" x1="435.25" y1="523.38" x2="435.25" y2="513.39"/>
        <polyline class="cls-26" points="435.25 503.38 435.25 513.37 435.25 513.39 435.25 523.38"/>
        <path class="cls-26" d="m418.16,526.23c1.58,0,2.85-1.28,2.85-2.85v-9.99c-1.25-.75-2.14-2-2.14-3.57,0-2.36,1.92-4.28,4.28-4.28,2.36,0,4.28,1.92,4.28,4.28,0,1.56-.9,2.82-2.14,3.57v9.99c0,1.58,1.28,2.85,2.85,2.85h.02c1.58,0,2.85-1.28,2.85-2.85v-9.99s0-.02,0-.02v-9.99"/>
        <path class="cls-26" d="m350.98,503.38c0-1.17-.94-2.11-2.11-2.11h0c-1.17,0-2.11.94-2.11,2.11"/>
        <path class="cls-26" d="m388.11,485.52c0-1.17-.94-2.11-2.11-2.11h0c-1.17,0-2.11.94-2.11,2.11"/>
        <path class="cls-26" d="m435.24,503.38c0-1.17-.94-2.11-2.11-2.11h0c-1.17,0-2.11.94-2.11,2.11"/>
        <line class="cls-24" x1="375.31" y1="526.23" x2="353.9" y2="526.23"/>
        <path class="cls-26" d="m351.05,523.38c0,1.58,1.28,2.85,2.85,2.85"/>
        <line class="cls-26" x1="351.05" y1="523.38" x2="351.05" y2="513.39"/>
        <polyline class="cls-26" points="350.98 503.38 350.98 513.37 350.98 513.39 350.98 523.38"/>
        <path class="cls-26" d="m333.9,526.23c1.58,0,2.85-1.28,2.85-2.85v-9.99c-1.25-.75-2.14-2-2.14-3.57,0-2.36,1.92-4.28,4.28-4.28,2.36,0,4.28,1.92,4.28,4.28,0,1.56-.9,2.82-2.14,3.57v9.99c0,1.58,1.28,2.85,2.85,2.85h.02c1.58,0,2.85-1.28,2.85-2.85v-9.99s0-.02,0-.02v-9.99"/>
        <line class="cls-20" x1="412.37" y1="508.37" x2="390.96" y2="508.37"/>
        <path class="cls-26" d="m388.1,505.51c0,1.58,1.28,2.85,2.85,2.85"/>
        <line class="cls-26" x1="388.1" y1="505.51" x2="388.1" y2="495.52"/>
        <polyline class="cls-26" points="388.1 485.52 388.1 495.51 388.1 495.52 388.1 505.51"/>
        <path class="cls-26" d="m371.02,508.37c1.58,0,2.85-1.28,2.85-2.85v-9.99c-1.25-.75-2.14-2-2.14-3.57,0-2.36,1.92-4.28,4.28-4.28,2.36,0,4.28,1.92,4.28,4.28,0,1.56-.9,2.82-2.14,3.57v9.99c0,1.58,1.28,2.85,2.85,2.85h.02c1.58,0,2.85-1.28,2.85-2.85v-9.99s0-.02,0-.02v-9.99"/>
        <line class="cls-21" x1="459.51" y1="526.23" x2="438.11" y2="526.23"/>
        <path class="cls-26" d="m435.25,523.38c0,1.58,1.28,2.85,2.85,2.85"/>
        <line class="cls-26" x1="435.25" y1="523.38" x2="435.25" y2="513.39"/>
        <polyline class="cls-26" points="435.25 503.38 435.25 513.37 435.25 513.39 435.25 523.38"/>
        <path class="cls-26" d="m418.16,526.23c1.58,0,2.85-1.28,2.85-2.85v-9.99c-1.25-.75-2.14-2-2.14-3.57,0-2.36,1.92-4.28,4.28-4.28,2.36,0,4.28,1.92,4.28,4.28,0,1.56-.9,2.82-2.14,3.57v9.99c0,1.58,1.28,2.85,2.85,2.85h.02c1.58,0,2.85-1.28,2.85-2.85v-9.99s0-.02,0-.02v-9.99"/>
      </g>
      <g>
        <line class="cls-26" x1="230.07" y1="530.23" x2="208.66" y2="530.23"/>
        <path class="cls-26" d="m205.8,527.38c0,1.58,1.28,2.85,2.85,2.85"/>
        <line class="cls-26" x1="205.8" y1="527.38" x2="205.8" y2="517.39"/>
        <polyline class="cls-26" points="205.74 507.38 205.74 517.37 205.74 517.39 205.74 527.38"/>
        <path class="cls-26" d="m188.65,530.23c1.58,0,2.85-1.28,2.85-2.85v-9.99c-1.25-.75-2.14-2-2.14-3.57,0-2.36,1.92-4.28,4.28-4.28,2.36,0,4.28,1.92,4.28,4.28,0,1.56-.9,2.82-2.14,3.57v9.99c0,1.58,1.28,2.85,2.85,2.85h.02c1.58,0,2.85-1.28,2.85-2.85v-9.99s0-.02,0-.02v-9.99"/>
        <line class="cls-20" x1="267.12" y1="512.37" x2="245.72" y2="512.37"/>
        <path class="cls-26" d="m242.86,509.51c0,1.58,1.28,2.85,2.85,2.85"/>
        <line class="cls-26" x1="242.86" y1="509.51" x2="242.86" y2="499.52"/>
        <polyline class="cls-26" points="242.86 489.52 242.86 499.51 242.86 499.52 242.86 509.51"/>
        <path class="cls-26" d="m225.78,512.37c1.58,0,2.85-1.28,2.85-2.85v-9.99c-1.25-.75-2.14-2-2.14-3.57,0-2.36,1.92-4.28,4.28-4.28,2.36,0,4.28,1.92,4.28,4.28,0,1.56-.9,2.82-2.14,3.57v9.99c0,1.58,1.28,2.85,2.85,2.85h.02c1.58,0,2.85-1.28,2.85-2.85v-9.99s0-.02,0-.02v-9.99"/>
        <line class="cls-21" x1="314.27" y1="530.23" x2="292.86" y2="530.23"/>
        <path class="cls-26" d="m290.01,527.38c0,1.58,1.28,2.85,2.85,2.85"/>
        <line class="cls-26" x1="290.01" y1="527.38" x2="290.01" y2="517.39"/>
        <polyline class="cls-26" points="290.01 507.38 290.01 517.37 290.01 517.39 290.01 527.38"/>
        <path class="cls-26" d="m272.92,530.23c1.58,0,2.85-1.28,2.85-2.85v-9.99c-1.25-.75-2.14-2-2.14-3.57,0-2.36,1.92-4.28,4.28-4.28,2.36,0,4.28,1.92,4.28,4.28,0,1.56-.9,2.82-2.14,3.57v9.99c0,1.58,1.28,2.85,2.85,2.85h.02c1.58,0,2.85-1.28,2.85-2.85v-9.99s0-.02,0-.02v-9.99"/>
        <path class="cls-26" d="m205.74,507.38c0-1.17-.94-2.11-2.11-2.11h0c-1.17,0-2.11.94-2.11,2.11"/>
        <path class="cls-26" d="m242.87,489.52c0-1.17-.94-2.11-2.11-2.11h0c-1.17,0-2.11.94-2.11,2.11"/>
        <path class="cls-26" d="m290,507.38c0-1.17-.94-2.11-2.11-2.11h0c-1.17,0-2.11.94-2.11,2.11"/>
        <line class="cls-26" x1="230.07" y1="530.23" x2="208.66" y2="530.23"/>
        <path class="cls-26" d="m205.8,527.38c0,1.58,1.28,2.85,2.85,2.85"/>
        <line class="cls-26" x1="205.8" y1="527.38" x2="205.8" y2="517.39"/>
        <polyline class="cls-26" points="205.74 507.38 205.74 517.37 205.74 517.39 205.74 527.38"/>
        <path class="cls-26" d="m188.65,530.23c1.58,0,2.85-1.28,2.85-2.85v-9.99c-1.25-.75-2.14-2-2.14-3.57,0-2.36,1.92-4.28,4.28-4.28,2.36,0,4.28,1.92,4.28,4.28,0,1.56-.9,2.82-2.14,3.57v9.99c0,1.58,1.28,2.85,2.85,2.85h.02c1.58,0,2.85-1.28,2.85-2.85v-9.99s0-.02,0-.02v-9.99"/>
        <line class="cls-20" x1="267.12" y1="512.37" x2="245.72" y2="512.37"/>
        <path class="cls-26" d="m242.86,509.51c0,1.58,1.28,2.85,2.85,2.85"/>
        <line class="cls-26" x1="242.86" y1="509.51" x2="242.86" y2="499.52"/>
        <polyline class="cls-26" points="242.86 489.52 242.86 499.51 242.86 499.52 242.86 509.51"/>
        <path class="cls-26" d="m225.78,512.37c1.58,0,2.85-1.28,2.85-2.85v-9.99c-1.25-.75-2.14-2-2.14-3.57,0-2.36,1.92-4.28,4.28-4.28,2.36,0,4.28,1.92,4.28,4.28,0,1.56-.9,2.82-2.14,3.57v9.99c0,1.58,1.28,2.85,2.85,2.85h.02c1.58,0,2.85-1.28,2.85-2.85v-9.99s0-.02,0-.02v-9.99"/>
        <line class="cls-21" x1="314.27" y1="530.23" x2="292.86" y2="530.23"/>
        <path class="cls-26" d="m290.01,527.38c0,1.58,1.28,2.85,2.85,2.85"/>
        <line class="cls-26" x1="290.01" y1="527.38" x2="290.01" y2="517.39"/>
        <polyline class="cls-26" points="290.01 507.38 290.01 517.37 290.01 517.39 290.01 527.38"/>
        <path class="cls-26" d="m272.92,530.23c1.58,0,2.85-1.28,2.85-2.85v-9.99c-1.25-.75-2.14-2-2.14-3.57,0-2.36,1.92-4.28,4.28-4.28,2.36,0,4.28,1.92,4.28,4.28,0,1.56-.9,2.82-2.14,3.57v9.99c0,1.58,1.28,2.85,2.85,2.85h.02c1.58,0,2.85-1.28,2.85-2.85v-9.99s0-.02,0-.02v-9.99"/>
      </g>
      <text class="cls-6" transform="translate(247.64 617.52)"><tspan x="0" y="0">?</tspan></text>
      <text class="cls-6" transform="translate(392.92 617.52)"><tspan x="0" y="0">?</tspan></text>
      <text class="cls-6" transform="translate(102.37 617.52)"><tspan x="0" y="0">?</tspan></text>
      <rect class="cls-58" x="39.44" width="134.9" height="42" rx="12" ry="12"/>
      <rect class="cls-58" x="183.63" width="134.9" height="42" rx="12" ry="12"/>
      <rect class="cls-58" x="327.82" width="134.9" height="42" rx="12" ry="12"/>
      <text class="cls-2" transform="translate(48.76 25.59)"><tspan x="0" y="0">Native CRISPR</tspan><tspan class="cls-59" x="84.69" y="0"> </tspan><tspan x="87.58" y="0">Array</tspan></text>
      <g>
        <path d="m198.81,18.39v-8.59h2.6l1.56,5.86,1.54-5.86h2.6v8.59h-1.61v-6.76l-1.71,6.76h-1.67l-1.7-6.76v6.76h-1.61Z"/>
        <path d="m208.81,11.33v-1.52h1.65v1.52h-1.65Zm0,7.07v-6.22h1.65v6.22h-1.65Z"/>
        <path d="m217.81,18.39h-1.65v-3.18c0-.67-.04-1.11-.11-1.3s-.18-.35-.34-.46-.35-.16-.57-.16c-.29,0-.54.08-.77.23s-.38.36-.47.62-.13.73-.13,1.43v2.82h-1.65v-6.22h1.53v.91c.54-.7,1.23-1.05,2.05-1.05.36,0,.7.07,1,.2s.53.3.68.5.26.43.32.69.09.63.09,1.11v3.87Z"/>
        <path d="m219.48,11.33v-1.52h1.65v1.52h-1.65Zm0,7.07v-6.22h1.65v6.22h-1.65Z"/>
        <path d="m222.69,12.17h1.52v.85c.54-.66,1.19-.99,1.94-.99.4,0,.74.08,1.04.25s.53.41.72.74c.27-.33.57-.58.88-.74s.65-.25,1.01-.25c.46,0,.84.09,1.16.28s.55.46.71.82c.11.27.17.7.17,1.29v3.98h-1.65v-3.56c0-.62-.06-1.02-.17-1.2-.15-.23-.39-.35-.7-.35-.23,0-.45.07-.65.21s-.35.35-.44.62-.13.7-.13,1.29v2.99h-1.65v-3.41c0-.61-.03-1-.09-1.17s-.15-.31-.27-.39-.29-.13-.5-.13c-.25,0-.48.07-.69.21s-.35.33-.44.59-.13.69-.13,1.28v3.02h-1.65v-6.22Z"/>
        <path d="m234.71,14.07l-1.49-.27c.17-.6.46-1.05.87-1.34s1.02-.43,1.83-.43c.73,0,1.28.09,1.64.26s.61.39.76.66.22.76.22,1.47l-.02,1.92c0,.55.03.95.08,1.21s.15.54.3.83h-1.63c-.04-.11-.1-.27-.16-.49-.03-.1-.05-.16-.06-.19-.28.27-.58.48-.9.62s-.66.21-1.03.21c-.64,0-1.15-.17-1.51-.52s-.55-.79-.55-1.32c0-.35.08-.67.25-.94s.4-.49.71-.63.74-.27,1.31-.38c.77-.14,1.3-.28,1.6-.4v-.16c0-.32-.08-.54-.23-.68s-.45-.2-.88-.2c-.29,0-.52.06-.69.17s-.3.32-.4.61Zm2.2,1.34c-.21.07-.54.15-1,.25s-.76.19-.9.29c-.21.15-.32.35-.32.58s.09.43.26.6.39.25.66.25c.3,0,.58-.1.85-.29.2-.15.33-.33.39-.54.04-.14.06-.41.06-.8v-.33Z"/>
        <path d="m240.16,18.39v-8.59h1.65v8.59h-1.65Z"/>
        <path d="m243.45,16.75h1.65v1.18c0,.48-.04.85-.12,1.13s-.24.52-.47.74-.52.39-.87.52l-.32-.68c.33-.11.57-.26.71-.45s.21-.45.22-.79h-.8v-1.65Z"/>
        <path d="m249.73,15.6l1.69-.16c.1.57.31.98.62,1.25s.73.4,1.26.4c.56,0,.98-.12,1.26-.35s.42-.51.42-.83c0-.2-.06-.38-.18-.52s-.33-.27-.62-.37c-.2-.07-.67-.2-1.39-.38-.93-.23-1.58-.51-1.96-.85-.53-.47-.79-1.05-.79-1.73,0-.44.12-.85.37-1.23s.61-.67,1.07-.87,1.03-.3,1.69-.3c1.08,0,1.89.24,2.43.71s.83,1.1.86,1.89l-1.73.08c-.07-.44-.23-.76-.48-.95s-.61-.29-1.1-.29-.9.1-1.18.31c-.18.13-.28.31-.28.53,0,.2.09.38.26.52.22.18.75.38,1.59.57s1.47.41,1.87.62.72.5.95.87.34.83.34,1.37c0,.49-.14.95-.41,1.38s-.66.75-1.16.96-1.12.31-1.87.31c-1.09,0-1.92-.25-2.5-.75s-.93-1.23-1.04-2.19Z"/>
        <path d="m257.38,12.17h1.75l1.49,4.42,1.45-4.42h1.71l-2.2,5.99-.39,1.08c-.14.36-.28.64-.41.83s-.28.35-.45.47-.38.21-.63.28-.53.1-.84.1-.63-.03-.93-.1l-.15-1.29c.26.05.49.08.7.08.38,0,.67-.11.85-.34s.32-.51.42-.86l-2.37-6.24Z"/>
        <path d="m270.5,18.39h-1.65v-3.18c0-.67-.04-1.11-.11-1.3s-.18-.35-.34-.46-.35-.16-.57-.16c-.29,0-.54.08-.77.23s-.38.36-.47.62-.13.73-.13,1.43v2.82h-1.65v-6.22h1.53v.91c.54-.7,1.23-1.05,2.05-1.05.36,0,.7.07,1,.2s.53.3.68.5.26.43.32.69.09.63.09,1.11v3.87Z"/>
        <path d="m275.02,12.17v1.31h-1.12v2.51c0,.51.01.8.03.89s.07.15.15.21.17.08.28.08c.15,0,.37-.05.66-.16l.14,1.28c-.38.16-.82.25-1.3.25-.3,0-.56-.05-.8-.15s-.41-.23-.52-.39-.19-.37-.23-.64c-.04-.19-.05-.58-.05-1.16v-2.71h-.76v-1.31h.76v-1.24l1.65-.96v2.2h1.12Z"/>
        <path d="m277.8,9.8v3.16c.53-.62,1.17-.93,1.9-.93.38,0,.72.07,1.03.21s.53.32.69.54.26.46.32.73.08.68.08,1.24v3.65h-1.65v-3.29c0-.65-.03-1.07-.09-1.24s-.17-.32-.33-.42-.36-.16-.59-.16c-.27,0-.52.07-.73.2s-.37.33-.47.6-.15.66-.15,1.19v3.12h-1.65v-8.59h1.65Z"/>
        <path d="m287.1,16.41l1.64.28c-.21.6-.54,1.06-1,1.37s-1.02.47-1.71.47c-1.08,0-1.88-.35-2.4-1.06-.41-.57-.62-1.28-.62-2.14,0-1.03.27-1.84.81-2.42s1.22-.88,2.04-.88c.93,0,1.66.31,2.19.92s.79,1.55.77,2.81h-4.12c.01.49.14.87.4,1.14s.57.41.95.41c.26,0,.47-.07.65-.21s.31-.37.4-.68Zm.09-1.66c-.01-.48-.13-.84-.37-1.09s-.52-.37-.86-.37c-.36,0-.66.13-.89.39s-.35.62-.35,1.07h2.46Z"/>
        <path d="m293.02,12.17v1.31h-1.12v2.51c0,.51.01.8.03.89s.07.15.15.21.17.08.28.08c.15,0,.37-.05.66-.16l.14,1.28c-.38.16-.82.25-1.3.25-.3,0-.56-.05-.8-.15s-.41-.23-.52-.39-.19-.37-.23-.64c-.04-.19-.05-.58-.05-1.16v-2.71h-.76v-1.31h.76v-1.24l1.65-.96v2.2h1.12Z"/>
        <path d="m294.16,11.33v-1.52h1.65v1.52h-1.65Zm0,7.07v-6.22h1.65v6.22h-1.65Z"/>
        <path d="m302.92,14.01l-1.62.29c-.05-.32-.18-.57-.37-.73s-.44-.25-.75-.25c-.41,0-.74.14-.98.42s-.37.76-.37,1.42c0,.74.12,1.26.37,1.56s.58.46,1,.46c.31,0,.57-.09.77-.27s.34-.48.42-.92l1.62.28c-.17.74-.49,1.3-.97,1.68s-1.12.57-1.92.57c-.91,0-1.64-.29-2.18-.86s-.81-1.37-.81-2.38.27-1.83.81-2.4,1.28-.86,2.2-.86c.76,0,1.36.16,1.81.49s.77.82.96,1.49Z"/>
        <path d="m194.81,32.79v-8.59h2.6l1.56,5.86,1.54-5.86h2.6v8.59h-1.61v-6.76l-1.71,6.76h-1.67l-1.7-6.76v6.76h-1.61Z"/>
        <path d="m208.92,32.79v-.93c-.23.33-.52.59-.89.79s-.76.29-1.17.29-.79-.09-1.12-.28-.57-.44-.72-.77-.22-.79-.22-1.38v-3.94h1.65v2.86c0,.88.03,1.41.09,1.61s.17.35.33.47.36.17.61.17c.28,0,.53-.08.76-.23s.38-.35.46-.57.12-.79.12-1.68v-2.62h1.65v6.22h-1.53Z"/>
        <path d="m212.15,32.79v-8.59h1.65v8.59h-1.65Z"/>
        <path d="m218.34,26.57v1.31h-1.12v2.51c0,.51.01.8.03.89s.07.15.15.21.17.08.28.08c.15,0,.37-.05.66-.16l.14,1.28c-.38.16-.82.25-1.3.25-.3,0-.56-.05-.8-.15s-.41-.23-.52-.39-.19-.37-.23-.64c-.04-.19-.05-.58-.05-1.16v-2.71h-.76v-1.31h.76v-1.24l1.65-.96v2.2h1.12Z"/>
        <path d="m219.48,25.73v-1.52h1.65v1.52h-1.65Zm0,7.07v-6.22h1.65v6.22h-1.65Z"/>
        <path d="m222.77,26.57h1.54v.91c.2-.31.47-.57.81-.76s.72-.29,1.13-.29c.72,0,1.34.28,1.84.85s.76,1.36.76,2.37-.25,1.85-.76,2.42-1.12.86-1.85.86c-.34,0-.66-.07-.93-.21s-.57-.37-.88-.7v3.13h-1.65v-8.59Zm1.63,3.01c0,.7.14,1.22.42,1.55s.62.5,1.01.5.7-.15.96-.46.38-.81.38-1.51c0-.65-.13-1.14-.39-1.45s-.59-.47-.97-.47-.74.16-1,.47-.4.77-.4,1.38Z"/>
        <path d="m230.15,32.79v-8.59h1.65v8.59h-1.65Z"/>
        <path d="m237.08,30.81l1.64.28c-.21.6-.54,1.06-1,1.37s-1.02.47-1.71.47c-1.08,0-1.88-.35-2.4-1.06-.41-.57-.62-1.28-.62-2.14,0-1.03.27-1.84.81-2.42s1.22-.88,2.04-.88c.93,0,1.66.31,2.19.92s.79,1.55.77,2.81h-4.12c.01.49.14.87.4,1.14s.57.41.95.41c.26,0,.47-.07.65-.21s.31-.37.4-.68Zm.09-1.66c-.01-.48-.13-.84-.37-1.09s-.52-.37-.86-.37c-.36,0-.66.13-.89.39s-.35.62-.35,1.07h2.46Z"/>
        <path d="m239.36,32.79l2.24-3.21-2.15-3.02h2.01l1.1,1.71,1.16-1.71h1.93l-2.11,2.95,2.3,3.28h-2.02l-1.27-1.93-1.28,1.93h-1.93Z"/>
        <path d="m246.83,25.73v-1.52h1.65v1.52h-1.65Zm0,7.07v-6.22h1.65v6.22h-1.65Z"/>
        <path d="m255.82,32.79h-1.65v-3.18c0-.67-.04-1.11-.11-1.3s-.18-.35-.34-.46-.35-.16-.57-.16c-.29,0-.54.08-.77.23s-.38.36-.47.62-.13.73-.13,1.43v2.82h-1.65v-6.22h1.53v.91c.54-.7,1.23-1.05,2.05-1.05.36,0,.7.07,1,.2s.53.3.68.5.26.43.32.69.09.63.09,1.11v3.87Z"/>
        <path d="m257.34,33.2l1.88.23c.03.22.1.37.22.45.16.12.4.18.74.18.43,0,.75-.06.97-.19.14-.09.25-.22.33-.42.05-.14.08-.39.08-.76v-.91c-.49.67-1.11,1.01-1.86,1.01-.84,0-1.5-.35-1.99-1.06-.38-.56-.57-1.25-.57-2.09,0-1.04.25-1.84.75-2.39s1.13-.83,1.87-.83,1.4.34,1.9,1.01v-.87h1.54v5.58c0,.73-.06,1.28-.18,1.65s-.29.65-.51.86-.51.37-.88.49-.83.18-1.39.18c-1.05,0-1.8-.18-2.24-.54s-.66-.82-.66-1.37c0-.05,0-.12,0-.2Zm1.47-3.65c0,.66.13,1.14.38,1.45s.57.46.95.46c.4,0,.74-.16,1.02-.47s.42-.78.42-1.4-.13-1.12-.4-1.44-.6-.47-1.01-.47-.72.15-.98.46-.38.77-.38,1.4Z"/>
        <path d="m268.16,24.2h3.17c.71,0,1.26.05,1.63.16.5.15.94.41,1.29.79s.63.84.82,1.39.28,1.23.28,2.03c0,.71-.09,1.32-.26,1.83-.21.62-.52,1.13-.92,1.52-.3.29-.71.52-1.22.69-.38.12-.89.18-1.54.18h-3.26v-8.59Zm1.73,1.45v5.69h1.29c.48,0,.83-.03,1.05-.08.28-.07.51-.19.7-.36s.34-.44.45-.83.18-.91.18-1.57-.06-1.17-.18-1.53-.28-.63-.49-.83-.48-.33-.8-.4c-.24-.05-.72-.08-1.42-.08h-.78Z"/>
        <path d="m280.43,30.81l1.64.28c-.21.6-.54,1.06-1,1.37s-1.02.47-1.71.47c-1.08,0-1.88-.35-2.4-1.06-.41-.57-.62-1.28-.62-2.14,0-1.03.27-1.84.81-2.42s1.22-.88,2.04-.88c.93,0,1.66.31,2.19.92s.79,1.55.77,2.81h-4.12c.01.49.14.87.4,1.14s.57.41.95.41c.26,0,.47-.07.65-.21s.31-.37.4-.68Zm.09-1.66c-.01-.48-.13-.84-.37-1.09s-.52-.37-.86-.37c-.36,0-.66.13-.89.39s-.35.62-.35,1.07h2.46Z"/>
        <path d="m282.92,31.02l1.65-.25c.07.32.21.56.43.73s.52.25.9.25c.43,0,.75-.08.96-.23.14-.11.22-.26.22-.44,0-.12-.04-.23-.12-.31-.08-.08-.27-.15-.55-.22-1.33-.29-2.17-.56-2.53-.8-.49-.34-.74-.8-.74-1.4,0-.54.21-.99.64-1.36s1.09-.55,1.98-.55,1.48.14,1.9.42.7.69.86,1.23l-1.55.29c-.07-.24-.19-.43-.38-.56s-.45-.19-.79-.19c-.43,0-.74.06-.93.18-.12.09-.19.2-.19.33,0,.12.05.22.16.3.15.11.66.26,1.54.46s1.49.44,1.84.73c.34.29.52.7.52,1.22,0,.57-.24,1.06-.71,1.47s-1.18.62-2.12.62c-.85,0-1.52-.17-2.01-.52s-.82-.81-.97-1.4Z"/>
        <path d="m290.17,25.73v-1.52h1.65v1.52h-1.65Zm0,7.07v-6.22h1.65v6.22h-1.65Z"/>
        <path d="m293.35,33.2l1.88.23c.03.22.1.37.22.45.16.12.4.18.74.18.43,0,.75-.06.97-.19.14-.09.25-.22.33-.42.05-.14.08-.39.08-.76v-.91c-.49.67-1.11,1.01-1.86,1.01-.84,0-1.5-.35-1.99-1.06-.38-.56-.57-1.25-.57-2.09,0-1.04.25-1.84.75-2.39s1.13-.83,1.87-.83,1.4.34,1.9,1.01v-.87h1.54v5.58c0,.73-.06,1.28-.18,1.65s-.29.65-.51.86-.51.37-.88.49-.83.18-1.39.18c-1.05,0-1.8-.18-2.24-.54s-.66-.82-.66-1.37c0-.05,0-.12,0-.2Zm1.47-3.65c0,.66.13,1.14.38,1.45s.57.46.95.46c.4,0,.74-.16,1.02-.47s.42-.78.42-1.4-.13-1.12-.4-1.44-.6-.47-1.01-.47-.72.15-.98.46-.38.77-.38,1.4Z"/>
        <path d="m306.49,32.79h-1.65v-3.18c0-.67-.04-1.11-.11-1.3s-.18-.35-.34-.46-.35-.16-.57-.16c-.29,0-.54.08-.77.23s-.38.36-.47.62-.13.73-.13,1.43v2.82h-1.65v-6.22h1.53v.91c.54-.7,1.23-1.05,2.05-1.05.36,0,.7.07,1,.2s.53.3.68.5.26.43.32.69.09.63.09,1.11v3.87Z"/>
      </g>
      <g>
        <path d="m375.37,16.62l1.65-.25c.07.32.21.56.43.73s.52.25.9.25c.43,0,.75-.08.96-.23.14-.11.22-.26.22-.44,0-.12-.04-.23-.12-.31-.08-.08-.27-.15-.55-.22-1.33-.29-2.17-.56-2.53-.8-.49-.34-.74-.8-.74-1.4,0-.54.21-.99.64-1.36s1.09-.55,1.98-.55,1.48.14,1.9.42.7.69.86,1.23l-1.55.29c-.07-.24-.19-.43-.38-.56s-.45-.19-.79-.19c-.43,0-.74.06-.93.18-.12.09-.19.2-.19.33,0,.12.05.22.16.3.15.11.66.26,1.54.46s1.49.44,1.84.73c.34.29.52.7.52,1.22,0,.57-.24,1.06-.71,1.47s-1.18.62-2.12.62c-.85,0-1.52-.17-2.01-.52s-.82-.81-.97-1.4Z"/>
        <path d="m382.47,18.8l1.88.23c.03.22.1.37.22.45.16.12.4.18.74.18.43,0,.75-.06.97-.19.14-.09.25-.22.33-.42.05-.14.08-.39.08-.76v-.91c-.49.67-1.11,1.01-1.86,1.01-.84,0-1.5-.35-1.99-1.06-.38-.56-.57-1.25-.57-2.09,0-1.04.25-1.84.75-2.39s1.13-.83,1.87-.83,1.4.34,1.9,1.01v-.87h1.54v5.58c0,.73-.06,1.28-.18,1.65s-.29.65-.51.86-.51.37-.88.49-.83.18-1.39.18c-1.05,0-1.8-.18-2.24-.54s-.66-.82-.66-1.37c0-.05,0-.12,0-.2Zm1.47-3.65c0,.66.13,1.14.38,1.45s.57.46.95.46c.4,0,.74-.16,1.02-.47s.42-.78.42-1.4-.13-1.12-.4-1.44-.6-.47-1.01-.47-.72.15-.98.46-.38.77-.38,1.4Z"/>
        <path d="m389.97,18.39v-8.59h3.65c.92,0,1.58.08,2,.23s.75.43,1,.82.38.85.38,1.35c0,.64-.19,1.18-.57,1.6s-.95.68-1.7.79c.38.22.68.46.93.72s.57.73.99,1.39l1.05,1.68h-2.07l-1.25-1.87c-.45-.67-.75-1.09-.91-1.26s-.34-.29-.52-.36-.47-.1-.87-.1h-.35v3.59h-1.73Zm1.73-4.96h1.28c.83,0,1.35-.04,1.56-.11s.37-.19.49-.36.18-.39.18-.64c0-.29-.08-.52-.23-.7s-.37-.29-.65-.34c-.14-.02-.56-.03-1.27-.03h-1.35v2.18Z"/>
        <path d="m398.64,18.39v-8.59h1.69l3.52,5.74v-5.74h1.61v8.59h-1.74l-3.46-5.6v5.6h-1.61Z"/>
        <path d="m415.04,18.39h-1.89l-.75-1.95h-3.43l-.71,1.95h-1.84l3.35-8.59h1.83l3.44,8.59Zm-3.19-3.4l-1.18-3.19-1.16,3.19h2.34Z"/>
        <path d="m339.04,32.79v-8.59h2.6l1.56,5.86,1.54-5.86h2.6v8.59h-1.61v-6.76l-1.71,6.76h-1.67l-1.7-6.76v6.76h-1.61Z"/>
        <path d="m353.15,32.79v-.93c-.23.33-.52.59-.89.79s-.76.29-1.17.29-.79-.09-1.12-.28-.57-.44-.72-.77-.22-.79-.22-1.38v-3.94h1.65v2.86c0,.88.03,1.41.09,1.61s.17.35.33.47.36.17.61.17c.28,0,.53-.08.76-.23s.38-.35.46-.57.12-.79.12-1.68v-2.62h1.65v6.22h-1.53Z"/>
        <path d="m356.38,32.79v-8.59h1.65v8.59h-1.65Z"/>
        <path d="m362.57,26.57v1.31h-1.12v2.51c0,.51.01.8.03.89s.07.15.15.21.17.08.28.08c.15,0,.37-.05.66-.16l.14,1.28c-.38.16-.82.25-1.3.25-.3,0-.56-.05-.8-.15s-.41-.23-.52-.39-.19-.37-.23-.64c-.04-.19-.05-.58-.05-1.16v-2.71h-.76v-1.31h.76v-1.24l1.65-.96v2.2h1.12Z"/>
        <path d="m363.71,25.73v-1.52h1.65v1.52h-1.65Zm0,7.07v-6.22h1.65v6.22h-1.65Z"/>
        <path d="m367,26.57h1.54v.91c.2-.31.47-.57.81-.76s.72-.29,1.13-.29c.72,0,1.34.28,1.84.85s.76,1.36.76,2.37-.25,1.85-.76,2.42-1.12.86-1.85.86c-.34,0-.66-.07-.93-.21s-.57-.37-.88-.7v3.13h-1.65v-8.59Zm1.63,3.01c0,.7.14,1.22.42,1.55s.62.5,1.01.5.7-.15.96-.46.38-.81.38-1.51c0-.65-.13-1.14-.39-1.45s-.59-.47-.97-.47-.74.16-1,.47-.4.77-.4,1.38Z"/>
        <path d="m374.38,32.79v-8.59h1.65v8.59h-1.65Z"/>
        <path d="m381.31,30.81l1.64.28c-.21.6-.54,1.06-1,1.37s-1.02.47-1.71.47c-1.08,0-1.88-.35-2.4-1.06-.41-.57-.62-1.28-.62-2.14,0-1.03.27-1.84.81-2.42s1.22-.88,2.04-.88c.93,0,1.66.31,2.19.92s.79,1.55.77,2.81h-4.12c.01.49.14.87.4,1.14s.57.41.95.41c.26,0,.47-.07.65-.21s.31-.37.4-.68Zm.09-1.66c-.01-.48-.13-.84-.37-1.09s-.52-.37-.86-.37c-.36,0-.66.13-.89.39s-.35.62-.35,1.07h2.46Z"/>
        <path d="m383.59,32.79l2.24-3.21-2.15-3.02h2.01l1.1,1.71,1.16-1.71h1.93l-2.11,2.95,2.3,3.28h-2.02l-1.27-1.93-1.28,1.93h-1.93Z"/>
        <path d="m391.06,25.73v-1.52h1.65v1.52h-1.65Zm0,7.07v-6.22h1.65v6.22h-1.65Z"/>
        <path d="m400.05,32.79h-1.65v-3.18c0-.67-.04-1.11-.11-1.3s-.18-.35-.34-.46-.35-.16-.57-.16c-.29,0-.54.08-.77.23s-.38.36-.47.62-.13.73-.13,1.43v2.82h-1.65v-6.22h1.53v.91c.54-.7,1.23-1.05,2.05-1.05.36,0,.7.07,1,.2s.53.3.68.5.26.43.32.69.09.63.09,1.11v3.87Z"/>
        <path d="m401.57,33.2l1.88.23c.03.22.1.37.22.45.16.12.4.18.74.18.43,0,.75-.06.97-.19.14-.09.25-.22.33-.42.05-.14.08-.39.08-.76v-.91c-.49.67-1.11,1.01-1.86,1.01-.84,0-1.5-.35-1.99-1.06-.38-.56-.57-1.25-.57-2.09,0-1.04.25-1.84.75-2.39s1.13-.83,1.87-.83,1.4.34,1.9,1.01v-.87h1.54v5.58c0,.73-.06,1.28-.18,1.65s-.29.65-.51.86-.51.37-.88.49-.83.18-1.39.18c-1.05,0-1.8-.18-2.24-.54s-.66-.82-.66-1.37c0-.05,0-.12,0-.2Zm1.47-3.65c0,.66.13,1.14.38,1.45s.57.46.95.46c.4,0,.74-.16,1.02-.47s.42-.78.42-1.4-.13-1.12-.4-1.44-.6-.47-1.01-.47-.72.15-.98.46-.38.77-.38,1.4Z"/>
        <path d="m412.39,24.2h3.17c.71,0,1.26.05,1.63.16.5.15.94.41,1.29.79s.63.84.82,1.39.28,1.23.28,2.03c0,.71-.09,1.32-.26,1.83-.21.62-.52,1.13-.92,1.52-.3.29-.71.52-1.22.69-.38.12-.89.18-1.54.18h-3.26v-8.59Zm1.73,1.45v5.69h1.29c.48,0,.83-.03,1.05-.08.28-.07.51-.19.7-.36s.34-.44.45-.83.18-.91.18-1.57-.06-1.17-.18-1.53-.28-.63-.49-.83-.48-.33-.8-.4c-.24-.05-.72-.08-1.42-.08h-.78Z"/>
        <path d="m424.65,30.81l1.64.28c-.21.6-.54,1.06-1,1.37s-1.02.47-1.71.47c-1.08,0-1.88-.35-2.4-1.06-.41-.57-.62-1.28-.62-2.14,0-1.03.27-1.84.81-2.42s1.22-.88,2.04-.88c.93,0,1.66.31,2.19.92s.79,1.55.77,2.81h-4.12c.01.49.14.87.4,1.14s.57.41.95.41c.26,0,.47-.07.65-.21s.31-.37.4-.68Zm.09-1.66c-.01-.48-.13-.84-.37-1.09s-.52-.37-.86-.37c-.36,0-.66.13-.89.39s-.35.62-.35,1.07h2.46Z"/>
        <path d="m427.14,31.02l1.65-.25c.07.32.21.56.43.73s.52.25.9.25c.43,0,.75-.08.96-.23.14-.11.22-.26.22-.44,0-.12-.04-.23-.12-.31-.08-.08-.27-.15-.55-.22-1.33-.29-2.17-.56-2.53-.8-.49-.34-.74-.8-.74-1.4,0-.54.21-.99.64-1.36s1.09-.55,1.98-.55,1.48.14,1.9.42.7.69.86,1.23l-1.55.29c-.07-.24-.19-.43-.38-.56s-.45-.19-.79-.19c-.43,0-.74.06-.93.18-.12.09-.19.2-.19.33,0,.12.05.22.16.3.15.11.66.26,1.54.46s1.49.44,1.84.73c.34.29.52.7.52,1.22,0,.57-.24,1.06-.71,1.47s-1.18.62-2.12.62c-.85,0-1.52-.17-2.01-.52s-.82-.81-.97-1.4Z"/>
        <path d="m434.4,25.73v-1.52h1.65v1.52h-1.65Zm0,7.07v-6.22h1.65v6.22h-1.65Z"/>
        <path d="m437.58,33.2l1.88.23c.03.22.1.37.22.45.16.12.4.18.74.18.43,0,.75-.06.97-.19.14-.09.25-.22.33-.42.05-.14.08-.39.08-.76v-.91c-.49.67-1.11,1.01-1.86,1.01-.84,0-1.5-.35-1.99-1.06-.38-.56-.57-1.25-.57-2.09,0-1.04.25-1.84.75-2.39s1.13-.83,1.87-.83,1.4.34,1.9,1.01v-.87h1.54v5.58c0,.73-.06,1.28-.18,1.65s-.29.65-.51.86-.51.37-.88.49-.83.18-1.39.18c-1.05,0-1.8-.18-2.24-.54s-.66-.82-.66-1.37c0-.05,0-.12,0-.2Zm1.47-3.65c0,.66.13,1.14.38,1.45s.57.46.95.46c.4,0,.74-.16,1.02-.47s.42-.78.42-1.4-.13-1.12-.4-1.44-.6-.47-1.01-.47-.72.15-.98.46-.38.77-.38,1.4Z"/>
        <path d="m450.72,32.79h-1.65v-3.18c0-.67-.04-1.11-.11-1.3s-.18-.35-.34-.46-.35-.16-.57-.16c-.29,0-.54.08-.77.23s-.38.36-.47.62-.13.73-.13,1.43v2.82h-1.65v-6.22h1.53v.91c.54-.7,1.23-1.05,2.05-1.05.36,0,.7.07,1,.2s.53.3.68.5.26.43.32.69.09.63.09,1.11v3.87Z"/>
      </g>
      <text class="cls-1" transform="translate(14.56 26.83)"><tspan x="0" y="0">#</tspan></text>
    </g>
  </g>
</svg>