<?xml version="1.0" encoding="UTF-8" standalone="no"?>
<!-- Created with Inkscape (http://www.inkscape.org/) -->

<svg
   width="600"
   height="600"
   version="1.1"
   viewBox="0 0 158.75 158.75"
   id="svg25027"
   sodipodi:docname="nav_icons_maser.svg"
   inkscape:version="1.2.2 (b0a84865, 2022-12-01)"
   xmlns:inkscape="http://www.inkscape.org/namespaces/inkscape"
   xmlns:sodipodi="http://sodipodi.sourceforge.net/DTD/sodipodi-0.dtd"
   xmlns="http://www.w3.org/2000/svg"
   xmlns:svg="http://www.w3.org/2000/svg">
  <defs
     id="defs25031" />
  <sodipodi:namedview
     id="namedview25029"
     pagecolor="#ffffff"
     bordercolor="#000000"
     borderopacity="0.25"
     inkscape:showpageshadow="2"
     inkscape:pageopacity="0.0"
     inkscape:pagecheckerboard="0"
     inkscape:deskcolor="#d1d1d1"
     showgrid="true"
     inkscape:zoom="5.4152631"
     inkscape:cx="168.5052"
     inkscape:cy="152.62416"
     inkscape:window-width="1512"
     inkscape:window-height="945"
     inkscape:window-x="255"
     inkscape:window-y="1117"
     inkscape:window-maximized="0"
     inkscape:current-layer="svg25027">
    <inkscape:grid
       type="xygrid"
       id="grid35160" />
  </sodipodi:namedview>
  <path
     d="m 41.644207,81.994042 c -0.616241,0 -1.11621,0.49997 -1.11621,1.116211 0,0.351141 0.165106,0.681354 0.446484,0.892969 l 5.060156,3.795116 c 0.2651,0.197663 0.627869,0.197663 0.892969,0 l 5.060156,-3.795116 c 0.281378,-0.211615 0.446485,-0.541828 0.446485,-0.892969 0,-0.616241 -0.499971,-1.116211 -1.116211,-1.116211 z m -1.11621,2.604492 v 4.836914 c 0,0.82088 0.667401,1.488281 1.488281,1.488281 h 8.929687 c 0.82088,0 1.488282,-0.667401 1.488282,-1.488281 v -4.836914 l -5.060157,3.795117 c -0.5302,0.39765 -1.255737,0.39765 -1.785937,0 z"
     id="path54152"
     style="stroke-width:0.0232544;stroke:none;fill:#e9eaf0;fill-opacity:1" />
  <path
     d="m 39.604826,22.758402 3.720483,-2e-6 2e-6,-3.720483 h 8.185135"
     style="fill:none;stroke:#e9eaf0;stroke-width:1.86029;stroke-miterlimit:3.4"
     id="path24969" />
  <path
     d="m 43.325396,23.544018 -1.72e-4,2.934867 h 3.720483 v -1.860287 h 4.464561"
     style="fill:none;stroke:#e9eaf0;stroke-width:1.86029;stroke-miterlimit:3.4"
     id="path24971"
     sodipodi:nodetypes="ccccc" />
  <path
     d="m 47.046512,26.478795 2e-6,1.860286 h 4.464562"
     style="fill:none;stroke:#e9eaf0;stroke-width:1.86029;stroke-miterlimit:3.4"
     id="path24973" />
  <rect
     x="40.543156"
     y="54.384575"
     width="1.9116877"
     height="7.646841"
     ry="0"
     style="fill:#e9eaf0;stroke-width:0.900041;paint-order:stroke fill markers"
     id="rect24979" />
  <rect
     x="42.83646"
     y="54.384575"
     width="1.9116877"
     height="7.646841"
     ry="0"
     style="fill:#e9eaf0;stroke-width:0.900041;paint-order:stroke fill markers"
     id="rect24981" />
  <rect
     x="45.130665"
     y="54.384575"
     width="1.9116877"
     height="7.646841"
     ry="0"
     style="fill:#e9eaf0;stroke-width:0.900041;paint-order:stroke fill markers"
     id="rect24983" />
  <path
     d="m 40.543155,62.269836 h 1.911688 c 0,0 2e-6,0.382347 0,0.764684 -10e-7,0.382338 -1.911688,0.382338 -1.911688,0 z"
     style="fill:#e9eaf0;stroke-width:0.900041;paint-order:stroke fill markers"
     id="path24985" />
  <path
     d="m 42.83646,62.269836 h 1.911688 c 0,0 2e-6,0.382347 0,0.764684 -2e-6,0.382338 -1.911688,0.382338 -1.911688,0 z"
     style="fill:#e9eaf0;stroke-width:0.900041;paint-order:stroke fill markers"
     id="path24987" />
  <path
     d="m 45.130665,62.269836 h 1.911688 c 0,0 2e-6,0.382347 0,0.764684 -10e-7,0.382338 -1.911688,0.382338 -1.911688,0 z"
     style="fill:#e9eaf0;stroke-width:0.900041;paint-order:stroke fill markers"
     id="path24989" />
  <path
     d="m 45.130665,54.145164 h 1.911688 c 0,0 2e-6,-0.382347 0,-0.764684 -10e-7,-0.382338 -1.911688,-0.382338 -1.911688,0 z"
     style="fill:#e9eaf0;stroke-width:0.900041;paint-order:stroke fill markers"
     id="path24991" />
  <path
     d="m 42.83646,54.145164 h 1.911688 c 0,0 2e-6,-0.382347 0,-0.764684 -2e-6,-0.382338 -1.911688,-0.382338 -1.911688,0 z"
     style="fill:#e9eaf0;stroke-width:0.900041;paint-order:stroke fill markers"
     id="path24993" />
  <path
     d="m 40.543155,54.145164 h 1.911688 c 0,0 1e-6,-0.382347 0,-0.764684 -2e-6,-0.382338 -1.911688,-0.382338 -1.911688,0 z"
     style="fill:#e9eaf0;stroke-width:0.900041;paint-order:stroke fill markers"
     id="path24995" />
  <rect
     transform="rotate(-19.777)"
     x="26.315371"
     y="67.839249"
     width="1.9116877"
     height="7.646841"
     ry="0"
     style="fill:#e9eaf0;stroke-width:0.900041;paint-order:stroke fill markers"
     id="rect24997" />
  <path
     d="m 50.385106,62.35354 1.798913,-0.646842 c 0,0 0.129363,0.359792 0.258735,0.719583 0.129363,0.359792 -1.669577,1.006607 -1.798913,0.646842 -0.129363,-0.359791 -0.258735,-0.719583 -0.258735,-0.719583 z"
     style="fill:#e9eaf0;stroke-width:0.900041;paint-order:stroke fill markers"
     id="path24999" />
  <path
     d="m 47.63638,54.70859 1.798913,-0.646842 c 0,0 -0.129381,-0.359792 -0.258735,-0.719583 -0.129363,-0.359792 -1.928339,0.28705 -1.798913,0.646842 0.129381,0.359791 0.258735,0.719583 0.258735,0.719583 z"
     style="fill:#e9eaf0;stroke-width:0.900041;paint-order:stroke fill markers"
     id="path25001" />
  <g
     aria-label="?"
     id="text25023"
     style="font-weight:bold;font-size:10.3411px;fill:#e9eaf0;stroke-width:0.869329;stroke-linecap:square;stroke-miterlimit:3.4"
     transform="matrix(1.1060145,0,0,1.1060145,-5.4077411,-12.66114)">
    <path
       d="m 49.626852,98.539183 q 0,0.509986 -0.151481,0.903837 -0.146431,0.388801 -0.419097,0.67661 -0.272666,0.28782 -0.656418,0.51504 -0.378702,0.22722 -0.858392,0.41405 v 1.15125 h -1.777376 v -1.70163 q 0.358505,-0.0959 0.646319,-0.19693 0.292863,-0.10099 0.610973,-0.328207 0.297912,-0.201975 0.464541,-0.469591 0.171679,-0.267616 0.171679,-0.605924 0,-0.504936 -0.328209,-0.71701 -0.323159,-0.217122 -0.913935,-0.217122 -0.363554,0 -0.823047,0.15653 -0.454442,0.15653 -0.833145,0.403949 H 44.55729 v -1.540056 q 0.323159,-0.136333 0.994725,-0.282765 0.671565,-0.151481 1.363328,-0.151481 1.247193,0 1.979351,0.550381 0.732158,0.550381 0.732158,1.439069 z m -1.944005,5.680537 h -2.039944 v -1.33303 h 2.039944 z"
       id="path5680" />
  </g>
  <rect
     y="26.458"
     width="17.198"
     height="17.198"
     ry=".12265"
     style="fill:#e9eaf0;paint-order:normal;stroke-linecap:square;stroke-miterlimit:3.4;stroke-width:.84667;stroke:#6e6464"
     id="rect25025" />
  <path
     d="m 40.024887,34.59003 h 11.90625"
     style="opacity:0.36;fill:none;stroke:#e9eaf0;stroke-width:1.61588;stroke-miterlimit:3.4"
     id="path24955-3" />
  <path
     d="m 40.024887,38.842584 h 11.90625"
     style="opacity:0.36;fill:none;stroke:#e9eaf0;stroke-width:1.61588;stroke-miterlimit:3.4"
     id="path24957-7" />
  <path
     d="m 40.024887,43.095138 h 11.90625"
     style="opacity:0.36;fill:none;stroke:#e9eaf0;stroke-width:1.61588;stroke-miterlimit:3.4"
     id="path24959-2" />
  <g
     aria-label="MVKKKYAI"
     id="text24963-4"
     style="font-weight:bold;font-size:2.01759px;opacity:0.36;fill:#e9eaf0;stroke-width:0.378293;stroke-miterlimit:3.4"
     transform="translate(39.321611,32.130713)">
    <path
       d="M 2.1668213,5.2541256 H 1.7904935 V 4.2719297 L 1.5185917,4.9093226 H 1.2575266 L 0.98562481,4.2719297 V 5.2541256 H 0.62900001 V 3.7872352 H 1.0683775 L 1.3984032,4.5231433 1.7274438,3.7872352 h 0.4393775 z"
       id="path40242" />
    <path
       d="M 3.8711333,3.7872352 3.3361961,5.2541256 H 2.912581 L 2.3776438,3.7872352 h 0.397016 L 3.1293143,4.8177035 3.4839688,3.7872352 Z"
       id="path40244" />
    <path
       d="M 5.4513162,5.2541256 H 4.9873099 L 4.5489175,4.6669754 4.4602539,4.7743569 V 5.2541256 H 4.0819557 V 3.7872352 h 0.3782982 v 0.663992 L 4.9843544,3.7872352 H 5.4227468 L 4.8493887,4.4660045 Z"
       id="path40246" />
    <path
       d="M 7.0068701,5.2541256 H 6.5428638 L 6.1044714,4.6669754 6.0158078,4.7743569 V 5.2541256 H 5.6375096 V 3.7872352 h 0.3782982 v 0.663992 L 6.5399083,3.7872352 H 6.9783007 L 6.4049426,4.4660045 Z"
       id="path40248" />
    <path
       d="M 8.562424,5.2541256 H 8.0984177 L 7.6600253,4.6669754 7.5713617,4.7743569 V 5.2541256 H 7.1930636 V 3.7872352 h 0.3782981 v 0.663992 L 8.0954622,3.7872352 H 8.5338546 L 7.9604965,4.4660045 Z"
       id="path40250" />
    <path
       d="M 10.039166,3.7872352 9.4983177,4.6866784 V 5.2541256 H 9.1200195 V 4.7044111 L 8.5703051,3.7872352 h 0.429526 L 9.3170498,4.3546824 9.6234319,3.7872352 Z"
       id="path40252" />
    <path
       d="M 11.590779,5.2541256 H 11.199674 L 11.098203,4.957595 H 10.5544 l -0.101471,0.2965306 h -0.381253 l 0.541833,-1.4668904 h 0.435437 z M 11.006584,4.6886487 10.826302,4.1625779 10.646019,4.6886487 Z"
       id="path40254" />
    <path
       d="m 12.594649,5.2541256 h -0.859052 v -0.26008 h 0.240377 V 4.0473151 H 11.735597 V 3.7872352 h 0.859052 v 0.2600799 h -0.240377 v 0.9467305 h 0.240377 z"
       id="path40256" />
  </g>
  <g
     aria-label="MKKPYSIT"
     id="text24967-1"
     style="font-weight:bold;font-size:2.06175px;opacity:0.36;fill:#e9eaf0;stroke-width:0.386573;stroke-miterlimit:3.4"
     transform="translate(39.321611,32.130713)">
    <path
       d="M 2.2854803,9.6348572 H 1.9009156 V 8.6311635 L 1.6230626,9.2825073 H 1.3562834 L 1.0784304,8.6311635 V 9.6348572 H 0.71400002 V 8.1358603 H 1.1629944 L 1.5002435,8.8878755 1.8364859,8.1358603 h 0.4489944 z"
       id="path40259" />
    <path
       d="M 4.0673638,9.6348572 H 3.5932016 L 3.145214,9.0348557 3.0546097,9.1445875 V 9.6348572 H 2.6680316 V 8.1358603 H 3.0546097 V 8.8143854 L 3.5901815,8.1358603 H 4.0381691 L 3.4522617,8.8294861 Z"
       id="path40261" />
    <path
       d="M 5.656965,9.6348572 H 5.1828028 L 4.7348151,9.0348557 4.6442109,9.1445875 V 9.6348572 H 4.2576328 V 8.1358603 H 4.6442109 V 8.8143854 L 5.1797826,8.1358603 H 5.6277703 L 5.0418628,8.8294861 Z"
       id="path40263" />
    <path
       d="m 7.0844853,8.6090158 q 0,0.1006714 -0.035235,0.1973159 Q 7.0140154,8.9019695 6.948579,8.9674059 6.8589814,9.0559967 6.7482429,9.1012988 6.6385111,9.146601 6.4744168,9.146601 H 6.2338122 V 9.6348572 H 5.847234 V 8.1358603 h 0.6362432 q 0.1429534,0 0.2406046,0.025168 0.098658,0.024161 0.1741615,0.07349 0.090604,0.059396 0.1379198,0.1520138 0.048322,0.092618 0.048322,0.2224837 z M 6.68482,8.6180762 q 0,-0.063423 -0.034228,-0.1087251 Q 6.616364,8.4630421 6.571062,8.4449211 6.510659,8.4207601 6.4532765,8.4187471 6.3958935,8.4157271 6.300256,8.4157271 H 6.233813 v 0.4489944 h 0.1107385 q 0.098658,0 0.1620809,-0.012081 0.06443,-0.01208 0.1077184,-0.048322 0.037248,-0.032215 0.053356,-0.07651 Q 6.68482,8.6825059 6.68482,8.6180762 Z"
       id="path40265" />
    <path
       d="M 8.6771066,8.1358603 8.1244207,9.05499 V 9.6348572 H 7.7378426 V 9.0731109 L 7.1760962,8.1358603 h 0.4389273 l 0.3241618,0.5798671 0.313088,-0.5798671 z"
       id="path40267" />
    <path
       d="m 10.077446,9.1637151 q 0,0.221477 -0.188256,0.3604036 -0.1872487,0.1379198 -0.5093972,0.1379198 -0.186242,0 -0.3251685,-0.032215 Q 8.9167045,9.5966021 8.7958988,9.5462664 V 9.1868695 h 0.042282 q 0.1197989,0.095638 0.2677859,0.1469802 0.1489936,0.051342 0.2859067,0.051342 0.035235,0 0.092618,-0.00604 0.057383,-0.00604 0.093624,-0.020134 0.044295,-0.018121 0.072483,-0.045302 0.029195,-0.027181 0.029195,-0.080537 0,-0.049329 -0.042282,-0.084564 Q 9.5962363,9.1123727 9.5156992,9.0932451 9.4311352,9.0731109 9.3365041,9.0559967 9.2428798,9.0378759 9.1603292,9.0106946 8.971067,8.9492851 8.8875098,8.8445868 8.8049592,8.7388819 8.8049592,8.5828412 q 0,-0.2093965 0.1872488,-0.341276 0.1882555,-0.1328862 0.4832226,-0.1328862 0.147987,0 0.2919471,0.029195 0.1449668,0.028188 0.2506713,0.071477 V 8.5546532 H 9.9767741 Q 9.8861699,8.4821698 9.7542904,8.4338476 9.6234176,8.3845186 9.4865045,8.3845186 q -0.048322,0 -0.096645,0.00705 -0.047316,0.00604 -0.091611,0.024161 -0.039262,0.015101 -0.06745,0.046309 -0.028188,0.030201 -0.028188,0.069463 0,0.059396 0.045302,0.091611 0.045302,0.031208 0.1711414,0.057383 0.08255,0.017114 0.158054,0.033221 0.07651,0.016107 0.1640944,0.044295 0.1721481,0.056376 0.2536919,0.1540272 0.082551,0.096645 0.082551,0.2516785 z"
       id="path40269" />
    <path
       d="M 11.152616,9.6348572 H 10.274761 V 9.3690847 h 0.245638 V 8.4016327 H 10.274761 V 8.1358603 h 0.877855 v 0.2657724 h -0.245638 v 0.967452 h 0.245638 z"
       id="path40271" />
    <path
       d="M 12.640539,8.4257939 H 12.172417 V 9.6348572 H 11.785839 V 8.4257939 H 11.317717 V 8.1358603 h 1.322822 z"
       id="path40273" />
  </g>
  <path
     id="path25003"
     style="opacity:0.50769;fill:#e9eaf0;stroke-width:0.900049;paint-order:stroke fill markers"
     d="m 41.477055,70.35798 -1.062984,1.173571 v 1.564763 h 2.80758 v -0.36897 c 0,-0.131874 0.164688,-0.238228 0.36897,-0.238228 0.204282,0 0.368453,0.106354 0.368453,0.238228 v 0.36897 h 4.554244 v -0.36897 c 0,-0.131874 0.164688,-0.238228 0.36897,-0.238228 0.204282,0 0.368453,0.106354 0.368453,0.238228 v 0.36897 h 2.856673 V 71.531551 L 51.04443,70.35798 Z" />
  <path
     id="path25005"
     style="opacity:0.50769;fill:#e9eaf0;stroke-width:0.900049;paint-order:stroke fill markers"
     d="m 40.414071,73.918486 v 1.642794 c 0,0 -3.57e-4,0.821138 0.353983,0.821138 h 10.984343 c 0.354339,10e-7 0.3545,-0.821138 0.3545,-0.821138 v -1.642794 h -2.856156 v 0.43925 c 0,0.131873 -0.164171,0.237711 -0.368453,0.237711 -0.204282,0 -0.36897,-0.105838 -0.36897,-0.237711 v -0.43925 h -4.554244 v 0.43925 c 0,0.131873 -0.164171,0.237711 -0.368453,0.237711 -0.204282,0 -0.36897,-0.105838 -0.36897,-0.237711 v -0.43925 z" />
  <path
     d="m 43.661269,70.379522 v -0.894468 l 0.247477,-0.29816 h 4.702035 l 0.247478,0.29816 v 0.894468"
     style="opacity:0.50769;fill:none;stroke:#e9eaf0;stroke-width:1.03182;stroke-miterlimit:3.4;paint-order:stroke fill markers"
     id="path25007" />
  <path
     id="path25015"
     style="fill:none;stroke:#e9eaf0;stroke-width:1.31614;stroke-linecap:round;stroke-linejoin:bevel;stroke-miterlimit:3.4;paint-order:fill markers stroke"
     d="m 48.947916,71.4375 2.96113,2.435651 m -2.632015,-3.816747 a 1.9741669,1.9741669 0 0 1 -1.974166,1.974167 1.9741669,1.9741669 0 0 1 -1.974167,-1.974167 1.9741669,1.9741669 0 0 1 1.974167,-1.974167 1.9741669,1.9741669 0 0 1 1.974166,1.974167 z" />
  <path
     d="m 39.908335,10.362899 a 1.543351,1.543351 0 1 1 3.086702,0 1.543351,1.543351 0 1 1 -3.086702,0 z m 4.409574,0 a 1.5433508,1.5433508 0 1 1 3.086701,0 1.5433508,1.5433508 0 1 1 -3.086701,0 z m 5.952924,-1.5433506 a 1.5433508,1.5433508 0 1 1 0,3.0867016 1.5433508,1.5433508 0 1 1 0,-3.0867016 z"
     id="path11292"
     style="stroke-width:0.0275598;fill:#e9eaf0;fill-opacity:1" />
  <path
     id="path12757"
     style="fill:none;stroke:#e9eaf0;stroke-width:1.82219;stroke-linecap:round;stroke-linejoin:bevel;stroke-miterlimit:3.4;paint-order:fill markers stroke"
     d="m 46.475955,39.385815 4.099683,3.372156 m -3.644023,-5.284283 a 2.7332328,2.7332328 0 0 1 -2.733233,2.733233 2.7332328,2.7332328 0 0 1 -2.733232,-2.733233 2.7332328,2.7332328 0 0 1 2.733232,-2.733233 2.7332328,2.7332328 0 0 1 2.733233,2.733233 z" />
</svg>
