<?xml version="1.0" encoding="UTF-8"?>
<svg id="Layer_2" data-name="Layer 2" xmlns="http://www.w3.org/2000/svg" viewBox="0 0 461 176.17">
  <defs>
    <style>
      .cls-1 {
        fill: #fff;
      }

      .cls-2 {
        fill: #fff7e6;
      }

      .cls-3 {
        font-size: 12px;
      }

      .cls-3, .cls-4, .cls-5, .cls-6 {
        font-family: Arial-BoldMT, Arial;
      }

      .cls-3, .cls-5, .cls-7, .cls-6 {
        font-weight: 700;
      }

      .cls-8 {
        letter-spacing: -.04em;
      }

      .cls-5 {
        font-size: 10px;
      }

      .cls-9 {
        stroke-width: .02px;
      }

      .cls-9, .cls-10 {
        fill: #323031;
      }

      .cls-9, .cls-10, .cls-11, .cls-12, .cls-13, .cls-14, .cls-15, .cls-16, .cls-17 {
        stroke-miterlimit: 10;
      }

      .cls-9, .cls-10, .cls-13 {
        stroke: #002b41;
      }

      .cls-18 {
        font-family: Arial-BoldItalicMT, Arial;
        font-style: italic;
      }

      .cls-10 {
        stroke-width: .02px;
      }

      .cls-11, .cls-12, .cls-13, .cls-14, .cls-15, .cls-16, .cls-17 {
        fill: none;
      }

      .cls-11, .cls-15 {
        stroke: #138f60;
      }

      .cls-12, .cls-16 {
        stroke: #0b5da2;
      }

      .cls-14, .cls-17 {
        stroke: #c94905;
      }

      .cls-19 {
        opacity: .45;
      }

      .cls-7 {
        font-size: 10.56px;
      }

      .cls-6 {
        font-size: 6px;
      }

      .cls-15, .cls-16, .cls-17 {
        stroke-width: .99px;
      }
    </style>
  </defs>
  <g id="Layer_1-2" data-name="Layer 1">
    <g>
      <rect class="cls-2" x="40.84" width="44.33" height="149.25" rx="12" ry="12"/>
      <rect class="cls-2" x="273.47" width="44.33" height="149.25" rx="12" ry="12"/>
      <rect class="cls-2" x="226.94" width="44.33" height="149.25" rx="12" ry="12"/>
      <rect class="cls-2" x="180.42" width="44.33" height="149.25" rx="12" ry="12"/>
      <rect class="cls-2" x="133.89" width="44.33" height="149.25" rx="12" ry="12"/>
      <rect class="cls-2" x="87.37" width="44.33" height="149.25" rx="12" ry="12"/>
      <rect class="cls-2" x="319.99" width="44.33" height="149.25" rx="12" ry="12"/>
      <rect class="cls-2" x="366.51" width="44.33" height="149.25" rx="12" ry="12"/>
      <rect class="cls-2" x="413.04" width="44.33" height="149.25" rx="12" ry="12"/>
      <text class="cls-7" transform="translate(10.86 51.91)"><tspan class="cls-18"><tspan x="0" y="0">cis</tspan></tspan><tspan class="cls-4"><tspan x="-10.86" y="12.68">activity</tspan></tspan></text>
      <text class="cls-7" transform="translate(5.29 93.67)"><tspan class="cls-18"><tspan x="0" y="0">trans</tspan></tspan><tspan class="cls-4"><tspan x="-5.29" y="12.68">activity</tspan></tspan></text>
      <text class="cls-3" transform="translate(15.26 21.14)"><tspan x="0" y="0">#</tspan></text>
    </g>
    <g>
      <g class="cls-19">
        <path class="cls-1" d="m248.24,60.51c-2.74,0-4.98-2.23-4.98-4.98,0-2.58,1.93-4.7,4.49-4.95l.37-.04.08-.36c.69-3.08,3.48-5.32,6.64-5.32,3.75,0,6.81,3.05,6.81,6.8s-3.05,6.8-6.81,6.8c-.67,0-1.33-.1-1.96-.29l-.35-.11-.21.3c-.93,1.33-2.46,2.12-4.08,2.12Z"/>
        <path d="m254.84,45.38c3.47,0,6.3,2.82,6.3,6.29s-2.82,6.29-6.3,6.29c-.62,0-1.23-.09-1.82-.27l-.71-.21-.42.6c-.84,1.19-2.21,1.91-3.66,1.91-2.46,0-4.47-2-4.47-4.46,0-2.31,1.73-4.22,4.03-4.44l.74-.07.16-.72c.64-2.85,3.22-4.92,6.14-4.92m0-1.02c-3.49,0-6.41,2.45-7.14,5.72-2.78.27-4.95,2.61-4.95,5.46,0,3.03,2.46,5.49,5.49,5.49,1.86,0,3.5-.93,4.5-2.34.67.2,1.38.31,2.11.31,4.04,0,7.32-3.28,7.32-7.32s-3.28-7.32-7.32-7.32h0Z"/>
      </g>
      <path class="cls-16" d="m247.41,57.99c-2.3,2.6-5.5,2.24-7.55-1.07"/>
      <path class="cls-16" d="m248.2,56.92c-.25.4-.51.75-.79,1.07"/>
      <path class="cls-17" d="m234.91,56.91c2.31-3.71,6.04-3.71,8.35,0"/>
      <path class="cls-17" d="m248.79,59.45c-1.92.73-4.03-.11-5.54-2.53"/>
      <path class="cls-17" d="m251.6,56.92c-.8,1.29-1.78,2.13-2.81,2.53"/>
      <path class="cls-16" d="m264.89,56.92c-2.31,3.71-6.04,3.71-8.35,0"/>
      <path class="cls-17" d="m252.22,56.04c2.31-2.81,5.62-2.52,7.73.87"/>
      <path class="cls-17" d="m251.6,56.91c.2-.32.4-.61.62-.87"/>
      <path class="cls-17" d="m268.29,56.92c-2.31,3.71-6.04,3.71-8.35,0"/>
      <path class="cls-16" d="m231.51,56.91c2.31-3.71,6.04-3.71,8.35,0"/>
      <path class="cls-16" d="m249.13,55.69c2.29-2.43,5.4-2.03,7.42,1.22"/>
      <path class="cls-16" d="m248.2,56.91c.29-.46.6-.87.93-1.22"/>
    </g>
    <g>
      <text class="cls-5" transform="translate(431.79 59.48)"><tspan x="0" y="0">?</tspan></text>
      <text class="cls-5" transform="translate(431.79 98.48)"><tspan x="0" y="0">?</tspan></text>
    </g>
    <g>
      <path class="cls-11" d="m426.73,167.22c2.34-3.76,6.12-3.76,8.46,0"/>
      <path class="cls-11" d="m440.8,169.8c-1.95.74-4.09-.11-5.61-2.56"/>
      <path class="cls-11" d="m444.28,166.34c2.35-2.85,5.69-2.56,7.83.88"/>
      <path class="cls-11" d="m460.58,167.23c-2.34,3.76-6.12,3.76-8.46,0"/>
    </g>
    <g>
      <path class="cls-14" d="m351.53,166.22c2.34-3.76,6.12-3.76,8.46,0"/>
      <path class="cls-14" d="m365.61,168.8c-1.95.74-4.09-.11-5.61-2.56"/>
      <path class="cls-14" d="m369.09,165.34c2.35-2.85,5.69-2.56,7.83.88"/>
      <path class="cls-14" d="m385.38,166.23c-2.34,3.76-6.12,3.76-8.46,0"/>
    </g>
    <text class="cls-6" transform="translate(5.84 164.07)"><tspan x="0" y="0">Cas-cutting</tspan><tspan x="-.67" y="7.2">nucleic acid</tspan></text>
    <text class="cls-6" transform="translate(80.05 164.07)"><tspan x="0" y="0">Cut dsDN</tspan><tspan class="cls-8" x="27.33" y="0">A</tspan><tspan x="6.06" y="7.2">(Blunt)</tspan></text>
    <text class="cls-6" transform="translate(162.4 164.07)"><tspan x="0" y="0">Cut dsDN</tspan><tspan class="cls-8" x="27.33" y="0">A</tspan><tspan x="-.95" y="7.2">(Staggered)</tspan></text>
    <text class="cls-6" transform="translate(240.55 164.07)"><tspan x="0" y="0">Cut dsDN</tspan><tspan class="cls-8" x="27.33" y="0">A</tspan><tspan x="3.88" y="7.2">(Nicked)</tspan></text>
    <text class="cls-6" transform="translate(315.97 167.67)"><tspan x="0" y="0">Cut ssDN</tspan><tspan class="cls-8" x="27" y="0">A</tspan></text>
    <text class="cls-6" transform="translate(391.22 168.67)"><tspan x="0" y="0">Cut ssRN</tspan><tspan class="cls-8" x="27" y="0">A</tspan></text>
    <g>
      <path class="cls-12" d="m291.74,167.32c-2.33,2.63-5.57,2.27-7.66-1.08"/>
      <path class="cls-12" d="m292.54,166.23c-.25.4-.52.77-.8,1.08"/>
      <path class="cls-14" d="m279.06,166.22c2.34-3.76,6.12-3.76,8.46,0"/>
      <path class="cls-14" d="m293.14,168.8c-1.95.74-4.09-.11-5.61-2.56"/>
      <path class="cls-14" d="m295.99,166.23c-.81,1.31-1.81,2.16-2.85,2.56"/>
      <path class="cls-12" d="m309.46,166.23c-2.34,3.76-6.12,3.76-8.46,0"/>
      <path class="cls-14" d="m296.62,165.34c2.35-2.85,5.69-2.56,7.83.88"/>
      <path class="cls-14" d="m295.99,166.22c.2-.32.41-.61.63-.88"/>
      <path class="cls-14" d="m312.91,166.23c-2.34,3.76-6.12,3.76-8.46,0"/>
      <path class="cls-12" d="m275.62,166.22c2.34-3.76,6.12-3.76,8.46,0"/>
      <path class="cls-12" d="m292.34,164.18c.5.23,1.14.81,1.14.81,2.32-2.47,5.48-2.06,7.52,1.23"/>
    </g>
    <g>
      <g class="cls-19">
        <path class="cls-1" d="m58.36,60.58c-2.74,0-4.98-2.23-4.98-4.98,0-2.58,1.93-4.7,4.49-4.95l.37-.04.08-.36c.69-3.08,3.48-5.32,6.64-5.32,3.75,0,6.81,3.05,6.81,6.8s-3.05,6.8-6.81,6.8c-.67,0-1.33-.1-1.96-.29l-.35-.11-.21.3c-.93,1.33-2.46,2.12-4.08,2.12Z"/>
        <path d="m64.97,45.45c3.47,0,6.3,2.82,6.3,6.29s-2.82,6.29-6.3,6.29c-.62,0-1.23-.09-1.82-.27l-.71-.21-.42.6c-.84,1.19-2.21,1.91-3.66,1.91-2.46,0-4.47-2-4.47-4.46,0-2.31,1.73-4.22,4.03-4.44l.74-.07.16-.72c.64-2.85,3.22-4.92,6.14-4.92m0-1.02c-3.49,0-6.41,2.45-7.14,5.72-2.78.27-4.95,2.61-4.95,5.46,0,3.03,2.46,5.49,5.49,5.49,1.86,0,3.5-.93,4.5-2.34.67.2,1.38.31,2.11.31,4.04,0,7.32-3.28,7.32-7.32s-3.28-7.32-7.32-7.32h0Z"/>
      </g>
      <path class="cls-16" d="m58.33,57c-2.31,3.71-6.04,3.71-8.35,0"/>
      <path class="cls-17" d="m45.03,56.98c2.31-3.71,6.04-3.71,8.35,0"/>
      <path class="cls-17" d="m61.72,57c-2.31,3.71-6.04,3.71-8.35,0"/>
      <path class="cls-16" d="m80.63,57c-2.31,3.71-6.04,3.71-8.35,0"/>
      <path class="cls-17" d="m67.34,56.98c2.31-3.71,6.04-3.71,8.35,0"/>
      <path class="cls-17" d="m84.03,57c-2.31,3.71-6.04,3.71-8.35,0"/>
      <path class="cls-16" d="m41.63,56.98c2.31-3.71,6.04-3.71,8.35,0"/>
      <path class="cls-16" d="m63.94,56.98c2.31-3.71,6.04-3.71,8.35,0"/>
      <polygon class="cls-10" points="62.81 56.92 64.65 53.73 60.96 53.73 62.81 56.92"/>
      <polygon class="cls-10" points="62.81 59.33 60.96 62.52 64.65 62.52 62.81 59.33"/>
    </g>
    <g>
      <g class="cls-19">
        <path class="cls-1" d="m105.75,61.27c-2.74,0-4.98-2.23-4.98-4.98,0-2.58,1.93-4.7,4.49-4.95l.37-.04.08-.36c.69-3.08,3.48-5.32,6.64-5.32,3.75,0,6.81,3.05,6.81,6.8s-3.05,6.8-6.81,6.8c-.67,0-1.33-.1-1.96-.29l-.35-.11-.21.3c-.93,1.33-2.46,2.12-4.08,2.12Z"/>
        <path d="m112.36,46.14c3.47,0,6.3,2.82,6.3,6.29s-2.82,6.29-6.3,6.29c-.62,0-1.23-.09-1.82-.27l-.71-.21-.42.6c-.84,1.19-2.21,1.91-3.66,1.91-2.46,0-4.47-2-4.47-4.46,0-2.31,1.73-4.22,4.03-4.44l.74-.07.16-.72c.64-2.85,3.22-4.92,6.14-4.92m0-1.02c-3.49,0-6.41,2.45-7.14,5.72-2.78.27-4.95,2.61-4.95,5.46,0,3.03,2.46,5.49,5.49,5.49,1.86,0,3.5-.93,4.5-2.34.67.2,1.38.31,2.11.31,4.04,0,7.32-3.28,7.32-7.32s-3.28-7.32-7.32-7.32h0Z"/>
      </g>
      <path class="cls-16" d="m106.97,58.76c-2.3,2.6-5.5,2.24-7.55-1.07"/>
      <path class="cls-16" d="m107.76,57.69c-.25.4-.51.75-.79,1.07"/>
      <path class="cls-17" d="m94.47,57.68c2.31-3.71,6.04-3.71,8.35,0"/>
      <path class="cls-16" d="m124.45,57.69c-2.31,3.71-6.04,3.71-8.35,0"/>
      <path class="cls-17" d="m111.78,56.81c2.31-2.81,5.62-2.52,7.73.87"/>
      <path class="cls-17" d="m111.16,57.68c.2-.32.4-.61.62-.87"/>
      <path class="cls-17" d="m127.85,57.69c-2.31,3.71-6.04,3.71-8.35,0"/>
      <path class="cls-16" d="m91.07,57.68c2.31-3.71,6.04-3.71,8.35,0"/>
      <polygon class="cls-10" points="103.87 57.54 105.71 54.35 102.02 54.35 103.87 57.54"/>
      <polygon class="cls-10" points="115.85 59.15 114.01 62.34 117.7 62.34 115.85 59.15"/>
    </g>
    <g>
      <g>
        <path class="cls-17" d="m140.1,95.84c2.31-3.71,6.04-3.71,8.35,0"/>
        <path class="cls-17" d="m153.98,98.38c-1.92.73-4.03-.11-5.54-2.53"/>
        <path class="cls-17" d="m157.41,94.98c2.31-2.81,5.62-2.52,7.73.87"/>
        <path class="cls-17" d="m173.48,95.86c-2.31,3.71-6.04,3.71-8.35,0"/>
      </g>
      <g>
        <g class="cls-19">
          <path class="cls-1" d="m152.57,61.94c-2.74,0-4.98-2.23-4.98-4.98,0-2.58,1.93-4.7,4.49-4.95l.37-.04.08-.36c.69-3.08,3.48-5.32,6.64-5.32,3.75,0,6.81,3.05,6.81,6.8s-3.05,6.8-6.81,6.8c-.67,0-1.33-.1-1.96-.29l-.35-.11-.21.3c-.93,1.33-2.46,2.12-4.08,2.12Z"/>
          <path d="m159.17,46.81c3.47,0,6.3,2.82,6.3,6.29s-2.82,6.29-6.3,6.29c-.62,0-1.23-.09-1.82-.27l-.71-.21-.42.6c-.84,1.19-2.21,1.91-3.66,1.91-2.46,0-4.47-2-4.47-4.46,0-2.31,1.73-4.22,4.03-4.44l.74-.07.16-.72c.64-2.85,3.22-4.92,6.14-4.92m0-1.02c-3.49,0-6.41,2.45-7.14,5.72-2.78.27-4.95,2.61-4.95,5.46,0,3.03,2.46,5.49,5.49,5.49,1.86,0,3.5-.93,4.5-2.34.67.2,1.38.31,2.11.31,4.04,0,7.32-3.28,7.32-7.32s-3.28-7.32-7.32-7.32h0Z"/>
        </g>
        <path class="cls-16" d="m153.78,59.42c-2.3,2.6-5.5,2.24-7.55-1.07"/>
        <path class="cls-16" d="m154.57,58.35c-.25.4-.51.75-.79,1.07"/>
        <path class="cls-17" d="m141.28,58.34c2.31-3.71,6.04-3.71,8.35,0"/>
        <path class="cls-16" d="m171.26,58.35c-2.31,3.71-6.04,3.71-8.35,0"/>
        <path class="cls-17" d="m158.59,57.47c2.31-2.81,5.62-2.52,7.73.87"/>
        <path class="cls-17" d="m157.97,58.34c.2-.32.4-.61.62-.87"/>
        <path class="cls-17" d="m174.66,58.35c-2.31,3.71-6.04,3.71-8.35,0"/>
        <path class="cls-16" d="m137.88,58.34c2.31-3.71,6.04-3.71,8.35,0"/>
        <polygon class="cls-10" points="150.68 58.21 152.52 55.01 148.83 55.01 150.68 58.21"/>
        <polygon class="cls-10" points="162.66 59.81 160.82 63.01 164.51 63.01 162.66 59.81"/>
      </g>
    </g>
    <g>
      <g>
        <path class="cls-17" d="m189.1,95.84c2.31-3.71,6.04-3.71,8.35,0"/>
        <path class="cls-17" d="m202.98,98.38c-1.92.73-4.03-.11-5.54-2.53"/>
        <path class="cls-17" d="m206.41,94.98c2.31-2.81,5.62-2.52,7.73.87"/>
        <path class="cls-17" d="m222.48,95.86c-2.31,3.71-6.04,3.71-8.35,0"/>
      </g>
      <g>
        <g class="cls-19">
          <path class="cls-1" d="m201.4,60.51c-2.74,0-4.98-2.23-4.98-4.98,0-2.58,1.93-4.7,4.49-4.95l.37-.04.08-.36c.69-3.08,3.48-5.32,6.64-5.32,3.75,0,6.81,3.05,6.81,6.8s-3.05,6.8-6.81,6.8c-.67,0-1.33-.1-1.96-.29l-.35-.11-.21.3c-.93,1.33-2.46,2.12-4.08,2.12Z"/>
          <path d="m208.01,45.38c3.47,0,6.3,2.82,6.3,6.29s-2.82,6.29-6.3,6.29c-.62,0-1.23-.09-1.82-.27l-.71-.21-.42.6c-.84,1.19-2.21,1.91-3.66,1.91-2.46,0-4.47-2-4.47-4.46,0-2.31,1.73-4.22,4.03-4.44l.74-.07.16-.72c.64-2.85,3.22-4.92,6.14-4.92m0-1.02c-3.49,0-6.41,2.45-7.14,5.72-2.78.27-4.95,2.61-4.95,5.46,0,3.03,2.46,5.49,5.49,5.49,1.86,0,3.5-.93,4.5-2.34.67.2,1.38.31,2.11.31,4.04,0,7.32-3.28,7.32-7.32s-3.28-7.32-7.32-7.32h0Z"/>
        </g>
        <path class="cls-16" d="m201.6,57.99c-2.3,2.6-5.5,2.24-7.55-1.07"/>
        <path class="cls-16" d="m202.39,56.92c-.25.4-.51.75-.79,1.07"/>
        <path class="cls-17" d="m189.1,56.91c2.31-3.71,6.04-3.71,8.35,0"/>
        <path class="cls-17" d="m202.98,59.45c-1.92.73-4.03-.11-5.54-2.53"/>
        <path class="cls-17" d="m205.79,56.92c-.8,1.29-1.78,2.13-2.81,2.53"/>
        <path class="cls-16" d="m219.08,56.92c-2.31,3.71-6.04,3.71-8.35,0"/>
        <path class="cls-17" d="m206.41,56.04c2.31-2.81,5.62-2.52,7.73.87"/>
        <path class="cls-17" d="m205.79,56.91c.2-.32.4-.61.62-.87"/>
        <path class="cls-17" d="m222.48,56.92c-2.31,3.71-6.04,3.71-8.35,0"/>
        <path class="cls-16" d="m185.7,56.91c2.31-3.71,6.04-3.71,8.35,0"/>
        <path class="cls-16" d="m210.73,56.91c-2.02-3.24-5.13-3.65-7.42-1.22h0"/>
        <polygon class="cls-10" points="202.44 55.63 200.59 52.44 204.28 52.44 202.44 55.63"/>
      </g>
    </g>
    <g>
      <g>
        <path class="cls-15" d="m279.33,95.84c2.31-3.71,6.04-3.71,8.35,0"/>
        <path class="cls-15" d="m293.21,98.38c-1.92.73-4.03-.11-5.54-2.53"/>
        <path class="cls-15" d="m296.64,94.98c2.31-2.81,5.62-2.52,7.73.87"/>
        <path class="cls-15" d="m312.71,95.86c-2.31,3.71-6.04,3.71-8.35,0"/>
      </g>
      <g>
        <g class="cls-19">
          <path class="cls-1" d="m295.21,60.84c-2.74,0-4.98-2.23-4.98-4.98,0-2.58,1.93-4.7,4.49-4.95l.37-.04.08-.36c.69-3.08,3.48-5.32,6.64-5.32,3.75,0,6.81,3.05,6.81,6.8s-3.05,6.8-6.81,6.8c-.67,0-1.33-.1-1.96-.29l-.35-.11-.21.3c-.93,1.33-2.46,2.12-4.08,2.12Z"/>
          <path d="m301.81,45.71c3.47,0,6.3,2.82,6.3,6.29s-2.82,6.29-6.3,6.29c-.62,0-1.23-.09-1.82-.27l-.71-.21-.42.6c-.84,1.19-2.21,1.91-3.66,1.91-2.46,0-4.47-2-4.47-4.46,0-2.31,1.73-4.22,4.03-4.44l.74-.07.16-.72c.64-2.85,3.22-4.92,6.14-4.92m0-1.02c-3.49,0-6.41,2.45-7.14,5.72-2.78.27-4.95,2.61-4.95,5.46,0,3.03,2.46,5.49,5.49,5.49,1.86,0,3.5-.93,4.5-2.34.67.2,1.38.31,2.11.31,4.04,0,7.32-3.28,7.32-7.32s-3.28-7.32-7.32-7.32h0Z"/>
        </g>
        <path class="cls-15" d="m279.33,57.25c2.31-3.71,6.04-3.71,8.35,0"/>
        <path class="cls-15" d="m293.21,59.79c-1.92.73-4.03-.11-5.54-2.53"/>
        <path class="cls-15" d="m296.64,56.38c2.31-2.81,5.62-2.52,7.73.87"/>
        <path class="cls-15" d="m312.71,57.26c-2.31,3.71-6.04,3.71-8.35,0"/>
        <polygon class="cls-10" points="294.24 58.67 296.08 55.48 292.39 55.48 294.24 58.67"/>
        <polygon class="cls-10" points="294.24 61.07 292.39 64.27 296.08 64.27 294.24 61.07"/>
      </g>
    </g>
    <g>
      <path class="cls-15" d="m325.46,95.84c2.31-3.71,6.04-3.71,8.35,0"/>
      <path class="cls-15" d="m339.34,98.38c-1.92.73-4.03-.11-5.54-2.53"/>
      <path class="cls-15" d="m342.77,94.98c2.31-2.81,5.62-2.52,7.73.87"/>
      <path class="cls-15" d="m358.84,95.86c-2.31,3.71-6.04,3.71-8.35,0"/>
      <g>
        <path class="cls-15" d="m325.46,112.69c2.31-3.71,6.04-3.71,8.35,0"/>
        <path class="cls-15" d="m339.34,115.23c-1.92.73-4.03-.11-5.54-2.53"/>
        <path class="cls-15" d="m342.77,111.83c2.31-2.81,5.62-2.52,7.73.87"/>
        <path class="cls-15" d="m358.84,112.71c-2.31,3.71-6.04,3.71-8.35,0"/>
      </g>
      <g>
        <g class="cls-19">
          <path class="cls-1" d="m340.62,60.84c-2.74,0-4.98-2.23-4.98-4.98,0-2.58,1.93-4.7,4.49-4.95l.37-.04.08-.36c.69-3.08,3.48-5.32,6.64-5.32,3.75,0,6.81,3.05,6.81,6.8s-3.05,6.8-6.81,6.8c-.67,0-1.33-.1-1.96-.29l-.35-.11-.21.3c-.93,1.33-2.46,2.12-4.08,2.12Z"/>
          <path d="m347.23,45.71c3.47,0,6.3,2.82,6.3,6.29s-2.82,6.29-6.3,6.29c-.62,0-1.23-.09-1.82-.27l-.71-.21-.42.6c-.84,1.19-2.21,1.91-3.66,1.91-2.46,0-4.47-2-4.47-4.46,0-2.31,1.73-4.22,4.03-4.44l.74-.07.16-.72c.64-2.85,3.22-4.92,6.14-4.92m0-1.02c-3.49,0-6.41,2.45-7.14,5.72-2.78.27-4.95,2.61-4.95,5.46,0,3.03,2.46,5.49,5.49,5.49,1.86,0,3.5-.93,4.5-2.34.67.2,1.38.31,2.11.31,4.04,0,7.32-3.28,7.32-7.32s-3.28-7.32-7.32-7.32h0Z"/>
        </g>
        <path class="cls-15" d="m324.74,57.25c2.31-3.71,6.04-3.71,8.35,0"/>
        <path class="cls-15" d="m338.62,59.79c-1.92.73-4.03-.11-5.54-2.53"/>
        <path class="cls-15" d="m342.05,56.38c2.31-2.81,5.62-2.52,7.73.87"/>
        <path class="cls-15" d="m358.12,57.26c-2.31,3.71-6.04,3.71-8.35,0"/>
        <polygon class="cls-10" points="339.65 58.67 341.5 55.48 337.81 55.48 339.65 58.67"/>
        <polygon class="cls-10" points="339.65 61.07 337.81 64.27 341.5 64.27 339.65 61.07"/>
      </g>
    </g>
    <g>
      <g class="cls-19">
        <path class="cls-1" d="m61.83,172.68c-2.78,0-5.05-2.26-5.05-5.05,0-2.61,1.96-4.77,4.56-5.02l.37-.04.08-.37c.7-3.12,3.53-5.39,6.73-5.39,3.81,0,6.9,3.1,6.9,6.9s-3.1,6.9-6.9,6.9c-.67,0-1.34-.1-1.99-.29l-.36-.11-.21.31c-.95,1.35-2.49,2.15-4.14,2.15Z"/>
        <path d="m68.52,157.33c3.52,0,6.38,2.86,6.38,6.38s-2.86,6.38-6.38,6.38c-.62,0-1.24-.09-1.84-.27l-.72-.22-.43.61c-.85,1.21-2.24,1.93-3.71,1.93-2.5,0-4.53-2.03-4.53-4.53,0-2.34,1.76-4.28,4.09-4.51l.75-.07.16-.73c.65-2.89,3.26-4.99,6.23-4.99m0-1.04c-3.54,0-6.5,2.48-7.24,5.8-2.82.27-5.02,2.65-5.02,5.54,0,3.07,2.49,5.56,5.56,5.56,1.89,0,3.55-.94,4.56-2.38.68.2,1.4.31,2.14.31,4.1,0,7.42-3.32,7.42-7.42s-3.32-7.42-7.42-7.42h0Z"/>
      </g>
      <path class="cls-13" d="m45.72,169.03c2.34-3.76,6.12-3.76,8.46,0"/>
      <path class="cls-13" d="m59.8,171.61c-1.95.74-4.09-.11-5.61-2.56"/>
      <path class="cls-13" d="m63.27,168.15c2.35-2.85,5.69-2.56,7.83.88"/>
      <path class="cls-13" d="m79.57,169.05c-2.34,3.76-6.12,3.76-8.46,0"/>
      <polygon class="cls-9" points="60.84 170.48 62.71 167.24 58.97 167.24 60.84 170.48"/>
      <polygon class="cls-9" points="60.84 172.92 58.97 176.16 62.71 176.16 60.84 172.92"/>
    </g>
    <g>
      <g>
        <path class="cls-15" d="m371.97,95.84c2.31-3.71,6.04-3.71,8.35,0"/>
        <path class="cls-15" d="m385.85,98.38c-1.92.73-4.03-.11-5.54-2.53"/>
        <path class="cls-15" d="m389.28,94.98c2.31-2.81,5.62-2.52,7.73.87"/>
        <path class="cls-15" d="m405.35,95.86c-2.31,3.71-6.04,3.71-8.35,0"/>
      </g>
      <g>
        <path class="cls-15" d="m371.97,112.69c2.31-3.71,6.04-3.71,8.35,0"/>
        <path class="cls-15" d="m385.85,115.23c-1.92.73-4.03-.11-5.54-2.53"/>
        <path class="cls-15" d="m389.28,111.83c2.31-2.81,5.62-2.52,7.73.87"/>
        <path class="cls-15" d="m405.35,112.71c-2.31,3.71-6.04,3.71-8.35,0"/>
      </g>
      <g>
        <g class="cls-19">
          <path class="cls-1" d="m386.41,60.84c-2.74,0-4.98-2.23-4.98-4.98,0-2.58,1.93-4.7,4.49-4.95l.37-.04.08-.36c.69-3.08,3.48-5.32,6.64-5.32,3.75,0,6.81,3.05,6.81,6.8s-3.05,6.8-6.81,6.8c-.67,0-1.33-.1-1.96-.29l-.35-.11-.21.3c-.93,1.33-2.46,2.12-4.08,2.12Z"/>
          <path d="m393.01,45.71c3.47,0,6.3,2.82,6.3,6.29s-2.82,6.29-6.3,6.29c-.62,0-1.23-.09-1.82-.27l-.71-.21-.42.6c-.84,1.19-2.21,1.91-3.66,1.91-2.46,0-4.47-2-4.47-4.46,0-2.31,1.73-4.22,4.03-4.44l.74-.07.16-.72c.64-2.85,3.22-4.92,6.14-4.92m0-1.02c-3.49,0-6.41,2.45-7.14,5.72-2.78.27-4.95,2.61-4.95,5.46,0,3.03,2.46,5.49,5.49,5.49,1.86,0,3.5-.93,4.5-2.34.67.2,1.38.31,2.11.31,4.04,0,7.32-3.28,7.32-7.32s-3.28-7.32-7.32-7.32h0Z"/>
        </g>
        <path class="cls-15" d="m370.52,57.25c2.31-3.71,6.04-3.71,8.35,0"/>
        <path class="cls-15" d="m384.4,59.79c-1.92.73-4.03-.11-5.54-2.53"/>
        <path class="cls-15" d="m387.83,56.38c2.31-2.81,5.62-2.52,7.73.87"/>
        <path class="cls-15" d="m403.9,57.26c-2.31,3.71-6.04,3.71-8.35,0"/>
        <polygon class="cls-10" points="385.44 58.67 387.28 55.48 383.59 55.48 385.44 58.67"/>
        <polygon class="cls-10" points="385.44 61.07 383.59 64.27 387.28 64.27 385.44 61.07"/>
      </g>
      <g>
        <path class="cls-16" d="m385.57,128.61c-2.31,3.71-6.04,3.71-8.35,0"/>
        <path class="cls-17" d="m372.28,128.6c2.31-3.71,6.04-3.71,8.35,0"/>
        <path class="cls-17" d="m388.97,128.61c-2.31,3.71-6.04,3.71-8.35,0"/>
        <path class="cls-16" d="m407.88,128.61c-2.31,3.71-6.04,3.71-8.35,0"/>
        <path class="cls-17" d="m394.59,128.6c2.31-3.71,6.04-3.71,8.35,0"/>
        <path class="cls-17" d="m411.28,128.61c-2.31,3.71-6.04,3.71-8.35,0"/>
        <path class="cls-16" d="m368.88,128.6c2.31-3.71,6.04-3.71,8.35,0"/>
        <path class="cls-16" d="m391.19,128.6c2.31-3.71,6.04-3.71,8.35,0"/>
      </g>
    </g>
    <g>
      <path class="cls-12" d="m133.04,166.23c-2.34,3.76-6.12,3.76-8.46,0"/>
      <path class="cls-14" d="m119.57,166.22c2.34-3.76,6.12-3.76,8.46,0"/>
      <path class="cls-14" d="m136.49,166.23c-2.34,3.76-6.12,3.76-8.46,0"/>
      <path class="cls-12" d="m155.67,166.23c-2.34,3.76-6.12,3.76-8.46,0"/>
      <path class="cls-14" d="m142.19,166.22c2.34-3.76,6.12-3.76,8.46,0"/>
      <path class="cls-14" d="m159.11,166.23c-2.34,3.76-6.12,3.76-8.46,0"/>
      <path class="cls-12" d="m116.12,166.22c2.34-3.76,6.12-3.76,8.46,0"/>
      <path class="cls-12" d="m138.74,166.22c2.34-3.76,6.12-3.76,8.46,0"/>
    </g>
    <g>
      <path class="cls-12" d="m215.25,167.32c-2.33,2.63-5.57,2.27-7.66-1.08"/>
      <path class="cls-12" d="m216.05,166.23c-.25.4-.52.77-.8,1.08"/>
      <path class="cls-14" d="m202.57,166.22c2.34-3.76,6.12-3.76,8.46,0"/>
      <path class="cls-12" d="m232.97,166.23c-2.34,3.76-6.12,3.76-8.46,0"/>
      <path class="cls-14" d="m220.13,165.34c2.35-2.85,5.69-2.56,7.83.88"/>
      <path class="cls-14" d="m219.5,166.22c.2-.32.41-.61.63-.88"/>
      <path class="cls-14" d="m236.42,166.23c-2.34,3.76-6.12,3.76-8.46,0"/>
      <path class="cls-12" d="m199.13,166.22c2.34-3.76,6.12-3.76,8.46,0"/>
    </g>
    <text class="cls-3" transform="translate(59.63 22.33)"><tspan x="0" y="0">1</tspan></text>
    <text class="cls-3" transform="translate(106.01 22.33)"><tspan x="0" y="0">2</tspan></text>
    <text class="cls-3" transform="translate(152.38 22.33)"><tspan x="0" y="0">3</tspan></text>
    <text class="cls-3" transform="translate(198.75 22.33)"><tspan x="0" y="0">4</tspan></text>
    <text class="cls-3" transform="translate(245.12 22.33)"><tspan x="0" y="0">5</tspan></text>
    <text class="cls-3" transform="translate(291.5 22.33)"><tspan x="0" y="0">6</tspan></text>
    <text class="cls-3" transform="translate(337.87 22.33)"><tspan x="0" y="0">7</tspan></text>
    <text class="cls-3" transform="translate(384.24 22.33)"><tspan x="0" y="0">8</tspan></text>
    <text class="cls-3" transform="translate(430.72 17.33)"><tspan x="0" y="0">_</tspan></text>
  </g>
</svg>