<?xml version="1.0" encoding="UTF-8"?>
<svg id="Layer_2" data-name="Layer 2" xmlns="http://www.w3.org/2000/svg" viewBox="0 0 324.11 195.47">
  <defs>
    <style>
      .cls-1 {
        fill: #ff9700;
        font-family: ArialMT, Arial;
        font-size: 5.44px;
      }

      .cls-2 {
        fill: #fff;
      }

      .cls-3 {
        fill: #fff7e6;
      }

      .cls-4 {
        stroke: #c94905;
      }

      .cls-4, .cls-5, .cls-6 {
        stroke-width: 1.81px;
      }

      .cls-4, .cls-5, .cls-6, .cls-7, .cls-8, .cls-9 {
        fill: none;
        stroke-miterlimit: 10;
      }

      .cls-5 {
        stroke: #0b5da2;
      }

      .cls-6 {
        stroke: #138f60;
      }

      .cls-10 {
        letter-spacing: -.04em;
      }

      .cls-11 {
        letter-spacing: -.07em;
      }

      .cls-12 {
        opacity: .45;
      }

      .cls-13 {
        opacity: .5;
      }

      .cls-7 {
        stroke: #000;
        stroke-width: .91px;
      }

      .cls-8 {
        stroke-width: 1.36px;
      }

      .cls-8, .cls-9 {
        stroke: #ff9700;
      }

      .cls-9 {
        stroke-width: 1.37px;
      }

      .cls-14 {
        font-family: Arial-BoldMT, Arial;
        font-size: 9.07px;
        font-weight: 700;
      }
    </style>
  </defs>
  <g id="Layer_1-2" data-name="Layer 1">
    <g>
      <g>
        <rect class="cls-3" x="110.16" width="103.79" height="94.31" rx="12" ry="12"/>
        <rect class="cls-3" x="110.16" y="101.16" width="103.79" height="94.31" rx="12" ry="12"/>
      </g>
      <g>
        <rect class="cls-3" y="101.16" width="103.79" height="94.31" rx="12" ry="12"/>
        <rect class="cls-3" width="103.79" height="94.31" rx="12" ry="12"/>
      </g>
      <g>
        <rect class="cls-3" x="220.32" y="0" width="103.79" height="94.31" rx="12" ry="12"/>
        <rect class="cls-3" x="220.32" y="101.16" width="103.79" height="94.31" rx="12" ry="12"/>
      </g>
    </g>
    <g>
      <path class="cls-4" d="m26.08,76.83c-.78-.72-1.51-1.62-2.18-2.69v-.02c-4.09-6.58-10.72-6.58-14.81,0"/>
      <path class="cls-5" d="m95.12,73.79c-4.09,6.58-10.72,6.58-14.81,0"/>
      <path class="cls-9" d="m72.96,65.16c-1.82,0-3.3-1.47-3.3-3.3v-11.54c1.45-.86,2.47-2.31,2.47-4.12,0-2.73-2.21-4.95-4.95-4.95s-4.95,2.21-4.95,4.95c0,1.8,1.04,3.26,2.48,4.12v11.54c0,1.82-1.47,3.3-3.3,3.3h-24.73"/>
      <path class="cls-5" d="m2.98,73.77c4.09-6.58,10.72-6.58,14.81,0v.02c3.58,5.76,9.1,6.48,13.17,2.16"/>
      <path class="cls-4" d="m101.23,74.14c-4.09,6.58-10.72,6.58-14.81,0v-.02c-4.09-6.58-10.72-6.58-14.81,0,0,0-2.63,4.11-4.08,4.11h-24.26c-.3,0-.59-.12-.81-.33-.97-.97-3.74-3.75-3.74-3.75-3.43,5.51-8.63,6.41-12.63,2.69"/>
      <g class="cls-12">
        <path class="cls-2" d="m53.77,66.06c-4.87,0-8.83-3.96-8.83-8.84,0-4.57,3.43-8.35,7.97-8.79l.66-.06.14-.64c1.22-5.47,6.18-9.44,11.79-9.44,6.66,0,12.08,5.42,12.08,12.08s-5.42,12.08-12.08,12.08c-1.18,0-2.35-.17-3.48-.51l-.63-.19-.38.54c-1.66,2.36-4.36,3.77-7.24,3.77Z"/>
        <path d="m65.5,39.2c6.16,0,11.18,5.01,11.18,11.18s-5.01,11.18-11.18,11.18c-1.09,0-2.18-.16-3.22-.47l-1.26-.38-.75,1.07c-1.49,2.12-3.91,3.39-6.5,3.39-4.37,0-7.93-3.56-7.93-7.93,0-4.1,3.08-7.5,7.15-7.89l1.31-.13.29-1.28c1.13-5.06,5.71-8.73,10.9-8.73m0-1.81c-6.2,0-11.38,4.34-12.67,10.15-4.94.48-8.79,4.63-8.79,9.7,0,5.38,4.36,9.74,9.74,9.74,3.3,0,6.22-1.65,7.98-4.16,1.19.36,2.44.55,3.75.55,7.17,0,12.99-5.82,12.99-12.99s-5.82-12.99-12.99-12.99h0Z"/>
      </g>
      <path class="cls-5" d="m30.97,75.95c.58-.62,1.13-1.34,1.64-2.16,0,0,2.63-4.1,4.08-4.1h24.73c1.39,0,4.08,4.08,4.08,4.08,4.09-6.58,10.72-6.58,14.81,0"/>
      <text class="cls-1" transform="translate(30.92 66.19)"><tspan x="0" y="0">5</tspan><tspan class="cls-10" x="3.03" y="0">’</tspan></text>
      <text class="cls-1" transform="translate(74.48 66.19)"><tspan x="0" y="0">3</tspan><tspan class="cls-10" x="3.03" y="0">’</tspan></text>
      <polygon class="cls-7" points="71.39 71.39 72.32 73.27 74.41 73.58 72.9 75.05 73.25 77.12 71.39 76.14 69.53 77.12 69.88 75.05 68.38 73.58 70.46 73.27 71.39 71.39"/>
    </g>
    <text class="cls-14" transform="translate(28.84 14.27)"><tspan x="0" y="0">1 - </tspan><tspan class="cls-11" x="13.1" y="0">P</tspan><tspan x="18.48" y="0">AM (3’)</tspan></text>
    <g>
      <path class="cls-6" d="m210.07,74.34c-4.09,6.58-10.72,6.58-14.81,0"/>
      <path class="cls-8" d="m187.91,65.7c-1.82,0-3.3-1.47-3.3-3.3v-11.54c1.45-.86,2.47-2.31,2.47-4.12,0-2.73-2.21-4.95-4.95-4.95s-4.95,2.21-4.95,4.95c0,1.8,1.04,3.26,2.48,4.12v11.54c0,1.82-1.47,3.3-3.3,3.3h-24.73"/>
      <path class="cls-6" d="m117.93,74.31c4.09-6.58,10.72-6.58,14.81,0v.02c3.58,5.76,9.1,6.48,13.17,2.16"/>
      <g class="cls-12">
        <path class="cls-2" d="m168.72,66.61c-4.87,0-8.83-3.96-8.83-8.84,0-4.57,3.43-8.35,7.97-8.79l.66-.06.14-.64c1.22-5.47,6.18-9.44,11.79-9.44,6.66,0,12.08,5.42,12.08,12.08s-5.42,12.08-12.08,12.08c-1.18,0-2.35-.17-3.48-.51l-.63-.19-.38.54c-1.66,2.36-4.36,3.77-7.24,3.77Z"/>
        <path d="m180.44,39.74c6.16,0,11.18,5.01,11.18,11.18s-5.01,11.18-11.18,11.18c-1.09,0-2.18-.16-3.22-.47l-1.26-.38-.75,1.07c-1.49,2.12-3.91,3.39-6.5,3.39-4.37,0-7.93-3.56-7.93-7.93,0-4.1,3.08-7.5,7.15-7.89l1.31-.13.29-1.28c1.13-5.06,5.71-8.73,10.9-8.73m0-1.81c-6.2,0-11.38,4.34-12.67,10.15-4.94.48-8.79,4.63-8.79,9.7,0,5.38,4.36,9.74,9.74,9.74,3.3,0,6.22-1.65,7.98-4.16,1.19.36,2.44.55,3.75.55,7.17,0,12.99-5.82,12.99-12.99s-5.82-12.99-12.99-12.99h0Z"/>
      </g>
      <path class="cls-6" d="m145.91,76.5c.58-.62,1.13-1.34,1.64-2.16,0,0,2.63-4.1,4.08-4.1h24.73c1.39,0,4.08,4.08,4.08,4.08,4.09-6.58,10.72-6.58,14.81,0"/>
      <text class="cls-1" transform="translate(145.87 66.73)"><tspan x="0" y="0">5</tspan><tspan class="cls-10" x="3.03" y="0">’</tspan></text>
      <text class="cls-1" transform="translate(189.43 66.73)"><tspan x="0" y="0">3</tspan><tspan class="cls-10" x="3.03" y="0">’</tspan></text>
      <g>
        <line class="cls-7" x1="180.79" y1="68.78" x2="185.65" y2="73.63"/>
        <line class="cls-7" x1="185.65" y1="68.78" x2="180.79" y2="73.63"/>
      </g>
    </g>
    <text class="cls-14" transform="translate(138.35 14.27)"><tspan x="0" y="0">2 - PFS (3’)</tspan></text>
    <g>
      <path class="cls-6" d="m318.46,73.97c-4.09,6.58-10.72,6.58-14.81,0"/>
      <path class="cls-9" d="m296.29,65.33c-1.82,0-3.3-1.47-3.3-3.3v-11.54c1.45-.86,2.47-2.31,2.47-4.12,0-2.73-2.21-4.95-4.95-4.95s-4.95,2.21-4.95,4.95c0,1.8,1.04,3.26,2.48,4.12v11.54c0,1.82-1.47,3.3-3.3,3.3h-24.73"/>
      <path class="cls-6" d="m226.32,73.94c4.09-6.58,10.72-6.58,14.81,0v.02c3.58,5.76,9.1,6.48,13.17,2.16"/>
      <g class="cls-12">
        <path class="cls-2" d="m277.11,66.24c-4.87,0-8.83-3.96-8.83-8.84,0-4.57,3.43-8.35,7.97-8.79l.66-.06.14-.64c1.22-5.47,6.18-9.44,11.79-9.44,6.66,0,12.08,5.42,12.08,12.08s-5.42,12.08-12.08,12.08c-1.18,0-2.35-.17-3.48-.51l-.63-.19-.38.54c-1.66,2.36-4.36,3.77-7.24,3.77Z"/>
        <path d="m288.83,39.37c6.16,0,11.18,5.01,11.18,11.18s-5.01,11.18-11.18,11.18c-1.09,0-2.18-.16-3.22-.47l-1.26-.38-.75,1.07c-1.49,2.12-3.91,3.39-6.5,3.39-4.37,0-7.93-3.56-7.93-7.93,0-4.1,3.08-7.5,7.16-7.89l1.31-.13.29-1.28c1.13-5.06,5.71-8.73,10.9-8.73m0-1.81c-6.2,0-11.38,4.34-12.67,10.15-4.94.48-8.79,4.63-8.79,9.7,0,5.38,4.36,9.74,9.74,9.74,3.3,0,6.22-1.65,7.98-4.16,1.19.36,2.44.55,3.75.55,7.17,0,12.99-5.82,12.99-12.99s-5.82-12.99-12.99-12.99h0Z"/>
      </g>
      <path class="cls-6" d="m254.3,76.13c.58-.62,1.13-1.34,1.64-2.16,0,0,2.63-4.1,4.08-4.1h24.73c1.39,0,4.08,4.08,4.08,4.08,4.09-6.58,10.72-6.58,14.81,0"/>
      <text class="cls-1" transform="translate(254.26 66.36)"><tspan x="0" y="0">5</tspan><tspan class="cls-10" x="3.03" y="0">’</tspan></text>
      <text class="cls-1" transform="translate(297.82 66.36)"><tspan x="0" y="0">3</tspan><tspan class="cls-10" x="3.03" y="0">’</tspan></text>
    </g>
    <text class="cls-14" transform="translate(226.12 14.27)"><tspan x="0" y="0">3 - No Constraint (3’)</tspan></text>
    <g>
      <path class="cls-4" d="m26.08,179.69c-.78-.72-1.51-1.62-2.18-2.69v-.02c-4.09-6.58-10.72-6.58-14.81,0"/>
      <path class="cls-5" d="m95.12,176.65c-4.09,6.58-10.72,6.58-14.81,0"/>
      <path class="cls-9" d="m25.88,168.01c1.82,0,3.3-1.47,3.3-3.3v-11.54c-1.45-.86-2.47-2.31-2.47-4.12,0-2.73,2.21-4.95,4.95-4.95s4.95,2.21,4.95,4.95c0,1.8-1.04,3.26-2.48,4.12v11.54c0,1.82,1.47,3.3,3.3,3.3h24.73"/>
      <path class="cls-5" d="m2.98,176.62c4.09-6.58,10.72-6.58,14.81,0v.02c3.58,5.76,9.1,6.48,13.17,2.16"/>
      <path class="cls-4" d="m101.23,176.99c-4.09,6.58-10.72,6.58-14.81,0v-.02c-4.09-6.58-10.72-6.58-14.81,0,0,0-2.63,4.11-4.08,4.11h-24.26c-.3,0-.59-.12-.81-.33-.97-.97-3.74-3.75-3.74-3.75-3.43,5.51-8.63,6.41-12.63,2.69"/>
      <g class="cls-12">
        <path class="cls-2" d="m45.07,168.92c-2.88,0-5.58-1.41-7.24-3.77l-.38-.54-.63.19c-1.13.34-2.3.51-3.48.51-6.66,0-12.08-5.42-12.08-12.08s5.42-12.08,12.08-12.08c5.61,0,10.57,3.97,11.79,9.44l.14.64.66.06c4.55.44,7.97,4.22,7.97,8.79,0,4.87-3.96,8.83-8.83,8.83Z"/>
        <path d="m33.34,142.05c5.19,0,9.78,3.67,10.9,8.73l.29,1.28,1.31.13c4.08.39,7.16,3.79,7.16,7.89,0,4.37-3.56,7.93-7.93,7.93-2.58,0-5.01-1.27-6.5-3.39l-.75-1.07-1.26.38c-1.05.31-2.13.47-3.22.47-6.16,0-11.18-5.01-11.18-11.18s5.01-11.18,11.18-11.18m0-1.81c-7.17,0-12.99,5.82-12.99,12.99s5.82,12.99,12.99,12.99c1.3,0,2.56-.19,3.75-.55,1.76,2.51,4.68,4.16,7.98,4.16,5.38,0,9.74-4.36,9.74-9.74,0-5.06-3.86-9.22-8.79-9.7-1.3-5.81-6.48-10.15-12.67-10.15h0Z"/>
      </g>
      <path class="cls-5" d="m30.97,178.81c.58-.62,1.13-1.34,1.64-2.16,0,0,2.63-4.1,4.08-4.1h24.73c1.39,0,4.08,4.08,4.08,4.08,4.09-6.58,10.72-6.58,14.81,0"/>
      <text class="cls-1" transform="translate(20.94 169.04)"><tspan x="0" y="0">5</tspan><tspan class="cls-10" x="3.03" y="0">’</tspan></text>
      <text class="cls-1" transform="translate(64.5 169.04)"><tspan x="0" y="0">3</tspan><tspan class="cls-10" x="3.03" y="0">’</tspan></text>
      <polygon class="cls-7" points="33.28 172.43 34.21 174.32 36.29 174.62 34.78 176.09 35.14 178.16 33.28 177.18 31.41 178.16 31.77 176.09 30.26 174.62 32.35 174.32 33.28 172.43"/>
    </g>
    <text class="cls-14" transform="translate(28.83 115.57)"><tspan x="0" y="0">4 - </tspan><tspan class="cls-11" x="13.1" y="0">P</tspan><tspan x="18.48" y="0">AM (5’)</tspan></text>
    <g>
      <path class="cls-6" d="m206.75,176.82c-4.09,6.58-10.72,6.58-14.81,0"/>
      <path class="cls-9" d="m138.42,168.18c1.82,0,3.3-1.47,3.3-3.3v-11.54c-1.45-.86-2.47-2.31-2.47-4.12,0-2.73,2.21-4.95,4.95-4.95s4.95,2.21,4.95,4.95c0,1.8-1.04,3.26-2.48,4.12v11.54c0,1.82,1.47,3.3,3.3,3.3h24.73"/>
      <path class="cls-6" d="m114.61,176.8c4.09-6.58,10.72-6.58,14.81,0v.02c3.58,5.76,9.1,6.48,13.17,2.16"/>
      <g class="cls-12">
        <path class="cls-2" d="m157.61,169.09c-2.88,0-5.58-1.41-7.24-3.77l-.38-.54-.63.19c-1.13.34-2.3.51-3.48.51-6.66,0-12.08-5.42-12.08-12.08s5.42-12.08,12.08-12.08c5.61,0,10.57,3.97,11.79,9.44l.14.64.66.06c4.55.44,7.97,4.22,7.97,8.79,0,4.87-3.96,8.83-8.83,8.83Z"/>
        <path d="m145.88,142.22c5.19,0,9.78,3.67,10.9,8.73l.29,1.28,1.31.13c4.08.39,7.16,3.79,7.16,7.89,0,4.37-3.56,7.93-7.93,7.93-2.58,0-5.01-1.27-6.5-3.39l-.75-1.07-1.26.38c-1.05.31-2.13.47-3.22.47-6.16,0-11.18-5.01-11.18-11.18s5.01-11.18,11.18-11.18m0-1.81c-7.17,0-12.99,5.82-12.99,12.99s5.82,12.99,12.99,12.99c1.3,0,2.56-.19,3.75-.55,1.76,2.51,4.68,4.16,7.98,4.16,5.38,0,9.74-4.36,9.74-9.74,0-5.06-3.86-9.22-8.79-9.7-1.3-5.81-6.48-10.15-12.67-10.15h0Z"/>
      </g>
      <path class="cls-6" d="m142.6,178.98c.58-.62,1.13-1.34,1.64-2.16,0,0,2.63-4.1,4.08-4.1h24.73c1.39,0,4.08,4.08,4.08,4.08,4.09-6.58,10.72-6.58,14.81,0"/>
      <text class="cls-1" transform="translate(132.57 169.22)"><tspan x="0" y="0">5</tspan><tspan class="cls-10" x="3.03" y="0">’</tspan></text>
      <text class="cls-1" transform="translate(176.13 169.22)"><tspan x="0" y="0">3</tspan><tspan class="cls-10" x="3.03" y="0">’</tspan></text>
      <g>
        <line class="cls-7" x1="142.99" y1="173.08" x2="147.84" y2="177.93"/>
        <line class="cls-7" x1="147.84" y1="173.08" x2="142.99" y2="177.93"/>
      </g>
    </g>
    <text class="cls-14" transform="translate(138.35 115.13)"><tspan x="0" y="0">5 - PFS (5’)</tspan></text>
    <g>
      <path class="cls-6" d="m319.1,176.82c-4.09,6.58-10.72,6.58-14.81,0"/>
      <path class="cls-9" d="m250.77,168.18c1.82,0,3.3-1.47,3.3-3.3v-11.54c-1.45-.86-2.47-2.31-2.47-4.12,0-2.73,2.21-4.95,4.95-4.95s4.95,2.21,4.95,4.95c0,1.8-1.04,3.26-2.48,4.12v11.54c0,1.82,1.47,3.3,3.3,3.3h24.73"/>
      <path class="cls-6" d="m226.96,176.8c4.09-6.58,10.72-6.58,14.81,0v.02c3.58,5.76,9.1,6.48,13.17,2.16"/>
      <g class="cls-13">
        <path class="cls-2" d="m269.96,169.09c-2.88,0-5.58-1.41-7.24-3.77l-.38-.54-.63.19c-1.13.34-2.3.51-3.48.51-6.66,0-12.08-5.42-12.08-12.08s5.42-12.08,12.08-12.08c5.61,0,10.57,3.97,11.79,9.44l.14.64.66.06c4.55.44,7.97,4.22,7.97,8.79,0,4.87-3.96,8.83-8.83,8.83Z"/>
        <path d="m258.23,142.22c5.19,0,9.78,3.67,10.9,8.73l.29,1.28,1.31.13c4.08.39,7.16,3.79,7.16,7.89,0,4.37-3.56,7.93-7.93,7.93-2.58,0-5.01-1.27-6.5-3.39l-.75-1.07-1.26.38c-1.05.31-2.13.47-3.22.47-6.16,0-11.18-5.01-11.18-11.18s5.01-11.18,11.18-11.18m0-1.81c-7.17,0-12.99,5.82-12.99,12.99s5.82,12.99,12.99,12.99c1.3,0,2.56-.19,3.75-.55,1.76,2.51,4.68,4.16,7.98,4.16,5.38,0,9.74-4.36,9.74-9.74,0-5.06-3.86-9.22-8.79-9.7-1.3-5.81-6.48-10.15-12.67-10.15h0Z"/>
      </g>
      <path class="cls-6" d="m254.95,178.98c.58-.62,1.13-1.34,1.64-2.16,0,0,2.63-4.1,4.08-4.1h24.73c1.39,0,4.08,4.08,4.08,4.08,4.09-6.58,10.72-6.58,14.81,0"/>
      <text class="cls-1" transform="translate(244.92 169.22)"><tspan x="0" y="0">5</tspan><tspan class="cls-10" x="3.03" y="0">’</tspan></text>
      <text class="cls-1" transform="translate(288.48 169.22)"><tspan x="0" y="0">3</tspan><tspan class="cls-10" x="3.03" y="0">’</tspan></text>
    </g>
    <text class="cls-14" transform="translate(226.49 114.65)"><tspan x="0" y="0">6 - No Constraint (5’)</tspan></text>
  </g>
</svg>