<?xml version="1.0" encoding="utf-8"?>
<!-- Generator: Adobe Illustrator 27.5.0, SVG Export Plug-In . SVG Version: 6.00 Build 0)  -->
<svg version="1.1" id="Layer_1" xmlns="http://www.w3.org/2000/svg" xmlns:xlink="http://www.w3.org/1999/xlink" x="0px" y="0px"
	 viewBox="0 0 996.5 419.8" style="enable-background:new 0 0 996.5 419.8;" xml:space="preserve">
<style type="text/css">
	.st0{fill:none;}
	.st1{fill:#40AFA5;}
	.st2{opacity:0.15;}
	.st3{fill:#31CAFD;}
	.st4{fill:#AAB8F1;}
	.st5{fill:#A2B8FF;}
	.st6{fill:#00CEDE;}
	.st7{fill:#FF0A00;}
	.st8{fill:#BEBEBE;}
	.st9{fill:#8F7F1D;}
	.st10{fill:#A17800;}
	.st11{fill:#FE1600;}
	.st12{fill:#C0BCBC;}
	.st13{fill:#CFB7BE;}
	.st14{fill:#BFBBC9;}
	.st15{fill:url(#SVGID_1_);}
	.st16{fill:#5857FF;}
	.st17{fill:#D31159;}
	.st18{fill:#FFAF00;}
	.st19{fill:#A09C9A;}
	.st20{fill:#006CDE;}
	.st21{fill:#6A6B7A;}
	.st22{fill:#D6BD0F;}
	.st23{fill:#A699AB;}
	.st24{fill:#0072BF;}
	.st25{fill:#80674E;}
	.st26{fill:#F2B300;}
	.st27{fill:#4DAAB8;}
	.st28{fill:#007B83;}
	.st29{fill:#D02A2A;}
	.st30{fill:#FFA5AF;}
	.st31{fill:#FFF7EA;}
	.st32{fill:#FFF7EB;}
	.st33{fill:#FFF6F5;}
	.st34{fill:#FCFCFC;}
	.st35{fill:#8B61FF;}
	.st36{fill:#007AFE;}
	.st37{fill:#0081DD;}
	.st38{fill:#65838D;}
	.st39{fill:#00FFB7;}
	.st40{fill:#F0DFA8;}
	.st41{fill:#FFD8C5;}
	.st42{fill:#89F0FF;}
	.st43{fill:#FFF6E9;}
	.st44{fill:none;stroke:#FFAF00;stroke-width:2.8141;stroke-miterlimit:10;}
	.st45{fill:none;stroke:#D31159;stroke-width:2.8141;stroke-miterlimit:10;}
	.st46{fill:none;stroke:#5857FF;stroke-width:2.8141;stroke-miterlimit:10;}
	.st47{fill:none;stroke:#D31159;stroke-width:2.8141;stroke-linecap:round;stroke-miterlimit:10;}
	.st48{fill:none;stroke:#5857FF;stroke-width:2.8141;stroke-linecap:round;stroke-miterlimit:10;}
	.st49{fill:none;stroke:#D31159;stroke-width:2.8141;stroke-linecap:round;stroke-linejoin:round;stroke-miterlimit:10;}
	.st50{fill:none;stroke:#5857FF;stroke-width:2.8141;stroke-linecap:round;stroke-linejoin:round;stroke-miterlimit:10;}
	.st51{stroke:#000000;stroke-width:1.4918;stroke-miterlimit:10;}
	.st52{fill:#FFFFFF;}
	.st53{fill:#BDDCEB;}
	.st54{fill:none;stroke:#FFAF00;stroke-width:2.2565;stroke-miterlimit:10;}
	.st55{fill:none;stroke:#31CAFD;stroke-width:2.5;stroke-miterlimit:10;}
	.st56{fill:none;stroke:#FFAF00;stroke-width:2.5;stroke-miterlimit:10;}
	.st57{fill:none;stroke:#FF0A00;stroke-width:2.5;stroke-miterlimit:10;}
	.st58{fill:none;stroke:#00FFB7;stroke-width:2.5;stroke-miterlimit:10;}
	.st59{fill:none;stroke:#8B61FF;stroke-width:2.5;stroke-miterlimit:10;}
	.st60{fill:none;stroke:#BEBEBE;stroke-width:2.5;stroke-miterlimit:10;}
	.st61{fill:none;stroke:#FF0A00;stroke-width:4.5;stroke-miterlimit:10;}
	.st62{fill:none;stroke:#BEBEBE;stroke-width:4.5;stroke-miterlimit:10;}
	.st63{fill:none;stroke:#000000;stroke-width:2.5;stroke-miterlimit:10;}
	.st64{fill:#413F40;stroke:#003953;stroke-width:5.431579e-02;stroke-miterlimit:10;}
	.st65{fill:none;stroke:#D31159;stroke-width:2;stroke-miterlimit:10;}
	.st66{fill:none;stroke:#5857FF;stroke-width:2;stroke-miterlimit:10;}
	.st67{fill:none;stroke:#D31159;stroke-width:2;stroke-linecap:round;stroke-miterlimit:10;}
	.st68{fill:none;stroke:#5857FF;stroke-width:2;stroke-linecap:round;stroke-miterlimit:10;}
	.st69{fill:none;stroke:#D31159;stroke-width:2;stroke-linecap:round;stroke-linejoin:round;stroke-miterlimit:10;}
	.st70{fill:none;stroke:#5857FF;stroke-width:2;stroke-linecap:round;stroke-linejoin:round;stroke-miterlimit:10;}
	.st71{opacity:0.4;fill:none;stroke:#FFAF00;stroke-width:1.7161;stroke-miterlimit:10;}
	.st72{font-family:'Arial-BoldMT';}
	.st73{font-size:22.2156px;}
	.st74{font-size:26.6588px;}
	.st75{opacity:0.5;fill:none;stroke:#FFAF00;stroke-width:2;stroke-miterlimit:10;}
	.st76{fill:none;stroke:url(#SVGID_00000159450833851448512880000011819083949951225020_);stroke-width:2;stroke-miterlimit:10;}
	.st77{fill:none;stroke:url(#SVGID_00000016764017189741288360000013046779026312204438_);stroke-width:2;stroke-miterlimit:10;}
	
		.st78{fill:none;stroke:url(#SVGID_00000088126666040699572740000009262364615898252201_);stroke-width:2;stroke-linecap:round;stroke-miterlimit:10;}
	
		.st79{fill:none;stroke:url(#SVGID_00000008860247348443919240000007731156980405023383_);stroke-width:2;stroke-linecap:round;stroke-linejoin:round;stroke-miterlimit:10;}
	.st80{fill:none;stroke:url(#SVGID_00000085224053571335092680000017532884684634452359_);stroke-width:2;stroke-miterlimit:10;}
	.st81{fill:none;stroke:url(#SVGID_00000090995399543491485900000003214045321770898859_);stroke-width:2;stroke-miterlimit:10;}
	
		.st82{fill:none;stroke:url(#SVGID_00000109717028026278475640000000658087078751300517_);stroke-width:2;stroke-linecap:round;stroke-miterlimit:10;}
	
		.st83{fill:none;stroke:url(#SVGID_00000011749477705440438800000008295684166794461570_);stroke-width:2;stroke-linecap:round;stroke-linejoin:round;stroke-miterlimit:10;}
	.st84{fill:none;stroke:url(#SVGID_00000105385013873115903900000014573708261773574039_);stroke-width:2;stroke-miterlimit:10;}
	.st85{fill:none;stroke:url(#SVGID_00000151532250841948970940000011300632574384244354_);stroke-width:2;stroke-miterlimit:10;}
	
		.st86{fill:none;stroke:url(#SVGID_00000057106866823547827300000013648223627668783026_);stroke-width:2;stroke-linecap:round;stroke-miterlimit:10;}
	
		.st87{fill:none;stroke:url(#SVGID_00000132061409901768293800000006819471178451848361_);stroke-width:2;stroke-linecap:round;stroke-linejoin:round;stroke-miterlimit:10;}
	.st88{fill:none;stroke:url(#SVGID_00000147215829151349445340000000864536425215996814_);stroke-width:2;stroke-miterlimit:10;}
	.st89{fill:none;stroke:url(#SVGID_00000013195112875000485580000015078628258197679789_);stroke-width:2;stroke-miterlimit:10;}
	
		.st90{fill:none;stroke:url(#SVGID_00000043424645122124950240000016789995854941589923_);stroke-width:2;stroke-linecap:round;stroke-miterlimit:10;}
	
		.st91{fill:none;stroke:url(#SVGID_00000089548313197592110930000008086685404729866898_);stroke-width:2;stroke-linecap:round;stroke-linejoin:round;stroke-miterlimit:10;}
	.st92{font-size:15px;}
	.st93{opacity:0.25;}
	.st94{fill:none;stroke:#003953;stroke-width:2;stroke-miterlimit:10;}
	.st95{fill:none;stroke:#003953;stroke-width:2;stroke-linecap:round;stroke-miterlimit:10;}
	.st96{fill:none;stroke:url(#SVGID_00000101802350503320281790000009092792259811293860_);stroke-width:2;stroke-miterlimit:10;}
	.st97{fill:none;stroke:url(#SVGID_00000179644154220223159280000007701342195507022473_);stroke-width:2;stroke-miterlimit:10;}
	
		.st98{fill:none;stroke:url(#SVGID_00000018232111676025877610000008854583199237076660_);stroke-width:2;stroke-linecap:round;stroke-miterlimit:10;}
	
		.st99{fill:none;stroke:url(#SVGID_00000096027206193069135200000002838940467619043456_);stroke-width:2;stroke-linecap:round;stroke-miterlimit:10;}
	.st100{fill:none;stroke:url(#SVGID_00000000198992219126748890000018431729514857099933_);stroke-width:2;stroke-miterlimit:10;}
	.st101{fill:none;stroke:url(#SVGID_00000165223197449484674290000000988725943772641449_);stroke-width:2;stroke-miterlimit:10;}
	
		.st102{fill:none;stroke:url(#SVGID_00000150084432459429295900000012347355769386003091_);stroke-width:2;stroke-linecap:round;stroke-miterlimit:10;}
	
		.st103{fill:none;stroke:url(#SVGID_00000066505099818217088070000014336983221411933342_);stroke-width:2;stroke-linecap:round;stroke-linejoin:round;stroke-miterlimit:10;}
	.st104{fill:none;stroke:url(#SVGID_00000030457632073418337650000018315261779608949128_);stroke-width:2;stroke-miterlimit:10;}
	.st105{fill:none;stroke:url(#SVGID_00000176758826338382557430000003434215818351796626_);stroke-width:2;stroke-miterlimit:10;}
	
		.st106{fill:none;stroke:url(#SVGID_00000142162723744961336330000003826614576419603077_);stroke-width:2;stroke-linecap:round;stroke-miterlimit:10;}
	
		.st107{fill:none;stroke:url(#SVGID_00000127019074423184079820000006842276249285942150_);stroke-width:2;stroke-linecap:round;stroke-linejoin:round;stroke-miterlimit:10;}
	
		.st108{fill:none;stroke:url(#SVGID_00000096047235386314774680000013528045621392690081_);stroke-width:2.8141;stroke-miterlimit:10;}
	
		.st109{fill:none;stroke:url(#SVGID_00000176037364987237184710000014830592040569715102_);stroke-width:2.8141;stroke-linecap:round;stroke-miterlimit:10;}
	
		.st110{fill:none;stroke:url(#SVGID_00000134219107655989566330000000481177125940182421_);stroke-width:2.8141;stroke-linecap:round;stroke-linejoin:round;stroke-miterlimit:10;}
	.st111{fill:none;stroke:#000000;stroke-width:3;stroke-miterlimit:10;}
	
		.st112{fill:none;stroke:url(#SVGID_00000054952319396187853370000006746581878580861827_);stroke-width:2.8141;stroke-linecap:round;stroke-miterlimit:10;}
	
		.st113{fill:none;stroke:url(#SVGID_00000051383445340351682200000008577983504409387415_);stroke-width:2.8141;stroke-miterlimit:10;}
	
		.st114{fill:none;stroke:url(#SVGID_00000113313156309128578480000011117187698445765557_);stroke-width:2.8141;stroke-linecap:round;stroke-miterlimit:10;}
	
		.st115{fill:none;stroke:url(#SVGID_00000130648348207293246110000001794659225457138088_);stroke-width:2.8141;stroke-linecap:round;stroke-linejoin:round;stroke-miterlimit:10;}
	
		.st116{fill:none;stroke:url(#SVGID_00000068656909250577308200000005206627012745827999_);stroke-width:2.8141;stroke-miterlimit:10;}
	
		.st117{fill:none;stroke:url(#SVGID_00000140729807183572526400000016000741082415443357_);stroke-width:2.8141;stroke-linecap:round;stroke-miterlimit:10;}
	
		.st118{fill:none;stroke:url(#SVGID_00000136408528140664829690000016936381088699388324_);stroke-width:2.8141;stroke-linecap:round;stroke-linejoin:round;stroke-miterlimit:10;}
	.st119{fill:none;stroke:url(#SVGID_00000118389236760552197410000015084863336599043492_);stroke-width:2;stroke-miterlimit:10;}
	.st120{fill:none;stroke:url(#SVGID_00000026161726345284003540000011778528736958772120_);stroke-width:2;stroke-miterlimit:10;}
	
		.st121{fill:none;stroke:url(#SVGID_00000128478968536021478790000003388550400183834813_);stroke-width:2;stroke-linecap:round;stroke-miterlimit:10;}
	
		.st122{fill:none;stroke:url(#SVGID_00000183951396318985751490000008655478622310920100_);stroke-width:2;stroke-linecap:round;stroke-linejoin:round;stroke-miterlimit:10;}
	.st123{fill:none;stroke:url(#SVGID_00000015351061713478297970000007740047157517431936_);stroke-width:2;stroke-miterlimit:10;}
	.st124{fill:none;stroke:url(#SVGID_00000142882667888880839420000008960486714726964365_);stroke-width:2;stroke-miterlimit:10;}
	
		.st125{fill:none;stroke:url(#SVGID_00000045584464272436569540000004084919458248189597_);stroke-width:2;stroke-linecap:round;stroke-miterlimit:10;}
	
		.st126{fill:none;stroke:url(#SVGID_00000044868536641408510440000004985863244531486117_);stroke-width:2;stroke-linecap:round;stroke-linejoin:round;stroke-miterlimit:10;}
	.st127{fill:none;stroke:url(#SVGID_00000031165112666517317740000016178874957034489516_);stroke-width:2;stroke-miterlimit:10;}
	.st128{fill:none;stroke:url(#SVGID_00000041976431923190417410000011387153177586259643_);stroke-width:2;stroke-miterlimit:10;}
	
		.st129{fill:none;stroke:url(#SVGID_00000026841784819642694160000003696782298151901105_);stroke-width:2;stroke-linecap:round;stroke-miterlimit:10;}
	
		.st130{fill:none;stroke:url(#SVGID_00000026137690328552624080000007632949813805302701_);stroke-width:2;stroke-linecap:round;stroke-linejoin:round;stroke-miterlimit:10;}
	.st131{fill:none;stroke:url(#SVGID_00000100366910542885519200000011006567857692289429_);stroke-width:2;stroke-miterlimit:10;}
	.st132{fill:none;stroke:url(#SVGID_00000170279858807724031850000013915094375344862895_);stroke-width:2;stroke-miterlimit:10;}
	
		.st133{fill:none;stroke:url(#SVGID_00000062893603070249707510000011606867484984677520_);stroke-width:2;stroke-linecap:round;stroke-miterlimit:10;}
	
		.st134{fill:none;stroke:url(#SVGID_00000093161840575515354980000014692951308501401997_);stroke-width:2;stroke-linecap:round;stroke-linejoin:round;stroke-miterlimit:10;}
	.st135{fill:none;stroke:url(#SVGID_00000086668193989731021270000014193014810078868880_);stroke-width:2;stroke-miterlimit:10;}
	.st136{fill:none;stroke:url(#SVGID_00000073704257538657979790000013767011698599353020_);stroke-width:2;stroke-miterlimit:10;}
	
		.st137{fill:none;stroke:url(#SVGID_00000114047775596496635990000004310491281518042804_);stroke-width:2;stroke-linecap:round;stroke-miterlimit:10;}
	
		.st138{fill:none;stroke:url(#SVGID_00000055678767776771052440000006203108496357910417_);stroke-width:2;stroke-linecap:round;stroke-miterlimit:10;}
	.st139{fill:none;stroke:url(#SVGID_00000018920764764802159280000002607108369464903560_);stroke-width:2;stroke-miterlimit:10;}
	.st140{fill:none;stroke:url(#SVGID_00000032642981360815202230000014393018699713061302_);stroke-width:2;stroke-miterlimit:10;}
	
		.st141{fill:none;stroke:url(#SVGID_00000090253834427496987970000008702267422802294440_);stroke-width:2;stroke-linecap:round;stroke-miterlimit:10;}
	
		.st142{fill:none;stroke:url(#SVGID_00000150062455317218530120000009438634193344866954_);stroke-width:2;stroke-linecap:round;stroke-linejoin:round;stroke-miterlimit:10;}
	.st143{fill:none;stroke:url(#SVGID_00000111875936580039416720000007430145851385331859_);stroke-width:2;stroke-miterlimit:10;}
	.st144{fill:none;stroke:url(#SVGID_00000062904328572672938780000011759890006440572291_);stroke-width:2;stroke-miterlimit:10;}
	
		.st145{fill:none;stroke:url(#SVGID_00000104669724097549205150000005039393198619383714_);stroke-width:2;stroke-linecap:round;stroke-miterlimit:10;}
	
		.st146{fill:none;stroke:url(#SVGID_00000075162621795247686070000007466881516121733798_);stroke-width:2;stroke-linecap:round;stroke-linejoin:round;stroke-miterlimit:10;}
	
		.st147{fill:none;stroke:url(#SVGID_00000130639455811597835480000008232924780794634383_);stroke-width:2.8141;stroke-miterlimit:10;}
	
		.st148{fill:none;stroke:url(#SVGID_00000065034867431017672970000012891174160126787261_);stroke-width:2.8141;stroke-linecap:round;stroke-miterlimit:10;}
	
		.st149{fill:none;stroke:url(#SVGID_00000156580853234988396590000012127888201805171082_);stroke-width:2.8141;stroke-linecap:round;stroke-linejoin:round;stroke-miterlimit:10;}
	
		.st150{fill:none;stroke:url(#SVGID_00000177473744357917975310000010376797214963016363_);stroke-width:2.8141;stroke-linecap:round;stroke-miterlimit:10;}
	
		.st151{fill:none;stroke:url(#SVGID_00000152976490974169077090000015766622794113959084_);stroke-width:2.8141;stroke-miterlimit:10;}
	
		.st152{fill:none;stroke:url(#SVGID_00000053508333981014518170000007292538468480022152_);stroke-width:2.8141;stroke-linecap:round;stroke-miterlimit:10;}
	
		.st153{fill:none;stroke:url(#SVGID_00000116200347031899079740000006333887844052857756_);stroke-width:2.8141;stroke-linecap:round;stroke-linejoin:round;stroke-miterlimit:10;}
	
		.st154{fill:none;stroke:url(#SVGID_00000047748380239876414300000007492985465654795401_);stroke-width:2.8141;stroke-miterlimit:10;}
	
		.st155{fill:none;stroke:url(#SVGID_00000166676209384892837310000011988542171263578279_);stroke-width:2.8141;stroke-linecap:round;stroke-miterlimit:10;}
	
		.st156{fill:none;stroke:url(#SVGID_00000118394125500576720910000012223937583611491970_);stroke-width:2.8141;stroke-linecap:round;stroke-linejoin:round;stroke-miterlimit:10;}
</style>
<pattern  x="1007.2" y="64.4" width="47.6" height="47.6" patternUnits="userSpaceOnUse" id="New_Pattern_Swatch_6" viewBox="0 -47.6 47.6 47.6" style="overflow:visible;">
	<g>
		<rect y="-47.6" class="st0" width="47.6" height="47.6"/>
		<rect y="-47.6" class="st1" width="47.6" height="47.6"/>
	</g>
</pattern>
<g>
	<path class="st43" d="M674.5,331.6H600c-6.6,0-12-5.4-12-12V12c0-6.6,5.4-12,12-12h74.5c6.6,0,12,5.4,12,12v307.6
		C686.5,326.2,681.1,331.6,674.5,331.6z"/>
	<path class="st43" d="M571.1,331.6h-74.5c-6.6,0-12-5.4-12-12V12c0-6.6,5.4-12,12-12h74.5c6.6,0,12,5.4,12,12v307.6
		C583.1,326.2,577.7,331.6,571.1,331.6z"/>
	<path class="st43" d="M467.8,331.6h-74.5c-6.6,0-12-5.4-12-12V12c0-6.6,5.4-12,12-12h74.5c6.6,0,12,5.4,12,12v307.6
		C479.7,326.2,474.4,331.6,467.8,331.6z"/>
	<path class="st43" d="M364.4,331.6h-74.5c-6.6,0-12-5.4-12-12V12c0-6.6,5.4-12,12-12h74.5c6.6,0,12,5.4,12,12v307.6
		C376.4,326.2,371,331.6,364.4,331.6z"/>
	<path class="st43" d="M261,331.6h-74.5c-6.6,0-12-5.4-12-12V12c0-6.6,5.4-12,12-12H261c6.6,0,12,5.4,12,12v307.6
		C273,326.2,267.7,331.6,261,331.6z"/>
	<path class="st43" d="M777.8,331.6h-74.5c-6.6,0-12-5.4-12-12V12c0-6.6,5.4-12,12-12h74.5c6.6,0,12,5.4,12,12v307.6
		C789.8,326.2,784.4,331.6,777.8,331.6z"/>
	<path class="st43" d="M984.5,331.6h-74.5c-6.6,0-12-5.4-12-12V12c0-6.6,5.4-12,12-12h74.5c6.6,0,12,5.4,12,12v307.6
		C996.5,326.2,991.2,331.6,984.5,331.6z"/>
	<text transform="matrix(1 0 0 1 939.7216 131.2433)" class="st72 st73">?</text>
	<text transform="matrix(1 0 0 1 939.7216 228.7773)" class="st72 st73">?</text>
	<text transform="matrix(1 0 0 1 937.3398 38.5029)" class="st72 st74">_</text>
	<g>
		<text transform="matrix(1 0 0 1 217.6176 228.0898)" class="st72 st73">x</text>
	</g>
	<g>
		<text transform="matrix(1 0 0 1 527.6898 228.0898)" class="st72 st73">x</text>
	</g>
	<g>
		<g>
			<path class="st75" d="M250.4,134.5c-2.5,0-4.5-2-4.5-4.5v-12.1l1.7-5.8c0.5-1.8,0.3-3.8-0.8-5.3c-1-1.4-2.6-2.3-4.3-2.3l0,0
				c-1.7,0-3.3,0.9-4.3,2.3c-1.1,1.5-1.3,3.5-0.8,5.3l1.7,5.8V130c0,2.5-2,4.5-4.5,4.5h-30.6"/>
			<g class="st2">
				<path d="M240.1,99.8c-7.8,0-14.2,5.4-15.9,12.7c-6.2,0.6-11,5.8-11,12.1c0,6.7,5.5,12.2,12.2,12.2c4.1,0,7.8-2.1,10-5.2
					c1.5,0.4,3.1,0.7,4.7,0.7c9,0,16.3-7.3,16.3-16.3C256.4,107.1,249.1,99.8,240.1,99.8z"/>
			</g>
		</g>
		<g>
			<polygon class="st64" points="213.9,138.7 218,131.5 209.6,131.5 			"/>
			<polygon class="st64" points="233.7,154.3 229.6,161.5 238,161.5 			"/>
			<g>
				<path class="st65" d="M184.4,144.5h17.5l2.6-5l0,0l4.4,0"/>
				<path class="st65" d="M218.8,139.5l24.4,0l0,0l2.6,5h17.5"/>
				<path class="st66" d="M263.2,148.5h-17.5l-2.6,5l0,0l-4.4,0"/>
				<path class="st66" d="M228.8,153.5l-24.4,0l0,0l-2.6-5h-17.5"/>
				<polyline class="st67" points="184.4,144.5 201.9,144.5 204.4,139.5 				"/>
				<polyline class="st67" points="243.2,139.5 245.7,144.5 263.2,144.5 				"/>
				<polyline class="st68" points="263.2,148.5 245.7,148.5 243.2,153.5 				"/>
				<polyline class="st68" points="204.4,153.5 201.9,148.5 184.4,148.5 				"/>
			</g>
		</g>
	</g>
	<g>
		<g>
			<path class="st75" d="M353.8,134.5c-2.5,0-4.5-2-4.5-4.5v-12.1l1.7-5.8c0.5-1.8,0.3-3.8-0.8-5.3c-1-1.4-2.6-2.3-4.3-2.3l0,0
				c-1.7,0-3.3,0.9-4.3,2.3c-1.1,1.5-1.3,3.5-0.8,5.3l1.7,5.8V130c0,2.5-2,4.5-4.5,4.5h-30.6"/>
			<g class="st2">
				<path d="M343.5,99.8c-7.8,0-14.2,5.4-15.9,12.7c-6.2,0.6-11,5.8-11,12.1c0,6.7,5.5,12.2,12.2,12.2c4.1,0,7.8-2.1,10-5.2
					c1.5,0.4,3.1,0.7,4.7,0.7c9,0,16.3-7.3,16.3-16.3C359.7,107.1,352.4,99.8,343.5,99.8z"/>
			</g>
		</g>
		<g>
			<polygon class="st64" points="317.2,138.7 321.3,131.5 313,131.5 			"/>
			<polygon class="st64" points="337.1,154.3 333,161.5 341.3,161.5 			"/>
			<g>
				<path class="st65" d="M287.8,144.5h17.5l2.6-5l0,0l4.4,0"/>
				<path class="st65" d="M322.2,139.5l24.4,0l0,0l2.6,5h17.5"/>
				<path class="st66" d="M366.5,148.5h-17.5l-2.6,5l0,0l-4.4,0"/>
				<path class="st66" d="M332.2,153.5l-24.4,0l0,0l-2.6-5h-17.5"/>
				<polyline class="st67" points="287.8,144.5 305.2,144.5 307.8,139.5 				"/>
				<polyline class="st67" points="346.5,139.5 349.1,144.5 366.5,144.5 				"/>
				<polyline class="st68" points="366.5,148.5 349.1,148.5 346.5,153.5 				"/>
				<polyline class="st68" points="307.8,153.5 305.2,148.5 287.8,148.5 				"/>
			</g>
		</g>
	</g>
	<g>
		<g>
			<path class="st75" d="M457.2,134.5c-2.5,0-4.5-2-4.5-4.5v-12.1l1.7-5.8c0.5-1.8,0.3-3.8-0.8-5.3c-1-1.4-2.6-2.3-4.3-2.3h0
				c-1.7,0-3.3,0.9-4.3,2.3c-1.1,1.5-1.3,3.5-0.8,5.3l1.7,5.8V130c0,2.5-2,4.5-4.5,4.5h-30.6"/>
			<g class="st2">
				<path d="M446.8,99.8c-7.8,0-14.2,5.4-15.9,12.7c-6.2,0.6-11,5.8-11,12.1c0,6.7,5.5,12.2,12.2,12.2c4.1,0,7.8-2.1,10-5.2
					c1.5,0.4,3.1,0.7,4.7,0.7c9,0,16.3-7.3,16.3-16.3C463.1,107.1,455.8,99.8,446.8,99.8z"/>
			</g>
		</g>
		<polygon class="st64" points="441.5,154.3 437.4,161.5 445.7,161.5 		"/>
		<path class="st65" d="M391.1,144.5h17.5l2.6-5l0,0h38.7l0,0l2.6,5h17.5"/>
		<path class="st66" d="M469.9,148.5h-17.5l-2.6,5l0,0l-4.4,0"/>
		<path class="st66" d="M435.5,157.5v-4l-24.4,0l0,0l-2.6-5h-17.5"/>
		<polyline class="st67" points="391.1,144.5 408.6,144.5 411.1,139.5 		"/>
		<polyline class="st67" points="449.9,139.5 452.4,144.5 469.9,144.5 		"/>
		<polyline class="st68" points="469.9,148.5 452.4,148.5 449.9,153.5 		"/>
		<polyline class="st68" points="411.1,153.5 408.6,148.5 391.1,148.5 		"/>
	</g>
	<g>
		<g>
			<path class="st75" d="M560.5,134.5c-2.5,0-4.5-2-4.5-4.5v-12.1l1.7-5.8c0.5-1.8,0.3-3.8-0.8-5.3c-1-1.4-2.6-2.3-4.3-2.3h0
				c-1.7,0-3.3,0.9-4.3,2.3c-1.1,1.5-1.3,3.5-0.8,5.3l1.7,5.8V130c0,2.5-2,4.5-4.5,4.5h-30.6"/>
			<g class="st2">
				<path d="M550.2,99.8c-7.8,0-14.2,5.4-15.9,12.7c-6.2,0.6-11,5.8-11,12.1c0,6.7,5.5,12.2,12.2,12.2c4.1,0,7.8-2.1,10-5.2
					c1.5,0.4,3.1,0.7,4.7,0.7c9,0,16.3-7.3,16.3-16.3C566.4,107.1,559.2,99.8,550.2,99.8z"/>
			</g>
		</g>
		<path class="st65" d="M494.5,144.5h17.5l2.6-5l0,0h38.7l0,0l2.6,5h17.5"/>
		<polyline class="st66" points="573.3,148.5 555.8,148.5 553.2,153.5 553.2,153.5 514.5,153.5 514.5,153.5 511.9,148.5 
			494.5,148.5 		"/>
		<polyline class="st67" points="494.5,144.5 511.9,144.5 514.5,139.5 		"/>
		<polyline class="st67" points="553.2,139.5 555.8,144.5 573.3,144.5 		"/>
		<polyline class="st68" points="573.3,148.5 555.8,148.5 553.2,153.5 		"/>
		<polyline class="st68" points="514.5,153.5 511.9,148.5 494.5,148.5 		"/>
	</g>
	<g>
		<g>
			<path class="st75" d="M663.9,134.5c-2.5,0-4.5-2-4.5-4.5v-12.1l1.7-5.8c0.5-1.8,0.3-3.8-0.8-5.3c-1-1.4-2.6-2.3-4.3-2.3l0,0
				c-1.7,0-3.3,0.9-4.3,2.3c-1.1,1.5-1.3,3.5-0.8,5.3l1.7,5.8V130c0,2.5-2,4.5-4.5,4.5h-30.6"/>
			<g class="st2">
				<path d="M653.5,99.8c-7.8,0-14.2,5.4-15.9,12.7c-6.2,0.6-11,5.8-11,12.1c0,6.7,5.5,12.2,12.2,12.2c4.1,0,7.8-2.1,10-5.2
					c1.5,0.4,3.1,0.7,4.7,0.7c9,0,16.3-7.3,16.3-16.3C669.8,107.1,662.5,99.8,653.5,99.8z"/>
			</g>
		</g>
		<polygon class="st64" points="637.3,138.5 641.4,131.3 633.1,131.3 		"/>
		<pattern  id="SVGID_1_" xlink:href="#New_Pattern_Swatch_6" patternTransform="matrix(1 0 0 1 -74.1013 12.4981)">
		</pattern>
		<path style="fill:none;stroke:url(#SVGID_1_);stroke-width:2;stroke-miterlimit:10;" d="M597.8,144.5h17.5l2.6-5l0,0l14.4,0"/>
		
			<pattern  id="SVGID_00000167368251932672597050000014680603273556612240_" xlink:href="#New_Pattern_Swatch_6" patternTransform="matrix(1 0 0 1 -74.1013 12.4981)">
		</pattern>
		
			<path style="fill:none;stroke:url(#SVGID_00000167368251932672597050000014680603273556612240_);stroke-width:2;stroke-miterlimit:10;" d="
			M642.2,139.5l14.4,0l0,0l2.6,5h17.5"/>
		
			<pattern  id="SVGID_00000086692043954039456650000008553965674137762980_" xlink:href="#New_Pattern_Swatch_6" patternTransform="matrix(1 0 0 1 -74.1013 12.4981)">
		</pattern>
		
			<polyline style="fill:none;stroke:url(#SVGID_00000086692043954039456650000008553965674137762980_);stroke-width:2;stroke-linecap:round;stroke-miterlimit:10;" points="
			597.8,144.5 615.3,144.5 617.9,139.5 		"/>
		
			<pattern  id="SVGID_00000142858415120301941290000003061122500067792538_" xlink:href="#New_Pattern_Swatch_6" patternTransform="matrix(1 0 0 1 -74.1013 12.4981)">
		</pattern>
		
			<polyline style="fill:none;stroke:url(#SVGID_00000142858415120301941290000003061122500067792538_);stroke-width:2;stroke-linecap:round;stroke-linejoin:round;stroke-miterlimit:10;" points="
			656.6,139.5 659.2,144.5 676.6,144.5 		"/>
	</g>
	<g>
		<g>
			<g>
				<path class="st75" d="M767.2,134.5c-2.5,0-4.5-2-4.5-4.5v-12.1l1.7-5.8c0.5-1.8,0.3-3.8-0.8-5.3c-1-1.4-2.6-2.3-4.3-2.3l0,0
					c-1.7,0-3.3,0.9-4.3,2.3c-1.1,1.5-1.3,3.5-0.8,5.3l1.7,5.8V130c0,2.5-2,4.5-4.5,4.5h-30.6"/>
				<g class="st2">
					<path d="M756.9,99.8c-7.8,0-14.2,5.4-15.9,12.7c-6.2,0.6-11,5.8-11,12.1c0,6.7,5.5,12.2,12.2,12.2c4.1,0,7.8-2.1,10-5.2
						c1.5,0.4,3.1,0.7,4.7,0.7c9,0,16.3-7.3,16.3-16.3C773.1,107.1,765.9,99.8,756.9,99.8z"/>
				</g>
			</g>
		</g>
		<polygon class="st64" points="740.6,138.5 744.8,131.3 736.5,131.3 		"/>
		
			<pattern  id="SVGID_00000049900964503471541800000006229491173800212413_" xlink:href="#New_Pattern_Swatch_6" patternTransform="matrix(1 0 0 1 -74.1013 12.4981)">
		</pattern>
		
			<path style="fill:none;stroke:url(#SVGID_00000049900964503471541800000006229491173800212413_);stroke-width:2;stroke-miterlimit:10;" d="
			M701.2,144.5h17.5l2.6-5l0,0l14.4,0"/>
		
			<pattern  id="SVGID_00000178197854293728861310000001057477737945017479_" xlink:href="#New_Pattern_Swatch_6" patternTransform="matrix(1 0 0 1 -74.1013 12.4981)">
		</pattern>
		
			<path style="fill:none;stroke:url(#SVGID_00000178197854293728861310000001057477737945017479_);stroke-width:2;stroke-miterlimit:10;" d="
			M745.6,139.5l14.4,0l0,0l2.6,5H780"/>
		
			<pattern  id="SVGID_00000049190628502221902440000009173591520928914063_" xlink:href="#New_Pattern_Swatch_6" patternTransform="matrix(1 0 0 1 -74.1013 12.4981)">
		</pattern>
		
			<polyline style="fill:none;stroke:url(#SVGID_00000049190628502221902440000009173591520928914063_);stroke-width:2;stroke-linecap:round;stroke-miterlimit:10;" points="
			701.2,144.5 718.7,144.5 721.2,139.5 		"/>
		
			<pattern  id="SVGID_00000150818386936294718440000002359696898175121584_" xlink:href="#New_Pattern_Swatch_6" patternTransform="matrix(1 0 0 1 -74.1013 12.4981)">
		</pattern>
		
			<polyline style="fill:none;stroke:url(#SVGID_00000150818386936294718440000002359696898175121584_);stroke-width:2;stroke-linecap:round;stroke-linejoin:round;stroke-miterlimit:10;" points="
			760,139.5 762.5,144.5 780,144.5 		"/>
	</g>
	<g>
		<path class="st65" d="M287.8,225.4h17.5l2.6-5l0,0l14.4,0"/>
		<path class="st65" d="M332.2,220.4l14.4,0l0,0l2.6,5h17.5"/>
		<polyline class="st67" points="287.8,225.4 305.2,225.4 307.8,220.4 		"/>
		<polyline class="st69" points="346.5,220.4 349.1,225.4 366.5,225.4 		"/>
	</g>
	<g>
		<path class="st65" d="M391.1,225.4h17.5l2.6-5l0,0l14.4,0"/>
		<path class="st65" d="M435.5,220.4l14.4,0l0,0l2.6,5h17.5"/>
		<polyline class="st67" points="391.1,225.4 408.6,225.4 411.1,220.4 		"/>
		<polyline class="st69" points="449.9,220.4 452.4,225.4 469.9,225.4 		"/>
	</g>
	<g>
		
			<pattern  id="SVGID_00000085958513772351311230000004649378144657415065_" xlink:href="#New_Pattern_Swatch_6" patternTransform="matrix(1 0 0 1 -74.1013 10)">
		</pattern>
		
			<path style="fill:none;stroke:url(#SVGID_00000085958513772351311230000004649378144657415065_);stroke-width:2;stroke-miterlimit:10;" d="
			M597.8,225.4h17.5l2.6-5l0,0l14.4,0"/>
		
			<pattern  id="SVGID_00000097486125250372289480000004258119160614246530_" xlink:href="#New_Pattern_Swatch_6" patternTransform="matrix(1 0 0 1 -74.1013 10)">
		</pattern>
		
			<path style="fill:none;stroke:url(#SVGID_00000097486125250372289480000004258119160614246530_);stroke-width:2;stroke-miterlimit:10;" d="
			M642.2,220.4l14.4,0l0,0l2.6,5h17.5"/>
		
			<pattern  id="SVGID_00000000919716578529437710000010757237204199276729_" xlink:href="#New_Pattern_Swatch_6" patternTransform="matrix(1 0 0 1 -74.1013 10)">
		</pattern>
		
			<polyline style="fill:none;stroke:url(#SVGID_00000000919716578529437710000010757237204199276729_);stroke-width:2;stroke-linecap:round;stroke-miterlimit:10;" points="
			597.8,225.4 615.3,225.4 617.9,220.4 		"/>
		
			<pattern  id="SVGID_00000148620714734491324720000006378139276656593334_" xlink:href="#New_Pattern_Swatch_6" patternTransform="matrix(1 0 0 1 -74.1013 10)">
		</pattern>
		
			<polyline style="fill:none;stroke:url(#SVGID_00000148620714734491324720000006378139276656593334_);stroke-width:2;stroke-linecap:round;stroke-linejoin:round;stroke-miterlimit:10;" points="
			656.6,220.4 659.2,225.4 676.6,225.4 		"/>
	</g>
	<g>
		
			<pattern  id="SVGID_00000000206272195629986080000013488291604383406218_" xlink:href="#New_Pattern_Swatch_6" patternTransform="matrix(1 0 0 1 -74.1013 10)">
		</pattern>
		
			<path style="fill:none;stroke:url(#SVGID_00000000206272195629986080000013488291604383406218_);stroke-width:2;stroke-miterlimit:10;" d="
			M701.2,225.4h17.5l2.6-5l0,0l14.4,0"/>
		
			<pattern  id="SVGID_00000045600284072271214690000015569153085526954687_" xlink:href="#New_Pattern_Swatch_6" patternTransform="matrix(1 0 0 1 -74.1013 10)">
		</pattern>
		
			<path style="fill:none;stroke:url(#SVGID_00000045600284072271214690000015569153085526954687_);stroke-width:2;stroke-miterlimit:10;" d="
			M745.6,220.4l14.4,0l0,0l2.6,5H780"/>
		
			<pattern  id="SVGID_00000076597894728380052310000005664107804410602903_" xlink:href="#New_Pattern_Swatch_6" patternTransform="matrix(1 0 0 1 -74.1013 10)">
		</pattern>
		
			<polyline style="fill:none;stroke:url(#SVGID_00000076597894728380052310000005664107804410602903_);stroke-width:2;stroke-linecap:round;stroke-miterlimit:10;" points="
			701.2,225.4 718.7,225.4 721.3,220.4 		"/>
		
			<pattern  id="SVGID_00000127017144699301918030000010617681792113474712_" xlink:href="#New_Pattern_Swatch_6" patternTransform="matrix(1 0 0 1 -74.1013 10)">
		</pattern>
		
			<polyline style="fill:none;stroke:url(#SVGID_00000127017144699301918030000010617681792113474712_);stroke-width:2;stroke-linecap:round;stroke-linejoin:round;stroke-miterlimit:10;" points="
			760,220.4 762.6,225.4 780,225.4 		"/>
	</g>
	<g>
		<path class="st65" d="M701.2,262.9h17.5l2.6-5l0,0l14.4,0"/>
		<path class="st65" d="M745.6,257.9l14.4,0l0,0l2.6,5H780"/>
		<polyline class="st67" points="701.2,262.9 718.7,262.9 721.3,257.9 		"/>
		<polyline class="st69" points="760,257.9 762.6,262.9 780,262.9 		"/>
	</g>
	<g>
		<text transform="matrix(1 0 0 1 74.7627 354.56)"><tspan x="0" y="0" class="st72 st92">Cas cutting</tspan><tspan x="-2.1" y="18" class="st72 st92">nucleic acid</tspan></text>
		<g>
			<g class="st93">
				<path d="M125,382.2c-7.9,0-14.4,5.5-16.1,12.9c-6.3,0.6-11.2,5.9-11.2,12.3c0,6.8,5.5,12.4,12.4,12.4c4.2,0,7.9-2.1,10.1-5.3
					c1.5,0.5,3.1,0.7,4.8,0.7c9.1,0,16.5-7.4,16.5-16.5S134.1,382.2,125,382.2z"/>
			</g>
			<polygon class="st64" points="115.6,401 119.7,393.7 111.4,393.7 			"/>
			<polygon class="st64" points="115.6,406.4 111.5,413.6 119.8,413.6 			"/>
			<path class="st94" d="M71.2,408.5h22.5l2.6-5l14.4,0"/>
			<path class="st94" d="M120.6,403.5l14.4,0l0,0l2.6,5H160"/>
			<line class="st95" x1="137.5" y1="408.5" x2="160" y2="408.5"/>
			<line class="st95" x1="71.2" y1="408.5" x2="93.7" y2="408.5"/>
		</g>
	</g>
	<g>
		<text transform="matrix(1 0 0 1 213.702 354.56)"><tspan x="0" y="0" class="st72 st92">Cut dsDNA</tspan><tspan x="15.4" y="18" class="st72 st92">(Blunt)</tspan></text>
		<g>
			<path class="st65" d="M209.1,399h22.5l2.6-5l0,0l14.4,0"/>
			<path class="st65" d="M258.5,394l14.4,0l0,0l2.6,5h22.5"/>
			<path class="st66" d="M297.9,403h-22.5l-2.6,5l0,0l-14.4,0"/>
			<path class="st66" d="M248.5,408l-14.4,0l0,0l-2.6-5h-22.5"/>
			<polyline class="st67" points="209.1,399 231.6,399 234.1,394 			"/>
			<polyline class="st68" points="234.1,408 231.6,403 209.1,403 			"/>
			<polyline class="st69" points="272.9,394 275.4,399 297.9,399 			"/>
			<polyline class="st70" points="297.9,403 275.4,403 272.9,408 			"/>
		</g>
	</g>
	<text transform="matrix(1 0 0 1 899.8841 354.56)"><tspan x="0" y="0" class="st72 st92">Cas binding</tspan><tspan x="-10.8" y="18" class="st72 st92">without cutting</tspan></text>
	<g>
		<path class="st65" d="M898.6,399h22.5l2.6-5l0,0l34.4,0"/>
		<path class="st65" d="M948,394l14.4,0l0,0l2.6,5h22.5"/>
		<path class="st66" d="M987.4,403h-22.5l-2.6,5l0,0l-34.4,0"/>
		<path class="st66" d="M938,408l-14.4,0l0,0l-2.6-5h-22.5"/>
		<polyline class="st67" points="898.6,399 921.1,399 923.6,394 		"/>
		<polyline class="st68" points="923.6,408 921.1,403 898.6,403 		"/>
		<polyline class="st69" points="962.4,394 964.9,399 987.4,399 		"/>
		<polyline class="st70" points="987.4,403 964.9,403 962.4,408 		"/>
	</g>
	<g>
		<text transform="matrix(1 0 0 1 351.8254 354.56)"><tspan x="0" y="0" class="st72 st92">Cut dsDNA</tspan><tspan x="-2.1" y="18" class="st72 st92">(Staggered)</tspan></text>
		<path class="st65" d="M347,399h22.5l2.6-5l0,0l4.4,0"/>
		<path class="st65" d="M386.4,394l24.4,0l0,0l2.6,5h22.5"/>
		<path class="st66" d="M435.8,403h-22.5l-2.6,5l0,0l-4.4,0"/>
		<path class="st66" d="M396.4,408l-24.4,0l0,0l-2.6-5H347"/>
		<polyline class="st67" points="347,399 369.5,399 372,394 		"/>
		<polyline class="st67" points="410.8,394 413.3,399 435.8,399 		"/>
		<polyline class="st68" points="435.8,403 413.3,403 410.8,408 		"/>
		<polyline class="st68" points="372,408 369.5,403 347,403 		"/>
	</g>
	<g>
		<text transform="matrix(1 0 0 1 627.8235 362.5581)" class="st72 st92">Cut ssDNA</text>
		<g>
			<path class="st65" d="M622.8,403.5h22.5l2.6-5l0,0l14.4,0"/>
			<path class="st65" d="M672.2,398.5l14.4,0l0,0l2.6,5h22.5"/>
			<polyline class="st67" points="622.8,403.5 645.3,403.5 647.8,398.5 			"/>
			<polyline class="st67" points="686.6,398.5 689.1,403.5 711.6,403.5 			"/>
		</g>
	</g>
	<g>
		<text transform="matrix(1 0 0 1 765.7272 364.7798)" class="st72 st92">Cut ssRNA</text>
		<g>
			
				<pattern  id="SVGID_00000060750825381770988410000013261052691626966144_" xlink:href="#New_Pattern_Swatch_6" patternTransform="matrix(1 0 0 1 -117.4521 5)">
			</pattern>
			
				<path style="fill:none;stroke:url(#SVGID_00000060750825381770988410000013261052691626966144_);stroke-width:2;stroke-miterlimit:10;" d="
				M760.7,403.5h22.5l2.6-5l0,0l14.4,0"/>
			
				<pattern  id="SVGID_00000173146289016446415300000002369005371533370543_" xlink:href="#New_Pattern_Swatch_6" patternTransform="matrix(1 0 0 1 -117.4521 5)">
			</pattern>
			
				<path style="fill:none;stroke:url(#SVGID_00000173146289016446415300000002369005371533370543_);stroke-width:2;stroke-miterlimit:10;" d="
				M810.1,398.5l14.4,0l0,0l2.6,5h22.5"/>
			
				<pattern  id="SVGID_00000127017430003142662310000015556497363736279712_" xlink:href="#New_Pattern_Swatch_6" patternTransform="matrix(1 0 0 1 -117.4521 5)">
			</pattern>
			
				<polyline style="fill:none;stroke:url(#SVGID_00000127017430003142662310000015556497363736279712_);stroke-width:2;stroke-linecap:round;stroke-miterlimit:10;" points="
				760.7,403.5 783.2,403.5 785.7,398.5 			"/>
			
				<pattern  id="SVGID_00000109752322754529586120000006788457173623175851_" xlink:href="#New_Pattern_Swatch_6" patternTransform="matrix(1 0 0 1 -117.4521 5)">
			</pattern>
			
				<polyline style="fill:none;stroke:url(#SVGID_00000109752322754529586120000006788457173623175851_);stroke-width:2;stroke-linecap:round;stroke-miterlimit:10;" points="
				824.5,398.5 827,403.5 849.5,403.5 			"/>
		</g>
	</g>
	<g>
		<circle cx="223.8" cy="37.5" r="17.5"/>
		<path class="st52" d="M229.4,42.9v3h-11.2c0.1-1.1,0.5-2.2,1.1-3.2c0.6-1,1.8-2.3,3.6-4c1.4-1.3,2.3-2.3,2.7-2.7
			c0.4-0.7,0.7-1.3,0.7-2c0-0.7-0.2-1.3-0.6-1.6c-0.4-0.4-0.9-0.6-1.6-0.6c-0.7,0-1.2,0.2-1.6,0.6c-0.4,0.4-0.6,1.1-0.7,2l-3.2-0.3
			c0.2-1.8,0.8-3,1.8-3.8c1-0.8,2.3-1.2,3.8-1.2c1.7,0,2.9,0.4,3.9,1.3c0.9,0.9,1.4,2,1.4,3.3c0,0.8-0.1,1.5-0.4,2.2
			c-0.3,0.7-0.7,1.4-1.3,2.1c-0.4,0.5-1.1,1.2-2.1,2.1c-1,0.9-1.7,1.5-1.9,1.8c-0.3,0.3-0.5,0.6-0.7,0.9H229.4z"/>
	</g>
	<g>
		<circle cx="327.2" cy="37.5" r="17.5"/>
		<path class="st52" d="M321.6,41.3l3.1-0.4c0.1,0.8,0.4,1.4,0.8,1.8c0.4,0.4,1,0.6,1.6,0.6c0.7,0,1.2-0.3,1.7-0.8
			c0.5-0.5,0.7-1.2,0.7-2c0-0.8-0.2-1.4-0.7-1.9c-0.4-0.5-1-0.7-1.6-0.7c-0.4,0-0.9,0.1-1.5,0.2l0.4-2.6c0.9,0,1.5-0.2,2-0.6
			c0.5-0.4,0.7-0.9,0.7-1.6c0-0.6-0.2-1-0.5-1.3c-0.3-0.3-0.8-0.5-1.3-0.5c-0.5,0-1,0.2-1.4,0.6c-0.4,0.4-0.6,0.9-0.7,1.7l-3-0.5
			c0.2-1,0.5-1.8,0.9-2.4c0.4-0.6,1-1.1,1.7-1.4c0.7-0.3,1.6-0.5,2.5-0.5c1.6,0,2.8,0.5,3.8,1.5c0.8,0.8,1.2,1.7,1.2,2.8
			c0,1.5-0.8,2.6-2.4,3.5c1,0.2,1.7,0.7,2.3,1.4c0.6,0.7,0.9,1.6,0.9,2.6c0,1.5-0.5,2.7-1.6,3.8c-1.1,1-2.4,1.6-4,1.6
			c-1.5,0-2.8-0.4-3.8-1.3C322.3,43.9,321.8,42.7,321.6,41.3z"/>
	</g>
	<g>
		<circle cx="430.5" cy="37.5" r="17.5"/>
		<path class="st52" d="M431.3,45.9v-3.4h-6.8v-2.8l7.3-10.6h2.7v10.6h2.1v2.8h-2.1v3.4H431.3z M431.3,39.7V34l-3.8,5.7H431.3z"/>
	</g>
	<g>
		<circle cx="533.9" cy="37.5" r="17.5"/>
		<path class="st52" d="M528.2,41.3l3.2-0.3c0.1,0.7,0.4,1.3,0.8,1.7c0.4,0.4,1,0.6,1.6,0.6c0.7,0,1.2-0.3,1.7-0.8
			c0.5-0.5,0.7-1.4,0.7-2.5c0-1-0.2-1.8-0.7-2.3c-0.5-0.5-1.1-0.8-1.8-0.8c-0.9,0-1.7,0.4-2.5,1.2l-2.6-0.4l1.6-8.7h8.5v3h-6
			l-0.5,2.8c0.7-0.4,1.4-0.5,2.2-0.5c1.4,0,2.6,0.5,3.6,1.6c1,1,1.5,2.4,1.5,4c0,1.4-0.4,2.6-1.2,3.7c-1.1,1.5-2.6,2.2-4.5,2.2
			c-1.5,0-2.8-0.4-3.8-1.2C529,43.8,528.4,42.7,528.2,41.3z"/>
	</g>
	<g>
		<circle cx="637.2" cy="37.5" r="17.5"/>
		<path class="st52" d="M642.5,33.1l-3.1,0.3c-0.1-0.6-0.3-1.1-0.6-1.4c-0.3-0.3-0.7-0.5-1.2-0.5c-0.7,0-1.2,0.3-1.7,0.9
			c-0.5,0.6-0.8,1.9-0.9,3.8c0.8-0.9,1.8-1.4,3-1.4c1.3,0,2.5,0.5,3.4,1.5c1,1,1.4,2.3,1.4,3.9c0,1.7-0.5,3.1-1.5,4.1
			c-1,1-2.3,1.6-3.9,1.6c-1.7,0-3.1-0.7-4.2-2c-1.1-1.3-1.6-3.5-1.6-6.5c0-3.1,0.6-5.3,1.7-6.6c1.1-1.4,2.6-2,4.4-2
			c1.3,0,2.3,0.4,3.2,1.1C641.7,30.7,642.3,31.8,642.5,33.1z M635.2,40.1c0,1,0.2,1.8,0.7,2.4c0.5,0.6,1,0.8,1.6,0.8
			c0.6,0,1.1-0.2,1.5-0.7c0.4-0.5,0.6-1.2,0.6-2.3c0-1.1-0.2-1.9-0.6-2.4c-0.4-0.5-1-0.8-1.6-0.8c-0.6,0-1.1,0.2-1.6,0.7
			C635.4,38.5,635.2,39.2,635.2,40.1z"/>
	</g>
	<circle cx="740.6" cy="37.5" r="17.5"/>
	<path class="st52" d="M735.1,32.2v-3h11v2.3c-0.9,0.9-1.8,2.2-2.8,3.8s-1.6,3.4-2.1,5.3c-0.5,1.9-0.7,3.5-0.7,5h-3.1
		c0.1-2.3,0.5-4.7,1.4-7.1s2.1-4.6,3.6-6.4H735.1z"/>
	<g>
		<path class="st43" d="M881.2,331.6h-74.5c-6.6,0-12-5.4-12-12V12c0-6.6,5.4-12,12-12h74.5c6.6,0,12,5.4,12,12v307.6
			C893.2,326.2,887.8,331.6,881.2,331.6z"/>
		<g>
			<g>
				<path class="st75" d="M870.6,134.5c-2.5,0-4.5-2-4.5-4.5v-12.1l1.7-5.8c0.5-1.8,0.3-3.8-0.8-5.3c-1-1.4-2.6-2.3-4.3-2.3h0
					c-1.7,0-3.3,0.9-4.3,2.3c-1.1,1.5-1.3,3.5-0.8,5.3l1.7,5.8V130c0,2.5-2,4.5-4.5,4.5h-30.6"/>
				<g class="st2">
					<path d="M860.2,99.8c-7.8,0-14.2,5.4-15.9,12.7c-6.2,0.6-11,5.8-11,12.1c0,6.7,5.5,12.2,12.2,12.2c4.1,0,7.8-2.1,10-5.2
						c1.5,0.4,3.1,0.7,4.7,0.7c9,0,16.3-7.3,16.3-16.3C876.5,107.1,869.2,99.8,860.2,99.8z"/>
				</g>
			</g>
			<polygon class="st64" points="844,138.5 848.1,131.3 839.8,131.3 			"/>
			
				<pattern  id="SVGID_00000054246598135492186950000000957524202590900142_" xlink:href="#New_Pattern_Swatch_6" patternTransform="matrix(1 0 0 1 -74.1013 12.4981)">
			</pattern>
			
				<path style="fill:none;stroke:url(#SVGID_00000054246598135492186950000000957524202590900142_);stroke-width:2;stroke-miterlimit:10;" d="
				M804.5,144.5H822l2.6-5l0,0l14.4,0"/>
			
				<pattern  id="SVGID_00000121263925446165907020000006161297484667150514_" xlink:href="#New_Pattern_Swatch_6" patternTransform="matrix(1 0 0 1 -74.1013 12.4981)">
			</pattern>
			
				<path style="fill:none;stroke:url(#SVGID_00000121263925446165907020000006161297484667150514_);stroke-width:2;stroke-miterlimit:10;" d="
				M848.9,139.5l14.4,0l0,0l2.6,5h17.5"/>
			
				<pattern  id="SVGID_00000152264030526361306790000009146688697690776748_" xlink:href="#New_Pattern_Swatch_6" patternTransform="matrix(1 0 0 1 -74.1013 12.4981)">
			</pattern>
			
				<polyline style="fill:none;stroke:url(#SVGID_00000152264030526361306790000009146688697690776748_);stroke-width:2;stroke-linecap:round;stroke-miterlimit:10;" points="
				804.5,144.5 822,144.5 824.6,139.5 			"/>
			
				<pattern  id="SVGID_00000123398849824194972320000011115229253441822381_" xlink:href="#New_Pattern_Swatch_6" patternTransform="matrix(1 0 0 1 -74.1013 12.4981)">
			</pattern>
			
				<polyline style="fill:none;stroke:url(#SVGID_00000123398849824194972320000011115229253441822381_);stroke-width:2;stroke-linecap:round;stroke-linejoin:round;stroke-miterlimit:10;" points="
				863.3,139.5 865.9,144.5 883.3,144.5 			"/>
		</g>
		<g>
			
				<pattern  id="SVGID_00000033347932654230124310000010990354824141643909_" xlink:href="#New_Pattern_Swatch_6" patternTransform="matrix(1 0 0 1 -74.1013 10)">
			</pattern>
			
				<path style="fill:none;stroke:url(#SVGID_00000033347932654230124310000010990354824141643909_);stroke-width:2;stroke-miterlimit:10;" d="
				M804.6,225.4H822l2.6-5l0,0l14.4,0"/>
			
				<pattern  id="SVGID_00000045582145393416907340000010602511581713884032_" xlink:href="#New_Pattern_Swatch_6" patternTransform="matrix(1 0 0 1 -74.1013 10)">
			</pattern>
			
				<path style="fill:none;stroke:url(#SVGID_00000045582145393416907340000010602511581713884032_);stroke-width:2;stroke-miterlimit:10;" d="
				M849,220.4l14.4,0l0,0l2.6,5h17.5"/>
			
				<pattern  id="SVGID_00000011011903148857952260000011419676991382498995_" xlink:href="#New_Pattern_Swatch_6" patternTransform="matrix(1 0 0 1 -74.1013 10)">
			</pattern>
			
				<polyline style="fill:none;stroke:url(#SVGID_00000011011903148857952260000011419676991382498995_);stroke-width:2;stroke-linecap:round;stroke-miterlimit:10;" points="
				804.6,225.4 822,225.4 824.6,220.4 			"/>
			
				<pattern  id="SVGID_00000181788692883297568910000003235706417651733423_" xlink:href="#New_Pattern_Swatch_6" patternTransform="matrix(1 0 0 1 -74.1013 10)">
			</pattern>
			
				<polyline style="fill:none;stroke:url(#SVGID_00000181788692883297568910000003235706417651733423_);stroke-width:2;stroke-linecap:round;stroke-linejoin:round;stroke-miterlimit:10;" points="
				863.3,220.4 865.9,225.4 883.4,225.4 			"/>
		</g>
		<g>
			<g>
				<path class="st65" d="M804.6,262.9H822l2.6-5l0,0l14.4,0"/>
				<path class="st65" d="M849,257.9l14.4,0l0,0l2.6,5h17.5"/>
				<polyline class="st67" points="804.6,262.9 822,262.9 824.6,257.9 				"/>
				<polyline class="st69" points="863.3,257.9 865.9,262.9 883.4,262.9 				"/>
			</g>
		</g>
		<g>
			<path class="st65" d="M805.2,293.7h17.5l2.6-5l0,0l14.4,0"/>
			<path class="st65" d="M849.6,288.7l14.4,0l0,0l2.6,5H884"/>
			<path class="st66" d="M884,297.7h-17.5l-2.6,5l0,0l-14.4,0"/>
			<path class="st66" d="M839.6,302.7l-14.4,0l0,0l-2.6-5h-17.5"/>
			<polyline class="st67" points="805.2,293.7 822.7,293.7 825.2,288.7 			"/>
			<polyline class="st68" points="825.2,302.7 822.7,297.7 805.2,297.7 			"/>
			<polyline class="st69" points="864,288.7 866.5,293.7 884,293.7 			"/>
			<polyline class="st70" points="884,297.7 866.5,297.7 864,302.7 			"/>
		</g>
		<g>
			<circle cx="843.9" cy="37.5" r="17.5"/>
			<path class="st52" d="M841.2,36.9c-0.8-0.3-1.4-0.8-1.8-1.4c-0.4-0.6-0.6-1.3-0.6-2c0-1.2,0.4-2.3,1.3-3.1
				c0.9-0.8,2.1-1.2,3.7-1.2c1.6,0,2.8,0.4,3.7,1.2c0.9,0.8,1.3,1.8,1.3,3.1c0,0.8-0.2,1.5-0.6,2.1s-1,1.1-1.7,1.4
				c0.9,0.4,1.6,0.9,2.1,1.6c0.5,0.7,0.7,1.5,0.7,2.5c0,1.5-0.5,2.8-1.5,3.8c-1,1-2.3,1.4-3.9,1.4c-1.5,0-2.8-0.4-3.8-1.2
				c-1.2-0.9-1.8-2.2-1.8-3.9c0-0.9,0.2-1.7,0.7-2.5C839.6,37.9,840.3,37.3,841.2,36.9z M841.6,40.8c0,0.9,0.2,1.6,0.7,2.1
				c0.5,0.5,1,0.7,1.7,0.7c0.7,0,1.2-0.2,1.6-0.7c0.4-0.5,0.7-1.2,0.7-2.1c0-0.8-0.2-1.4-0.7-1.9c-0.4-0.5-1-0.7-1.7-0.7
				c-0.8,0-1.4,0.3-1.8,0.8C841.8,39.6,841.6,40.2,841.6,40.8z M841.9,33.6c0,0.6,0.2,1.1,0.5,1.5c0.4,0.4,0.8,0.5,1.4,0.5
				c0.6,0,1.1-0.2,1.5-0.5c0.4-0.4,0.5-0.9,0.5-1.5c0-0.6-0.2-1.1-0.5-1.4c-0.4-0.4-0.8-0.5-1.4-0.5c-0.6,0-1.1,0.2-1.5,0.5
				C842.1,32.6,841.9,33,841.9,33.6z"/>
		</g>
	</g>
	<text transform="matrix(1 0 0 1 487.0717 354.56)"><tspan x="0" y="0" class="st72 st92">Cut dsDNA</tspan><tspan x="10" y="18" class="st72 st92">(Nicked)</tspan></text>
	<g>
		<path class="st65" d="M492.5,399h17.5l2.6-5l0,0h38.7l0,0l2.6,5h17.5"/>
		<path class="st66" d="M571.3,403h-17.5l-2.6,5l0,0l-4.4,0"/>
		<path class="st66" d="M536.9,412v-4l-24.4,0l0,0l-2.6-5h-17.5"/>
		<polyline class="st67" points="492.5,399 509.9,399 512.5,394 		"/>
		<polyline class="st67" points="551.2,394 553.8,399 571.3,399 		"/>
		<polyline class="st68" points="571.3,403 553.8,403 551.2,408 		"/>
		<polyline class="st68" points="512.5,408 509.9,403 492.5,403 		"/>
	</g>
	<g class="st2">
		<path d="M154.6,60.2H15.1C6.7,60.2,0,53.4,0,45.1l0-15.3c0-8.3,6.7-15.1,15.1-15.1h139.6c8.3,0,15.1,6.7,15.1,15.1v15.3
			C169.7,53.4,162.9,60.2,154.6,60.2z"/>
	</g>
	<g class="st2">
		<path d="M154.6,162.7H15.1c-8.3,0-15.1-6.7-15.1-15.1l0-34c0-8.3,6.7-15.1,15.1-15.1h139.6c8.3,0,15.1,6.7,15.1,15.1v34
			C169.7,155.9,162.9,162.7,154.6,162.7z"/>
	</g>
	<g class="st2">
		<path d="M154.6,254.8H15.1C6.7,254.8,0,248,0,239.7l0-34c0-8.3,6.7-15.1,15.1-15.1h139.6c8.3,0,15.1,6.7,15.1,15.1v34
			C169.7,248,162.9,254.8,154.6,254.8z"/>
	</g>
	<g>
		<text transform="matrix(1 0 0 1 26.1201 218.09)"><tspan x="0" y="0" class="st72 st92">trans</tspan><tspan x="-15" y="18" class="st72 st92">activity</tspan></text>
	</g>
	<g>
		<text transform="matrix(1 0 0 1 54.4577 42.9674)" class="st72 st92">#</text>
	</g>
	<g>
		<text transform="matrix(1 0 0 1 41.9477 125.2433)"><tspan x="0" y="0" class="st72 st92">cis</tspan><tspan x="-30.8" y="18" class="st72 st92">activity</tspan></text>
	</g>
	<g>
		<path class="st43" d="M157.7,331.6H83.2c-6.6,0-12-5.4-12-12V12c0-6.6,5.4-12,12-12h74.5c6.6,0,12,5.4,12,12v307.6
			C169.7,326.2,164.3,331.6,157.7,331.6z"/>
		<g>
			<text transform="matrix(1 0 0 1 113.6744 228.0897)" class="st72 st73">x</text>
		</g>
		<g>
			<g>
				<path class="st75" d="M146.6,134.5c-2.5,0-4.5-2-4.5-4.5v-12.1l1.7-5.8c0.5-1.8,0.3-3.8-0.8-5.3c-1-1.4-2.6-2.3-4.3-2.3h0
					c-1.7,0-3.3,0.9-4.3,2.3c-1.1,1.5-1.3,3.5-0.8,5.3l1.7,5.8V130c0,2.5-2,4.5-4.5,4.5h-30.6"/>
				<g class="st2">
					<path d="M136.3,99.8c-7.8,0-14.2,5.4-15.9,12.7c-6.2,0.6-11,5.8-11,12.1c0,6.7,5.5,12.2,12.2,12.2c4.1,0,7.8-2.1,10-5.2
						c1.5,0.4,3.1,0.7,4.7,0.7c9,0,16.3-7.3,16.3-16.3C152.6,107.1,145.3,99.8,136.3,99.8z"/>
				</g>
			</g>
			<g>
				<polygon class="st64" points="120,138.7 124.1,131.5 115.8,131.5 				"/>
				<polygon class="st64" points="120,154.3 115.9,161.5 124.2,161.5 				"/>
				<g>
					<path class="st65" d="M80.6,144.5h17.5l2.6-5l0,0l14.4,0"/>
					<path class="st65" d="M125,139.5l14.4,0l0,0l2.6,5h17.5"/>
					<path class="st66" d="M159.4,148.5h-17.5l-2.6,5l0,0l-14.4,0"/>
					<path class="st66" d="M115,153.5l-14.4,0l0,0l-2.6-5H80.6"/>
					<polyline class="st67" points="80.6,144.5 98.1,144.5 100.6,139.5 					"/>
					<polyline class="st68" points="100.6,153.5 98.1,148.5 80.6,148.5 					"/>
					<polyline class="st69" points="139.4,139.5 141.9,144.5 159.4,144.5 					"/>
					<polyline class="st70" points="159.4,148.5 141.9,148.5 139.4,153.5 					"/>
				</g>
			</g>
		</g>
		<g>
			<g>
				<circle cx="120.4" cy="37.5" r="17.5"/>
				<path class="st52" d="M123.2,45.9H120V33.8c-1.2,1.1-2.6,1.9-4.1,2.4v-2.9c0.8-0.3,1.7-0.8,2.7-1.6c1-0.8,1.7-1.7,2-2.7h2.6
					V45.9z"/>
			</g>
		</g>
	</g>
</g>
</svg>
