<?xml version="1.0" encoding="utf-8"?>
<!-- Generator: Adobe Illustrator 27.5.0, SVG Export Plug-In . SVG Version: 6.00 Build 0)  -->
<svg version="1.1" id="Layer_1" xmlns="http://www.w3.org/2000/svg" xmlns:xlink="http://www.w3.org/1999/xlink" x="0px" y="0px"
	 viewBox="0 0 169.7 447.1" style="enable-background:new 0 0 169.7 447.1;" xml:space="preserve">
<style type="text/css">
	.st0{fill:none;}
	.st1{fill:#40AFA5;}
	.st2{fill:#FFF6E9;}
	.st3{fill:#31CAFD;}
	.st4{fill:#AAB8F1;}
	.st5{fill:#A2B8FF;}
	.st6{fill:#00CEDE;}
	.st7{fill:#FF0A00;}
	.st8{fill:#BEBEBE;}
	.st9{fill:#8F7F1D;}
	.st10{fill:#A17800;}
	.st11{fill:#FE1600;}
	.st12{fill:#C0BCBC;}
	.st13{fill:#CFB7BE;}
	.st14{fill:#BFBBC9;}
	.st15{fill:url(#SVGID_1_);}
	.st16{fill:#5857FF;}
	.st17{fill:#D31159;}
	.st18{fill:#FFAF00;}
	.st19{fill:#A09C9A;}
	.st20{fill:#006CDE;}
	.st21{fill:#6A6B7A;}
	.st22{fill:#D6BD0F;}
	.st23{fill:#A699AB;}
	.st24{fill:#0072BF;}
	.st25{fill:#80674E;}
	.st26{fill:#F2B300;}
	.st27{fill:#4DAAB8;}
	.st28{fill:#007B83;}
	.st29{fill:#D02A2A;}
	.st30{fill:#FFA5AF;}
	.st31{fill:#FFF7EA;}
	.st32{fill:#FFF7EB;}
	.st33{fill:#FFF6F5;}
	.st34{fill:#FCFCFC;}
	.st35{fill:#8B61FF;}
	.st36{fill:#007AFE;}
	.st37{fill:#0081DD;}
	.st38{fill:#65838D;}
	.st39{fill:#00FFB7;}
	.st40{fill:#F0DFA8;}
	.st41{fill:#FFD8C5;}
	.st42{fill:#89F0FF;}
	.st43{opacity:0.15;}
	.st44{fill:none;stroke:#FFAF00;stroke-width:2.2565;stroke-miterlimit:10;}
	.st45{fill:none;stroke:#D31159;stroke-width:2.8141;stroke-miterlimit:10;}
	.st46{fill:none;stroke:#5857FF;stroke-width:2.8141;stroke-miterlimit:10;}
	.st47{fill:none;stroke:#D31159;stroke-width:2.8141;stroke-linecap:round;stroke-miterlimit:10;}
	.st48{fill:none;stroke:#5857FF;stroke-width:2.8141;stroke-linecap:round;stroke-miterlimit:10;}
	.st49{fill:none;stroke:#D31159;stroke-width:2.8141;stroke-linecap:round;stroke-linejoin:round;stroke-miterlimit:10;}
	.st50{fill:none;stroke:#5857FF;stroke-width:2.8141;stroke-linecap:round;stroke-linejoin:round;stroke-miterlimit:10;}
	.st51{stroke:#000000;stroke-width:1.4918;stroke-miterlimit:10;}
	.st52{fill:#FFFFFF;}
	.st53{fill:none;stroke:#31CAFD;stroke-width:2.5;stroke-miterlimit:10;}
	.st54{fill:none;stroke:#FFAF00;stroke-width:2.5;stroke-miterlimit:10;}
	.st55{fill:none;stroke:#FF0A00;stroke-width:2.5;stroke-miterlimit:10;}
	.st56{fill:none;stroke:#00FFB7;stroke-width:2.5;stroke-miterlimit:10;}
	.st57{fill:none;stroke:#8B61FF;stroke-width:2.5;stroke-miterlimit:10;}
	.st58{fill:none;stroke:#BEBEBE;stroke-width:2.5;stroke-miterlimit:10;}
	.st59{fill:none;stroke:#FF0A00;stroke-width:4.5;stroke-miterlimit:10;}
	.st60{fill:none;stroke:#BEBEBE;stroke-width:4.5;stroke-miterlimit:10;}
	.st61{fill:none;stroke:#000000;stroke-width:2.5;stroke-miterlimit:10;}
	.st62{fill:#413F40;stroke:#003953;stroke-width:5.431579e-02;stroke-miterlimit:10;}
	.st63{fill:none;stroke:#D31159;stroke-width:2;stroke-miterlimit:10;}
	.st64{fill:none;stroke:#5857FF;stroke-width:2;stroke-miterlimit:10;}
	.st65{fill:none;stroke:#D31159;stroke-width:2;stroke-linecap:round;stroke-miterlimit:10;}
	.st66{fill:none;stroke:#5857FF;stroke-width:2;stroke-linecap:round;stroke-miterlimit:10;}
	.st67{fill:none;stroke:#D31159;stroke-width:2;stroke-linecap:round;stroke-linejoin:round;stroke-miterlimit:10;}
	.st68{fill:none;stroke:#5857FF;stroke-width:2;stroke-linecap:round;stroke-linejoin:round;stroke-miterlimit:10;}
	.st69{opacity:0.4;fill:none;stroke:#FFAF00;stroke-width:1.7161;stroke-miterlimit:10;}
	.st70{fill:#BDDCEB;}
	.st71{opacity:0.5;fill:none;stroke:#FFAF00;stroke-width:2;stroke-miterlimit:10;}
	.st72{fill:none;stroke:url(#SVGID_00000049184529408782336290000006912279165701413538_);stroke-width:2;stroke-miterlimit:10;}
	.st73{fill:none;stroke:url(#SVGID_00000060734938053177621510000013789415800667335298_);stroke-width:2;stroke-miterlimit:10;}
	
		.st74{fill:none;stroke:url(#SVGID_00000119813097899806833170000016012468195879743932_);stroke-width:2;stroke-linecap:round;stroke-miterlimit:10;}
	
		.st75{fill:none;stroke:url(#SVGID_00000165934050427074082990000011702950476664331672_);stroke-width:2;stroke-linecap:round;stroke-linejoin:round;stroke-miterlimit:10;}
	.st76{fill:none;stroke:url(#SVGID_00000000906205698818335240000006700990868642951332_);stroke-width:2;stroke-miterlimit:10;}
	.st77{fill:none;stroke:url(#SVGID_00000005256939574513994820000006153947728750037414_);stroke-width:2;stroke-miterlimit:10;}
	
		.st78{fill:none;stroke:url(#SVGID_00000084528368576772737880000000048541881070386340_);stroke-width:2;stroke-linecap:round;stroke-miterlimit:10;}
	
		.st79{fill:none;stroke:url(#SVGID_00000023974747460949683880000012235917382901220993_);stroke-width:2;stroke-linecap:round;stroke-linejoin:round;stroke-miterlimit:10;}
	.st80{fill:none;stroke:url(#SVGID_00000168104759496997138640000001626183139708196256_);stroke-width:2;stroke-miterlimit:10;}
	.st81{fill:none;stroke:url(#SVGID_00000047738759208875585220000002373637206239960747_);stroke-width:2;stroke-miterlimit:10;}
	
		.st82{fill:none;stroke:url(#SVGID_00000069398270626058125240000006669231370484013752_);stroke-width:2;stroke-linecap:round;stroke-miterlimit:10;}
	
		.st83{fill:none;stroke:url(#SVGID_00000110432178326977346720000011821130200964239779_);stroke-width:2;stroke-linecap:round;stroke-linejoin:round;stroke-miterlimit:10;}
	.st84{fill:none;stroke:url(#SVGID_00000033340004613720928770000001584889702791234230_);stroke-width:2;stroke-miterlimit:10;}
	.st85{fill:none;stroke:url(#SVGID_00000145023180023091365900000014435332988105438138_);stroke-width:2;stroke-miterlimit:10;}
	
		.st86{fill:none;stroke:url(#SVGID_00000011742291824348323800000012760657954536349104_);stroke-width:2;stroke-linecap:round;stroke-miterlimit:10;}
	
		.st87{fill:none;stroke:url(#SVGID_00000098919135135915196330000013486109993547138734_);stroke-width:2;stroke-linecap:round;stroke-linejoin:round;stroke-miterlimit:10;}
	.st88{opacity:0.25;}
	.st89{fill:none;stroke:#003953;stroke-width:2;stroke-miterlimit:10;}
	.st90{fill:none;stroke:#003953;stroke-width:2;stroke-linecap:round;stroke-miterlimit:10;}
	.st91{fill:none;stroke:url(#SVGID_00000111875374207717305250000014719800414874164656_);stroke-width:2;stroke-miterlimit:10;}
	.st92{fill:none;stroke:url(#SVGID_00000018960146252161282410000017792721182089842825_);stroke-width:2;stroke-miterlimit:10;}
	
		.st93{fill:none;stroke:url(#SVGID_00000168078619526542320900000016295880036954156182_);stroke-width:2;stroke-linecap:round;stroke-miterlimit:10;}
	
		.st94{fill:none;stroke:url(#SVGID_00000183219986089934875710000004764959756412531341_);stroke-width:2;stroke-linecap:round;stroke-miterlimit:10;}
	.st95{fill:none;stroke:url(#SVGID_00000117650685159135623060000009243560273643242669_);stroke-width:2;stroke-miterlimit:10;}
	.st96{fill:none;stroke:url(#SVGID_00000159449581532558791660000007961054055722371263_);stroke-width:2;stroke-miterlimit:10;}
	
		.st97{fill:none;stroke:url(#SVGID_00000085216073055869152030000012673562487769497004_);stroke-width:2;stroke-linecap:round;stroke-miterlimit:10;}
	
		.st98{fill:none;stroke:url(#SVGID_00000134958639663074961520000013453675145144934057_);stroke-width:2;stroke-linecap:round;stroke-linejoin:round;stroke-miterlimit:10;}
	.st99{fill:none;stroke:url(#SVGID_00000176029879500668641640000009563661143333429168_);stroke-width:2;stroke-miterlimit:10;}
	.st100{fill:none;stroke:url(#SVGID_00000132075780684663401510000005894463427924196016_);stroke-width:2;stroke-miterlimit:10;}
	
		.st101{fill:none;stroke:url(#SVGID_00000036238088284207589120000003947557557929906347_);stroke-width:2;stroke-linecap:round;stroke-miterlimit:10;}
	
		.st102{fill:none;stroke:url(#SVGID_00000116201957798370737200000014232394185341638816_);stroke-width:2;stroke-linecap:round;stroke-linejoin:round;stroke-miterlimit:10;}
	.st103{fill:none;stroke:#FFAF00;stroke-width:2.8141;stroke-miterlimit:10;}
	
		.st104{fill:none;stroke:url(#SVGID_00000058578349599829403360000011400427941585753994_);stroke-width:2.8141;stroke-miterlimit:10;}
	
		.st105{fill:none;stroke:url(#SVGID_00000153668888240103978340000002277448966225641622_);stroke-width:2.8141;stroke-linecap:round;stroke-miterlimit:10;}
	
		.st106{fill:none;stroke:url(#SVGID_00000018942751595729976440000015145804908951062955_);stroke-width:2.8141;stroke-linecap:round;stroke-linejoin:round;stroke-miterlimit:10;}
	.st107{fill:none;stroke:#000000;stroke-width:3;stroke-miterlimit:10;}
	
		.st108{fill:none;stroke:url(#SVGID_00000080910433680560760820000011096241377992829624_);stroke-width:2.8141;stroke-linecap:round;stroke-miterlimit:10;}
	
		.st109{fill:none;stroke:url(#SVGID_00000028317513084775812380000016238635217224445368_);stroke-width:2.8141;stroke-miterlimit:10;}
	
		.st110{fill:none;stroke:url(#SVGID_00000003803180781279015600000013461546399185538192_);stroke-width:2.8141;stroke-linecap:round;stroke-miterlimit:10;}
	
		.st111{fill:none;stroke:url(#SVGID_00000115501702859960402140000018314115874921903500_);stroke-width:2.8141;stroke-linecap:round;stroke-linejoin:round;stroke-miterlimit:10;}
	
		.st112{fill:none;stroke:url(#SVGID_00000133528767644144513830000005581279406476569478_);stroke-width:2.8141;stroke-miterlimit:10;}
	
		.st113{fill:none;stroke:url(#SVGID_00000163038587168606067100000018400233490356919711_);stroke-width:2.8141;stroke-linecap:round;stroke-miterlimit:10;}
	
		.st114{fill:none;stroke:url(#SVGID_00000119822515319938659410000000141862645516588978_);stroke-width:2.8141;stroke-linecap:round;stroke-linejoin:round;stroke-miterlimit:10;}
	.st115{fill:none;stroke:url(#SVGID_00000071561638132190159690000004199190905930266247_);stroke-width:2;stroke-miterlimit:10;}
	.st116{fill:none;stroke:url(#SVGID_00000095321822923549813430000013692015732778100112_);stroke-width:2;stroke-miterlimit:10;}
	
		.st117{fill:none;stroke:url(#SVGID_00000015332390900274638990000003035156814400820128_);stroke-width:2;stroke-linecap:round;stroke-miterlimit:10;}
	
		.st118{fill:none;stroke:url(#SVGID_00000085216143267785817280000005176980902292230838_);stroke-width:2;stroke-linecap:round;stroke-miterlimit:10;}
	.st119{fill:none;stroke:url(#SVGID_00000177455805214689807290000016667623153915464382_);stroke-width:2;stroke-miterlimit:10;}
	.st120{fill:none;stroke:url(#SVGID_00000182520307635414685030000015839704009955741345_);stroke-width:2;stroke-miterlimit:10;}
	
		.st121{fill:none;stroke:url(#SVGID_00000165198419718030187050000011378158279202618293_);stroke-width:2;stroke-linecap:round;stroke-miterlimit:10;}
	
		.st122{fill:none;stroke:url(#SVGID_00000011007980565874890440000006748404226745953931_);stroke-width:2;stroke-linecap:round;stroke-miterlimit:10;}
	.st123{font-family:'Arial-BoldMT';}
	.st124{font-size:15px;}
	.st125{fill:none;stroke:url(#SVGID_00000005243746218968406980000002678947356343213457_);stroke-width:2;stroke-miterlimit:10;}
	.st126{fill:none;stroke:url(#SVGID_00000020388062788578457130000005187826333094831758_);stroke-width:2;stroke-miterlimit:10;}
	
		.st127{fill:none;stroke:url(#SVGID_00000158745466231703556540000014837974505127987106_);stroke-width:2;stroke-linecap:round;stroke-miterlimit:10;}
	
		.st128{fill:none;stroke:url(#SVGID_00000169549111601859232850000008723414608231085239_);stroke-width:2;stroke-linecap:round;stroke-linejoin:round;stroke-miterlimit:10;}
	.st129{fill:none;stroke:url(#SVGID_00000044136278565858796510000000663943185251746959_);stroke-width:2;stroke-miterlimit:10;}
	.st130{fill:none;stroke:url(#SVGID_00000146481138208097527080000008152711525639591053_);stroke-width:2;stroke-miterlimit:10;}
	
		.st131{fill:none;stroke:url(#SVGID_00000161617643664221209270000015815536119605223078_);stroke-width:2;stroke-linecap:round;stroke-miterlimit:10;}
	
		.st132{fill:none;stroke:url(#SVGID_00000121992719379767808390000017651387845032132517_);stroke-width:2;stroke-linecap:round;stroke-linejoin:round;stroke-miterlimit:10;}
	.st133{fill:none;stroke:url(#SVGID_00000034066091325585208070000010687712279430386080_);stroke-width:2;stroke-miterlimit:10;}
	.st134{fill:none;stroke:url(#SVGID_00000065033035547561262450000006372180648363746457_);stroke-width:2;stroke-miterlimit:10;}
	
		.st135{fill:none;stroke:url(#SVGID_00000105424070436037088970000010341914872283799682_);stroke-width:2;stroke-linecap:round;stroke-miterlimit:10;}
	
		.st136{fill:none;stroke:url(#SVGID_00000050646608861096924020000006564859142288887465_);stroke-width:2;stroke-linecap:round;stroke-linejoin:round;stroke-miterlimit:10;}
	.st137{fill:none;stroke:url(#SVGID_00000169524978478992544060000010303162504286851500_);stroke-width:2;stroke-miterlimit:10;}
	.st138{fill:none;stroke:url(#SVGID_00000017504603679879177170000009373478322806691498_);stroke-width:2;stroke-miterlimit:10;}
	
		.st139{fill:none;stroke:url(#SVGID_00000036242375436224053090000010669354116891052726_);stroke-width:2;stroke-linecap:round;stroke-miterlimit:10;}
	
		.st140{fill:none;stroke:url(#SVGID_00000053513204587057541400000012079571978826366611_);stroke-width:2;stroke-linecap:round;stroke-linejoin:round;stroke-miterlimit:10;}
	.st141{fill:none;stroke:url(#SVGID_00000057132345509332301770000004274289577137040040_);stroke-width:2;stroke-miterlimit:10;}
	.st142{fill:none;stroke:url(#SVGID_00000136388846253691241590000004236346439831939475_);stroke-width:2;stroke-miterlimit:10;}
	
		.st143{fill:none;stroke:url(#SVGID_00000164515190883857111940000018420696103526459830_);stroke-width:2;stroke-linecap:round;stroke-miterlimit:10;}
	
		.st144{fill:none;stroke:url(#SVGID_00000042730190175254605240000007796774017727838130_);stroke-width:2;stroke-linecap:round;stroke-linejoin:round;stroke-miterlimit:10;}
	.st145{fill:none;stroke:url(#SVGID_00000098919166119288164900000012190224616234974126_);stroke-width:2;stroke-miterlimit:10;}
	.st146{fill:none;stroke:url(#SVGID_00000029754398600040186310000012820105018108509848_);stroke-width:2;stroke-miterlimit:10;}
	
		.st147{fill:none;stroke:url(#SVGID_00000005964115035486088430000010974965477090156930_);stroke-width:2;stroke-linecap:round;stroke-miterlimit:10;}
	
		.st148{fill:none;stroke:url(#SVGID_00000096771982790600416920000012415928565380971925_);stroke-width:2;stroke-linecap:round;stroke-linejoin:round;stroke-miterlimit:10;}
	.st149{fill:none;stroke:url(#SVGID_00000114049580868272493160000006505660730227349646_);stroke-width:2;stroke-miterlimit:10;}
	.st150{fill:none;stroke:url(#SVGID_00000046312875486166644270000000281768989371688095_);stroke-width:2;stroke-miterlimit:10;}
	
		.st151{fill:none;stroke:url(#SVGID_00000021835272677155179510000017339807247035014579_);stroke-width:2;stroke-linecap:round;stroke-miterlimit:10;}
	
		.st152{fill:none;stroke:url(#SVGID_00000071547548485574592820000016936270564031381914_);stroke-width:2;stroke-linecap:round;stroke-linejoin:round;stroke-miterlimit:10;}
	.st153{fill:none;stroke:url(#SVGID_00000138561287029337624360000001675267591197146508_);stroke-width:2;stroke-miterlimit:10;}
	.st154{fill:none;stroke:url(#SVGID_00000088125254541681406770000000938676248434238615_);stroke-width:2;stroke-miterlimit:10;}
	
		.st155{fill:none;stroke:url(#SVGID_00000170971376667783667680000014943837479169776050_);stroke-width:2;stroke-linecap:round;stroke-miterlimit:10;}
	
		.st156{fill:none;stroke:url(#SVGID_00000052816891730499751180000015597482628350605976_);stroke-width:2;stroke-linecap:round;stroke-linejoin:round;stroke-miterlimit:10;}
	
		.st157{fill:none;stroke:url(#SVGID_00000057126051370609091910000012249390686031145892_);stroke-width:2.8141;stroke-miterlimit:10;}
	
		.st158{fill:none;stroke:url(#SVGID_00000173133497627091120570000003213076109548480447_);stroke-width:2.8141;stroke-linecap:round;stroke-miterlimit:10;}
	
		.st159{fill:none;stroke:url(#SVGID_00000050657996881886645480000017472161994181308335_);stroke-width:2.8141;stroke-linecap:round;stroke-linejoin:round;stroke-miterlimit:10;}
	
		.st160{fill:none;stroke:url(#SVGID_00000061471613940769191660000016493220677840517272_);stroke-width:2.8141;stroke-linecap:round;stroke-miterlimit:10;}
	
		.st161{fill:none;stroke:url(#SVGID_00000083055865710908099400000011666774318943305151_);stroke-width:2.8141;stroke-miterlimit:10;}
	
		.st162{fill:none;stroke:url(#SVGID_00000112618715750467374190000006400887474374644667_);stroke-width:2.8141;stroke-linecap:round;stroke-miterlimit:10;}
	
		.st163{fill:none;stroke:url(#SVGID_00000062912054272904997460000002333019920092193934_);stroke-width:2.8141;stroke-linecap:round;stroke-linejoin:round;stroke-miterlimit:10;}
	
		.st164{fill:none;stroke:url(#SVGID_00000180332757807109802470000003749973982797737875_);stroke-width:2.8141;stroke-miterlimit:10;}
	
		.st165{fill:none;stroke:url(#SVGID_00000099663525315712877070000006304889865021805993_);stroke-width:2.8141;stroke-linecap:round;stroke-miterlimit:10;}
	
		.st166{fill:none;stroke:url(#SVGID_00000109018618741467083200000016862429713342378631_);stroke-width:2.8141;stroke-linecap:round;stroke-linejoin:round;stroke-miterlimit:10;}
	
		.st167{fill:none;stroke:url(#SVGID_00000114767368928336066630000012505759454653786782_);stroke-width:2.8141;stroke-miterlimit:10;}
	
		.st168{fill:none;stroke:url(#SVGID_00000089563995236963151360000001906420220445538993_);stroke-width:2.8141;stroke-linecap:round;stroke-miterlimit:10;}
	
		.st169{fill:none;stroke:url(#SVGID_00000103948665194099488690000005223566185720267154_);stroke-width:2.8141;stroke-linecap:round;stroke-linejoin:round;stroke-miterlimit:10;}
	
		.st170{fill:none;stroke:url(#SVGID_00000103240406139338523410000015513615279224967300_);stroke-width:2.8141;stroke-miterlimit:10;}
	
		.st171{fill:none;stroke:url(#SVGID_00000030480342223055230690000003845136182500928665_);stroke-width:2.8141;stroke-linecap:round;stroke-miterlimit:10;}
	
		.st172{fill:none;stroke:url(#SVGID_00000173141081689888804230000003185712629127549827_);stroke-width:2.8141;stroke-linecap:round;stroke-linejoin:round;stroke-miterlimit:10;}
	
		.st173{fill:none;stroke:url(#SVGID_00000098201013139486716320000007541314998489565615_);stroke-width:2.8141;stroke-miterlimit:10;}
	
		.st174{fill:none;stroke:url(#SVGID_00000057106331100905646820000000037297712272334520_);stroke-width:2.8141;stroke-linecap:round;stroke-miterlimit:10;}
	
		.st175{fill:none;stroke:url(#SVGID_00000039846593359813786560000008022301146925935775_);stroke-width:2.8141;stroke-linecap:round;stroke-linejoin:round;stroke-miterlimit:10;}
	.st176{fill:#292D39;}
</style>
<pattern  x="-1383.4" y="285" width="47.6" height="47.6" patternUnits="userSpaceOnUse" id="New_Pattern_Swatch_6" viewBox="0 -47.6 47.6 47.6" style="overflow:visible;">
	<g>
		<rect y="-47.6" class="st0" width="47.6" height="47.6"/>
		<rect y="-47.6" class="st1" width="47.6" height="47.6"/>
	</g>
</pattern>
<g class="st43">
	<path d="M154.6,115.5H15.1c-8.3,0-15.1-6.7-15.1-15.1l0-15.3c0-8.3,6.7-15.1,15.1-15.1h139.6c8.3,0,15.1,6.7,15.1,15.1v15.3
		C169.7,108.8,162.9,115.5,154.6,115.5z"/>
</g>
<g class="st43">
	<path d="M154.6,224H15.1C6.7,224,0,217.3,0,209l0-34c0-8.3,6.7-15.1,15.1-15.1h139.6c8.3,0,15.1,6.7,15.1,15.1v34
		C169.7,217.3,162.9,224,154.6,224z"/>
</g>
<g class="st43">
	<path d="M154.6,310.1H15.1c-8.3,0-15.1-6.7-15.1-15.1l0-34c0-8.3,6.7-15.1,15.1-15.1h139.6c8.3,0,15.1,6.7,15.1,15.1v34
		C169.7,303.4,162.9,310.1,154.6,310.1z"/>
</g>
<g>
	<g>
		<text transform="matrix(1 0 0 1 26.12 273.4552)"><tspan x="0" y="0" class="st123 st124">trans</tspan><tspan x="-15" y="18" class="st123 st124">activity</tspan></text>
	</g>
	<g>
		<text transform="matrix(1 0 0 1 54.4576 98.3327)" class="st123 st124">#</text>
	</g>
	<g>
		<text transform="matrix(1 0 0 1 41.9476 186.6086)"><tspan x="0" y="0" class="st123 st124">cis</tspan><tspan x="-30.8" y="18" class="st123 st124">activity</tspan></text>
	</g>
</g>
<path class="st70" d="M154.6,45.4H15.1C6.7,45.4,0,38.6,0,30.3l0-15.3C0,6.7,6.7,0,15.1,0l139.6,0c8.3,0,15.1,6.7,15.1,15.1v15.3
	C169.7,38.6,162.9,45.4,154.6,45.4z"/>
<g>
	<text transform="matrix(1 0 0 1 22.7245 28.2937)" class="st123 st124">Nuclease Activity</text>
</g>
<g>
	<path class="st2" d="M157.7,386.9H83.2c-6.6,0-12-5.4-12-12V67.4c0-6.6,5.4-12,12-12h74.5c6.6,0,12,5.4,12,12v307.6
		C169.7,381.6,164.3,386.9,157.7,386.9z"/>
	<g>
		<g>
			<path class="st71" d="M147.1,189.9c-2.5,0-4.5-2-4.5-4.5v-12.1l1.7-5.8c0.5-1.8,0.3-3.8-0.8-5.3c-1-1.4-2.6-2.3-4.3-2.3h0
				c-1.7,0-3.3,0.9-4.3,2.3c-1.1,1.5-1.3,3.5-0.8,5.3l1.7,5.8v12.1c0,2.5-2,4.5-4.5,4.5h-30.6"/>
			<g class="st43">
				<path d="M136.7,155.1c-7.8,0-14.2,5.4-15.9,12.7c-6.2,0.6-11,5.8-11,12.1c0,6.7,5.5,12.2,12.2,12.2c4.1,0,7.8-2.1,10-5.2
					c1.5,0.4,3.1,0.7,4.7,0.7c9,0,16.3-7.3,16.3-16.3C153,162.4,145.7,155.1,136.7,155.1z"/>
			</g>
		</g>
		<polygon class="st62" points="120.5,193.9 124.6,186.7 116.3,186.7 		"/>
		<pattern  id="SVGID_1_" xlink:href="#New_Pattern_Swatch_6" patternTransform="matrix(1 0 0 1 -25.1088 -57.4928)">
		</pattern>
		<path style="fill:none;stroke:url(#SVGID_1_);stroke-width:2;stroke-miterlimit:10;" d="M81,199.9h17.5l2.6-5l0,0l14.4,0"/>
		
			<pattern  id="SVGID_00000170986877905776347200000012332862911182858646_" xlink:href="#New_Pattern_Swatch_6" patternTransform="matrix(1 0 0 1 -25.1088 -57.4928)">
		</pattern>
		
			<path style="fill:none;stroke:url(#SVGID_00000170986877905776347200000012332862911182858646_);stroke-width:2;stroke-miterlimit:10;" d="
			M125.4,194.9l14.4,0l0,0l2.6,5h17.5"/>
		
			<pattern  id="SVGID_00000062870284891096071730000000457985827005492153_" xlink:href="#New_Pattern_Swatch_6" patternTransform="matrix(1 0 0 1 -25.1088 -57.4928)">
		</pattern>
		
			<polyline style="fill:none;stroke:url(#SVGID_00000062870284891096071730000000457985827005492153_);stroke-width:2;stroke-linecap:round;stroke-miterlimit:10;" points="
			81,199.9 98.5,199.9 101.1,194.9 		"/>
		
			<pattern  id="SVGID_00000046302731292855925350000007949349840154002872_" xlink:href="#New_Pattern_Swatch_6" patternTransform="matrix(1 0 0 1 -25.1088 -57.4928)">
		</pattern>
		
			<polyline style="fill:none;stroke:url(#SVGID_00000046302731292855925350000007949349840154002872_);stroke-width:2;stroke-linecap:round;stroke-linejoin:round;stroke-miterlimit:10;" points="
			139.8,194.9 142.4,199.9 159.8,199.9 		"/>
	</g>
	<g>
		
			<pattern  id="SVGID_00000178921765898870701230000014702195793379562159_" xlink:href="#New_Pattern_Swatch_6" patternTransform="matrix(1 0 0 1 -25.1088 -59.991)">
		</pattern>
		
			<path style="fill:none;stroke:url(#SVGID_00000178921765898870701230000014702195793379562159_);stroke-width:2;stroke-miterlimit:10;" d="
			M81.1,280.8h17.5l2.6-5l0,0l14.4,0"/>
		
			<pattern  id="SVGID_00000131354140023033977990000008081048998994291089_" xlink:href="#New_Pattern_Swatch_6" patternTransform="matrix(1 0 0 1 -25.1088 -59.991)">
		</pattern>
		
			<path style="fill:none;stroke:url(#SVGID_00000131354140023033977990000008081048998994291089_);stroke-width:2;stroke-miterlimit:10;" d="
			M125.5,275.8l14.4,0l0,0l2.6,5h17.5"/>
		
			<pattern  id="SVGID_00000108295082384243465440000002210378135412885910_" xlink:href="#New_Pattern_Swatch_6" patternTransform="matrix(1 0 0 1 -25.1088 -59.991)">
		</pattern>
		
			<polyline style="fill:none;stroke:url(#SVGID_00000108295082384243465440000002210378135412885910_);stroke-width:2;stroke-linecap:round;stroke-miterlimit:10;" points="
			81.1,280.8 98.5,280.8 101.1,275.8 		"/>
		
			<pattern  id="SVGID_00000118378735720639751080000007431227135369718425_" xlink:href="#New_Pattern_Swatch_6" patternTransform="matrix(1 0 0 1 -25.1088 -59.991)">
		</pattern>
		
			<polyline style="fill:none;stroke:url(#SVGID_00000118378735720639751080000007431227135369718425_);stroke-width:2;stroke-linecap:round;stroke-linejoin:round;stroke-miterlimit:10;" points="
			139.8,275.8 142.4,280.8 159.9,280.8 		"/>
	</g>
	<g>
		<g>
			<path class="st63" d="M81.1,318.2h17.5l2.6-5l0,0l14.4,0"/>
			<path class="st63" d="M125.5,313.2l14.4,0l0,0l2.6,5h17.5"/>
			<polyline class="st65" points="81.1,318.2 98.5,318.2 101.1,313.2 			"/>
			<polyline class="st67" points="139.8,313.2 142.4,318.2 159.9,318.2 			"/>
		</g>
	</g>
	<g>
		<path class="st63" d="M81.7,349.1h17.5l2.6-5l0,0l14.4,0"/>
		<path class="st63" d="M126.1,344.1l14.4,0l0,0l2.6,5h17.5"/>
		<path class="st64" d="M160.5,353.1H143l-2.6,5l0,0l-14.4,0"/>
		<path class="st64" d="M116.1,358.1l-14.4,0l0,0l-2.6-5H81.7"/>
		<polyline class="st65" points="81.7,349.1 99.2,349.1 101.7,344.1 		"/>
		<polyline class="st66" points="101.7,358.1 99.2,353.1 81.7,353.1 		"/>
		<polyline class="st67" points="140.5,344.1 143,349.1 160.5,349.1 		"/>
		<polyline class="st68" points="160.5,353.1 143,353.1 140.5,358.1 		"/>
	</g>
	<g>
		<circle cx="120.4" cy="92.9" r="17.5"/>
		<path class="st52" d="M117.7,92.2c-0.8-0.3-1.4-0.8-1.8-1.4c-0.4-0.6-0.6-1.3-0.6-2c0-1.2,0.4-2.3,1.3-3.1
			c0.9-0.8,2.1-1.2,3.7-1.2c1.6,0,2.8,0.4,3.7,1.2c0.9,0.8,1.3,1.8,1.3,3.1c0,0.8-0.2,1.5-0.6,2.1c-0.4,0.6-1,1.1-1.7,1.4
			c0.9,0.4,1.6,0.9,2.1,1.6c0.5,0.7,0.7,1.5,0.7,2.5c0,1.5-0.5,2.8-1.5,3.8c-1,1-2.3,1.4-3.9,1.4c-1.5,0-2.8-0.4-3.8-1.2
			c-1.2-0.9-1.8-2.2-1.8-3.9c0-0.9,0.2-1.7,0.7-2.5C116.1,93.2,116.8,92.7,117.7,92.2z M118.1,96.2c0,0.9,0.2,1.6,0.7,2.1
			c0.5,0.5,1,0.7,1.7,0.7c0.7,0,1.2-0.2,1.6-0.7c0.4-0.5,0.7-1.2,0.7-2.1c0-0.8-0.2-1.4-0.7-1.9c-0.4-0.5-1-0.7-1.7-0.7
			c-0.8,0-1.4,0.3-1.8,0.8C118.3,95,118.1,95.5,118.1,96.2z M118.4,89c0,0.6,0.2,1.1,0.5,1.5c0.4,0.4,0.8,0.5,1.4,0.5
			c0.6,0,1.1-0.2,1.5-0.5c0.4-0.4,0.5-0.9,0.5-1.5c0-0.6-0.2-1.1-0.5-1.4c-0.4-0.4-0.8-0.5-1.4-0.5c-0.6,0-1.1,0.2-1.5,0.5
			S118.4,88.4,118.4,89z"/>
	</g>
</g>
</svg>
