<?xml version="1.0" encoding="utf-8"?>
<!-- Generator: Adobe Illustrator 25.2.0, SVG Export Plug-In . SVG Version: 6.00 Build 0)  -->
<svg version="1.1" id="Layer_1" xmlns="http://www.w3.org/2000/svg" xmlns:xlink="http://www.w3.org/1999/xlink" x="0px" y="0px"
	 viewBox="0 0 140.7 447.1" style="enable-background:new 0 0 140.7 447.1;" xml:space="preserve">
<style type="text/css">
	.st0{fill:none;}
	.st1{fill:#40AFA5;}
	.st2{fill:#FFF6E9;}
	.st3{font-family:'Arial-BoldMT';}
	.st4{font-size:15px;}
	.st5{font-size:10px;}
	.st6{fill:none;stroke:#FFAF00;stroke-width:2.8141;stroke-miterlimit:10;}
	.st7{opacity:0.15;}
	.st8{fill:none;stroke:url(#SVGID_2_);stroke-width:2.8141;stroke-miterlimit:10;}
	.st9{fill:none;stroke:url(#SVGID_3_);stroke-width:2.8141;stroke-linecap:round;stroke-miterlimit:10;}
	.st10{fill:none;stroke:url(#SVGID_4_);stroke-width:2.8141;stroke-linecap:round;stroke-linejoin:round;stroke-miterlimit:10;}
	.st11{fill:none;stroke:#000000;stroke-width:3;stroke-miterlimit:10;}
	.st12{fill:#FFFFFF;}
	.st13{fill:#BDDCEB;}
</style>
<pattern  y="447.1" width="47.6" height="47.6" patternUnits="userSpaceOnUse" id="SVGID_0000007368490149582591226" viewBox="0 -47.6 47.6 47.6" style="overflow:visible;">
	<g>
		<rect y="-47.6" class="st0" width="47.6" height="47.6"/>
		<g>
			<rect y="-47.6" class="st0" width="47.6" height="47.6"/>
			<rect y="-47.6" class="st1" width="47.6" height="47.6"/>
		</g>
	</g>
</pattern>
<pattern  y="447.1" width="47.6" height="47.6" patternUnits="userSpaceOnUse" id="SVGID_0000018396883145052057080" viewBox="0 -47.6 47.6 47.6" style="overflow:visible;">
	<g>
		<rect y="-47.6" class="st0" width="47.6" height="47.6"/>
		<g>
			<rect y="-47.6" class="st0" width="47.6" height="47.6"/>
			<rect y="-47.6" class="st1" width="47.6" height="47.6"/>
		</g>
	</g>
</pattern>
<pattern  y="447.1" width="47.6" height="47.6" patternUnits="userSpaceOnUse" id="SVGID_1_" viewBox="0 -47.6 47.6 47.6" style="overflow:visible;">
	<g>
		<rect y="-47.6" class="st0" width="47.6" height="47.6"/>
		<g>
			<rect y="-47.6" class="st0" width="47.6" height="47.6"/>
			<rect y="-47.6" class="st1" width="47.6" height="47.6"/>
		</g>
	</g>
</pattern>
<g>
	<path class="st2" d="M128.7,260.5H12c-6.6,0-12-5.4-12-12V67.4c0-6.6,5.4-12,12-12h116.8c6.6,0,12,5.4,12,12v181.2
		C140.7,255.2,135.4,260.5,128.7,260.5z"/>
	<g>
		<text transform="matrix(1 0 0 1 42.2735 130.3698)" class="st3 st4">PFS (3′)</text>
	</g>
	<g>
		<g>
			<text transform="matrix(1 0 0 1 99.6126 216.1549)" class="st3 st5">5′</text>
			<text transform="matrix(1 0 0 1 26.9485 216.1549)" class="st3 st5">3′</text>
			<path class="st6" d="M97.5,212.8H57.3c-3.3,0-5.9-2.6-5.9-5.9l0-15.9l2.2-7.6c0.7-2.3,0.4-4.9-1-6.9c-1.4-1.8-3.4-3-5.7-3l0,0
				c-2.3,0-4.4,1.2-5.7,3c-1.4,2-1.7,4.6-1,6.9l2.2,7.6l0,15.9c0,3.3-2.6,5.9-5.9,5.9"/>
			<g class="st7">
				<path d="M28.8,188.5c0,11.8,9.6,21.4,21.4,21.4c2.2,0,4.2-0.3,6.2-0.9c2.9,4.1,7.7,6.8,13.1,6.8c8.8,0,16-7.1,16-16
					c0-8.4-6.4-15.2-14.5-16c-2.2-9.6-10.7-16.7-20.9-16.7C38.3,167.1,28.7,176.7,28.8,188.5z"/>
			</g>
		</g>
		<pattern  id="SVGID_2_" xlink:href="#SVGID_1_" patternTransform="matrix(-1 0 0 -1 -14710.4844 -16849.7754)">
		</pattern>
		<polyline class="st8" points="14.9,227.4 39.5,227.4 43.1,220.3 43.1,220.3 97.6,220.3 97.6,220.3 101.2,227.4 125.8,227.4 		"/>
		
			<pattern  id="SVGID_3_" xlink:href="#SVGID_0000018396883145052057080" patternTransform="matrix(-1 0 0 -1 -14710.4844 -16849.7754)">
		</pattern>
		<polyline class="st9" points="97.6,220.3 101.2,227.4 125.8,227.4 		"/>
		
			<pattern  id="SVGID_4_" xlink:href="#SVGID_0000007368490149582591226" patternTransform="matrix(-1 0 0 -1 -14710.4844 -16849.7754)">
		</pattern>
		<polyline class="st10" points="14.9,227.4 39.5,227.4 43.1,220.3 		"/>
		<line class="st11" x1="42.6" y1="224" x2="50.6" y2="216"/>
		<line class="st11" x1="50.6" y1="224" x2="42.6" y2="216"/>
	</g>
	<g>
		<circle cx="70.4" cy="92.9" r="17.5"/>
		<path class="st12" d="M76,98.3v3H64.8c0.1-1.1,0.5-2.2,1.1-3.2s1.8-2.3,3.6-4c1.4-1.3,2.3-2.3,2.7-2.7c0.4-0.7,0.7-1.3,0.7-2
			s-0.2-1.3-0.6-1.6c-0.4-0.4-0.9-0.6-1.6-0.6s-1.2,0.2-1.6,0.6s-0.6,1.1-0.7,2l-3.2-0.3c0.2-1.8,0.8-3,1.8-3.8s2.3-1.2,3.8-1.2
			c1.7,0,2.9,0.4,3.9,1.3c0.9,0.9,1.4,2,1.4,3.3c0,0.8-0.1,1.5-0.4,2.2s-0.7,1.4-1.3,2.1c-0.4,0.5-1.1,1.2-2.1,2.1s-1.7,1.5-1.9,1.8
			c-0.3,0.3-0.5,0.6-0.7,0.9L76,98.3L76,98.3z"/>
	</g>
</g>
<g>
	<path class="st13" d="M125.7,45.4H15.1C6.7,45.4,0,38.6,0,30.3V15C0,6.7,6.7,0,15.1,0h110.6c8.3,0,15.1,6.7,15.1,15.1v15.3
		C140.7,38.6,134,45.4,125.7,45.4z"/>
	<g>
		<text transform="matrix(1 0 0 1 6.2058 28.2935)" class="st3 st4">Targeting Context</text>
	</g>
</g>
<text transform="matrix(1 0 0 1 4.7105 230.4341)" class="st3 st5">5′</text>
<text transform="matrix(1 0 0 1 128.8097 230.4341)" class="st3 st5">3′</text>
</svg>
