<?xml version="1.0" encoding="UTF-8"?>
<svg id="Layer_2" data-name="Layer 2" xmlns="http://www.w3.org/2000/svg" viewBox="0 0 280.67 423.05">
  <defs>
    <style>
      .cls-1 {
        font-family: Arial-BoldMT, Arial;
        font-size: 20px;
      }

      .cls-1, .cls-2 {
        font-weight: 700;
      }

      .cls-3 {
        fill: #fff6e9;
      }

      .cls-2 {
        font-family: Arial-BoldItalicMT, Arial;
        font-size: 23.32px;
        font-style: italic;
      }
    </style>
  </defs>
  <g id="Layer_1-2" data-name="Layer 1">
    <text class="cls-1" transform="translate(191.76 52.47)"><tspan x="0" y="0">Native</tspan><tspan x="-7.37" y="24">CRISPR</tspan><tspan x="3.89" y="48">Array</tspan></text>
    <text class="cls-1" transform="translate(182.33 183.32)"><tspan x="0" y="0">Minimal,</tspan><tspan x="-5" y="24">Synthetic</tspan><tspan x="-18.33" y="48">Multiplexing</tspan><tspan x="6.67" y="72">Design</tspan></text>
    <g>
      <path d="m189.84,336.09l2.75-.42c.12.53.35.94.71,1.22.36.28.86.42,1.5.42.71,0,1.24-.13,1.6-.39.24-.18.36-.43.36-.73,0-.21-.07-.38-.2-.52-.14-.13-.44-.25-.92-.36-2.21-.49-3.62-.93-4.21-1.34-.82-.56-1.23-1.34-1.23-2.33,0-.9.35-1.65,1.06-2.27.71-.61,1.81-.92,3.3-.92s2.47.23,3.16.69c.69.46,1.17,1.15,1.43,2.05l-2.59.48c-.11-.4-.32-.71-.63-.93-.31-.21-.75-.32-1.32-.32-.72,0-1.24.1-1.55.3-.21.14-.31.33-.31.56,0,.2.09.36.27.5.25.18,1.1.44,2.56.77,1.46.33,2.48.74,3.06,1.22.57.49.86,1.17.86,2.04,0,.95-.4,1.77-1.19,2.45-.79.68-1.97,1.03-3.53,1.03-1.41,0-2.53-.29-3.35-.86-.82-.57-1.36-1.35-1.62-2.33Z"/>
      <path d="m201.68,339.73l3.13.38c.05.36.17.62.36.75.26.2.67.29,1.23.29.72,0,1.25-.11,1.61-.32.24-.14.42-.38.55-.69.08-.23.13-.65.13-1.26v-1.51c-.82,1.12-1.86,1.68-3.11,1.68-1.39,0-2.5-.59-3.31-1.77-.64-.93-.96-2.09-.96-3.48,0-1.74.42-3.07,1.25-3.98.84-.92,1.88-1.38,3.12-1.38s2.34.56,3.17,1.69v-1.46h2.57v9.31c0,1.22-.1,2.14-.3,2.74-.2.61-.49,1.08-.85,1.43-.37.34-.85.62-1.46.81-.61.2-1.38.29-2.31.29-1.76,0-3-.3-3.74-.9-.74-.6-1.1-1.37-1.1-2.29,0-.09,0-.2,0-.33Zm2.45-6.08c0,1.1.21,1.91.64,2.42.43.51.95.77,1.58.77.67,0,1.24-.26,1.7-.79.46-.52.69-1.3.69-2.33s-.22-1.87-.66-2.39c-.44-.52-1-.78-1.68-.78s-1.2.25-1.63.77c-.43.51-.64,1.29-.64,2.34Z"/>
      <path d="m214.18,339.04v-14.32h6.08c1.53,0,2.64.13,3.33.39.69.26,1.25.71,1.67,1.37.42.66.62,1.41.62,2.26,0,1.07-.32,1.96-.95,2.66-.63.7-1.58,1.14-2.83,1.32.62.36,1.14.76,1.55,1.2.41.44.96,1.21,1.65,2.32l1.75,2.79h-3.46l-2.09-3.12c-.74-1.11-1.25-1.82-1.52-2.1-.27-.29-.56-.49-.87-.6-.31-.11-.79-.16-1.46-.16h-.59v5.98h-2.89Zm2.89-8.26h2.14c1.39,0,2.25-.06,2.6-.18.34-.12.62-.32.81-.61.2-.29.29-.64.29-1.07,0-.48-.13-.87-.39-1.17-.26-.3-.62-.48-1.09-.56-.23-.03-.94-.05-2.11-.05h-2.26v3.63Z"/>
      <path d="m228.64,339.04v-14.32h2.81l5.86,9.56v-9.56h2.69v14.32h-2.9l-5.77-9.34v9.34h-2.69Z"/>
      <path d="m255.97,339.04h-3.14l-1.25-3.25h-5.72l-1.18,3.25h-3.07l5.58-14.32h3.06l5.73,14.32Zm-5.32-5.66l-1.97-5.31-1.93,5.31h3.91Z"/>
      <path d="m165.42,363.04v-14.32h4.33l2.6,9.77,2.57-9.77h4.34v14.32h-2.69v-11.27l-2.84,11.27h-2.78l-2.83-11.27v11.27h-2.69Z"/>
      <path d="m188.93,363.04v-1.55c-.38.55-.87.99-1.49,1.31-.62.32-1.26.48-1.95.48s-1.32-.15-1.88-.46c-.55-.31-.95-.74-1.2-1.29-.25-.55-.37-1.32-.37-2.29v-6.56h2.74v4.77c0,1.46.05,2.35.15,2.68.1.33.28.59.55.78.27.19.61.29,1.02.29.47,0,.89-.13,1.26-.39.37-.26.62-.58.76-.96s.21-1.31.21-2.8v-4.38h2.74v10.37h-2.55Z"/>
      <path d="m194.32,363.04v-14.32h2.74v14.32h-2.74Z"/>
      <path d="m204.63,352.67v2.19h-1.88v4.18c0,.85.02,1.34.05,1.48.04.14.12.25.24.35.13.09.28.14.46.14.25,0,.62-.09,1.1-.26l.23,2.13c-.64.27-1.36.41-2.17.41-.5,0-.94-.08-1.34-.25-.4-.17-.69-.38-.87-.64s-.31-.62-.39-1.07c-.06-.32-.09-.96-.09-1.93v-4.52h-1.26v-2.19h1.26v-2.06l2.75-1.6v3.66h1.88Z"/>
      <path d="m206.54,351.27v-2.54h2.74v2.54h-2.74Zm0,11.78v-10.37h2.74v10.37h-2.74Z"/>
      <path d="m212.02,352.67h2.56v1.52c.33-.52.78-.94,1.35-1.27.57-.33,1.19-.49,1.88-.49,1.2,0,2.23.47,3.07,1.42.84.94,1.26,2.26,1.26,3.95s-.42,3.08-1.27,4.04c-.85.96-1.87,1.44-3.08,1.44-.57,0-1.09-.11-1.56-.34-.47-.23-.96-.62-1.47-1.17v5.22h-2.74v-14.32Zm2.71,5.01c0,1.17.23,2.03.69,2.58.46.56,1.03.83,1.69.83s1.17-.26,1.59-.77c.42-.51.63-1.35.63-2.51,0-1.09-.22-1.89-.65-2.42-.44-.53-.98-.79-1.62-.79s-1.23.26-1.67.78c-.44.52-.66,1.28-.66,2.3Z"/>
      <path d="m224.31,363.04v-14.32h2.74v14.32h-2.74Z"/>
      <path d="m235.87,359.74l2.73.46c-.35,1-.91,1.77-1.67,2.29-.76.52-1.71.79-2.85.79-1.8,0-3.14-.59-4-1.77-.68-.94-1.03-2.14-1.03-3.57,0-1.72.45-3.07,1.35-4.04.9-.97,2.03-1.46,3.41-1.46,1.54,0,2.76.51,3.65,1.53.89,1.02,1.32,2.58,1.28,4.68h-6.88c.02.81.24,1.45.66,1.9.42.45.95.68,1.58.68.43,0,.79-.12,1.08-.35s.51-.61.66-1.13Zm.16-2.77c-.02-.79-.22-1.4-.62-1.81-.39-.41-.87-.62-1.43-.62-.6,0-1.09.22-1.48.65-.39.44-.58,1.03-.58,1.78h4.1Z"/>
      <path d="m239.67,363.04l3.74-5.34-3.58-5.03h3.35l1.84,2.85,1.93-2.85h3.22l-3.52,4.91,3.84,5.46h-3.37l-2.11-3.21-2.13,3.21h-3.21Z"/>
      <path d="m252.11,351.27v-2.54h2.74v2.54h-2.74Zm0,11.78v-10.37h2.74v10.37h-2.74Z"/>
      <path d="m267.1,363.04h-2.74v-5.29c0-1.12-.06-1.84-.18-2.17-.12-.33-.31-.58-.57-.77-.26-.18-.58-.27-.95-.27-.48,0-.9.13-1.28.39-.38.26-.64.61-.78,1.04-.14.43-.21,1.22-.21,2.38v4.7h-2.74v-10.37h2.55v1.52c.9-1.17,2.04-1.76,3.42-1.76.61,0,1.16.11,1.66.33.5.22.88.5,1.14.83.26.34.44.72.54,1.15.1.43.15,1.04.15,1.85v6.45Z"/>
      <path d="m269.63,363.73l3.13.38c.05.36.17.62.36.75.26.2.67.29,1.23.29.72,0,1.25-.11,1.61-.32.24-.14.42-.38.55-.69.08-.23.13-.65.13-1.26v-1.51c-.82,1.12-1.86,1.68-3.11,1.68-1.39,0-2.5-.59-3.31-1.77-.64-.93-.96-2.09-.96-3.48,0-1.74.42-3.07,1.25-3.98.84-.92,1.88-1.38,3.12-1.38s2.34.56,3.17,1.69v-1.46h2.57v9.31c0,1.22-.1,2.14-.3,2.74-.2.61-.49,1.08-.85,1.43-.37.34-.85.62-1.46.81-.61.2-1.38.29-2.31.29-1.76,0-3-.3-3.74-.9-.74-.6-1.1-1.37-1.1-2.29,0-.09,0-.2,0-.33Zm2.45-6.08c0,1.1.21,1.91.64,2.42.43.51.95.77,1.58.77.67,0,1.24-.26,1.7-.79.46-.52.69-1.3.69-2.33s-.22-1.87-.66-2.39c-.44-.52-1-.78-1.68-.78s-1.2.25-1.63.77c-.43.51-.64,1.29-.64,2.34Z"/>
      <path d="m190.44,372.73h5.28c1.19,0,2.1.09,2.72.27.84.25,1.56.69,2.16,1.32.6.63,1.05,1.4,1.37,2.32.31.91.47,2.04.47,3.38,0,1.18-.15,2.19-.44,3.05-.36,1.04-.87,1.88-1.53,2.53-.5.49-1.18.87-2.03,1.14-.64.2-1.49.3-2.56.3h-5.44v-14.32Zm2.89,2.42v9.48h2.16c.81,0,1.39-.05,1.75-.14.47-.12.86-.32,1.17-.6.31-.28.56-.74.76-1.38.2-.64.29-1.52.29-2.62s-.1-1.96-.29-2.55c-.2-.59-.47-1.05-.82-1.39s-.8-.56-1.34-.67c-.4-.09-1.2-.14-2.37-.14h-1.3Z"/>
      <path d="m210.88,383.74l2.73.46c-.35,1-.91,1.77-1.67,2.29-.76.52-1.71.79-2.85.79-1.8,0-3.14-.59-4-1.77-.68-.94-1.03-2.14-1.03-3.57,0-1.72.45-3.07,1.35-4.04.9-.97,2.03-1.46,3.41-1.46,1.54,0,2.76.51,3.65,1.53.89,1.02,1.32,2.58,1.28,4.68h-6.88c.02.81.24,1.45.66,1.9.42.45.95.68,1.58.68.43,0,.79-.12,1.08-.35s.51-.61.66-1.13Zm.16-2.77c-.02-.79-.22-1.4-.62-1.81-.39-.41-.87-.62-1.43-.62-.6,0-1.09.22-1.48.65-.39.44-.58,1.03-.58,1.78h4.1Z"/>
      <path d="m215.03,384.09l2.75-.42c.12.53.35.94.71,1.22.36.28.86.42,1.5.42.71,0,1.24-.13,1.6-.39.24-.18.36-.43.36-.73,0-.21-.07-.38-.2-.52-.14-.13-.44-.25-.92-.36-2.21-.49-3.62-.93-4.21-1.34-.82-.56-1.23-1.34-1.23-2.33,0-.9.35-1.65,1.06-2.27.71-.61,1.81-.92,3.3-.92s2.47.23,3.16.69c.69.46,1.17,1.15,1.43,2.05l-2.59.48c-.11-.4-.32-.71-.63-.93-.31-.21-.75-.32-1.32-.32-.72,0-1.24.1-1.55.3-.21.14-.31.33-.31.56,0,.2.09.36.27.5.25.18,1.1.44,2.56.77,1.46.33,2.48.74,3.06,1.22.57.49.86,1.17.86,2.04,0,.95-.4,1.77-1.19,2.45-.79.68-1.97,1.03-3.53,1.03-1.41,0-2.53-.29-3.35-.86-.82-.57-1.36-1.35-1.62-2.33Z"/>
      <path d="m227.12,375.27v-2.54h2.74v2.54h-2.74Zm0,11.78v-10.37h2.74v10.37h-2.74Z"/>
      <path d="m232.43,387.73l3.13.38c.05.36.17.62.36.75.26.2.67.29,1.23.29.72,0,1.25-.11,1.61-.32.24-.14.42-.38.55-.69.08-.23.13-.65.13-1.26v-1.51c-.82,1.12-1.86,1.68-3.11,1.68-1.39,0-2.5-.59-3.31-1.77-.64-.93-.96-2.09-.96-3.48,0-1.74.42-3.07,1.25-3.98.84-.92,1.88-1.38,3.12-1.38s2.34.56,3.17,1.69v-1.46h2.57v9.31c0,1.22-.1,2.14-.3,2.74-.2.61-.49,1.08-.85,1.43-.37.34-.85.62-1.46.81-.61.2-1.38.29-2.31.29-1.76,0-3-.3-3.74-.9-.74-.6-1.1-1.37-1.1-2.29,0-.09,0-.2,0-.33Zm2.45-6.08c0,1.1.21,1.91.64,2.42.43.51.95.77,1.58.77.67,0,1.24-.26,1.7-.79.46-.52.69-1.3.69-2.33s-.22-1.87-.66-2.39c-.44-.52-1-.78-1.68-.78s-1.2.25-1.63.77c-.43.51-.64,1.29-.64,2.34Z"/>
      <path d="m254.33,387.04h-2.74v-5.29c0-1.12-.06-1.84-.18-2.17-.12-.33-.31-.58-.57-.77-.26-.18-.58-.27-.95-.27-.48,0-.9.13-1.28.39-.38.26-.64.61-.78,1.04-.14.43-.21,1.22-.21,2.38v4.7h-2.74v-10.37h2.55v1.52c.9-1.17,2.04-1.76,3.42-1.76.61,0,1.16.11,1.66.33.5.22.88.5,1.14.83.26.34.44.72.54,1.15.1.43.15,1.04.15,1.85v6.45Z"/>
    </g>
    <rect class="cls-3" x=".75" y="143.42" width="149.67" height="136.47" rx="15.05" ry="15.05"/>
    <rect class="cls-3" width="149.67" height="136.47" rx="15.05" ry="15.05"/>
    <rect class="cls-3" y="286.58" width="149.67" height="136.47" rx="15.05" ry="15.05"/>
    <text class="cls-2" transform="translate(8.73 223.21)"><tspan x="0" y="0">Placeholder</tspan></text>
  </g>
</svg>