<?xml version="1.0" encoding="utf-8"?>
<!-- Generator: Adobe Illustrator 27.5.0, SVG Export Plug-In . SVG Version: 6.00 Build 0)  -->
<svg version="1.1" id="Layer_1" xmlns="http://www.w3.org/2000/svg" xmlns:xlink="http://www.w3.org/1999/xlink" x="0px" y="0px"
	 viewBox="0 0 169.7 386.9" style="enable-background:new 0 0 169.7 386.9;" xml:space="preserve">
<style type="text/css">
	.st0{fill:#31CAFD;}
	.st1{fill:#AAB8F1;}
	.st2{fill:#A2B8FF;}
	.st3{fill:#00CEDE;}
	.st4{fill:#FF0A00;}
	.st5{fill:#BEBEBE;}
	.st6{fill:#8F7F1D;}
	.st7{fill:#A17800;}
	.st8{fill:#FE1600;}
	.st9{fill:#C0BCBC;}
	.st10{fill:#CFB7BE;}
	.st11{fill:#BFBBC9;}
	.st12{fill:url(#);}
	.st13{fill:#5857FF;}
	.st14{fill:#D31159;}
	.st15{fill:#FFAF00;}
	.st16{fill:#A09C9A;}
	.st17{fill:#006CDE;}
	.st18{fill:#6A6B7A;}
	.st19{fill:#D6BD0F;}
	.st20{fill:#A699AB;}
	.st21{fill:#0072BF;}
	.st22{fill:#80674E;}
	.st23{fill:#F2B300;}
	.st24{fill:#4DAAB8;}
	.st25{fill:#007B83;}
	.st26{fill:#D02A2A;}
	.st27{fill:#FFA5AF;}
	.st28{fill:#FFF7EA;}
	.st29{fill:#FFF7EB;}
	.st30{fill:#FFF6F5;}
	.st31{fill:#FCFCFC;}
	.st32{fill:#8B61FF;}
	.st33{fill:#007AFE;}
	.st34{fill:#0081DD;}
	.st35{fill:#65838D;}
	.st36{fill:#00FFB7;}
	.st37{fill:#F0DFA8;}
	.st38{fill:#FFD8C5;}
	.st39{fill:#89F0FF;}
	.st40{fill:#FFF6E9;}
	.st41{fill:none;stroke:#FFAF00;stroke-width:2.8141;stroke-miterlimit:10;}
	.st42{opacity:0.15;}
	.st43{fill:none;stroke:#D31159;stroke-width:2.8141;stroke-miterlimit:10;}
	.st44{fill:none;stroke:#5857FF;stroke-width:2.8141;stroke-miterlimit:10;}
	.st45{fill:none;stroke:#D31159;stroke-width:2.8141;stroke-linecap:round;stroke-miterlimit:10;}
	.st46{fill:none;stroke:#5857FF;stroke-width:2.8141;stroke-linecap:round;stroke-miterlimit:10;}
	.st47{fill:none;stroke:#D31159;stroke-width:2.8141;stroke-linecap:round;stroke-linejoin:round;stroke-miterlimit:10;}
	.st48{fill:none;stroke:#5857FF;stroke-width:2.8141;stroke-linecap:round;stroke-linejoin:round;stroke-miterlimit:10;}
	.st49{stroke:#000000;stroke-width:1.4918;stroke-miterlimit:10;}
	.st50{fill:#FFFFFF;}
	.st51{fill:#BDDCEB;}
	.st52{fill:none;stroke:#FFAF00;stroke-width:2.2565;stroke-miterlimit:10;}
	.st53{fill:none;stroke:#31CAFD;stroke-width:2.5;stroke-miterlimit:10;}
	.st54{fill:none;stroke:#FFAF00;stroke-width:2.5;stroke-miterlimit:10;}
	.st55{fill:none;stroke:#FF0A00;stroke-width:2.5;stroke-miterlimit:10;}
	.st56{fill:none;stroke:#00FFB7;stroke-width:2.5;stroke-miterlimit:10;}
	.st57{fill:none;stroke:#8B61FF;stroke-width:2.5;stroke-miterlimit:10;}
	.st58{fill:none;stroke:#BEBEBE;stroke-width:2.5;stroke-miterlimit:10;}
	.st59{fill:none;stroke:#FF0A00;stroke-width:4.5;stroke-miterlimit:10;}
	.st60{fill:none;stroke:#BEBEBE;stroke-width:4.5;stroke-miterlimit:10;}
	.st61{fill:none;stroke:#000000;stroke-width:2.5;stroke-miterlimit:10;}
	.st62{fill:#413F40;stroke:#003953;stroke-width:5.431579e-02;stroke-miterlimit:10;}
	.st63{fill:none;stroke:#D31159;stroke-width:2;stroke-miterlimit:10;}
	.st64{fill:none;stroke:#5857FF;stroke-width:2;stroke-miterlimit:10;}
	.st65{fill:none;stroke:#D31159;stroke-width:2;stroke-linecap:round;stroke-miterlimit:10;}
	.st66{fill:none;stroke:#5857FF;stroke-width:2;stroke-linecap:round;stroke-miterlimit:10;}
	.st67{fill:none;stroke:#D31159;stroke-width:2;stroke-linecap:round;stroke-linejoin:round;stroke-miterlimit:10;}
	.st68{fill:none;stroke:#5857FF;stroke-width:2;stroke-linecap:round;stroke-linejoin:round;stroke-miterlimit:10;}
	.st69{opacity:0.4;fill:none;stroke:#FFAF00;stroke-width:1.7161;stroke-miterlimit:10;}
	.st70{opacity:0.5;fill:none;stroke:#FFAF00;stroke-width:2;stroke-miterlimit:10;}
	.st71{fill:none;stroke:url(#);stroke-width:2;stroke-miterlimit:10;}
	.st72{fill:none;stroke:url(#);stroke-width:2;stroke-linecap:round;stroke-miterlimit:10;}
	.st73{fill:none;stroke:url(#);stroke-width:2;stroke-linecap:round;stroke-linejoin:round;stroke-miterlimit:10;}
	.st74{opacity:0.25;}
	.st75{fill:none;stroke:#003953;stroke-width:2;stroke-miterlimit:10;}
	.st76{fill:none;stroke:#003953;stroke-width:2;stroke-linecap:round;stroke-miterlimit:10;}
	.st77{font-family:'Arial-BoldMT';}
	.st78{font-size:15px;}
	.st79{fill:none;stroke:url(#);stroke-width:2.8141;stroke-miterlimit:10;}
	.st80{fill:none;stroke:url(#);stroke-width:2.8141;stroke-linecap:round;stroke-miterlimit:10;}
	.st81{fill:none;stroke:url(#);stroke-width:2.8141;stroke-linecap:round;stroke-linejoin:round;stroke-miterlimit:10;}
	.st82{fill:none;stroke:#000000;stroke-width:3;stroke-miterlimit:10;}
	.st83{fill:none;}
	.st84{font-size:22.2156px;}
	.st85{font-size:26.6588px;}
</style>
<g class="st42">
	<path d="M154.6,115.5H15.1c-8.3,0-15.1-6.7-15.1-15.1l0-15.3c0-8.3,6.7-15.1,15.1-15.1h139.6c8.3,0,15.1,6.7,15.1,15.1v15.3
		C169.7,108.8,162.9,115.5,154.6,115.5z"/>
</g>
<g class="st42">
	<path d="M154.6,224H15.1C6.7,224,0,217.3,0,209l0-34c0-8.3,6.7-15.1,15.1-15.1h139.6c8.3,0,15.1,6.7,15.1,15.1v34
		C169.7,217.3,162.9,224,154.6,224z"/>
</g>
<g class="st42">
	<path d="M154.6,310.1H15.1c-8.3,0-15.1-6.7-15.1-15.1l0-34c0-8.3,6.7-15.1,15.1-15.1h139.6c8.3,0,15.1,6.7,15.1,15.1v34
		C169.7,303.4,162.9,310.1,154.6,310.1z"/>
</g>
<g>
	<g>
		<text transform="matrix(1 0 0 1 26.1201 273.4553)"><tspan x="0" y="0" class="st77 st78">trans</tspan><tspan x="-15" y="18" class="st77 st78">activity</tspan></text>
	</g>
	<g>
		<text transform="matrix(1 0 0 1 54.4577 98.3327)" class="st77 st78">#</text>
	</g>
	<g>
		<text transform="matrix(1 0 0 1 41.9477 186.6086)"><tspan x="0" y="0" class="st77 st78">cis</tspan><tspan x="-30.8" y="18" class="st77 st78">activity</tspan></text>
	</g>
</g>
<path class="st51" d="M154.6,45.4H15.1C6.7,45.4,0,38.6,0,30.3l0-15.3C0,6.7,6.7,0,15.1,0l139.6,0c8.3,0,15.1,6.7,15.1,15.1v15.3
	C169.7,38.6,162.9,45.4,154.6,45.4z"/>
<g>
	<text transform="matrix(1 0 0 1 22.7246 28.2938)" class="st77 st78">Nuclease Activity</text>
</g>
<g>
	<path class="st40" d="M157.7,386.9H83.2c-6.6,0-12-5.4-12-12V67.4c0-6.6,5.4-12,12-12h74.5c6.6,0,12,5.4,12,12v307.6
		C169.7,381.6,164.3,386.9,157.7,386.9z"/>
	<text transform="matrix(1 0 0 1 112.8626 186.6087)" class="st77 st84">?</text>
	<text transform="matrix(1 0 0 1 112.8626 284.1427)" class="st77 st84">?</text>
	<text transform="matrix(1 0 0 1 110.4808 93.8683)" class="st77 st85">_</text>
</g>
</svg>
