<?xml version="1.0" encoding="utf-8"?>
<!-- Generator: Adobe Illustrator 25.2.0, SVG Export Plug-In . SVG Version: 6.00 Build 0)  -->
<svg version="1.1" id="Layer_1" xmlns="http://www.w3.org/2000/svg" xmlns:xlink="http://www.w3.org/1999/xlink" x="0px" y="0px"
	 viewBox="0 0 140.7 447.1" style="enable-background:new 0 0 140.7 447.1;" xml:space="preserve">
<style type="text/css">
	.st0{fill:#FFF6E9;}
	.st1{font-family:'Arial-BoldMT';}
	.st2{font-size:15px;}
	.st3{font-size:10px;}
	.st4{fill:none;stroke:#FFAF00;stroke-width:2.8141;stroke-miterlimit:10;}
	.st5{opacity:0.15;}
	.st6{fill:none;stroke:#D31159;stroke-width:2.8141;stroke-miterlimit:10;}
	.st7{fill:none;stroke:#5857FF;stroke-width:2.8141;stroke-miterlimit:10;}
	.st8{fill:none;stroke:#D31159;stroke-width:2.8141;stroke-linecap:round;stroke-miterlimit:10;}
	.st9{fill:none;stroke:#5857FF;stroke-width:2.8141;stroke-linecap:round;stroke-miterlimit:10;}
	.st10{fill:none;stroke:#D31159;stroke-width:2.8141;stroke-linecap:round;stroke-linejoin:round;stroke-miterlimit:10;}
	.st11{fill:none;stroke:#5857FF;stroke-width:2.8141;stroke-linecap:round;stroke-linejoin:round;stroke-miterlimit:10;}
	.st12{stroke:#000000;stroke-width:1.4918;stroke-miterlimit:10;}
	.st13{fill:#FFFFFF;}
	.st14{fill:#BDDCEB;}
</style>
<g>
	<path class="st0" d="M128.7,260.5H12c-6.6,0-12-5.4-12-12V67.4c0-6.6,5.4-12,12-12h116.8c6.6,0,12,5.4,12,12v181.2
		C140.7,255.2,135.4,260.5,128.7,260.5z"/>
	<g>
		<text transform="matrix(1 0 0 1 40.1932 130.3707)" class="st1 st2">PAM (5′)</text>
	</g>
	<g>
		<g>
			<g>
				<text transform="matrix(1 0 0 1 110.4544 216.1544)" class="st1 st3">5′</text>
			</g>
			<g>
				<text transform="matrix(1 0 0 1 37.7894 216.1544)" class="st1 st3">3′</text>
			</g>
			<path class="st4" d="M46.9,212.8h40.3c3.3,0,5.9-2.6,5.9-5.9V191l-2.2-7.6c-0.7-2.3-0.4-4.9,1-6.9c1.4-1.8,3.4-3,5.7-3l0,0
				c2.3,0,4.4,1.2,5.7,3c1.4,2,1.7,4.6,1,6.9l-2.2,7.6v15.9c0,3.3,2.6,5.9,5.9,5.9"/>
			<g class="st5">
				<path d="M115.7,188.5c0,11.8-9.6,21.4-21.4,21.4c-2.2,0-4.2-0.3-6.2-0.9c-2.9,4.1-7.7,6.8-13.1,6.8c-8.8,0-16-7.1-16-16
					c0-8.4,6.4-15.2,14.5-16c2.2-9.6,10.7-16.7,20.9-16.7C106.2,167.1,115.8,176.7,115.7,188.5z"/>
			</g>
		</g>
		<g>
			<polyline class="st6" points="14.9,227.5 39.5,227.5 43.1,220.5 43.1,220.5 97.6,220.5 97.6,220.5 101.2,227.5 125.8,227.5 			
				"/>
			<polyline class="st7" points="125.8,233.2 101.2,233.2 97.6,240.2 97.6,240.2 43.1,240.2 43.1,240.2 39.5,233.2 14.9,233.2 			
				"/>
			<polyline class="st8" points="97.6,220.5 101.2,227.5 125.8,227.5 			"/>
			<polyline class="st9" points="125.8,233.2 101.2,233.2 97.6,240.2 			"/>
			<polyline class="st10" points="14.9,227.5 39.5,227.5 43.1,220.5 			"/>
			<polyline class="st11" points="43.1,240.2 39.5,233.2 14.9,233.2 			"/>
		</g>
		<polygon class="st12" points="94.3,238.4 90.9,238.9 93.4,241.3 92.8,244.7 95.9,243.1 98.9,244.7 98.4,241.3 100.8,238.9 
			97.4,238.4 95.9,235.3 		"/>
	</g>
	<g>
		<circle cx="70.4" cy="92.9" r="17.5"/>
		<path class="st13" d="M71.2,101.3v-3.4h-6.8v-2.8l7.3-10.6h2.7v10.6h2.1v2.8h-2.1v3.4H71.2z M71.2,95.1v-5.7l-3.8,5.7H71.2z"/>
	</g>
</g>
<g>
	<path class="st14" d="M125.7,45.4H15.1C6.7,45.4,0,38.6,0,30.3V15C0,6.7,6.7,0,15.1,0h110.6c8.3,0,15.1,6.7,15.1,15.1v15.3
		C140.7,38.6,134,45.4,125.7,45.4z"/>
	<g>
		<text transform="matrix(1 0 0 1 6.2058 28.2935)" class="st1 st2">Targeting Context</text>
	</g>
</g>
<text transform="matrix(1 0 0 1 4.7105 228.4325)" class="st1 st3">5′</text>
<text transform="matrix(1 0 0 1 4.7105 239.4413)" class="st1 st3">3′</text>
<text transform="matrix(1 0 0 1 128.8097 228.4325)" class="st1 st3">3′</text>
<text transform="matrix(1 0 0 1 128.8097 239.4413)" class="st1 st3">5′</text>
</svg>
