<?xml version="1.0" encoding="utf-8"?>
<!-- Generator: Adobe Illustrator 25.2.0, SVG Export Plug-In . SVG Version: 6.00 Build 0)  -->
<svg version="1.1" id="Layer_1" xmlns="http://www.w3.org/2000/svg" xmlns:xlink="http://www.w3.org/1999/xlink" x="0px" y="0px"
	 viewBox="0 0 140.7 447.1" style="enable-background:new 0 0 140.7 447.1;" xml:space="preserve">
<style type="text/css">
	.st0{fill:none;}
	.st1{fill:#40AFA5;}
	.st2{fill:#BDDCEB;}
	.st3{font-family:'Arial-BoldMT';}
	.st4{font-size:15px;}
	.st5{fill:#FFF6E9;}
	.st6{fill:#FFFFFF;}
	.st7{font-size:10px;}
	.st8{fill:none;stroke:#FFAF00;stroke-width:2.8141;stroke-miterlimit:10;}
	.st9{opacity:0.15;}
	.st10{fill:none;stroke:url(#SVGID_2_);stroke-width:2.8141;stroke-miterlimit:10;}
	.st11{fill:none;stroke:url(#SVGID_3_);stroke-width:2.8141;stroke-linecap:round;stroke-miterlimit:10;}
	.st12{fill:none;stroke:url(#SVGID_4_);stroke-width:2.8141;stroke-linecap:round;stroke-linejoin:round;stroke-miterlimit:10;}
</style>
<pattern  y="447.1" width="47.6" height="47.6" patternUnits="userSpaceOnUse" id="SVGID_0000006648789672927252402" viewBox="0 -47.6 47.6 47.6" style="overflow:visible;">
	<g>
		<rect y="-47.6" class="st0" width="47.6" height="47.6"/>
		<g>
			<rect y="-47.6" class="st0" width="47.6" height="47.6"/>
			<rect y="-47.6" class="st1" width="47.6" height="47.6"/>
		</g>
	</g>
</pattern>
<pattern  y="447.1" width="47.6" height="47.6" patternUnits="userSpaceOnUse" id="SVGID_1_" viewBox="0 -47.6 47.6 47.6" style="overflow:visible;">
	<g>
		<rect y="-47.6" class="st0" width="47.6" height="47.6"/>
		<g>
			<rect y="-47.6" class="st0" width="47.6" height="47.6"/>
			<rect y="-47.6" class="st1" width="47.6" height="47.6"/>
		</g>
	</g>
</pattern>
<g>
	<g>
		<path class="st2" d="M125.7,45.4H15.1C6.7,45.4,0,38.6,0,30.3V15C0,6.7,6.7,0,15.1,0h110.6c8.3,0,15.1,6.7,15.1,15.1v15.3
			C140.7,38.6,134,45.4,125.7,45.4z"/>
		<g>
			<text transform="matrix(1 0 0 1 6.2058 28.2935)" class="st3 st4">Targeting Context</text>
		</g>
	</g>
	<g>
		<path class="st5" d="M128.7,260.5H12c-6.6,0-12-5.4-12-12V67.4c0-6.6,5.4-12,12-12h116.8c6.6,0,12,5.4,12,12v181.2
			C140.7,255.2,135.4,260.5,128.7,260.5z"/>
		<text transform="matrix(1 0 0 1 7.7435 130.3698)" class="st3 st4">No Constraint (5′)</text>
		<g>
			<circle cx="70.4" cy="92.9" r="17.5"/>
			<path class="st6" d="M75.6,88.5l-3.1,0.3c-0.1-0.6-0.3-1.1-0.6-1.4c-0.3-0.3-0.7-0.5-1.2-0.5c-0.7,0-1.2,0.3-1.7,0.9
				s-0.8,1.9-0.9,3.8c0.8-0.9,1.8-1.4,3-1.4c1.3,0,2.5,0.5,3.4,1.5c1,1,1.4,2.3,1.4,3.9c0,1.7-0.5,3.1-1.5,4.1s-2.3,1.6-3.9,1.6
				c-1.7,0-3.1-0.7-4.2-2s-1.6-3.5-1.6-6.5c0-3.1,0.6-5.3,1.7-6.6c1.1-1.4,2.6-2,4.4-2c1.3,0,2.3,0.4,3.2,1.1
				C74.9,86.1,75.4,87.1,75.6,88.5z M68.4,95.5c0,1,0.2,1.8,0.7,2.4s1,0.8,1.6,0.8s1.1-0.2,1.5-0.7s0.6-1.2,0.6-2.3
				c0-1.1-0.2-1.9-0.6-2.4s-1-0.8-1.6-0.8s-1.1,0.2-1.6,0.7C68.6,93.8,68.4,94.5,68.4,95.5z"/>
		</g>
		<g>
			<g>
				<g>
					<g>
						<text transform="matrix(1 0 0 1 109.4174 216.1552)" class="st3 st7">5′</text>
					</g>
					<g>
						<text transform="matrix(1 0 0 1 35.7543 216.1552)" class="st3 st7">3′</text>
					</g>
					<path class="st8" d="M46.4,212.8h40.3c3.3,0,5.9-2.6,5.9-5.9V191l-2.2-7.6c-0.7-2.3-0.4-4.9,1-6.9c1.4-1.8,3.4-3,5.7-3l0,0
						c2.3,0,4.4,1.2,5.7,3c1.4,2,1.7,4.6,1,6.9l-2.2,7.6v15.9c0,3.3,2.6,5.9,5.9,5.9"/>
					<g class="st9">
						<path d="M115.2,188.5c0,11.8-9.6,21.4-21.4,21.4c-2.2,0-4.2-0.3-6.2-0.9c-2.9,4.1-7.7,6.8-13.1,6.8c-8.8,0-16-7.1-16-16
							c0-8.4,6.4-15.2,14.5-16c2.2-9.6,10.7-16.7,20.9-16.7C105.7,167.1,115.2,176.7,115.2,188.5z"/>
					</g>
				</g>
				<pattern  id="SVGID_2_" xlink:href="#SVGID_1_" patternTransform="matrix(-1 0 0 -1 -14610.8574 -16846.8457)">
				</pattern>
				<polyline class="st10" points="14.9,227.3 39.5,227.3 43.1,220.2 43.1,220.2 97.6,220.2 97.6,220.2 101.2,227.3 125.8,227.3 
									"/>
				
					<pattern  id="SVGID_3_" xlink:href="#SVGID_0000006648789672927252402" patternTransform="matrix(-1 0 0 -1 -14610.8574 -16846.8457)">
				</pattern>
				<polyline class="st11" points="97.6,220.2 101.2,227.3 125.8,227.3 				"/>
				
					<pattern  id="SVGID_4_" xlink:href="#SVGID_0000006648789672927252402" patternTransform="matrix(-1 0 0 -1 -14610.8574 -16846.8457)">
				</pattern>
				<polyline class="st12" points="14.9,227.3 39.5,227.3 43.1,220.2 				"/>
			</g>
		</g>
		<text transform="matrix(1 0 0 1 4.7105 230.4341)" class="st3 st7">5′</text>
		<text transform="matrix(1 0 0 1 128.8097 230.4341)" class="st3 st7">3′</text>
	</g>
</g>
</svg>
