<?xml version="1.0" encoding="utf-8"?>
<!-- Generator: Adobe Illustrator 27.5.0, SVG Export Plug-In . SVG Version: 6.00 Build 0)  -->
<svg version="1.1" id="Layer_1" xmlns="http://www.w3.org/2000/svg" xmlns:xlink="http://www.w3.org/1999/xlink" x="0px" y="0px"
	 viewBox="0 0 140.7 260.5" style="enable-background:new 0 0 140.7 260.5;" xml:space="preserve">
<style type="text/css">
	.st0{fill:#31CAFD;}
	.st1{fill:#AAB8F1;}
	.st2{fill:#A2B8FF;}
	.st3{fill:#00CEDE;}
	.st4{fill:#FF0A00;}
	.st5{fill:#BEBEBE;}
	.st6{fill:#8F7F1D;}
	.st7{fill:#A17800;}
	.st8{fill:#FE1600;}
	.st9{fill:#C0BCBC;}
	.st10{fill:#CFB7BE;}
	.st11{fill:#BFBBC9;}
	.st12{fill:url(#);}
	.st13{fill:#5857FF;}
	.st14{fill:#D31159;}
	.st15{fill:#FFAF00;}
	.st16{fill:#A09C9A;}
	.st17{fill:#006CDE;}
	.st18{fill:#6A6B7A;}
	.st19{fill:#D6BD0F;}
	.st20{fill:#A699AB;}
	.st21{fill:#0072BF;}
	.st22{fill:#80674E;}
	.st23{fill:#F2B300;}
	.st24{fill:#4DAAB8;}
	.st25{fill:#007B83;}
	.st26{fill:#D02A2A;}
	.st27{fill:#FFA5AF;}
	.st28{fill:#FFF7EA;}
	.st29{fill:#FFF7EB;}
	.st30{fill:#FFF6F5;}
	.st31{fill:#FCFCFC;}
	.st32{fill:#8B61FF;}
	.st33{fill:#007AFE;}
	.st34{fill:#0081DD;}
	.st35{fill:#65838D;}
	.st36{fill:#00FFB7;}
	.st37{fill:#F0DFA8;}
	.st38{fill:#FFD8C5;}
	.st39{fill:#89F0FF;}
	.st40{fill:#BDDCEB;}
	.st41{font-family:'Arial-BoldMT';}
	.st42{font-size:15px;}
	.st43{opacity:0.15;}
	.st44{fill:#FFF6E9;}
	.st45{fill:none;stroke:#FFAF00;stroke-width:2.2565;stroke-miterlimit:10;}
	.st46{fill:none;stroke:#D31159;stroke-width:2.8141;stroke-miterlimit:10;}
	.st47{fill:none;stroke:#5857FF;stroke-width:2.8141;stroke-miterlimit:10;}
	.st48{fill:none;stroke:#D31159;stroke-width:2.8141;stroke-linecap:round;stroke-miterlimit:10;}
	.st49{fill:none;stroke:#5857FF;stroke-width:2.8141;stroke-linecap:round;stroke-miterlimit:10;}
	.st50{fill:none;stroke:#D31159;stroke-width:2.8141;stroke-linecap:round;stroke-linejoin:round;stroke-miterlimit:10;}
	.st51{fill:none;stroke:#5857FF;stroke-width:2.8141;stroke-linecap:round;stroke-linejoin:round;stroke-miterlimit:10;}
	.st52{stroke:#000000;stroke-width:1.4918;stroke-miterlimit:10;}
	.st53{fill:#FFFFFF;}
	.st54{fill:none;stroke:#31CAFD;stroke-width:2.5;stroke-miterlimit:10;}
	.st55{fill:none;stroke:#FFAF00;stroke-width:2.5;stroke-miterlimit:10;}
	.st56{fill:none;stroke:#FF0A00;stroke-width:2.5;stroke-miterlimit:10;}
	.st57{fill:none;stroke:#00FFB7;stroke-width:2.5;stroke-miterlimit:10;}
	.st58{fill:none;stroke:#8B61FF;stroke-width:2.5;stroke-miterlimit:10;}
	.st59{fill:none;stroke:#BEBEBE;stroke-width:2.5;stroke-miterlimit:10;}
	.st60{fill:none;stroke:#FF0A00;stroke-width:4.5;stroke-miterlimit:10;}
	.st61{fill:none;stroke:#BEBEBE;stroke-width:4.5;stroke-miterlimit:10;}
	.st62{fill:none;stroke:#000000;stroke-width:2.5;stroke-miterlimit:10;}
	.st63{fill:#413F40;stroke:#003953;stroke-width:5.431579e-02;stroke-miterlimit:10;}
	.st64{fill:none;stroke:#D31159;stroke-width:2;stroke-miterlimit:10;}
	.st65{fill:none;stroke:#5857FF;stroke-width:2;stroke-miterlimit:10;}
	.st66{fill:none;stroke:#D31159;stroke-width:2;stroke-linecap:round;stroke-miterlimit:10;}
	.st67{fill:none;stroke:#5857FF;stroke-width:2;stroke-linecap:round;stroke-miterlimit:10;}
	.st68{fill:none;stroke:#D31159;stroke-width:2;stroke-linecap:round;stroke-linejoin:round;stroke-miterlimit:10;}
	.st69{fill:none;stroke:#5857FF;stroke-width:2;stroke-linecap:round;stroke-linejoin:round;stroke-miterlimit:10;}
	.st70{opacity:0.4;fill:none;stroke:#FFAF00;stroke-width:1.7161;stroke-miterlimit:10;}
	.st71{opacity:0.5;fill:none;stroke:#FFAF00;stroke-width:2;stroke-miterlimit:10;}
	.st72{fill:none;stroke:url(#);stroke-width:2;stroke-miterlimit:10;}
	.st73{fill:none;stroke:url(#);stroke-width:2;stroke-linecap:round;stroke-miterlimit:10;}
	.st74{fill:none;stroke:url(#);stroke-width:2;stroke-linecap:round;stroke-linejoin:round;stroke-miterlimit:10;}
	.st75{opacity:0.25;}
	.st76{fill:none;stroke:#003953;stroke-width:2;stroke-miterlimit:10;}
	.st77{fill:none;stroke:#003953;stroke-width:2;stroke-linecap:round;stroke-miterlimit:10;}
	.st78{fill:none;stroke:#FFAF00;stroke-width:2.8141;stroke-miterlimit:10;}
	.st79{fill:none;stroke:url(#);stroke-width:2.8141;stroke-miterlimit:10;}
	.st80{fill:none;stroke:url(#);stroke-width:2.8141;stroke-linecap:round;stroke-miterlimit:10;}
	.st81{fill:none;stroke:url(#);stroke-width:2.8141;stroke-linecap:round;stroke-linejoin:round;stroke-miterlimit:10;}
	.st82{fill:none;stroke:#000000;stroke-width:3;stroke-miterlimit:10;}
	.st83{fill:none;}
	.st84{font-size:10px;}
</style>
<g>
	<path class="st40" d="M125.7,45.4H15.1C6.7,45.4,0,38.6,0,30.3l0-15.3C0,6.7,6.7,0,15.1,0l110.6,0c8.3,0,15.1,6.7,15.1,15.1v15.3
		C140.7,38.6,134,45.4,125.7,45.4z"/>
	<g>
		<text transform="matrix(1 0 0 1 6.2058 28.2937)" class="st41 st42">Targeting Context</text>
	</g>
</g>
<g>
	<path class="st44" d="M128.7,260.5H12c-6.6,0-12-5.4-12-12V67.4c0-6.6,5.4-12,12-12h116.8c6.6,0,12,5.4,12,12v181.2
		C140.7,255.2,135.4,260.5,128.7,260.5z"/>
	<g>
		<text transform="matrix(1 0 0 1 40.1932 130.3707)" class="st41 st42">PAM (5′)</text>
	</g>
	<g>
		<g>
			<g>
				<text transform="matrix(1 0 0 1 23.2398 216.1545)" class="st41 st84">5′</text>
			</g>
			<g>
				<text transform="matrix(1 0 0 1 95.9049 216.1545)" class="st41 st84">3′</text>
			</g>
			<path class="st78" d="M32.7,212.8c3.3,0,5.9-2.6,5.9-5.9V191l-2.2-7.6c-0.7-2.3-0.4-4.9,1-6.9c1.3-1.8,3.4-3,5.7-3h0
				c2.3,0,4.3,1.2,5.7,3c1.4,2,1.7,4.6,1,6.9l-2.2,7.6v15.9c0,3.3,2.6,5.9,5.9,5.9h40.3"/>
			<g class="st43">
				<path d="M46.3,167.1c10.2,0,18.7,7.1,20.9,16.7c8.1,0.8,14.5,7.6,14.5,16c0,8.9-7.2,16-16,16c-5.4,0-10.2-2.7-13.1-6.8
					c-2,0.6-4,0.9-6.2,0.9c-11.8,0-21.4-9.6-21.4-21.4C24.9,176.7,34.5,167.1,46.3,167.1z"/>
			</g>
		</g>
		<g>
			<polyline class="st46" points="14.9,227.5 39.5,227.5 43.1,220.5 43.1,220.5 97.6,220.5 97.6,220.5 101.2,227.5 125.8,227.5 			
				"/>
			<polyline class="st47" points="125.8,233.2 101.2,233.2 97.6,240.2 97.6,240.2 43.1,240.2 43.1,240.2 39.5,233.2 14.9,233.2 			
				"/>
			<polyline class="st48" points="14.9,227.5 39.5,227.5 43.1,220.5 			"/>
			<polyline class="st49" points="43.1,240.2 39.5,233.2 14.9,233.2 			"/>
			<polyline class="st50" points="97.6,220.5 101.2,227.5 125.8,227.5 			"/>
			<polyline class="st51" points="125.8,233.2 101.2,233.2 97.6,240.2 			"/>
		</g>
		<polygon class="st52" points="44.8,235.3 43.3,238.4 39.9,238.9 42.3,241.3 41.8,244.7 44.8,243.1 47.9,244.7 47.3,241.3 
			49.8,238.9 46.4,238.4 		"/>
	</g>
	<g>
		<circle cx="70.4" cy="92.9" r="17.5"/>
		<path class="st53" d="M71.2,101.3v-3.4h-6.8v-2.8l7.3-10.6h2.7v10.6h2.1v2.8h-2.1v3.4H71.2z M71.2,95.1v-5.7l-3.8,5.7H71.2z"/>
	</g>
</g>
</svg>
