<?xml version="1.0" encoding="UTF-8"?>
<svg id="Layer_2" data-name="Layer 2" xmlns="http://www.w3.org/2000/svg" xmlns:xlink="http://www.w3.org/1999/xlink" viewBox="0 0 205.26 331.57">
  <defs>
    <style>
      .cls-1, .cls-2, .cls-3, .cls-4, .cls-5, .cls-6, .cls-7, .cls-8, .cls-9, .cls-10, .cls-11 {
        fill: none;
      }

      .cls-2, .cls-3, .cls-4 {
        stroke: url(#New_Pattern_Swatch_6);
      }

      .cls-2, .cls-3, .cls-4, .cls-5, .cls-6, .cls-7, .cls-8, .cls-9, .cls-10 {
        stroke-width: 2px;
      }

      .cls-2, .cls-3, .cls-12, .cls-5, .cls-6, .cls-9, .cls-10, .cls-11 {
        stroke-miterlimit: 10;
      }

      .cls-3, .cls-4, .cls-5, .cls-6, .cls-7, .cls-8 {
        stroke-linecap: round;
      }

      .cls-13, .cls-14 {
        font-size: 20px;
      }

      .cls-13, .cls-14, .cls-15 {
        font-weight: 700;
      }

      .cls-13, .cls-16, .cls-15 {
        font-family: Arial-BoldMT, Arial;
      }

      .cls-17 {
        fill: #fff6e9;
      }

      .cls-18 {
        fill: #40afa5;
      }

      .cls-4, .cls-7, .cls-8 {
        stroke-linejoin: round;
      }

      .cls-12 {
        fill: #413f40;
        stroke: #003953;
        stroke-width: .05px;
      }

      .cls-5, .cls-8, .cls-10 {
        stroke: #5857ff;
      }

      .cls-6, .cls-7, .cls-9 {
        stroke: #d31159;
      }

      .cls-19 {
        font-family: Arial-BoldItalicMT, Arial;
        font-style: italic;
      }

      .cls-11 {
        opacity: .4;
        stroke: #ffaf00;
        stroke-width: 1.72px;
      }

      .cls-20 {
        opacity: .15;
      }

      .cls-15 {
        font-size: 26.66px;
      }
    </style>
    <pattern id="New_Pattern_Swatch_6" data-name="New Pattern Swatch 6" x="0" y="0" width="47.59" height="47.59" patternTransform="translate(489.58 211.33)" patternUnits="userSpaceOnUse" viewBox="0 0 47.59 47.59">
      <g>
        <rect class="cls-1" width="47.59" height="47.59"/>
        <rect class="cls-18" width="47.59" height="47.59"/>
      </g>
    </pattern>
  </defs>
  <g id="Layer_1-2" data-name="Layer 1">
    <rect class="cls-17" width="205.26" height="331.57" rx="12" ry="12"/>
    <g>
      <text class="cls-14" transform="translate(27.41 113.84)"><tspan class="cls-19"><tspan x="0" y="0">cis</tspan></tspan><tspan class="cls-16"><tspan x="-20.56" y="24">activity</tspan></tspan></text>
      <text class="cls-14" transform="translate(16.86 206.61)"><tspan class="cls-19"><tspan x="0" y="0">trans</tspan></tspan><tspan class="cls-16"><tspan x="-10.01" y="24">activity</tspan></tspan></text>
      <text class="cls-13" transform="translate(34.79 45.48)"><tspan x="0" y="0">#</tspan></text>
    </g>
    <text class="cls-15" transform="translate(146.17 49.61)"><tspan x="0" y="0">8</tspan></text>
    <g>
      <g>
        <path class="cls-11" d="m171.67,134.03c-2.49,0-4.5-2.01-4.5-4.5v-12.12l1.7-5.76c.53-1.78.32-3.76-.77-5.26-1.01-1.38-2.56-2.26-4.3-2.26h0c-1.74,0-3.29.88-4.3,2.26-1.1,1.5-1.3,3.48-.77,5.26l1.7,5.76v12.12c0,2.49-2.01,4.5-4.5,4.5h-18.28"/>
        <g class="cls-20">
          <path d="m161.33,99.29c-7.76,0-14.24,5.43-15.86,12.7-6.18.6-11.01,5.8-11.01,12.13,0,6.73,5.46,12.19,12.19,12.19,4.13,0,7.78-2.06,9.99-5.2,1.48.45,3.06.69,4.69.69,8.98,0,16.26-7.28,16.26-16.25s-7.28-16.25-16.26-16.25Z"/>
        </g>
      </g>
      <polygon class="cls-12" points="156.06 126.04 160.21 118.81 151.9 118.81 156.06 126.04"/>
      <polygon class="cls-12" points="156.06 128.04 151.9 135.27 160.21 135.27 156.06 128.04"/>
      <path class="cls-2" d="m116.63,132.05h17.47s2.56-5,2.56-5h14.37"/>
      <path class="cls-2" d="m161.02,127.04h14.37s2.56,5,2.56,5h17.47"/>
      <polyline class="cls-3" points="116.63 132.05 134.1 132.05 136.65 127.04"/>
      <polyline class="cls-4" points="175.4 127.04 177.95 132.05 195.42 132.05"/>
    </g>
    <path class="cls-2" d="m116.66,215.39h17.47s2.56-5,2.56-5h14.37"/>
    <path class="cls-2" d="m161.06,210.38h14.37s2.56,5,2.56,5h17.47"/>
    <polyline class="cls-3" points="116.66 215.39 134.13 215.39 136.69 210.38"/>
    <polyline class="cls-4" points="175.43 210.38 177.99 215.39 195.45 215.39"/>
    <path class="cls-2" d="m116.66,252.86h17.47s2.56-5,2.56-5h14.37"/>
    <path class="cls-2" d="m161.06,247.86h14.37s2.56,5,2.56,5h17.47"/>
    <polyline class="cls-3" points="116.66 252.86 134.13 252.86 136.69 247.86"/>
    <polyline class="cls-4" points="175.43 247.86 177.99 252.86 195.45 252.86"/>
    <g>
      <path class="cls-9" d="m117.27,283.71h17.47s2.56-5,2.56-5h14.37"/>
      <path class="cls-9" d="m161.67,278.71h14.37s2.56,5,2.56,5h17.47"/>
      <path class="cls-10" d="m196.06,287.71h-17.47s-2.56,5-2.56,5h-14.37"/>
      <path class="cls-10" d="m151.67,292.71h-14.37s-2.56-5-2.56-5h-17.47"/>
      <polyline class="cls-6" points="117.27 283.71 134.74 283.71 137.29 278.71"/>
      <polyline class="cls-5" points="137.29 292.71 134.74 287.71 117.27 287.71"/>
      <polyline class="cls-7" points="176.04 278.71 178.59 283.71 196.06 283.71"/>
      <polyline class="cls-8" points="196.06 287.71 178.59 287.71 176.04 292.71"/>
    </g>
  </g>
</svg>