<?xml version="1.0" encoding="utf-8"?>
<!-- Generator: Adobe Illustrator 27.5.0, SVG Export Plug-In . SVG Version: 6.00 Build 0)  -->
<svg version="1.1" id="Layer_1" xmlns="http://www.w3.org/2000/svg" xmlns:xlink="http://www.w3.org/1999/xlink" x="0px" y="0px"
	 viewBox="0 0 290.7 447.1" style="enable-background:new 0 0 290.7 447.1;" xml:space="preserve">
<style type="text/css">
	.st0{fill:#31CAFD;}
	.st1{fill:#AAB8F1;}
	.st2{fill:#A2B8FF;}
	.st3{fill:#00CEDE;}
	.st4{fill:#FF0A00;}
	.st5{fill:#BEBEBE;}
	.st6{fill:#8F7F1D;}
	.st7{fill:#A17800;}
	.st8{fill:#FE1600;}
	.st9{fill:#C0BCBC;}
	.st10{fill:#CFB7BE;}
	.st11{fill:#BFBBC9;}
	.st12{fill:url(#);}
	.st13{fill:#5857FF;}
	.st14{fill:#D31159;}
	.st15{fill:#FFAF00;}
	.st16{fill:#A09C9A;}
	.st17{fill:#006CDE;}
	.st18{fill:#6A6B7A;}
	.st19{fill:#D6BD0F;}
	.st20{fill:#A699AB;}
	.st21{fill:#0072BF;}
	.st22{fill:#80674E;}
	.st23{fill:#F2B300;}
	.st24{fill:#4DAAB8;}
	.st25{fill:#007B83;}
	.st26{fill:#D02A2A;}
	.st27{fill:#FFA5AF;}
	.st28{fill:#FFF7EA;}
	.st29{fill:#FFF7EB;}
	.st30{fill:#FFF6F5;}
	.st31{fill:#FCFCFC;}
	.st32{fill:#8B61FF;}
	.st33{fill:#007AFE;}
	.st34{fill:#0081DD;}
	.st35{fill:#65838D;}
	.st36{fill:#00FFB7;}
	.st37{fill:#F0DFA8;}
	.st38{fill:#FFD8C5;}
	.st39{fill:#89F0FF;}
	.st40{fill:#BDDCEB;}
	.st41{opacity:0.15;}
	.st42{fill:#FFF6E9;}
	.st43{fill:none;stroke:#FFAF00;stroke-width:2.2565;stroke-miterlimit:10;}
	.st44{fill:none;stroke:#D31159;stroke-width:2.8141;stroke-miterlimit:10;}
	.st45{fill:none;stroke:#5857FF;stroke-width:2.8141;stroke-miterlimit:10;}
	.st46{fill:none;stroke:#D31159;stroke-width:2.8141;stroke-linecap:round;stroke-miterlimit:10;}
	.st47{fill:none;stroke:#5857FF;stroke-width:2.8141;stroke-linecap:round;stroke-miterlimit:10;}
	.st48{fill:none;stroke:#D31159;stroke-width:2.8141;stroke-linecap:round;stroke-linejoin:round;stroke-miterlimit:10;}
	.st49{fill:none;stroke:#5857FF;stroke-width:2.8141;stroke-linecap:round;stroke-linejoin:round;stroke-miterlimit:10;}
	.st50{stroke:#000000;stroke-width:1.4918;stroke-miterlimit:10;}
	.st51{fill:#FFFFFF;}
	.st52{fill:none;stroke:#31CAFD;stroke-width:2.5;stroke-miterlimit:10;}
	.st53{fill:none;stroke:#FFAF00;stroke-width:2.5;stroke-miterlimit:10;}
	.st54{fill:none;stroke:#FF0A00;stroke-width:2.5;stroke-miterlimit:10;}
	.st55{fill:none;stroke:#00FFB7;stroke-width:2.5;stroke-miterlimit:10;}
	.st56{fill:none;stroke:#8B61FF;stroke-width:2.5;stroke-miterlimit:10;}
	.st57{fill:none;stroke:#BEBEBE;stroke-width:2.5;stroke-miterlimit:10;}
	.st58{fill:none;stroke:#FF0A00;stroke-width:4.5;stroke-miterlimit:10;}
	.st59{fill:none;stroke:#BEBEBE;stroke-width:4.5;stroke-miterlimit:10;}
	.st60{fill:none;stroke:#000000;stroke-width:2.5;stroke-miterlimit:10;}
	.st61{fill:#413F40;stroke:#003953;stroke-width:5.431579e-02;stroke-miterlimit:10;}
	.st62{fill:none;stroke:#D31159;stroke-width:2;stroke-miterlimit:10;}
	.st63{fill:none;stroke:#5857FF;stroke-width:2;stroke-miterlimit:10;}
	.st64{fill:none;stroke:#D31159;stroke-width:2;stroke-linecap:round;stroke-miterlimit:10;}
	.st65{fill:none;stroke:#5857FF;stroke-width:2;stroke-linecap:round;stroke-miterlimit:10;}
	.st66{fill:none;stroke:#D31159;stroke-width:2;stroke-linecap:round;stroke-linejoin:round;stroke-miterlimit:10;}
	.st67{fill:none;stroke:#5857FF;stroke-width:2;stroke-linecap:round;stroke-linejoin:round;stroke-miterlimit:10;}
	.st68{opacity:0.4;fill:none;stroke:#FFAF00;stroke-width:1.7161;stroke-miterlimit:10;}
	.st69{opacity:0.5;fill:none;stroke:#FFAF00;stroke-width:2;stroke-miterlimit:10;}
	.st70{fill:none;stroke:url(#);stroke-width:2;stroke-miterlimit:10;}
	.st71{fill:none;stroke:url(#);stroke-width:2;stroke-linecap:round;stroke-miterlimit:10;}
	.st72{fill:none;stroke:url(#);stroke-width:2;stroke-linecap:round;stroke-linejoin:round;stroke-miterlimit:10;}
	.st73{opacity:0.25;}
	.st74{fill:none;stroke:#003953;stroke-width:2;stroke-miterlimit:10;}
	.st75{fill:none;stroke:#003953;stroke-width:2;stroke-linecap:round;stroke-miterlimit:10;}
	.st76{fill:none;stroke:#FFAF00;stroke-width:2.8141;stroke-miterlimit:10;}
	.st77{fill:none;stroke:url(#);stroke-width:2.8141;stroke-miterlimit:10;}
	.st78{fill:none;stroke:url(#);stroke-width:2.8141;stroke-linecap:round;stroke-miterlimit:10;}
	.st79{fill:none;stroke:url(#);stroke-width:2.8141;stroke-linecap:round;stroke-linejoin:round;stroke-miterlimit:10;}
	.st80{fill:none;stroke:#000000;stroke-width:3;stroke-miterlimit:10;}
	.st81{fill:none;}
	.st82{font-family:'Arial-BoldMT';}
	.st83{font-size:15px;}
</style>
<g class="st41">
	<path d="M275.7,115.5H126.1c-8.3,0-15.1-6.7-15.1-15.1V85.2c0-8.3,6.7-15.1,15.1-15.1h149.6c8.3,0,15.1,6.7,15.1,15.1v15.3
		C290.7,108.8,284,115.5,275.7,115.5z"/>
</g>
<g class="st41">
	<path d="M275.7,262.9H126.1c-8.3,0-15.1-6.7-15.1-15.1v-85.7c0-8.3,6.7-15.1,15.1-15.1h149.6c8.3,0,15.1,6.7,15.1,15.1v85.7
		C290.7,256.2,284,262.9,275.7,262.9z"/>
</g>
<g class="st41">
	<path d="M275.7,364.8H126.1c-8.3,0-15.1-6.7-15.1-15.1v-62.2c0-8.3,6.7-15.1,15.1-15.1h149.6c8.3,0,15.1,6.7,15.1,15.1v62.2
		C290.7,358.1,284,364.8,275.7,364.8z"/>
</g>
<g class="st41">
	<path d="M275.7,447.1H126.1c-8.3,0-15.1-6.7-15.1-15.1v-42.6c0-8.3,6.7-15.1,15.1-15.1h149.6c8.3,0,15.1,6.7,15.1,15.1v42.6
		C290.7,440.4,284,447.1,275.7,447.1z"/>
</g>
<g>
	<text transform="matrix(1 0 0 1 183.6548 193.4207)"><tspan x="0" y="0" class="st82 st83">Native</tspan><tspan x="0.3" y="18" class="st82 st83">CRISPR</tspan><tspan x="0" y="36" class="st82 st83">Array</tspan></text>
</g>
<g>
	<text transform="matrix(1 0 0 1 183.6546 296.7191)"><tspan x="0" y="0" class="st82 st83">Minimal,</tspan><tspan x="0" y="18" class="st82 st83">Synthetic </tspan><tspan x="0" y="36" class="st82 st83">Multiplexing</tspan><tspan x="0" y="54" class="st82 st83">Design</tspan></text>
</g>
<g>
	<text transform="matrix(1 0 0 1 183.6545 398.402)"><tspan x="0" y="0" class="st82 st83">sgRNA </tspan><tspan x="0" y="18" class="st82 st83">Multiplexing</tspan><tspan x="0" y="36" class="st82 st83">Design</tspan></text>
</g>
<g>
	<text transform="matrix(1 0 0 1 183.6546 98.3326)" class="st82 st83">#</text>
</g>
<path class="st40" d="M275.7,45.4H15.1C6.7,45.4,0,38.6,0,30.3l0-15.3C0,6.7,6.7,0,15.1,0l260.6,0c8.3,0,15.1,6.7,15.1,15.1v15.3
	C290.7,38.6,284,45.4,275.7,45.4z"/>
<g>
	<text transform="matrix(1 0 0 1 25.7787 28.2937)" class="st82 st83">gRNA Design and Multiplexability</text>
</g>
<g>
	<path class="st42" d="M158.6,447.1H15.1C6.7,447.1,0,440.4,0,432V70.4c0-8.3,6.7-15.1,15.1-15.1h143.6c8.3,0,15.1,6.7,15.1,15.1
		V432C173.7,440.4,166.9,447.1,158.6,447.1z"/>
	<g>
		<g>
			<g>
				<line class="st52" x1="158.9" y1="334.8" x2="139.6" y2="334.8"/>
			</g>
			<path class="st53" d="M135.8,331.1c0,2,1.7,3.7,3.7,3.7"/>
			<line class="st53" x1="135.8" y1="331.1" x2="135.8" y2="318.2"/>
			<polyline class="st53" points="135.8,305.2 135.8,318.2 135.8,318.2 135.8,331.1 			"/>
			<path class="st53" d="M113.7,334.8c2,0,3.7-1.7,3.7-3.7v-11.3c0,0-1.9-4.3-1.9-6.3c0-3.1,1.6-5.5,4.7-5.5c3.1,0,4.7,2.5,4.7,5.5
				c0,2-1.9,6.3-1.9,6.3v11.3c0,2,1.7,3.7,3.7,3.7h0c2,0,3.7-1.7,3.7-3.7v-12.9v0v-12.9"/>
			<path class="st53" d="M135.8,305.2c0-1.5-1.2-2.7-2.7-2.7h0c-1.5,0-2.7,1.2-2.7,2.7"/>
		</g>
		<g>
			<g>
				<line class="st55" x1="109.5" y1="334.8" x2="90.1" y2="334.8"/>
			</g>
			<path class="st53" d="M86.3,331.1c0,2,1.7,3.7,3.7,3.7"/>
			<line class="st53" x1="86.3" y1="331.1" x2="86.3" y2="318.2"/>
			<polyline class="st53" points="86.3,305.2 86.3,318.2 86.3,318.2 86.3,331.1 			"/>
			<path class="st53" d="M64.2,334.8c2,0,3.7-1.7,3.7-3.7v-11.3c0,0-1.9-4.3-1.9-6.3c0-3.1,1.6-5.5,4.7-5.5c3.1,0,4.7,2.5,4.7,5.5
				c0,2-1.9,6.3-1.9,6.3v11.3c0,2,1.7,3.7,3.7,3.7h0c2,0,3.7-1.7,3.7-3.7v-12.9v0v-12.9"/>
			<path class="st53" d="M86.3,305.2c0-1.5-1.2-2.7-2.7-2.7h0c-1.5,0-2.7,1.2-2.7,2.7"/>
		</g>
		<g>
			<g>
				<line class="st56" x1="60" y1="334.8" x2="40.6" y2="334.8"/>
			</g>
			<path class="st53" d="M36.9,331.1c0,2,1.7,3.7,3.7,3.7"/>
			<line class="st53" x1="36.9" y1="331.1" x2="36.9" y2="318.2"/>
			<polyline class="st53" points="36.9,305.2 36.9,318.2 36.9,318.2 36.9,331.1 			"/>
			<path class="st53" d="M14.7,334.8c2,0,3.7-1.7,3.7-3.7v-11.3c0,0-1.9-4.3-1.9-6.3c0-3.1,1.6-5.5,4.7-5.5s4.7,2.5,4.7,5.5
				c0,2-1.9,6.3-1.9,6.3v11.3c0,2,1.7,3.7,3.7,3.7h0c2,0,3.7-1.7,3.7-3.7v-12.9v0v-12.9"/>
			<path class="st53" d="M36.9,305.2c0-1.5-1.2-2.7-2.7-2.7h0c-1.5,0-2.7,1.2-2.7,2.7"/>
		</g>
	</g>
	<g>
		<g>
			<g>
				<line class="st52" x1="158.9" y1="427.1" x2="139.6" y2="427.1"/>
			</g>
			<path class="st53" d="M135.8,423.4c0,2,1.7,3.7,3.7,3.7"/>
			<line class="st53" x1="135.8" y1="423.4" x2="135.8" y2="410.5"/>
			<polyline class="st53" points="135.8,397.5 135.8,410.5 135.8,410.5 135.8,423.4 			"/>
			<path class="st53" d="M113.7,427.1c2,0,3.7-1.7,3.7-3.7v-11.3c0,0-1.9-4.3-1.9-6.3c0-3.1,1.6-5.5,4.7-5.5c3.1,0,4.7,2.5,4.7,5.5
				c0,2-1.9,6.3-1.9,6.3v11.3c0,2,1.7,3.7,3.7,3.7h0c2,0,3.7-1.7,3.7-3.7v-12.9v0v-12.9"/>
			<path class="st53" d="M135.8,397.5c0-1.5-1.2-2.7-2.7-2.7h0c-1.5,0-2.7,1.2-2.7,2.7"/>
		</g>
		<g>
			<g>
				<line class="st55" x1="109.5" y1="427.1" x2="90.1" y2="427.1"/>
			</g>
			<path class="st53" d="M86.3,423.4c0,2,1.7,3.7,3.7,3.7"/>
			<line class="st53" x1="86.3" y1="423.4" x2="86.3" y2="410.5"/>
			<polyline class="st53" points="86.3,397.5 86.3,410.5 86.3,410.5 86.3,423.4 			"/>
			<path class="st53" d="M64.2,427.1c2,0,3.7-1.7,3.7-3.7v-11.3c0,0-1.9-4.3-1.9-6.3c0-3.1,1.6-5.5,4.7-5.5c3.1,0,4.7,2.5,4.7,5.5
				c0,2-1.9,6.3-1.9,6.3v11.3c0,2,1.7,3.7,3.7,3.7h0c2,0,3.7-1.7,3.7-3.7v-12.9v0v-12.9"/>
			<path class="st53" d="M86.3,397.5c0-1.5-1.2-2.7-2.7-2.7h0c-1.5,0-2.7,1.2-2.7,2.7"/>
		</g>
		<g>
			<g>
				<line class="st56" x1="60" y1="427.1" x2="40.6" y2="427.1"/>
			</g>
			<path class="st53" d="M36.9,423.4c0,2,1.7,3.7,3.7,3.7"/>
			<line class="st53" x1="36.9" y1="423.4" x2="36.9" y2="410.5"/>
			<polyline class="st53" points="36.9,397.5 36.9,410.5 36.9,410.5 36.9,423.4 			"/>
			<path class="st53" d="M14.7,427.1c2,0,3.7-1.7,3.7-3.7v-11.3c0,0-1.9-4.3-1.9-6.3c0-3.1,1.6-5.5,4.7-5.5s4.7,2.5,4.7,5.5
				c0,2-1.9,6.3-1.9,6.3v11.3c0,2,1.7,3.7,3.7,3.7h0c2,0,3.7-1.7,3.7-3.7v-12.9v0v-12.9"/>
			<path class="st53" d="M36.9,397.5c0-1.5-1.2-2.7-2.7-2.7h0c-1.5,0-2.7,1.2-2.7,2.7"/>
		</g>
	</g>
	<g>
		<g>
			<line class="st56" x1="109.5" y1="221" x2="90.1" y2="221"/>
		</g>
		<path class="st53" d="M86.3,217.3c0,2,1.7,3.7,3.7,3.7"/>
		<line class="st53" x1="86.3" y1="217.3" x2="86.3" y2="204.3"/>
		<polyline class="st53" points="86.3,191.4 86.3,204.3 86.3,204.3 86.3,217.3 		"/>
		<path class="st53" d="M64.2,221c2,0,3.7-1.7,3.7-3.7V206c0,0-1.9-4.3-1.9-6.3c0-3.1,1.6-5.5,4.7-5.5c3.1,0,4.7,2.5,4.7,5.5
			c0,2-1.9,6.3-1.9,6.3v11.3c0,2,1.7,3.7,3.7,3.7h0c2,0,3.7-1.7,3.7-3.7v-12.9v0v-12.9"/>
		<path class="st53" d="M86.3,191.4c0-1.5-1.2-2.7-2.7-2.7h0c-1.5,0-2.7,1.2-2.7,2.7"/>
	</g>
	<g>
		<text transform="matrix(1 0 0 1 64.0062 130.6078)" class="st82 st83">ωRNA</text>
	</g>
	<g>
		<circle cx="86.8" cy="92.9" r="17.5"/>
		<path class="st51" d="M87.7,101.3v-3.4h-6.8v-2.8l7.3-10.6h2.7v10.6h2.1v2.8h-2.1v3.4H87.7z M87.7,95.1v-5.7l-3.8,5.7H87.7z"/>
	</g>
</g>
</svg>
