<?xml version="1.0" encoding="utf-8"?>
<!-- Generator: Adobe Illustrator 27.5.0, SVG Export Plug-In . SVG Version: 6.00 Build 0)  -->
<svg version="1.1" id="Layer_1" xmlns="http://www.w3.org/2000/svg" xmlns:xlink="http://www.w3.org/1999/xlink" x="0px" y="0px"
	 viewBox="0 0 169.7 447.1" style="enable-background:new 0 0 169.7 447.1;" xml:space="preserve">
<style type="text/css">
	.st0{fill:#FFF6E9;}
	.st1{fill:#31CAFD;}
	.st2{fill:#AAB8F1;}
	.st3{fill:#A2B8FF;}
	.st4{fill:#00CEDE;}
	.st5{fill:#FF0A00;}
	.st6{fill:#BEBEBE;}
	.st7{fill:#8F7F1D;}
	.st8{fill:#A17800;}
	.st9{fill:#FE1600;}
	.st10{fill:#C0BCBC;}
	.st11{fill:#CFB7BE;}
	.st12{fill:#BFBBC9;}
	.st13{fill:url(#);}
	.st14{fill:#5857FF;}
	.st15{fill:#D31159;}
	.st16{fill:#FFAF00;}
	.st17{fill:#A09C9A;}
	.st18{fill:#006CDE;}
	.st19{fill:#6A6B7A;}
	.st20{fill:#D6BD0F;}
	.st21{fill:#A699AB;}
	.st22{fill:#0072BF;}
	.st23{fill:#80674E;}
	.st24{fill:#F2B300;}
	.st25{fill:#4DAAB8;}
	.st26{fill:#007B83;}
	.st27{fill:#D02A2A;}
	.st28{fill:#FFA5AF;}
	.st29{fill:#FFF7EA;}
	.st30{fill:#FFF7EB;}
	.st31{fill:#FFF6F5;}
	.st32{fill:#FCFCFC;}
	.st33{fill:#8B61FF;}
	.st34{fill:#007AFE;}
	.st35{fill:#0081DD;}
	.st36{fill:#65838D;}
	.st37{fill:#00FFB7;}
	.st38{fill:#F0DFA8;}
	.st39{fill:#FFD8C5;}
	.st40{fill:#89F0FF;}
	.st41{opacity:0.15;}
	.st42{fill:none;stroke:#FFAF00;stroke-width:2.2565;stroke-miterlimit:10;}
	.st43{fill:none;stroke:#D31159;stroke-width:2.8141;stroke-miterlimit:10;}
	.st44{fill:none;stroke:#5857FF;stroke-width:2.8141;stroke-miterlimit:10;}
	.st45{fill:none;stroke:#D31159;stroke-width:2.8141;stroke-linecap:round;stroke-miterlimit:10;}
	.st46{fill:none;stroke:#5857FF;stroke-width:2.8141;stroke-linecap:round;stroke-miterlimit:10;}
	.st47{fill:none;stroke:#D31159;stroke-width:2.8141;stroke-linecap:round;stroke-linejoin:round;stroke-miterlimit:10;}
	.st48{fill:none;stroke:#5857FF;stroke-width:2.8141;stroke-linecap:round;stroke-linejoin:round;stroke-miterlimit:10;}
	.st49{stroke:#000000;stroke-width:1.4918;stroke-miterlimit:10;}
	.st50{fill:#FFFFFF;}
	.st51{fill:none;stroke:#31CAFD;stroke-width:2.5;stroke-miterlimit:10;}
	.st52{fill:none;stroke:#FFAF00;stroke-width:2.5;stroke-miterlimit:10;}
	.st53{fill:none;stroke:#FF0A00;stroke-width:2.5;stroke-miterlimit:10;}
	.st54{fill:none;stroke:#00FFB7;stroke-width:2.5;stroke-miterlimit:10;}
	.st55{fill:none;stroke:#8B61FF;stroke-width:2.5;stroke-miterlimit:10;}
	.st56{fill:none;stroke:#BEBEBE;stroke-width:2.5;stroke-miterlimit:10;}
	.st57{fill:none;stroke:#FF0A00;stroke-width:4.5;stroke-miterlimit:10;}
	.st58{fill:none;stroke:#BEBEBE;stroke-width:4.5;stroke-miterlimit:10;}
	.st59{fill:none;stroke:#000000;stroke-width:2.5;stroke-miterlimit:10;}
	.st60{fill:#413F40;stroke:#003953;stroke-width:5.431579e-02;stroke-miterlimit:10;}
	.st61{fill:none;stroke:#D31159;stroke-width:2;stroke-miterlimit:10;}
	.st62{fill:none;stroke:#5857FF;stroke-width:2;stroke-miterlimit:10;}
	.st63{fill:none;stroke:#D31159;stroke-width:2;stroke-linecap:round;stroke-miterlimit:10;}
	.st64{fill:none;stroke:#5857FF;stroke-width:2;stroke-linecap:round;stroke-miterlimit:10;}
	.st65{fill:none;stroke:#D31159;stroke-width:2;stroke-linecap:round;stroke-linejoin:round;stroke-miterlimit:10;}
	.st66{fill:none;stroke:#5857FF;stroke-width:2;stroke-linecap:round;stroke-linejoin:round;stroke-miterlimit:10;}
	.st67{opacity:0.4;fill:none;stroke:#FFAF00;stroke-width:1.7161;stroke-miterlimit:10;}
	.st68{fill:#BDDCEB;}
	.st69{opacity:0.5;fill:none;stroke:#FFAF00;stroke-width:2;stroke-miterlimit:10;}
	.st70{fill:none;stroke:url(#);stroke-width:2;stroke-miterlimit:10;}
	.st71{fill:none;stroke:url(#);stroke-width:2;stroke-linecap:round;stroke-miterlimit:10;}
	.st72{fill:none;stroke:url(#);stroke-width:2;stroke-linecap:round;stroke-linejoin:round;stroke-miterlimit:10;}
	.st73{opacity:0.25;}
	.st74{fill:none;stroke:#003953;stroke-width:2;stroke-miterlimit:10;}
	.st75{fill:none;stroke:#003953;stroke-width:2;stroke-linecap:round;stroke-miterlimit:10;}
	.st76{fill:none;stroke:#FFAF00;stroke-width:2.8141;stroke-miterlimit:10;}
	.st77{fill:none;stroke:url(#);stroke-width:2.8141;stroke-miterlimit:10;}
	.st78{fill:none;stroke:url(#);stroke-width:2.8141;stroke-linecap:round;stroke-miterlimit:10;}
	.st79{fill:none;stroke:url(#);stroke-width:2.8141;stroke-linecap:round;stroke-linejoin:round;stroke-miterlimit:10;}
	.st80{fill:none;stroke:#000000;stroke-width:3;stroke-miterlimit:10;}
	.st81{fill:none;}
	.st82{font-family:'Arial-BoldMT';}
	.st83{font-size:15px;}
	.st84{font-size:22.2156px;}
	.st85{fill:#292D39;}
</style>
<g class="st41">
	<path d="M154.6,115.5H15.1c-8.3,0-15.1-6.7-15.1-15.1l0-15.3c0-8.3,6.7-15.1,15.1-15.1h139.6c8.3,0,15.1,6.7,15.1,15.1v15.3
		C169.7,108.8,162.9,115.5,154.6,115.5z"/>
</g>
<g class="st41">
	<path d="M154.6,224H15.1C6.7,224,0,217.3,0,209l0-34c0-8.3,6.7-15.1,15.1-15.1h139.6c8.3,0,15.1,6.7,15.1,15.1v34
		C169.7,217.3,162.9,224,154.6,224z"/>
</g>
<g class="st41">
	<path d="M154.6,310.1H15.1c-8.3,0-15.1-6.7-15.1-15.1l0-34c0-8.3,6.7-15.1,15.1-15.1h139.6c8.3,0,15.1,6.7,15.1,15.1v34
		C169.7,303.4,162.9,310.1,154.6,310.1z"/>
</g>
<g>
	<g>
		<text transform="matrix(1 0 0 1 26.12 273.4552)"><tspan x="0" y="0" class="st82 st83">trans</tspan><tspan x="-15" y="18" class="st82 st83">activity</tspan></text>
	</g>
	<g>
		<text transform="matrix(1 0 0 1 54.4576 98.3327)" class="st82 st83">#</text>
	</g>
	<g>
		<text transform="matrix(1 0 0 1 41.9476 186.6086)"><tspan x="0" y="0" class="st82 st83">cis</tspan><tspan x="-30.8" y="18" class="st82 st83">activity</tspan></text>
	</g>
</g>
<path class="st68" d="M154.6,45.4H15.1C6.7,45.4,0,38.6,0,30.3l0-15.3C0,6.7,6.7,0,15.1,0l139.6,0c8.3,0,15.1,6.7,15.1,15.1v15.3
	C169.7,38.6,162.9,45.4,154.6,45.4z"/>
<g>
	<text transform="matrix(1 0 0 1 22.7245 28.2937)" class="st82 st83">Nuclease Activity</text>
</g>
<g>
	<path class="st0" d="M157.7,386.9H83.2c-6.6,0-12-5.4-12-12V67.4c0-6.6,5.4-12,12-12h74.5c6.6,0,12,5.4,12,12v307.6
		C169.7,381.6,164.3,386.9,157.7,386.9z"/>
	<g>
		<text transform="matrix(1 0 0 1 114.2602 283.4552)" class="st82 st84">x</text>
	</g>
	<g>
		<g>
			<path class="st69" d="M147.1,189.9c-2.5,0-4.5-2-4.5-4.5v-12.1l1.7-5.8c0.5-1.8,0.3-3.8-0.8-5.3c-1-1.4-2.6-2.3-4.3-2.3h0
				c-1.7,0-3.3,0.9-4.3,2.3c-1.1,1.5-1.3,3.5-0.8,5.3l1.7,5.8v12.1c0,2.5-2,4.5-4.5,4.5h-30.6"/>
			<g class="st41">
				<path d="M136.7,155.1c-7.8,0-14.2,5.4-15.9,12.7c-6.2,0.6-11,5.8-11,12.1c0,6.7,5.5,12.2,12.2,12.2c4.1,0,7.8-2.1,10-5.2
					c1.5,0.4,3.1,0.7,4.7,0.7c9,0,16.3-7.3,16.3-16.3C153,162.4,145.7,155.1,136.7,155.1z"/>
			</g>
		</g>
		<path class="st61" d="M81,199.9h17.5l2.6-5l0,0h38.7l0,0l2.6,5h17.5"/>
		<polyline class="st62" points="159.8,203.9 142.4,203.9 139.8,208.9 139.8,208.9 101.1,208.9 101.1,208.9 98.5,203.9 81,203.9 		
			"/>
		<polyline class="st63" points="81,199.9 98.5,199.9 101.1,194.9 		"/>
		<polyline class="st63" points="139.8,194.9 142.4,199.9 159.8,199.9 		"/>
		<polyline class="st64" points="159.8,203.9 142.4,203.9 139.8,208.9 		"/>
		<polyline class="st64" points="101.1,208.9 98.5,203.9 81,203.9 		"/>
	</g>
	<g>
		<circle cx="120.4" cy="92.9" r="17.5"/>
		<path class="st50" d="M114.8,96.7l3.2-0.3c0.1,0.7,0.4,1.3,0.8,1.7c0.4,0.4,1,0.6,1.6,0.6c0.7,0,1.2-0.3,1.7-0.8
			c0.5-0.5,0.7-1.4,0.7-2.5c0-1-0.2-1.8-0.7-2.3c-0.5-0.5-1.1-0.8-1.8-0.8c-0.9,0-1.7,0.4-2.5,1.2l-2.6-0.4l1.6-8.7h8.5v3h-6
			l-0.5,2.8c0.7-0.4,1.4-0.5,2.2-0.5c1.4,0,2.6,0.5,3.6,1.6c1,1,1.5,2.4,1.5,4c0,1.4-0.4,2.6-1.2,3.7c-1.1,1.5-2.6,2.2-4.5,2.2
			c-1.5,0-2.8-0.4-3.8-1.2C115.6,99.2,115,98.1,114.8,96.7z"/>
	</g>
</g>
</svg>
