<?xml version="1.0" encoding="utf-8"?>
<!-- Generator: Adobe Illustrator 25.2.0, SVG Export Plug-In . SVG Version: 6.00 Build 0)  -->
<svg version="1.1" id="Layer_1" xmlns="http://www.w3.org/2000/svg" xmlns:xlink="http://www.w3.org/1999/xlink" x="0px" y="0px"
	 viewBox="0 0 290.7 447.1" style="enable-background:new 0 0 290.7 447.1;" xml:space="preserve">
<style type="text/css">
	.st0{opacity:0.15;}
	.st1{font-family:'Arial-BoldMT';}
	.st2{font-size:15px;}
	.st3{fill:#BDDCEB;}
	.st4{fill:#FFF6E9;}
	.st5{fill:none;stroke:#31CAFD;stroke-width:2.5;stroke-miterlimit:10;}
	.st6{fill:none;stroke:#FFAF00;stroke-width:2.5;stroke-miterlimit:10;}
	.st7{fill:none;stroke:#FF0A00;stroke-width:2.5;stroke-miterlimit:10;}
	.st8{fill:none;stroke:#00FFB7;stroke-width:2.5;stroke-miterlimit:10;}
	.st9{fill:none;stroke:#8B61FF;stroke-width:2.5;stroke-miterlimit:10;}
	.st10{fill:none;stroke:#BEBEBE;stroke-width:2.5;stroke-miterlimit:10;}
	.st11{fill:none;stroke:#000000;stroke-width:2.5;stroke-miterlimit:10;}
	.st12{fill:#FFFFFF;}
</style>
<g>
	<g class="st0">
		<path d="M275.7,115.5H126.1c-8.3,0-15.1-6.7-15.1-15.1V85.2c0-8.3,6.7-15.1,15.1-15.1h149.6c8.3,0,15.1,6.7,15.1,15.1v15.3
			C290.7,108.8,284,115.5,275.7,115.5z"/>
	</g>
	<g class="st0">
		<path d="M275.7,262.9H126.1c-8.3,0-15.1-6.7-15.1-15.1v-85.7c0-8.3,6.7-15.1,15.1-15.1h149.6c8.3,0,15.1,6.7,15.1,15.1v85.7
			C290.7,256.2,284,262.9,275.7,262.9z"/>
	</g>
	<g class="st0">
		<path d="M275.7,364.8H126.1c-8.3,0-15.1-6.7-15.1-15.1v-62.2c0-8.3,6.7-15.1,15.1-15.1h149.6c8.3,0,15.1,6.7,15.1,15.1v62.2
			C290.7,358.1,284,364.8,275.7,364.8z"/>
	</g>
	<g class="st0">
		<path d="M275.7,447.1H126.1c-8.3,0-15.1-6.7-15.1-15.1v-42.6c0-8.3,6.7-15.1,15.1-15.1h149.6c8.3,0,15.1,6.7,15.1,15.1V432
			C290.7,440.4,284,447.1,275.7,447.1z"/>
	</g>
	<g>
		<text transform="matrix(1 0 0 1 183.6548 193.4207)" class="st1 st2">Native</text>
		<text transform="matrix(1 0 0 1 183.9548 211.4207)" class="st1 st2">CRISPR</text>
		<text transform="matrix(1 0 0 1 183.6548 229.4207)" class="st1 st2">Array</text>
	</g>
	<g>
		<text transform="matrix(1 0 0 1 183.6546 296.7191)" class="st1 st2">Minimal,</text>
		<text transform="matrix(1 0 0 1 183.6546 314.7191)" class="st1 st2">Synthetic </text>
		<text transform="matrix(1 0 0 1 183.6546 332.7191)" class="st1 st2">Multiplexing</text>
		<text transform="matrix(1 0 0 1 183.6546 350.7191)" class="st1 st2">Design</text>
	</g>
	<g>
		<text transform="matrix(1 0 0 1 183.6545 398.402)" class="st1 st2">sgRNA </text>
		<text transform="matrix(1 0 0 1 183.6545 416.402)" class="st1 st2">Multiplexing</text>
		<text transform="matrix(1 0 0 1 183.6545 434.402)" class="st1 st2">Design</text>
	</g>
	<g>
		<text transform="matrix(1 0 0 1 183.6546 98.3326)" class="st1 st2">#</text>
	</g>
	<path class="st3" d="M275.7,45.4H15.1C6.7,45.4,0,38.6,0,30.3V15C0,6.7,6.7,0,15.1,0h260.6c8.3,0,15.1,6.7,15.1,15.1v15.3
		C290.7,38.6,284,45.4,275.7,45.4z"/>
	<g>
		<text transform="matrix(1 0 0 1 25.7787 28.2937)" class="st1 st2">gRNA Design and Multiplexability</text>
	</g>
	<g>
		<path class="st4" d="M158.6,447.1H15.1C6.7,447.1,0,440.4,0,432V70.4c0-8.3,6.7-15.1,15.1-15.1h143.6c8.3,0,15.1,6.7,15.1,15.1
			V432C173.7,440.4,166.9,447.1,158.6,447.1z"/>
		<g>
			<g>
				<g>
					<line class="st5" x1="158.9" y1="334.8" x2="139.6" y2="334.8"/>
				</g>
				<path class="st6" d="M135.8,331.1c0,2,1.7,3.7,3.7,3.7"/>
				<line class="st6" x1="135.8" y1="331.1" x2="135.8" y2="318.2"/>
				<polyline class="st6" points="135.8,305.2 135.8,318.2 135.8,318.2 135.8,331.1 				"/>
				<path class="st7" d="M113.7,334.8c2,0,3.7-1.7,3.7-3.7v-11.3c0,0-1.9-4.3-1.9-6.3c0-3.1,1.6-5.5,4.7-5.5s4.7,2.5,4.7,5.5
					c0,2-1.9,6.3-1.9,6.3v11.3c0,2,1.7,3.7,3.7,3.7l0,0c2,0,3.7-1.7,3.7-3.7v-12.9l0,0v-12.9"/>
			</g>
			<g>
				<g>
					<line class="st8" x1="109.5" y1="334.8" x2="90.1" y2="334.8"/>
				</g>
				<path class="st6" d="M86.3,331.1c0,2,1.7,3.7,3.7,3.7"/>
				<line class="st6" x1="86.3" y1="331.1" x2="86.3" y2="318.2"/>
				<polyline class="st6" points="86.3,305.2 86.3,318.2 86.3,318.2 86.3,331.1 				"/>
				<path class="st7" d="M64.2,334.8c2,0,3.7-1.7,3.7-3.7v-11.3c0,0-1.9-4.3-1.9-6.3c0-3.1,1.6-5.5,4.7-5.5s4.7,2.5,4.7,5.5
					c0,2-1.9,6.3-1.9,6.3v11.3c0,2,1.7,3.7,3.7,3.7l0,0c2,0,3.7-1.7,3.7-3.7v-12.9l0,0v-12.9"/>
			</g>
			<g>
				<g>
					<line class="st9" x1="60" y1="334.8" x2="40.6" y2="334.8"/>
				</g>
				<path class="st6" d="M36.9,331.1c0,2,1.7,3.7,3.7,3.7"/>
				<line class="st6" x1="36.9" y1="331.1" x2="36.9" y2="318.2"/>
				<polyline class="st6" points="36.9,305.2 36.9,318.2 36.9,318.2 36.9,331.1 				"/>
				<path class="st7" d="M14.7,334.8c2,0,3.7-1.7,3.7-3.7v-11.3c0,0-1.9-4.3-1.9-6.3c0-3.1,1.6-5.5,4.7-5.5s4.7,2.5,4.7,5.5
					c0,2-1.9,6.3-1.9,6.3v11.3c0,2,1.7,3.7,3.7,3.7l0,0c2,0,3.7-1.7,3.7-3.7v-12.9l0,0v-12.9"/>
			</g>
			<line class="st6" x1="36.9" y1="305.2" x2="36.9" y2="318.2"/>
			<line class="st7" x1="31.4" y1="318.2" x2="31.4" y2="305.2"/>
			<path class="st10" d="M36.9,305.2c0-1.5-1.2-2.7-2.7-2.7l0,0c-1.5,0-2.7,1.2-2.7,2.7"/>
			<path class="st10" d="M86.3,305.2c0-1.5-1.2-2.7-2.7-2.7l0,0c-1.5,0-2.7,1.2-2.7,2.7"/>
			<path class="st10" d="M135.8,305.2c0-1.5-1.2-2.7-2.7-2.7l0,0c-1.5,0-2.7,1.2-2.7,2.7"/>
		</g>
		<g>
			<g>
				<g>
					<line class="st5" x1="158.9" y1="427.1" x2="139.6" y2="427.1"/>
				</g>
				<path class="st6" d="M135.8,423.4c0,2,1.7,3.7,3.7,3.7"/>
				<line class="st6" x1="135.8" y1="423.4" x2="135.8" y2="410.5"/>
				<polyline class="st6" points="135.8,397.5 135.8,410.5 135.8,410.5 135.8,423.4 				"/>
				<path class="st7" d="M113.7,427.1c2,0,3.7-1.7,3.7-3.7v-11.3c0,0-1.9-4.3-1.9-6.3c0-3.1,1.6-5.5,4.7-5.5s4.7,2.5,4.7,5.5
					c0,2-1.9,6.3-1.9,6.3v11.3c0,2,1.7,3.7,3.7,3.7l0,0c2,0,3.7-1.7,3.7-3.7v-12.9l0,0v-12.9"/>
			</g>
			<g>
				<g>
					<line class="st8" x1="109.5" y1="427.1" x2="90.1" y2="427.1"/>
				</g>
				<path class="st6" d="M86.3,423.4c0,2,1.7,3.7,3.7,3.7"/>
				<line class="st6" x1="86.3" y1="423.4" x2="86.3" y2="410.5"/>
				<polyline class="st6" points="86.3,397.5 86.3,410.5 86.3,410.5 86.3,423.4 				"/>
				<path class="st7" d="M64.2,427.1c2,0,3.7-1.7,3.7-3.7v-11.3c0,0-1.9-4.3-1.9-6.3c0-3.1,1.6-5.5,4.7-5.5s4.7,2.5,4.7,5.5
					c0,2-1.9,6.3-1.9,6.3v11.3c0,2,1.7,3.7,3.7,3.7l0,0c2,0,3.7-1.7,3.7-3.7v-12.9l0,0v-12.9"/>
			</g>
			<g>
				<line class="st9" x1="60" y1="427.1" x2="40.6" y2="427.1"/>
			</g>
			<path class="st6" d="M36.9,423.4c0,2,1.7,3.7,3.7,3.7"/>
			<line class="st6" x1="36.9" y1="423.4" x2="36.9" y2="410.5"/>
			<polyline class="st6" points="36.9,397.5 36.9,410.5 36.9,410.5 36.9,423.4 			"/>
			<path class="st7" d="M14.7,427.1c2,0,3.7-1.7,3.7-3.7v-11.3c0,0-1.9-4.3-1.9-6.3c0-3.1,1.6-5.5,4.7-5.5s4.7,2.5,4.7,5.5
				c0,2-1.9,6.3-1.9,6.3v11.3c0,2,1.7,3.7,3.7,3.7l0,0c2,0,3.7-1.7,3.7-3.7v-12.9l0,0v-12.9"/>
			<line class="st6" x1="36.9" y1="397.5" x2="36.9" y2="410.5"/>
			<path class="st10" d="M36.9,397.5c0-1.5-1.2-2.7-2.7-2.7l0,0c-1.5,0-2.7,1.2-2.7,2.7"/>
			<path class="st10" d="M86.3,397.5c0-1.5-1.2-2.7-2.7-2.7l0,0c-1.5,0-2.7,1.2-2.7,2.7"/>
			<path class="st10" d="M135.8,397.5c0-1.5-1.2-2.7-2.7-2.7l0,0c-1.5,0-2.7,1.2-2.7,2.7"/>
		</g>
		<g>
			<g>
				<g>
					<g>
						<line class="st11" x1="83.5" y1="190.6" x2="83.5" y2="208.2"/>
						<g>
							<polygon points="83.5,217 78.4,204.6 83.5,207.6 88.6,204.6 							"/>
						</g>
					</g>
				</g>
				<text transform="matrix(1 0 0 1 92.8286 208.7096)" class="st1 st2">+factors</text>
			</g>
			<g>
				<g>
					<g>
						<line class="st5" x1="160.2" y1="252.5" x2="140.8" y2="252.5"/>
					</g>
					<path class="st6" d="M137.1,248.8c0,2,1.7,3.7,3.7,3.7"/>
					<line class="st6" x1="137.1" y1="248.8" x2="137.1" y2="235.8"/>
					<polyline class="st6" points="137.1,222.9 137.1,235.8 137.1,235.8 137.1,248.8 					"/>
					<path class="st7" d="M114.9,252.5c2,0,3.7-1.7,3.7-3.7v-11.3c0,0-1.9-4.3-1.9-6.3c0-3.1,1.6-5.5,4.7-5.5s4.7,2.5,4.7,5.5
						c0,2-1.9,6.3-1.9,6.3v11.3c0,2,1.7,3.7,3.7,3.7l0,0c2,0,3.7-1.7,3.7-3.7v-12.9l0,0V223"/>
				</g>
				<g>
					<g>
						<line class="st8" x1="110.7" y1="252.5" x2="91.4" y2="252.5"/>
					</g>
					<path class="st6" d="M87.6,248.8c0,2,1.7,3.7,3.7,3.7"/>
					<line class="st6" x1="87.6" y1="248.8" x2="87.6" y2="235.8"/>
					<polyline class="st6" points="87.6,222.9 87.6,235.8 87.6,235.8 87.6,248.8 					"/>
					<path class="st7" d="M65.5,252.5c2,0,3.7-1.7,3.7-3.7v-11.3c0,0-1.9-4.3-1.9-6.3c0-3.1,1.6-5.5,4.7-5.5s4.7,2.5,4.7,5.5
						c0,2-1.9,6.3-1.9,6.3v11.3c0,2,1.7,3.7,3.7,3.7l0,0c2,0,3.7-1.7,3.7-3.7v-12.9l0,0V223"/>
				</g>
				<g>
					<g>
						<line class="st9" x1="61.3" y1="252.5" x2="41.9" y2="252.5"/>
					</g>
					<path class="st6" d="M38.1,248.8c0,2,1.7,3.7,3.7,3.7"/>
					<line class="st6" x1="38.1" y1="248.8" x2="38.1" y2="235.8"/>
					<polyline class="st6" points="38.1,222.9 38.1,235.8 38.1,235.8 38.1,248.8 					"/>
					<path class="st7" d="M16,252.5c2,0,3.7-1.7,3.7-3.7v-11.3c0,0-1.9-4.3-1.9-6.3c0-3.1,1.6-5.5,4.7-5.5s4.7,2.5,4.7,5.5
						c0,2-1.9,6.3-1.9,6.3v11.3c0,2,1.7,3.7,3.7,3.7l0,0c2,0,3.7-1.7,3.7-3.7v-12.9l0,0V223"/>
				</g>
			</g>
			<g>
				<g>
					<g>
						<path class="st7" d="M26.4,183.9c2,0,3.7-1.7,3.7-3.7V169c0,0-1.9-4.3-1.9-6.3c0-3.1,1.6-5.5,4.7-5.5s4.7,2.5,4.7,5.5
							c0,2-1.9,6.3-1.9,6.3v11.3c0,2,1.7,3.7,3.7,3.7l0,0"/>
					</g>
					<g>
						<path class="st7" d="M13.5,183.9c2,0,3.7-1.7,3.7-3.7V169c0,0-1.9-4.3-1.9-6.3c0-3.1,1.6-5.5,4.7-5.5s4.7,2.5,4.7,5.5
							c0,2-1.9,6.3-1.9,6.3v11.3c0,2,1.7,3.7,3.7,3.7l0,0"/>
					</g>
					<g>
						<g>
							<path class="st6" d="M144.7,183.9c2,0,3.7-1.7,3.7-3.7V169c0,0-1.9-4.3-1.9-6.3c0-3.1,1.6-5.5,4.7-5.5c3.1,0,4.7,2.5,4.7,5.5
								c0,2-1.9,6.3-1.9,6.3v11.3c0,2,1.7,3.7,3.7,3.7l0,0"/>
						</g>
						<g>
							<g>
								<line class="st9" x1="80" y1="183.9" x2="60.6" y2="183.9"/>
							</g>
							<path class="st6" d="M47.7,183.9c2,0,3.7-1.7,3.7-3.7V169c0,0-1.9-4.3-1.9-6.3c0-3.1,1.6-5.5,4.7-5.5c3.1,0,4.7,2.5,4.7,5.5
								c0,2-1.9,6.3-1.9,6.3v11.3c0,2,1.7,3.7,3.7,3.7l0,0"/>
						</g>
						<g>
							<g>
								<line class="st5" x1="144.7" y1="183.9" x2="125.3" y2="183.9"/>
							</g>
							<path class="st6" d="M112.4,183.9c2,0,3.7-1.7,3.7-3.7V169c0,0-1.9-4.3-1.9-6.3c0-3.1,1.6-5.5,4.7-5.5s4.7,2.5,4.7,5.5
								c0,2-1.9,6.3-1.9,6.3v11.3c0,2,1.7,3.7,3.7,3.7l0,0"/>
						</g>
						<g>
							<g>
								<line class="st8" x1="112.4" y1="183.9" x2="93" y2="183.9"/>
							</g>
							<path class="st6" d="M80,183.9c2,0,3.7-1.7,3.7-3.7V169c0,0-1.9-4.3-1.9-6.3c0-3.1,1.6-5.5,4.7-5.5s4.7,2.5,4.7,5.5
								c0,2-1.9,6.3-1.9,6.3v11.3c0,2,1.7,3.7,3.7,3.7l0,0"/>
						</g>
					</g>
				</g>
				<path class="st11" d="M47.7,183.9c2,0,3.7-1.7,3.7-3.7v-6.6"/>
				<path class="st11" d="M80,183.9c2,0,3.7-1.7,3.7-3.7v-6.6"/>
				<path class="st11" d="M112.4,183.9c2,0,3.7-1.7,3.7-3.7v-6.6"/>
			</g>
		</g>
		<g>
			<text transform="matrix(1 0 0 1 13.0536 130.3704)" class="st1 st2">crRNA+tracr+factors</text>
		</g>
		<g>
			<circle cx="86.8" cy="92.9" r="17.5"/>
			<path class="st12" d="M89.6,101.3h-3.2V89.2c-1.2,1.1-2.6,1.9-4.1,2.4v-2.9c0.8-0.3,1.7-0.8,2.7-1.6c1-0.8,1.7-1.7,2-2.7h2.6
				V101.3z"/>
		</g>
	</g>
</g>
</svg>
