<?xml version="1.0" encoding="utf-8"?>
<!-- Generator: Adobe Illustrator 25.2.0, SVG Export Plug-In . SVG Version: 6.00 Build 0)  -->
<svg version="1.1" id="Layer_1" xmlns="http://www.w3.org/2000/svg" xmlns:xlink="http://www.w3.org/1999/xlink" x="0px" y="0px"
	 viewBox="0 0 140.7 447.1" style="enable-background:new 0 0 140.7 447.1;" xml:space="preserve">
<style type="text/css">
	.st0{fill:#FFF6E9;}
	.st1{font-family:'Arial-BoldMT';}
	.st2{font-size:15px;}
	.st3{font-size:10px;}
	.st4{fill:none;stroke:#FFAF00;stroke-width:2.8141;stroke-miterlimit:10;}
	.st5{opacity:0.15;}
	.st6{fill:none;stroke:#D31159;stroke-width:2.8141;stroke-miterlimit:10;}
	.st7{fill:none;stroke:#5857FF;stroke-width:2.8141;stroke-miterlimit:10;}
	.st8{fill:none;stroke:#D31159;stroke-width:2.8141;stroke-linecap:round;stroke-miterlimit:10;}
	.st9{fill:none;stroke:#5857FF;stroke-width:2.8141;stroke-linecap:round;stroke-miterlimit:10;}
	.st10{fill:none;stroke:#D31159;stroke-width:2.8141;stroke-linecap:round;stroke-linejoin:round;stroke-miterlimit:10;}
	.st11{fill:none;stroke:#5857FF;stroke-width:2.8141;stroke-linecap:round;stroke-linejoin:round;stroke-miterlimit:10;}
	.st12{stroke:#000000;stroke-width:1.4918;stroke-miterlimit:10;}
	.st13{fill:#FFFFFF;}
	.st14{fill:#BDDCEB;}
</style>
<g>
	<path class="st0" d="M128.7,260.5H12c-6.6,0-12-5.4-12-12V67.4c0-6.6,5.4-12,12-12h116.8c6.6,0,12,5.4,12,12v181.2
		C140.7,255.2,135.4,260.5,128.7,260.5z"/>
	<g>
		<text transform="matrix(1 0 0 1 40.1931 130.3698)" class="st1 st2">PAM (3′)</text>
	</g>
	<g>
		<g>
			<text transform="matrix(1 0 0 1 26.1838 216.1549)" class="st1 st3">3′</text>
			<text transform="matrix(1 0 0 1 99.1614 216.1549)" class="st1 st3">5′</text>
			<path class="st4" d="M97,212.8H56.8c-3.3,0-5.9-2.6-5.9-5.9l0-15.9l2.2-7.6c0.7-2.3,0.4-4.9-1-6.9c-1.4-1.8-3.4-3-5.7-3l0,0
				c-2.3,0-4.4,1.2-5.7,3c-1.4,2-1.7,4.6-1,6.9l2.2,7.6l0,15.9c0,3.3-2.6,5.9-5.9,5.9"/>
			<g class="st5">
				<path d="M28.3,188.5c0,11.8,9.6,21.4,21.4,21.4c2.2,0,4.2-0.3,6.2-0.9c2.9,4.1,7.7,6.8,13.1,6.8c8.8,0,16-7.1,16-16
					c0-8.4-6.4-15.2-14.5-16c-2.2-9.6-10.7-16.7-20.9-16.7C37.8,167.1,28.2,176.7,28.3,188.5z"/>
			</g>
		</g>
		<polyline class="st6" points="14.9,227.4 39.5,227.4 43.1,220.3 43.1,220.3 97.6,220.3 97.6,220.3 101.2,227.4 125.8,227.4 		"/>
		<polyline class="st7" points="125.8,233 101.2,233 97.6,240 97.6,240 43.1,240 43.1,240 39.5,233 14.9,233 		"/>
		<polyline class="st8" points="97.6,220.3 101.2,227.4 125.8,227.4 		"/>
		<polyline class="st9" points="125.8,233 101.2,233 97.6,240 		"/>
		<polyline class="st10" points="14.9,227.4 39.5,227.4 43.1,220.3 		"/>
		<polyline class="st11" points="43.1,240 39.5,233 14.9,233 		"/>
		<polygon class="st12" points="46.3,238.4 49.7,238.9 47.3,241.3 47.8,244.7 44.8,243.1 41.7,244.7 42.3,241.3 39.8,238.9 
			43.2,238.4 44.8,235.3 		"/>
	</g>
	<g>
		<circle cx="70.4" cy="92.9" r="17.5"/>
		<path class="st13" d="M73.2,101.3H70V89.2c-1.2,1.1-2.6,1.9-4.1,2.4v-2.9c0.8-0.3,1.7-0.8,2.7-1.6c1-0.8,1.7-1.7,2-2.7h2.6V101.3z
			"/>
	</g>
</g>
<g>
	<path class="st14" d="M125.7,45.4H15.1C6.7,45.4,0,38.6,0,30.3V15C0,6.7,6.7,0,15.1,0h110.6c8.3,0,15.1,6.7,15.1,15.1v15.3
		C140.7,38.6,134,45.4,125.7,45.4z"/>
	<g>
		<text transform="matrix(1 0 0 1 6.2058 28.2935)" class="st1 st2">Targeting Context</text>
	</g>
</g>
<text transform="matrix(1 0 0 1 4.7105 228.4325)" class="st1 st3">5′</text>
<text transform="matrix(1 0 0 1 4.7105 239.4413)" class="st1 st3">3′</text>
<text transform="matrix(1 0 0 1 128.8097 228.4325)" class="st1 st3">3′</text>
<text transform="matrix(1 0 0 1 128.8097 239.4413)" class="st1 st3">5′</text>
</svg>
