<?xml version="1.0" encoding="utf-8"?>
<!-- Generator: Adobe Illustrator 27.5.0, SVG Export Plug-In . SVG Version: 6.00 Build 0)  -->
<svg version="1.1" id="Layer_1" xmlns="http://www.w3.org/2000/svg" xmlns:xlink="http://www.w3.org/1999/xlink" x="0px" y="0px"
	 viewBox="0 0 1012 231.9" style="enable-background:new 0 0 1012 231.9;" xml:space="preserve">
<style type="text/css">
	.st0{fill:none;}
	.st1{fill:#40AFA5;}
	.st2{opacity:0.15;}
	.st3{fill:#31CAFD;}
	.st4{fill:#AAB8F1;}
	.st5{fill:#A2B8FF;}
	.st6{fill:#00CEDE;}
	.st7{fill:#FF0A00;}
	.st8{fill:#BEBEBE;}
	.st9{fill:#8F7F1D;}
	.st10{fill:#A17800;}
	.st11{fill:#FE1600;}
	.st12{fill:#C0BCBC;}
	.st13{fill:#CFB7BE;}
	.st14{fill:#BFBBC9;}
	.st15{fill:url(#SVGID_1_);}
	.st16{fill:#5857FF;}
	.st17{fill:#D31159;}
	.st18{fill:#FFAF00;}
	.st19{fill:#A09C9A;}
	.st20{fill:#006CDE;}
	.st21{fill:#6A6B7A;}
	.st22{fill:#D6BD0F;}
	.st23{fill:#A699AB;}
	.st24{fill:#0072BF;}
	.st25{fill:#80674E;}
	.st26{fill:#F2B300;}
	.st27{fill:#4DAAB8;}
	.st28{fill:#007B83;}
	.st29{fill:#D02A2A;}
	.st30{fill:#FFA5AF;}
	.st31{fill:#FFF7EA;}
	.st32{fill:#FFF7EB;}
	.st33{fill:#FFF6F5;}
	.st34{fill:#FCFCFC;}
	.st35{fill:#8B61FF;}
	.st36{fill:#007AFE;}
	.st37{fill:#0081DD;}
	.st38{fill:#65838D;}
	.st39{fill:#00FFB7;}
	.st40{fill:#F0DFA8;}
	.st41{fill:#FFD8C5;}
	.st42{fill:#89F0FF;}
	.st43{fill:#FFF6E9;}
	.st44{fill:none;stroke:#FFAF00;stroke-width:2.8141;stroke-miterlimit:10;}
	.st45{fill:none;stroke:#D31159;stroke-width:2.8141;stroke-miterlimit:10;}
	.st46{fill:none;stroke:#5857FF;stroke-width:2.8141;stroke-miterlimit:10;}
	.st47{fill:none;stroke:#D31159;stroke-width:2.8141;stroke-linecap:round;stroke-miterlimit:10;}
	.st48{fill:none;stroke:#5857FF;stroke-width:2.8141;stroke-linecap:round;stroke-miterlimit:10;}
	.st49{fill:none;stroke:#D31159;stroke-width:2.8141;stroke-linecap:round;stroke-linejoin:round;stroke-miterlimit:10;}
	.st50{fill:none;stroke:#5857FF;stroke-width:2.8141;stroke-linecap:round;stroke-linejoin:round;stroke-miterlimit:10;}
	.st51{stroke:#000000;stroke-width:1.4918;stroke-miterlimit:10;}
	.st52{fill:#FFFFFF;}
	.st53{fill:#BDDCEB;}
	.st54{fill:none;stroke:#FFAF00;stroke-width:2.2565;stroke-miterlimit:10;}
	.st55{fill:none;stroke:#31CAFD;stroke-width:2.5;stroke-miterlimit:10;}
	.st56{fill:none;stroke:#FFAF00;stroke-width:2.5;stroke-miterlimit:10;}
	.st57{fill:none;stroke:#FF0A00;stroke-width:2.5;stroke-miterlimit:10;}
	.st58{fill:none;stroke:#00FFB7;stroke-width:2.5;stroke-miterlimit:10;}
	.st59{fill:none;stroke:#8B61FF;stroke-width:2.5;stroke-miterlimit:10;}
	.st60{fill:none;stroke:#BEBEBE;stroke-width:2.5;stroke-miterlimit:10;}
	.st61{fill:none;stroke:#FF0A00;stroke-width:4.5;stroke-miterlimit:10;}
	.st62{fill:none;stroke:#BEBEBE;stroke-width:4.5;stroke-miterlimit:10;}
	.st63{fill:none;stroke:#000000;stroke-width:2.5;stroke-miterlimit:10;}
	.st64{fill:#413F40;stroke:#003953;stroke-width:5.431579e-02;stroke-miterlimit:10;}
	.st65{fill:none;stroke:#D31159;stroke-width:2;stroke-miterlimit:10;}
	.st66{fill:none;stroke:#5857FF;stroke-width:2;stroke-miterlimit:10;}
	.st67{fill:none;stroke:#D31159;stroke-width:2;stroke-linecap:round;stroke-miterlimit:10;}
	.st68{fill:none;stroke:#5857FF;stroke-width:2;stroke-linecap:round;stroke-miterlimit:10;}
	.st69{fill:none;stroke:#D31159;stroke-width:2;stroke-linecap:round;stroke-linejoin:round;stroke-miterlimit:10;}
	.st70{fill:none;stroke:#5857FF;stroke-width:2;stroke-linecap:round;stroke-linejoin:round;stroke-miterlimit:10;}
	.st71{opacity:0.4;fill:none;stroke:#FFAF00;stroke-width:1.7161;stroke-miterlimit:10;}
	.st72{opacity:0.5;fill:none;stroke:#FFAF00;stroke-width:2;stroke-miterlimit:10;}
	.st73{fill:none;stroke:url(#SVGID_00000078741254314248015170000011127606991124672651_);stroke-width:2;stroke-miterlimit:10;}
	.st74{fill:none;stroke:url(#SVGID_00000048466834129155772790000010388440828080629636_);stroke-width:2;stroke-miterlimit:10;}
	
		.st75{fill:none;stroke:url(#SVGID_00000060005992473344891580000011857239630536186540_);stroke-width:2;stroke-linecap:round;stroke-miterlimit:10;}
	
		.st76{fill:none;stroke:url(#SVGID_00000110472592949560235310000013529545111970932129_);stroke-width:2;stroke-linecap:round;stroke-linejoin:round;stroke-miterlimit:10;}
	.st77{fill:none;stroke:url(#SVGID_00000091734895209129832640000012321874126106617761_);stroke-width:2;stroke-miterlimit:10;}
	.st78{fill:none;stroke:url(#SVGID_00000055688425339865610470000003126962365124451244_);stroke-width:2;stroke-miterlimit:10;}
	
		.st79{fill:none;stroke:url(#SVGID_00000023250422443300329090000014169181188199234748_);stroke-width:2;stroke-linecap:round;stroke-miterlimit:10;}
	
		.st80{fill:none;stroke:url(#SVGID_00000088102901303785864660000007160364629863988618_);stroke-width:2;stroke-linecap:round;stroke-linejoin:round;stroke-miterlimit:10;}
	.st81{fill:none;stroke:url(#SVGID_00000116917508872929311390000017473224955461267361_);stroke-width:2;stroke-miterlimit:10;}
	.st82{fill:none;stroke:url(#SVGID_00000057118878913370246330000016439256013299512240_);stroke-width:2;stroke-miterlimit:10;}
	
		.st83{fill:none;stroke:url(#SVGID_00000055675313252405419260000003878459608774765755_);stroke-width:2;stroke-linecap:round;stroke-miterlimit:10;}
	
		.st84{fill:none;stroke:url(#SVGID_00000010293907191750159780000014136484323084519810_);stroke-width:2;stroke-linecap:round;stroke-linejoin:round;stroke-miterlimit:10;}
	.st85{fill:none;stroke:url(#SVGID_00000068643176272432314540000017407446698085743015_);stroke-width:2;stroke-miterlimit:10;}
	.st86{fill:none;stroke:url(#SVGID_00000025426604048740507520000001046871853152401317_);stroke-width:2;stroke-miterlimit:10;}
	
		.st87{fill:none;stroke:url(#SVGID_00000122708227012367583860000002798850596604694434_);stroke-width:2;stroke-linecap:round;stroke-miterlimit:10;}
	
		.st88{fill:none;stroke:url(#SVGID_00000040557274226868405350000003284364408179649983_);stroke-width:2;stroke-linecap:round;stroke-linejoin:round;stroke-miterlimit:10;}
	.st89{opacity:0.25;}
	.st90{fill:none;stroke:#003953;stroke-width:2;stroke-miterlimit:10;}
	.st91{fill:none;stroke:#003953;stroke-width:2;stroke-linecap:round;stroke-miterlimit:10;}
	.st92{fill:none;stroke:url(#SVGID_00000028322232522256011580000006520791571946675328_);stroke-width:2;stroke-miterlimit:10;}
	.st93{fill:none;stroke:url(#SVGID_00000016776356926100533740000013411774869865089664_);stroke-width:2;stroke-miterlimit:10;}
	
		.st94{fill:none;stroke:url(#SVGID_00000038399369636430557650000016177531347800438428_);stroke-width:2;stroke-linecap:round;stroke-miterlimit:10;}
	
		.st95{fill:none;stroke:url(#SVGID_00000013167651605875343480000005850969803694855816_);stroke-width:2;stroke-linecap:round;stroke-miterlimit:10;}
	.st96{fill:none;stroke:url(#SVGID_00000142175807983423780840000003667776619626822588_);stroke-width:2;stroke-miterlimit:10;}
	.st97{fill:none;stroke:url(#SVGID_00000009586510451063309310000015517220996287161509_);stroke-width:2;stroke-miterlimit:10;}
	
		.st98{fill:none;stroke:url(#SVGID_00000107590983147736306360000004751296482278941854_);stroke-width:2;stroke-linecap:round;stroke-miterlimit:10;}
	
		.st99{fill:none;stroke:url(#SVGID_00000025428538277944608120000008768773966528738967_);stroke-width:2;stroke-linecap:round;stroke-linejoin:round;stroke-miterlimit:10;}
	.st100{fill:none;stroke:url(#SVGID_00000153683207742858227150000013971521763350760854_);stroke-width:2;stroke-miterlimit:10;}
	.st101{fill:none;stroke:url(#SVGID_00000036952578902905220600000016378790967029746834_);stroke-width:2;stroke-miterlimit:10;}
	
		.st102{fill:none;stroke:url(#SVGID_00000011014076198713553980000017509110255297516674_);stroke-width:2;stroke-linecap:round;stroke-miterlimit:10;}
	
		.st103{fill:none;stroke:url(#SVGID_00000116212334253895331890000017875107526121927812_);stroke-width:2;stroke-linecap:round;stroke-linejoin:round;stroke-miterlimit:10;}
	.st104{font-family:'Arial-BoldMT';}
	.st105{font-size:22px;}
	.st106{font-size:22.2156px;}
	.st107{font-size:15px;}
	.st108{font-size:10px;}
	
		.st109{fill:none;stroke:url(#SVGID_00000150089955547661045310000004155143668470404232_);stroke-width:2.8141;stroke-miterlimit:10;}
	
		.st110{fill:none;stroke:url(#SVGID_00000168097568683694398280000013548824007802728354_);stroke-width:2.8141;stroke-linecap:round;stroke-miterlimit:10;}
	
		.st111{fill:none;stroke:url(#SVGID_00000173132934110415627050000006375350387110647957_);stroke-width:2.8141;stroke-linecap:round;stroke-linejoin:round;stroke-miterlimit:10;}
	.st112{fill:none;stroke:#000000;stroke-width:3;stroke-miterlimit:10;}
	
		.st113{fill:none;stroke:url(#SVGID_00000104694561747825857280000001879095789468547972_);stroke-width:2.8141;stroke-linecap:round;stroke-miterlimit:10;}
	
		.st114{fill:none;stroke:url(#SVGID_00000039817754363494303930000000409205904590698925_);stroke-width:2.8141;stroke-miterlimit:10;}
	
		.st115{fill:none;stroke:url(#SVGID_00000169558783733503189890000010298570036139669161_);stroke-width:2.8141;stroke-linecap:round;stroke-miterlimit:10;}
	
		.st116{fill:none;stroke:url(#SVGID_00000129892510604508198520000016199376547693064065_);stroke-width:2.8141;stroke-linecap:round;stroke-linejoin:round;stroke-miterlimit:10;}
	
		.st117{fill:none;stroke:url(#SVGID_00000052820137915514286740000002648053270574955676_);stroke-width:2.8141;stroke-miterlimit:10;}
	
		.st118{fill:none;stroke:url(#SVGID_00000040572034888917581110000013758725813932789664_);stroke-width:2.8141;stroke-linecap:round;stroke-miterlimit:10;}
	
		.st119{fill:none;stroke:url(#SVGID_00000154411924986478117420000013261224496093068168_);stroke-width:2.8141;stroke-linecap:round;stroke-linejoin:round;stroke-miterlimit:10;}
	.st120{letter-spacing:62;}
	.st121{fill:none;stroke:url(#SVGID_00000079469375230205845950000000309904870717176194_);stroke-width:2;stroke-miterlimit:10;}
	.st122{fill:none;stroke:url(#SVGID_00000103958072395038968280000014686464844794656439_);stroke-width:2;stroke-miterlimit:10;}
	
		.st123{fill:none;stroke:url(#SVGID_00000055705291523568710110000010497216374962018462_);stroke-width:2;stroke-linecap:round;stroke-miterlimit:10;}
	
		.st124{fill:none;stroke:url(#SVGID_00000107584853245087245920000008765777546179035545_);stroke-width:2;stroke-linecap:round;stroke-linejoin:round;stroke-miterlimit:10;}
	.st125{fill:none;stroke:url(#SVGID_00000078760093048940142780000009323476310545019303_);stroke-width:2;stroke-miterlimit:10;}
	.st126{fill:none;stroke:url(#SVGID_00000081621126148670061150000006556127810005655727_);stroke-width:2;stroke-miterlimit:10;}
	
		.st127{fill:none;stroke:url(#SVGID_00000003801185967626256070000018429621040936328862_);stroke-width:2;stroke-linecap:round;stroke-miterlimit:10;}
	
		.st128{fill:none;stroke:url(#SVGID_00000106829222090671817050000015299244991777750184_);stroke-width:2;stroke-linecap:round;stroke-linejoin:round;stroke-miterlimit:10;}
	.st129{fill:none;stroke:url(#SVGID_00000017498380407073904370000009981267552792081576_);stroke-width:2;stroke-miterlimit:10;}
	.st130{fill:none;stroke:url(#SVGID_00000037674842399760478390000011520045232831215025_);stroke-width:2;stroke-miterlimit:10;}
	
		.st131{fill:none;stroke:url(#SVGID_00000160162532264213186440000014611133791607820693_);stroke-width:2;stroke-linecap:round;stroke-miterlimit:10;}
	
		.st132{fill:none;stroke:url(#SVGID_00000134957829507016668970000003841628577660586635_);stroke-width:2;stroke-linecap:round;stroke-linejoin:round;stroke-miterlimit:10;}
	.st133{fill:none;stroke:url(#SVGID_00000139254452277833468820000016953470157087045276_);stroke-width:2;stroke-miterlimit:10;}
	.st134{fill:none;stroke:url(#SVGID_00000136383541719823520960000016834683109556151946_);stroke-width:2;stroke-miterlimit:10;}
	
		.st135{fill:none;stroke:url(#SVGID_00000053513446995601691410000014849893545937881489_);stroke-width:2;stroke-linecap:round;stroke-miterlimit:10;}
	
		.st136{fill:none;stroke:url(#SVGID_00000036228981619346800870000011135753501159091374_);stroke-width:2;stroke-linecap:round;stroke-linejoin:round;stroke-miterlimit:10;}
	.st137{fill:none;stroke:url(#SVGID_00000158732990114182740810000004058845402245454522_);stroke-width:2;stroke-miterlimit:10;}
	.st138{fill:none;stroke:url(#SVGID_00000080887397067354226880000009223325040240137106_);stroke-width:2;stroke-miterlimit:10;}
	
		.st139{fill:none;stroke:url(#SVGID_00000054962116162119503950000013865217846143731088_);stroke-width:2;stroke-linecap:round;stroke-miterlimit:10;}
	
		.st140{fill:none;stroke:url(#SVGID_00000072979849255724901140000011761680805535177385_);stroke-width:2;stroke-linecap:round;stroke-miterlimit:10;}
	.st141{fill:none;stroke:url(#SVGID_00000083082804061473239540000003405115130054350733_);stroke-width:2;stroke-miterlimit:10;}
	.st142{fill:none;stroke:url(#SVGID_00000108996682414186924010000016834538546820333441_);stroke-width:2;stroke-miterlimit:10;}
	
		.st143{fill:none;stroke:url(#SVGID_00000013166836367644126790000017645993969872460947_);stroke-width:2;stroke-linecap:round;stroke-miterlimit:10;}
	
		.st144{fill:none;stroke:url(#SVGID_00000009575231842495555660000015759109472805943455_);stroke-width:2;stroke-linecap:round;stroke-linejoin:round;stroke-miterlimit:10;}
	.st145{fill:none;stroke:url(#SVGID_00000168830721870446261100000001218168168810735490_);stroke-width:2;stroke-miterlimit:10;}
	.st146{fill:none;stroke:url(#SVGID_00000133500161492107170080000011515729581837385618_);stroke-width:2;stroke-miterlimit:10;}
	
		.st147{fill:none;stroke:url(#SVGID_00000136390867675105712040000008733763925079694259_);stroke-width:2;stroke-linecap:round;stroke-miterlimit:10;}
	
		.st148{fill:none;stroke:url(#SVGID_00000182487680730230338720000013227546602449140374_);stroke-width:2;stroke-linecap:round;stroke-linejoin:round;stroke-miterlimit:10;}
	
		.st149{fill:none;stroke:url(#SVGID_00000098182516588505186890000010140233968774786970_);stroke-width:2.8141;stroke-miterlimit:10;}
	
		.st150{fill:none;stroke:url(#SVGID_00000145018808645231523300000012701347679890657950_);stroke-width:2.8141;stroke-linecap:round;stroke-miterlimit:10;}
	
		.st151{fill:none;stroke:url(#SVGID_00000000909693676481807650000017718121494865834880_);stroke-width:2.8141;stroke-linecap:round;stroke-linejoin:round;stroke-miterlimit:10;}
	
		.st152{fill:none;stroke:url(#SVGID_00000159446719578739900370000000878642902531228835_);stroke-width:2.8141;stroke-linecap:round;stroke-miterlimit:10;}
	
		.st153{fill:none;stroke:url(#SVGID_00000044869004848179506990000011943801097049111436_);stroke-width:2.8141;stroke-miterlimit:10;}
	
		.st154{fill:none;stroke:url(#SVGID_00000083787053233625112190000016960730237951775669_);stroke-width:2.8141;stroke-linecap:round;stroke-miterlimit:10;}
	
		.st155{fill:none;stroke:url(#SVGID_00000146499500890339897270000017791770283860858545_);stroke-width:2.8141;stroke-linecap:round;stroke-linejoin:round;stroke-miterlimit:10;}
	
		.st156{fill:none;stroke:url(#SVGID_00000165224453866474258700000005159340423219298440_);stroke-width:2.8141;stroke-miterlimit:10;}
	
		.st157{fill:none;stroke:url(#SVGID_00000135674672881678387930000008259086946557369265_);stroke-width:2.8141;stroke-linecap:round;stroke-miterlimit:10;}
	
		.st158{fill:none;stroke:url(#SVGID_00000117658618666032219630000010707246215486083983_);stroke-width:2.8141;stroke-linecap:round;stroke-linejoin:round;stroke-miterlimit:10;}
</style>
<pattern  x="1018.8" y="-433.3" width="47.6" height="47.6" patternUnits="userSpaceOnUse" id="New_Pattern_Swatch_6" viewBox="0 -47.6 47.6 47.6" style="overflow:visible;">
	<g>
		<rect y="-47.6" class="st0" width="47.6" height="47.6"/>
		<rect y="-47.6" class="st1" width="47.6" height="47.6"/>
	</g>
</pattern>
<g>
	<g>
		<path class="st43" d="M1000,205.2H883.2c-6.6,0-12-5.4-12-12V12c0-6.6,5.4-12,12-12H1000c6.6,0,12,5.4,12,12v181.2
			C1012,199.8,1006.6,205.2,1000,205.2z"/>
		<text transform="matrix(1 0 0 1 931.6296 34.7959)" class="st104 st105">_</text>
		<text transform="matrix(1 0 0 1 934.826 147.9277)" class="st104 st106">?</text>
	</g>
	<g>
		<path class="st43" d="M128.7,205.2H12c-6.6,0-12-5.4-12-12V12C0,5.4,5.4,0,12,0h116.8c6.6,0,12,5.4,12,12v181.2
			C140.7,199.8,135.4,205.2,128.7,205.2z"/>
		<g>
			<text transform="matrix(1 0 0 1 40.1931 75.0044)" class="st104 st107">PAM (3′)</text>
		</g>
		<g>
			<g>
				<text transform="matrix(1 0 0 1 107.5106 160.7895)" class="st104 st108">3′</text>
				<text transform="matrix(1 0 0 1 34.533 160.7895)" class="st104 st108">5′</text>
				<path class="st44" d="M104.7,157.5c-3.3,0-5.9-2.6-5.9-5.9v-15.9l2.2-7.6c0.7-2.3,0.4-4.9-1-6.9c-1.3-1.8-3.4-3-5.7-3h0
					c-2.3,0-4.3,1.2-5.7,3c-1.4,2-1.7,4.6-1,6.9l2.2,7.6v15.9c0,3.3-2.6,5.9-5.9,5.9H43.7"/>
				<g class="st2">
					<path d="M91.1,111.8c-10.2,0-18.7,7.1-20.9,16.7c-8.1,0.8-14.5,7.6-14.5,16c0,8.9,7.2,16,16,16c5.4,0,10.2-2.7,13.1-6.8
						c2,0.6,4,0.9,6.2,0.9c11.8,0,21.4-9.6,21.4-21.4S102.9,111.8,91.1,111.8z"/>
				</g>
			</g>
			<polyline class="st45" points="14.9,172 39.5,172 43.1,165 43.1,165 97.6,165 97.6,165 101.2,172 125.8,172 			"/>
			<polyline class="st46" points="125.8,177.6 101.2,177.6 97.6,184.7 97.6,184.7 43.1,184.7 43.1,184.7 39.5,177.6 14.9,177.6 			
				"/>
			<polyline class="st47" points="14.9,172 39.5,172 43.1,165 			"/>
			<polyline class="st48" points="43.1,184.7 39.5,177.6 14.9,177.6 			"/>
			<polyline class="st49" points="97.6,165 101.2,172 125.8,172 			"/>
			<polyline class="st50" points="125.8,177.6 101.2,177.6 97.6,184.7 			"/>
			<polygon class="st51" points="95.9,179.9 97.5,183 100.9,183.5 98.4,186 99,189.4 95.9,187.8 92.9,189.4 93.4,186 91,183.5 
				94.4,183 			"/>
		</g>
		<g>
			<circle cx="70.4" cy="37.5" r="17.5"/>
			<path class="st52" d="M73.2,45.9H70V33.8c-1.2,1.1-2.6,1.9-4.1,2.4v-2.9c0.8-0.3,1.7-0.8,2.7-1.6c1-0.8,1.7-1.7,2-2.7h2.6V45.9z"
				/>
		</g>
	</g>
	<path class="st43" d="M274,205.2H157.2c-6.6,0-12-5.4-12-12V12c0-6.6,5.4-12,12-12H274c6.6,0,12,5.4,12,12v181.2
		C286,199.8,280.6,205.2,274,205.2z"/>
	<g>
		<text transform="matrix(1 0 0 1 187.4799 75.0044)" class="st104 st107">PFS (3′)</text>
	</g>
	<g>
		<g>
			<text transform="matrix(1 0 0 1 179.2879 160.7895)" class="st104 st108">5′</text>
			<text transform="matrix(1 0 0 1 251.952 160.7895)" class="st104 st108">3′</text>
			<path class="st44" d="M249.4,157.5c-3.3,0-5.9-2.6-5.9-5.9v-15.9l2.2-7.6c0.7-2.3,0.4-4.9-1-6.9c-1.3-1.8-3.4-3-5.7-3h0
				c-2.3,0-4.3,1.2-5.7,3c-1.4,2-1.7,4.6-1,6.9l2.2,7.6v15.9c0,3.3-2.6,5.9-5.9,5.9h-40.3"/>
			<g class="st2">
				<path d="M235.8,111.8c-10.2,0-18.7,7.1-20.9,16.7c-8.1,0.8-14.5,7.6-14.5,16c0,8.9,7.2,16,16,16c5.4,0,10.2-2.7,13.1-6.8
					c2,0.6,4,0.9,6.2,0.9c11.8,0,21.4-9.6,21.4-21.4S247.6,111.8,235.8,111.8z"/>
			</g>
		</g>
		<pattern  id="SVGID_1_" xlink:href="#New_Pattern_Swatch_6" patternTransform="matrix(1 0 0 1 -68.1865 60)">
		</pattern>
		<polyline style="fill:none;stroke:url(#SVGID_1_);stroke-width:2.8141;stroke-miterlimit:10;" points="160.1,172 184.7,172 
			188.3,165 188.3,165 242.8,165 242.8,165 246.4,172 271,172 		"/>
		
			<pattern  id="SVGID_00000014595808632818649270000006210373831599378050_" xlink:href="#New_Pattern_Swatch_6" patternTransform="matrix(1 0 0 1 -68.1865 60)">
		</pattern>
		
			<polyline style="fill:none;stroke:url(#SVGID_00000014595808632818649270000006210373831599378050_);stroke-width:2.8141;stroke-linecap:round;stroke-miterlimit:10;" points="
			160.1,172 184.7,172 188.3,165 		"/>
		
			<pattern  id="SVGID_00000166667182349041975020000004576452402966502310_" xlink:href="#New_Pattern_Swatch_6" patternTransform="matrix(1 0 0 1 -68.1865 60)">
		</pattern>
		
			<polyline style="fill:none;stroke:url(#SVGID_00000166667182349041975020000004576452402966502310_);stroke-width:2.8141;stroke-linecap:round;stroke-linejoin:round;stroke-miterlimit:10;" points="
			242.8,165 246.4,172 271,172 		"/>
		<line class="st112" x1="235.3" y1="160.7" x2="243.3" y2="168.7"/>
		<line class="st112" x1="243.3" y1="160.7" x2="235.3" y2="168.7"/>
	</g>
	<g>
		<circle cx="215.6" cy="37.5" r="17.5"/>
		<path class="st52" d="M221.2,42.9v3H210c0.1-1.1,0.5-2.2,1.1-3.2c0.6-1,1.8-2.3,3.6-4c1.4-1.3,2.3-2.3,2.7-2.7
			c0.4-0.7,0.7-1.3,0.7-2c0-0.7-0.2-1.3-0.6-1.6c-0.4-0.4-0.9-0.6-1.6-0.6c-0.7,0-1.2,0.2-1.6,0.6c-0.4,0.4-0.6,1.1-0.7,2l-3.2-0.3
			c0.2-1.8,0.8-3,1.8-3.8c1-0.8,2.3-1.2,3.8-1.2c1.7,0,2.9,0.4,3.9,1.3c0.9,0.9,1.4,2,1.4,3.3c0,0.8-0.1,1.5-0.4,2.2
			c-0.3,0.7-0.7,1.4-1.3,2.1c-0.4,0.5-1.1,1.2-2.1,2.1c-1,0.9-1.7,1.5-1.9,1.8c-0.3,0.3-0.5,0.6-0.7,0.9H221.2z"/>
	</g>
	<path class="st43" d="M419.2,205.2H302.4c-6.6,0-12-5.4-12-12V12c0-6.6,5.4-12,12-12h116.8c6.6,0,12,5.4,12,12v181.2
		C431.2,199.8,425.8,205.2,419.2,205.2z"/>
	<g>
		<text transform="matrix(1 0 0 1 297.691 75.0044)" class="st104 st107">No Constraint (3′)</text>
	</g>
	<g>
		<g>
			<g>
				<text transform="matrix(1 0 0 1 328.0855 160.7895)" class="st104 st108">5′</text>
			</g>
			<g>
				<text transform="matrix(1 0 0 1 400.9241 160.7895)" class="st104 st108">3′</text>
			</g>
			<path class="st44" d="M398.4,157.5c-3.3,0-5.9-2.6-5.9-5.9v-15.9l2.2-7.6c0.7-2.3,0.4-4.9-1-6.9c-1.3-1.8-3.4-3-5.7-3h0
				c-2.3,0-4.3,1.2-5.7,3c-1.4,2-1.7,4.6-1,6.9l2.2,7.6v15.9c0,3.3-2.6,5.9-5.9,5.9h-40.3"/>
			<g class="st2">
				<path d="M384.8,111.8c-10.2,0-18.7,7.1-20.9,16.7c-8.1,0.8-14.5,7.6-14.5,16c0,8.9,7.2,16,16,16c5.4,0,10.2-2.7,13.1-6.8
					c2,0.6,4,0.9,6.2,0.9c11.8,0,21.4-9.6,21.4-21.4S396.6,111.8,384.8,111.8z"/>
			</g>
		</g>
		
			<pattern  id="SVGID_00000004510452015264314930000001350455968437828785_" xlink:href="#New_Pattern_Swatch_6" patternTransform="matrix(1 0 0 1 -126.4877 60)">
		</pattern>
		
			<polyline style="fill:none;stroke:url(#SVGID_00000004510452015264314930000001350455968437828785_);stroke-width:2.8141;stroke-linecap:round;stroke-miterlimit:10;" points="
			305.4,172 329.9,172 333.5,165 333.5,165 388,165 388,165 391.6,172 416.2,172 		"/>
	</g>
	<g>
		<circle cx="360.8" cy="37.5" r="17.5"/>
		<path class="st52" d="M355.2,41.3l3.1-0.4c0.1,0.8,0.4,1.4,0.8,1.8c0.4,0.4,1,0.6,1.6,0.6c0.7,0,1.2-0.3,1.7-0.8
			c0.5-0.5,0.7-1.2,0.7-2c0-0.8-0.2-1.4-0.7-1.9c-0.4-0.5-1-0.7-1.6-0.7c-0.4,0-0.9,0.1-1.5,0.2l0.4-2.6c0.9,0,1.5-0.2,2-0.6
			c0.5-0.4,0.7-0.9,0.7-1.6c0-0.6-0.2-1-0.5-1.3c-0.3-0.3-0.8-0.5-1.3-0.5c-0.5,0-1,0.2-1.4,0.6c-0.4,0.4-0.6,0.9-0.7,1.7l-3-0.5
			c0.2-1,0.5-1.8,0.9-2.4c0.4-0.6,1-1.1,1.7-1.4c0.7-0.3,1.6-0.5,2.5-0.5c1.6,0,2.8,0.5,3.8,1.5c0.8,0.8,1.2,1.7,1.2,2.8
			c0,1.5-0.8,2.6-2.4,3.5c1,0.2,1.7,0.7,2.3,1.4c0.6,0.7,0.9,1.6,0.9,2.6c0,1.5-0.5,2.7-1.6,3.8c-1.1,1-2.4,1.6-4,1.6
			c-1.5,0-2.8-0.4-3.8-1.3C356,43.9,355.4,42.7,355.2,41.3z"/>
	</g>
	<path class="st43" d="M564.4,205.2H447.6c-6.6,0-12-5.4-12-12V12c0-6.6,5.4-12,12-12h116.8c6.6,0,12,5.4,12,12v181.2
		C576.4,199.8,571,205.2,564.4,205.2z"/>
	<g>
		<text transform="matrix(1 0 0 1 475.8123 75.0053)" class="st104 st107">PAM (5′)</text>
	</g>
	<g>
		<g>
			<g>
				<text transform="matrix(1 0 0 1 458.859 160.789)" class="st104 st108">5′</text>
			</g>
			<g>
				<text transform="matrix(1 0 0 1 531.5241 160.789)" class="st104 st108">3′</text>
			</g>
			<path class="st44" d="M468.3,157.5c3.3,0,5.9-2.6,5.9-5.9v-15.9L472,128c-0.7-2.3-0.4-4.9,1-6.9c1.3-1.8,3.4-3,5.7-3h0
				c2.3,0,4.3,1.2,5.7,3c1.4,2,1.7,4.6,1,6.9l-2.2,7.6v15.9c0,3.3,2.6,5.9,5.9,5.9h40.3"/>
			<g class="st2">
				<path d="M481.9,111.8c10.2,0,18.7,7.1,20.9,16.7c8.1,0.8,14.5,7.6,14.5,16c0,8.9-7.2,16-16,16c-5.4,0-10.2-2.7-13.1-6.8
					c-2,0.6-4,0.9-6.2,0.9c-11.8,0-21.4-9.6-21.4-21.4S470.1,111.8,481.9,111.8z"/>
			</g>
		</g>
		<g>
			<polyline class="st45" points="450.6,172.2 475.1,172.2 478.7,165.1 478.7,165.1 533.2,165.1 533.2,165.1 536.8,172.2 
				561.4,172.2 			"/>
			<polyline class="st46" points="561.4,177.8 536.8,177.8 533.2,184.8 533.2,184.8 478.7,184.8 478.7,184.8 475.1,177.8 
				450.6,177.8 			"/>
			<polyline class="st47" points="450.6,172.2 475.1,172.2 478.7,165.1 			"/>
			<polyline class="st48" points="478.7,184.8 475.1,177.8 450.6,177.8 			"/>
			<polyline class="st49" points="533.2,165.1 536.8,172.2 561.4,172.2 			"/>
			<polyline class="st50" points="561.4,177.8 536.8,177.8 533.2,184.8 			"/>
		</g>
		<polygon class="st51" points="480.4,179.9 478.9,183 475.5,183.5 478,186 477.4,189.4 480.4,187.8 483.5,189.4 482.9,186 
			485.4,183.5 482,183 		"/>
	</g>
	<g>
		<circle cx="506" cy="37.5" r="17.5"/>
		<path class="st52" d="M506.8,45.9v-3.4H500v-2.8l7.3-10.6h2.7v10.6h2.1v2.8h-2.1v3.4H506.8z M506.8,39.7V34l-3.8,5.7H506.8z"/>
	</g>
	<path class="st43" d="M709.6,205.2H592.8c-6.6,0-12-5.4-12-12V12c0-6.6,5.4-12,12-12h116.8c6.6,0,12,5.4,12,12v181.2
		C721.6,199.8,716.2,205.2,709.6,205.2z"/>
	<text transform="matrix(1 0 0 1 623.564 75.0044)" class="st104 st107">PFS (5′)</text>
	<g>
		<g>
			<g>
				<g>
					<text transform="matrix(1 0 0 1 604.102 160.7898)" class="st104 st108">5′</text>
				</g>
				<g>
					<text transform="matrix(1 0 0 1 677.7651 160.7898)" class="st104 st108">3′</text>
				</g>
				<path class="st44" d="M614.1,157.5c3.3,0,5.9-2.6,5.9-5.9v-15.9l-2.2-7.6c-0.7-2.3-0.4-4.9,1-6.9c1.3-1.8,3.4-3,5.7-3l0,0
					c2.3,0,4.3,1.2,5.7,3c1.4,2,1.7,4.6,1,6.9l-2.2,7.6v15.9c0,3.3,2.6,5.9,5.9,5.9h40.3"/>
				<g class="st2">
					<path d="M627.7,111.8c10.2,0,18.7,7.1,20.9,16.7c8.1,0.8,14.5,7.6,14.5,16c0,8.9-7.2,16-16,16c-5.4,0-10.2-2.7-13.1-6.8
						c-2,0.6-4,0.9-6.2,0.9c-11.8,0-21.4-9.6-21.4-21.4S615.9,111.8,627.7,111.8z"/>
				</g>
			</g>
			
				<pattern  id="SVGID_00000142157789133042863740000013027853257210176137_" xlink:href="#New_Pattern_Swatch_6" patternTransform="matrix(1 0 0 1 -160.5326 57.0718)">
			</pattern>
			
				<polyline style="fill:none;stroke:url(#SVGID_00000142157789133042863740000013027853257210176137_);stroke-width:2.8141;stroke-miterlimit:10;" points="
				595.8,171.9 620.3,171.9 623.9,164.9 623.9,164.9 678.5,164.9 678.5,164.9 682.1,171.9 706.6,171.9 			"/>
			
				<pattern  id="SVGID_00000065771236614006323050000007279250925099854501_" xlink:href="#New_Pattern_Swatch_6" patternTransform="matrix(1 0 0 1 -160.5326 57.0718)">
			</pattern>
			
				<polyline style="fill:none;stroke:url(#SVGID_00000065771236614006323050000007279250925099854501_);stroke-width:2.8141;stroke-linecap:round;stroke-miterlimit:10;" points="
				595.8,171.9 620.3,171.9 623.9,164.9 			"/>
			
				<pattern  id="SVGID_00000168095758882450685380000010644439907106741916_" xlink:href="#New_Pattern_Swatch_6" patternTransform="matrix(1 0 0 1 -160.5326 57.0718)">
			</pattern>
			
				<polyline style="fill:none;stroke:url(#SVGID_00000168095758882450685380000010644439907106741916_);stroke-width:2.8141;stroke-linecap:round;stroke-linejoin:round;stroke-miterlimit:10;" points="
				678.5,164.9 682.1,171.9 706.6,171.9 			"/>
		</g>
	</g>
	<g>
		<circle cx="651.2" cy="37.5" r="17.5"/>
		<path class="st52" d="M645.6,41.3l3.2-0.3c0.1,0.7,0.4,1.3,0.8,1.7c0.4,0.4,1,0.6,1.6,0.6c0.7,0,1.2-0.3,1.7-0.8
			c0.5-0.5,0.7-1.4,0.7-2.5c0-1-0.2-1.8-0.7-2.3c-0.5-0.5-1.1-0.8-1.8-0.8c-0.9,0-1.7,0.4-2.5,1.2l-2.6-0.4l1.6-8.7h8.5v3h-6
			l-0.5,2.8c0.7-0.4,1.4-0.5,2.2-0.5c1.4,0,2.6,0.5,3.6,1.6c1,1,1.5,2.4,1.5,4c0,1.4-0.4,2.6-1.2,3.7c-1.1,1.5-2.6,2.2-4.5,2.2
			c-1.5,0-2.8-0.4-3.8-1.2C646.3,43.8,645.8,42.7,645.6,41.3z"/>
	</g>
	<path class="st43" d="M854.8,205.2H738c-6.6,0-12-5.4-12-12V12c0-6.6,5.4-12,12-12h116.8c6.6,0,12,5.4,12,12v181.2
		C866.8,199.8,861.4,205.2,854.8,205.2z"/>
	<text transform="matrix(1 0 0 1 733.7755 75.0043)" class="st104 st107">No Constraint (5′)</text>
	<g>
		<g>
			<g>
				<text transform="matrix(1 0 0 1 750.3085 159.1745)" class="st104 st108">5′</text>
			</g>
			<g>
				<text transform="matrix(1 0 0 1 821.9716 159.1745)" class="st104 st108">3′</text>
			</g>
			<path class="st44" d="M759.3,157.5c3.3,0,5.9-2.6,5.9-5.9v-15.9L763,128c-0.7-2.3-0.4-4.9,1-6.9c1.3-1.8,3.4-3,5.7-3l0,0
				c2.3,0,4.3,1.2,5.7,3c1.4,2,1.7,4.6,1,6.9l-2.2,7.6v15.9c0,3.3,2.6,5.9,5.9,5.9h40.3"/>
			<g class="st2">
				<path d="M772.9,111.8c10.2,0,18.7,7.1,20.9,16.7c8.1,0.8,14.5,7.6,14.5,16c0,8.9-7.2,16-16,16c-5.4,0-10.2-2.7-13.1-6.8
					c-2,0.6-4,0.9-6.2,0.9c-11.8,0-21.4-9.6-21.4-21.4S761.1,111.8,772.9,111.8z"/>
			</g>
		</g>
		
			<pattern  id="SVGID_00000181074472417354572180000002246625804252279975_" xlink:href="#New_Pattern_Swatch_6" patternTransform="matrix(1 0 0 1 -158.1056 57.0718)">
		</pattern>
		
			<polyline style="fill:none;stroke:url(#SVGID_00000181074472417354572180000002246625804252279975_);stroke-width:2.8141;stroke-miterlimit:10;" points="
			741,171.9 765.5,171.9 769.1,164.9 769.1,164.9 823.7,164.9 823.7,164.9 827.3,171.9 851.8,171.9 		"/>
		
			<pattern  id="SVGID_00000101072376912963897750000011466119577642795942_" xlink:href="#New_Pattern_Swatch_6" patternTransform="matrix(1 0 0 1 -158.1056 57.0718)">
		</pattern>
		
			<polyline style="fill:none;stroke:url(#SVGID_00000101072376912963897750000011466119577642795942_);stroke-width:2.8141;stroke-linecap:round;stroke-miterlimit:10;" points="
			741,171.9 765.5,171.9 769.1,164.9 		"/>
		
			<pattern  id="SVGID_00000080913728224821583510000006347563855653350550_" xlink:href="#New_Pattern_Swatch_6" patternTransform="matrix(1 0 0 1 -158.1056 57.0718)">
		</pattern>
		
			<polyline style="fill:none;stroke:url(#SVGID_00000080913728224821583510000006347563855653350550_);stroke-width:2.8141;stroke-linecap:round;stroke-linejoin:round;stroke-miterlimit:10;" points="
			823.7,164.9 827.3,171.9 851.8,171.9 		"/>
	</g>
	<g>
		<circle cx="796.4" cy="37.5" r="17.5"/>
		<path class="st52" d="M801.7,33.1l-3.1,0.3c-0.1-0.6-0.3-1.1-0.6-1.4c-0.3-0.3-0.7-0.5-1.2-0.5c-0.7,0-1.2,0.3-1.7,0.9
			c-0.5,0.6-0.8,1.9-0.9,3.8c0.8-0.9,1.8-1.4,3-1.4c1.3,0,2.5,0.5,3.4,1.5c1,1,1.4,2.3,1.4,3.9c0,1.7-0.5,3.1-1.5,4.1
			c-1,1-2.3,1.6-3.9,1.6c-1.7,0-3.1-0.7-4.2-2c-1.1-1.3-1.6-3.5-1.6-6.5c0-3.1,0.6-5.3,1.7-6.6c1.1-1.4,2.6-2,4.4-2
			c1.3,0,2.3,0.4,3.2,1.1C800.9,30.7,801.5,31.8,801.7,33.1z M794.4,40.1c0,1,0.2,1.8,0.7,2.4c0.5,0.6,1,0.8,1.6,0.8
			c0.6,0,1.1-0.2,1.5-0.7s0.6-1.2,0.6-2.3c0-1.1-0.2-1.9-0.6-2.4c-0.4-0.5-1-0.8-1.6-0.8c-0.6,0-1.1,0.2-1.6,0.7
			C794.6,38.5,794.4,39.2,794.4,40.1z"/>
	</g>
	<g>
		<line class="st112" x1="631.4" y1="160.7" x2="623.5" y2="168.7"/>
		<line class="st112" x1="623.5" y1="160.7" x2="631.4" y2="168.7"/>
	</g>
	<g>
		<text transform="matrix(1 0 0 1 235.4654 226.2699)"><tspan x="0" y="0" class="st104 st107">= PAM (protospacer adjacent motif)</tspan><tspan x="253" y="0" class="st104 st107 st120">	</tspan><tspan x="319.9" y="0" class="st104 st107">= PFS (protospacer flanking site)</tspan></text>
		<polygon class="st51" points="223.1,215.3 224.6,218.4 228.1,218.9 225.6,221.4 226.2,224.8 223.1,223.2 220,224.8 220.6,221.4 
			218.1,218.9 221.6,218.4 		"/>
		<g>
			<line class="st112" x1="540.3" y1="216.8" x2="548.3" y2="224.8"/>
			<g>
				<line class="st112" x1="548.3" y1="217.1" x2="540.3" y2="225.1"/>
			</g>
		</g>
	</g>
</g>
</svg>
